<svg id="圖層_1" data-name="圖層 1" xmlns="http://www.w3.org/2000/svg" viewBox="0 0 17.02 16.43"><defs><style>.cls-1{fill:#7c8080;}</style></defs><title>dislike</title><path class="cls-1" d="M954.2,963.41h3.61V966a2.81,2.81,0,0,0,1,2.42,3.09,3.09,0,0,0,2.5.31.46.46,0,0,0,.32-.44v-3c0-2.3,2.67-3.09,2.79-3.12a.36.36,0,0,0,.15-.08.9.9,0,0,0,.67.3h2.7a.9.9,0,0,0,.9-.91V953.6a.9.9,0,0,0-.9-.9h-2.7a.91.91,0,0,0-.74.39,2.39,2.39,0,0,0-1.64-.65h-7.23a2.57,2.57,0,0,0-2.84,2.33l-1,6.18a.33.33,0,0,0,0,.07A2.39,2.39,0,0,0,954.2,963.41Zm-.51-8.5h0c.12-1,.77-1.53,1.93-1.53h7.23a1.48,1.48,0,0,1,1.48,1.48v6.49h-.17c-.14,0-3.46,1-3.46,4v2.59a1.87,1.87,0,0,1-1.36-.24,2,2,0,0,1-.61-1.67V963a.46.46,0,0,0-.46-.46H954.2a1.48,1.48,0,0,1-1.48-1.44Z" transform="translate(-951.81 -952.44)"/></svg>