<?xml version="1.0" encoding="UTF-8"?>
<svg width="12px" height="7px" viewBox="0 0 12 7" version="1.1" xmlns="http://www.w3.org/2000/svg" xmlns:xlink="http://www.w3.org/1999/xlink">
    <!-- Generator: Sketch 46.2 (44496) - http://www.bohemiancoding.com/sketch -->
    <title>icon_Arrow-down@1x</title>
    <desc>Created with Sketch.</desc>
    <defs></defs>
    <g id="Symbols" stroke="none" stroke-width="1" fill="none" fill-rule="evenodd">
        <g id="icon_Arrow-down" fill="#fff">
            <path d="M0,0.425414365 C0,0.373848729 0.0098715696,0.320135331 0.0296150049,0.26427256 C0.0493584403,0.208409788 0.0789731491,0.158993462 0.11846002,0.116022099 C0.197433761,0.0386736464 0.292200829,0 0.402764067,0 C0.513327305,0 0.608094373,0.0386736464 0.687068115,0.116022099 L6.04146101,5.94290976 L11.3129319,0.20626151 C11.3919056,0.120318785 11.4866727,0.0773480663 11.5972359,0.0773480663 C11.7077992,0.0773480663 11.8025662,0.120318785 11.88154,0.20626151 C11.9605137,0.292204236 12,0.395333959 12,0.515653775 C12,0.635973591 11.9605137,0.739103315 11.88154,0.825046041 L6.32576505,6.87108656 C6.24679131,6.95702928 6.15202424,7 6.04146101,7 C5.93089777,7 5.8361307,6.95702928 5.75715696,6.87108656 L0.11846002,0.747697974 C0.0789731491,0.704726611 0.0493584403,0.655310285 0.0296150049,0.599447514 C0.0098715696,0.543584742 0,0.485574273 0,0.425414365 Z" id="Arrow-down---simple-line-icons"></path>
        </g>
    </g>
</svg>