<?xml version="1.0" encoding="utf-8"?>
<!-- Generator: Adobe Illustrator 16.0.0, SVG Export Plug-In . SVG Version: 6.00 Build 0)  -->
<!DOCTYPE svg PUBLIC "-//W3C//DTD SVG 1.1//EN" "http://www.w3.org/Graphics/SVG/1.1/DTD/svg11.dtd">
<svg version="1.1" id="Layer_1" xmlns="http://www.w3.org/2000/svg" xmlns:xlink="http://www.w3.org/1999/xlink" x="0px" y="0px"
	 width="32px" height="32px" viewBox="0 0 32 32" enable-background="new 0 0 32 32" xml:space="preserve">
<path fill="#648E4C" d="M14.665,21.405c-0.289-0.089-0.522,0.224-0.648,0.77c-0.153-0.948-0.521-1.727-0.917-1.848
	c-0.235-0.072-0.435,0.103-0.569,0.441c-0.166-0.81-0.51-1.458-0.879-1.571c-0.147-0.046-0.279,0.008-0.392,0.126
	c-0.185-0.634-0.478-1.115-0.791-1.211c-0.291-0.089-0.528,0.174-0.655,0.646c-0.225-1.049-0.749-1.945-1.201-2.027
	c-0.223-0.041-0.386,0.13-0.474,0.434c-0.004-0.011-0.007-0.021-0.01-0.033c-0.38-1.121-1.053-2.039-1.503-2.05
	c-0.204-0.006-0.323,0.183-0.361,0.488c-0.389-1.025-1.004-1.835-1.426-1.847c-0.249-0.007-0.372,0.27-0.373,0.703
	c-1.01-0.727-1.889-1.123-2.025-0.887c-0.148,0.254,0.641,1.157,1.763,2.015c0.126,0.096,0.25,0.186,0.373,0.272
	c-0.997-0.244-1.747-0.137-1.721,0.273c0.027,0.421,0.86,1.005,1.898,1.356c-0.304,0.048-0.488,0.174-0.475,0.378
	c0.029,0.449,0.971,1.087,2.106,1.426c0.011,0.003,0.022,0.005,0.033,0.009C6.116,19.369,5.952,19.537,6,19.759
	c0.099,0.449,1.013,0.938,2.07,1.124c-0.466,0.146-0.721,0.392-0.621,0.679c0.103,0.295,0.553,0.561,1.154,0.724
	C8.51,22.399,8.473,22.524,8.52,22.66c0.134,0.383,0.847,0.715,1.715,0.843c-0.368,0.148-0.559,0.363-0.474,0.606
	c0.136,0.393,0.931,0.732,1.889,0.849c-0.506,0.146-0.79,0.38-0.694,0.655c0.165,0.471,1.358,0.872,2.668,0.896
	c1.309,0.024,2.238-0.339,2.075-0.81c-0.024-0.069-0.075-0.134-0.138-0.198c0.097-0.374,0.143-0.865,0.111-1.431
	C15.599,22.747,15.148,21.553,14.665,21.405z M6.802,17.818c-0.103-0.042-0.208-0.079-0.315-0.116
	c0.088-0.015,0.166-0.036,0.231-0.065C6.746,17.699,6.773,17.759,6.802,17.818z M8.32,19.247c0.008,0.026,0.016,0.056,0.025,0.082
	c-0.028-0.007-0.054-0.016-0.083-0.022C8.285,19.288,8.303,19.267,8.32,19.247z M9.839,20.742c0.004,0.021,0.011,0.041,0.016,0.062
	c-0.029-0.004-0.058-0.009-0.088-0.013C9.795,20.776,9.815,20.758,9.839,20.742z M12.492,23.192
	c0.015,0.065,0.031,0.128,0.048,0.189c-0.096-0.016-0.195-0.028-0.294-0.04C12.344,23.297,12.425,23.247,12.492,23.192z
	 M13.546,24.833c0.232-0.078,0.41-0.179,0.508-0.296c0.027,0.132,0.057,0.262,0.092,0.385
	C13.955,24.884,13.755,24.853,13.546,24.833z"/>
<path fill="#648E4C" d="M20.255,27.216c0.172-0.183,0.022-0.433-0.341-0.669c0.767,0.146,1.485,0.093,1.722-0.156
	c0.14-0.149,0.082-0.338-0.122-0.526c0.667,0.101,1.279,0.029,1.499-0.203c0.088-0.094,0.096-0.203,0.048-0.313
	c0.544,0.039,1.012-0.042,1.199-0.239c0.172-0.183,0.061-0.423-0.246-0.641c0.87,0.121,1.732-0.01,1.959-0.311
	c0.112-0.147,0.043-0.309-0.152-0.454c0.009,0,0.019,0,0.028,0.001c0.979,0.03,1.914-0.203,2.088-0.52
	c0.078-0.144-0.02-0.279-0.235-0.389c0.911-0.002,1.745-0.223,1.906-0.52c0.096-0.175-0.065-0.337-0.391-0.456
	c0.915-0.524,1.532-1.043,1.406-1.204c-0.138-0.174-1.103,0.145-2.156,0.715c-0.118,0.064-0.231,0.128-0.341,0.192
	c0.547-0.645,0.742-1.208,0.424-1.299c-0.326-0.094-1.068,0.342-1.711,0.988c0.074-0.23,0.047-0.395-0.111-0.44
	c-0.348-0.1-1.171,0.4-1.839,1.119c-0.007,0.006-0.013,0.014-0.02,0.021c0.036-0.241-0.031-0.404-0.217-0.428
	c-0.371-0.05-1.073,0.47-1.599,1.173c0.061-0.372-0.031-0.619-0.282-0.625c-0.26-0.007-0.625,0.243-0.966,0.628
	c-0.049-0.099-0.131-0.159-0.25-0.161c-0.335-0.008-0.847,0.411-1.258,0.996c0.023-0.302-0.068-0.495-0.282-0.5
	c-0.344-0.01-0.889,0.466-1.327,1.118c0.076-0.4,0.002-0.666-0.238-0.671c-0.413-0.01-1.15,0.733-1.646,1.661
	c-0.496,0.927-0.563,1.687-0.151,1.697c0.061,0,0.129-0.018,0.2-0.046c0.245,0.169,0.597,0.335,1.033,0.464
	C18.907,27.521,19.967,27.52,20.255,27.216z M25.819,22.575c0.068-0.062,0.134-0.127,0.201-0.195
	c-0.021,0.068-0.034,0.13-0.036,0.184C25.928,22.567,25.874,22.57,25.819,22.575z M24.193,23.273
	c-0.024-0.001-0.049-0.003-0.071-0.004c0.015-0.018,0.031-0.035,0.046-0.052C24.174,23.237,24.183,23.255,24.193,23.273z
	 M22.517,23.954c-0.019-0.002-0.037-0.003-0.054-0.004c0.014-0.02,0.028-0.039,0.042-0.059
	C22.504,23.914,22.512,23.933,22.517,23.954z M19.708,25.187c-0.054-0.007-0.107-0.013-0.16-0.017
	c0.048-0.064,0.092-0.131,0.138-0.199C19.683,25.052,19.69,25.125,19.708,25.187z M18.091,25.497
	c-0.026,0.187-0.016,0.34,0.038,0.442c-0.11-0.016-0.218-0.03-0.323-0.038C17.904,25.774,18,25.641,18.091,25.497z"/>
<path fill="#648E4C" d="M16.56,8.91c0,0-0.429,7.873-3.137,8.186C13.423,17.096,15.443,14.612,16.56,8.91z"/>
<path fill="#648E4C" d="M14.909,14.562c0,0,0.664,14.9,3.031,16.444C17.939,31.005,16.091,25.641,14.909,14.562z"/>
<ellipse transform="matrix(0.9908 -0.1353 0.1353 0.9908 -1.6893 2.1952)" fill="#EACE00" cx="15.309" cy="13.529" rx="1.633" ry="1.591"/>
<ellipse transform="matrix(0.9816 -0.1908 0.1908 0.9816 -2.8004 2.8729)" fill="#F9ED22" cx="13.519" cy="15.979" rx="2.129" ry="2.073"/>
<ellipse transform="matrix(0.9674 -0.2533 0.2533 0.9674 -4.114 5.0071)" fill="#F7DD00" cx="17.387" cy="18.479" rx="1.634" ry="1.591"/>
<ellipse transform="matrix(0.9674 -0.2532 0.2532 0.9674 -5.773 5.0127)" fill="#F7DD00" cx="16.589" cy="24.936" rx="1.815" ry="1.767"/>
<ellipse transform="matrix(0.9674 -0.2532 0.2532 0.9674 -5.36 5.7522)" fill="#F9ED22" cx="19.67" cy="23.702" rx="2.156" ry="2.101"/>
<ellipse transform="matrix(0.9675 -0.253 0.253 0.9675 -4.9338 4.2767)" fill="#F9ED22" cx="14.159" cy="21.319" rx="2.106" ry="2.051"/>
<ellipse transform="matrix(0.9908 -0.1352 0.1352 0.9908 -1.3812 1.7826)" fill="#F7DD00" cx="12.433" cy="11.059" rx="1.349" ry="1.314"/>
<ellipse transform="matrix(0.9908 -0.1354 0.1354 0.9908 -0.8002 2.1661)" fill="#F7DD00" cx="15.528" cy="6.967" rx="1.349" ry="1.314"/>
<path fill="#648E4C" d="M17.607,2.539c0,0,0.185,5.581-1.229,6.115C16.377,8.653,17.315,6.675,17.607,2.539z"/>
<path fill="#648E4C" d="M19.562,6.505c0,0-2.743,3.369-4.029,2.668C15.532,9.173,17.222,8.695,19.562,6.505z"/>
<ellipse transform="matrix(0.9908 -0.1353 0.1353 0.9908 -0.2788 2.3836)" fill="#EACE00" cx="17.397" cy="3.243" rx="1.826" ry="1.778"/>
<ellipse transform="matrix(0.9908 -0.1354 0.1354 0.9908 -1.1119 2.3495)" fill="#F9ED22" cx="16.718" cy="9.35" rx="1.746" ry="1.7"/>
<ellipse transform="matrix(0.9908 -0.1353 0.1353 0.9908 -0.6096 2.8109)" fill="#F9ED22" cx="20.375" cy="5.891" rx="1.642" ry="1.599"/>
</svg>
