<?xml version="1.0" encoding="utf-8"?>
<!-- Generator: Adobe Illustrator 16.0.0, SVG Export Plug-In . SVG Version: 6.00 Build 0)  -->
<!DOCTYPE svg PUBLIC "-//W3C//DTD SVG 1.1//EN" "http://www.w3.org/Graphics/SVG/1.1/DTD/svg11.dtd">
<svg version="1.1" id="Layer_1" xmlns="http://www.w3.org/2000/svg" xmlns:xlink="http://www.w3.org/1999/xlink" x="0px" y="0px"
	 width="32px" height="32px" viewBox="0 0 32 32" enable-background="new 0 0 32 32" xml:space="preserve">
<g>
	<g>
		<path fill="#874525" d="M16.016,15.891c5.285-7.47-2.811-14.085-2.811-14.085l0.582,2.938l-0.587-2.938
			c0,0-4.946,9.211,2.796,14.089l0.004,0.021c0.003-0.004,0.005-0.008,0.008-0.013c0.004,0.003,0.008,0.006,0.012,0.009
			L16.016,15.891z"/>
		<path fill="#E5A980" d="M15.871,15.163c4.736-6.697-2.52-12.627-2.52-12.627l0.521,2.635l-0.526-2.634
			c0,0-4.437,8.257,2.505,12.63l0.003,0.02c0.003-0.004,0.005-0.008,0.007-0.012c0.005,0.002,0.008,0.006,0.012,0.008L15.871,15.163
			z"/>
		<path fill="#3A2416" d="M15.818,14.93c4.234-6.077-2.29-11.483-2.29-11.483l0.475,2.396l-0.478-2.396
			c0,0-3.959,7.495,2.276,11.486l0.003,0.017c0.003-0.003,0.006-0.007,0.006-0.01c0.005,0.001,0.008,0.005,0.011,0.007L15.818,14.93
			z"/>
		<path fill="#844736" d="M16.322,8.869c0.466,2.345,0.108,4.392-0.804,4.572c-0.906,0.179-2.018-1.574-2.485-3.918
			c-0.467-2.345-0.106-4.392,0.804-4.571C14.743,4.771,15.857,6.525,16.322,8.869z"/>
	</g>
	
		<ellipse transform="matrix(0.9808 -0.195 0.195 0.9808 -1.4214 3.1092)" fill="#B26756" cx="15.078" cy="8.773" rx="1.045" ry="2.698"/>
</g>
<g>
	<g>
		<path fill="#874525" d="M16.91,15.536c9.066,1.259,11.217-8.971,11.217-8.971l-2.342,1.867l2.337-1.872
			c0,0-10.452-0.158-11.224,8.961l-0.018,0.014c0.004,0,0.009,0,0.015,0c-0.001,0.005-0.001,0.011-0.002,0.015L16.91,15.536z"/>
		<path fill="#E5A980" d="M17.49,15.072c8.125,1.127,10.053-8.045,10.053-8.045l-2.097,1.676l2.095-1.68
			c0,0-9.37-0.141-10.064,8.033l-0.015,0.011c0.005,0.002,0.01,0.002,0.014,0.001c0.001,0.004-0.001,0.01-0.001,0.016L17.49,15.072z
			"/>
		<path fill="#3A2416" d="M17.673,14.919c7.345,0.966,9.145-7.314,9.145-7.314l-1.91,1.523l1.91-1.524c0,0-8.478-0.069-9.156,7.301
			l-0.014,0.012c0.006,0.002,0.009,0.001,0.013,0.001c0.001,0.006,0,0.009,0,0.012L17.673,14.919z"/>
		<path fill="#844736" d="M23.287,12.579c-1.867,1.493-3.85,2.115-4.43,1.386c-0.575-0.721,0.471-2.515,2.337-4.007
			c1.865-1.493,3.851-2.115,4.429-1.388C26.201,9.292,25.155,11.089,23.287,12.579z"/>
	</g>
	<path fill="#B26756" d="M23.454,12.247c-1.168,0.93-2.4,1.319-2.763,0.866c-0.358-0.451,0.293-1.57,1.457-2.5
		c1.163-0.933,2.401-1.318,2.763-0.864C25.269,10.198,24.617,11.317,23.454,12.247z"/>
</g>
<g>
	<g>
		<path fill="#874525" d="M14.963,15.959C6.782,20.06,1.46,11.062,1.46,11.062l2.817,1.018l-2.815-1.024
			c0,0,9.85-3.504,13.507,4.885l0.02,0.008c-0.002,0-0.009,0.004-0.013,0.004c0.001,0.005,0.003,0.01,0.007,0.014L14.963,15.959z"/>
		<path fill="#E5A980" d="M14.264,15.707c-7.333,3.675-12.104-4.393-12.104-4.393l2.525,0.915l-2.523-0.919
			c0,0,8.83-3.14,12.108,4.38l0.02,0.006c-0.004,0.003-0.008,0.004-0.013,0.006c0.001,0.004,0.003,0.008,0.006,0.014L14.264,15.707z
			"/>
		<path fill="#3A2416" d="M14.042,15.62c-6.646,3.272-11.007-3.993-11.007-3.993l2.297,0.83l-2.297-0.832
			c0,0,8.006-2.786,11.013,3.979l0.017,0.006c-0.004,0.003-0.008,0.003-0.011,0.005c0,0.005,0.002,0.008,0.003,0.01L14.042,15.62z"
			/>
		<path fill="#844736" d="M7.975,15.205c2.247,0.815,4.325,0.769,4.641-0.107c0.313-0.869-1.253-2.231-3.5-3.046
			c-2.248-0.814-4.326-0.766-4.64,0.108C4.16,13.028,5.727,14.394,7.975,15.205z"/>
	</g>
	<path fill="#B26756" d="M7.71,14.944c1.403,0.506,2.695,0.479,2.894-0.066c0.196-0.543-0.781-1.393-2.181-1.901
		c-1.4-0.509-2.697-0.477-2.894,0.069C5.333,13.585,6.309,14.438,7.71,14.944z"/>
</g>
<g>
	<g>
		<path fill="#874525" d="M16.329,16.51c7.612,5.078,2.427,14.157,2.427,14.157l-0.51-2.952l0.504,2.953
			c0,0-7.921-6.823-2.442-14.154l-0.004-0.021c0.004,0.002,0.008,0.006,0.012,0.009c0.003-0.004,0.007-0.009,0.009-0.013
			L16.329,16.51z"/>
		<path fill="#E5A980" d="M16.454,17.242c6.822,4.553,2.177,12.691,2.177,12.691l-0.458-2.646l0.453,2.647
			c0,0-7.103-6.117-2.191-12.689l-0.004-0.019c0.004,0.002,0.007,0.005,0.01,0.008c0.004-0.004,0.006-0.008,0.009-0.012
			L16.454,17.242z"/>
		<path fill="#3A2416" d="M16.489,17.479c6.132,4.153,1.981,11.541,1.981,11.541l-0.416-2.407l0.413,2.407
			c0,0-6.384-5.576-1.995-11.538l-0.003-0.017c0.003,0.001,0.008,0.005,0.009,0.007c0.004-0.003,0.005-0.007,0.007-0.01
			L16.489,17.479z"/>
		<path fill="#844736" d="M19.131,22.956c-0.403-2.356-1.472-4.138-2.389-3.98c-0.911,0.159-1.319,2.194-0.914,4.549
			c0.404,2.357,1.476,4.138,2.39,3.979C19.128,27.347,19.539,25.311,19.131,22.956z"/>
	</g>
	<path fill="#B26756" d="M19.035,23.315c-0.252-1.469-0.917-2.58-1.49-2.482c-0.568,0.099-0.821,1.369-0.57,2.837
		c0.253,1.469,0.921,2.579,1.492,2.48C19.033,26.053,19.289,24.783,19.035,23.315z"/>
</g>
<g>
	<g>
		<path fill="#874525" d="M17.231,16.391c8.134-4.194,13.557,4.744,13.557,4.744l-2.829-0.985l2.827,0.992
			c0,0-9.809,3.615-13.56-4.731l-0.022-0.008c0.004-0.001,0.01-0.004,0.014-0.004c-0.002-0.005-0.004-0.011-0.008-0.013
			L17.231,16.391z"/>
		<path fill="#E5A980" d="M17.932,16.634c7.296-3.758,12.156,4.255,12.156,4.255l-2.538-0.884l2.535,0.889
			c0,0-8.794,3.241-12.159-4.24l-0.02-0.006c0.006-0.004,0.009-0.005,0.013-0.006c0-0.005-0.003-0.008-0.005-0.014L17.932,16.634z"
			/>
		<path fill="#3A2416" d="M18.156,16.719c6.609-3.348,11.054,3.868,11.054,3.868l-2.307-0.802l2.305,0.805
			c0,0-7.974,2.876-11.057-3.854l-0.018-0.005c0.004-0.004,0.008-0.004,0.012-0.005c0-0.006-0.003-0.009-0.004-0.011L18.156,16.719z
			"/>
		<path fill="#844736" d="M24.229,17.065c-2.257-0.79-4.334-0.719-4.639,0.16c-0.305,0.873,1.277,2.216,3.534,3.006
			c2.255,0.791,4.332,0.718,4.639-0.16C28.068,19.199,26.484,17.852,24.229,17.065z"/>
	</g>
	<path fill="#B26756" d="M24.497,17.323c-1.409-0.491-2.701-0.449-2.895,0.099c-0.189,0.544,0.798,1.383,2.202,1.875
		c1.408,0.494,2.703,0.446,2.894-0.101C26.888,18.655,25.903,17.814,24.497,17.323z"/>
</g>
<g>
	<g>
		<path fill="#874525" d="M15.084,16.712c-9.113-0.847-10.8,9.471-10.8,9.471l2.254-1.972l-2.25,1.978c0,0,10.45-0.317,10.806-9.462
			l0.017-0.014c-0.003,0.001-0.009,0-0.014,0.001c0-0.005-0.001-0.012,0.001-0.016L15.084,16.712z"/>
		<path fill="#E5A980" d="M14.524,17.201c-8.168-0.758-9.679,8.494-9.679,8.494l2.021-1.771l-2.017,1.773
			c0,0,9.367-0.284,9.688-8.481l0.015-0.013c-0.005-0.001-0.009-0.001-0.014,0c0-0.004,0.001-0.009,0-0.015L14.524,17.201z"/>
		<path fill="#3A2416" d="M14.347,17.362c-7.379-0.633-8.802,7.722-8.802,7.722l1.839-1.606l-1.837,1.608
			c0,0,8.47-0.314,8.812-7.709l0.015-0.012c-0.006-0.001-0.01,0-0.015,0c-0.001-0.006,0-0.009,0-0.012L14.347,17.362z"/>
		<path fill="#844736" d="M8.847,19.956c1.796-1.576,3.75-2.289,4.362-1.588c0.607,0.696-0.356,2.534-2.153,4.11
			c-1.798,1.576-3.751,2.287-4.362,1.587C6.085,23.37,7.047,21.527,8.847,19.956z"/>
	</g>
	<path fill="#B26756" d="M8.694,20.294c1.124-0.982,2.338-1.426,2.721-0.99c0.379,0.434-0.222,1.581-1.341,2.562
		c-1.12,0.985-2.34,1.426-2.72,0.989C6.976,22.424,7.575,21.275,8.694,20.294z"/>
</g>
<ellipse transform="matrix(0.9832 -0.1825 0.1825 0.9832 -2.6758 3.2209)" fill="#874525" cx="16.164" cy="16.15" rx="2.59" ry="2.485"/>
<ellipse transform="matrix(0.9832 -0.1824 0.1824 0.9832 -2.6654 3.2162)" fill="#E5A980" cx="16.156" cy="16.101" rx="2.185" ry="2.096"/>
<ellipse transform="matrix(0.9832 -0.1825 0.1825 0.9832 -2.6666 3.2177)" fill="#3A2416" cx="16.155" cy="16.101" rx="1.968" ry="1.889"/>
</svg>
