<?xml version="1.0" encoding="utf-8"?>
<!-- Generator: Adobe Illustrator 16.0.0, SVG Export Plug-In . SVG Version: 6.00 Build 0)  -->
<!DOCTYPE svg PUBLIC "-//W3C//DTD SVG 1.1//EN" "http://www.w3.org/Graphics/SVG/1.1/DTD/svg11.dtd">
<svg version="1.1" id="Layer_1" xmlns="http://www.w3.org/2000/svg" xmlns:xlink="http://www.w3.org/1999/xlink" x="0px" y="0px"
	 width="32px" height="32px" viewBox="0 0 32 32" enable-background="new 0 0 32 32" xml:space="preserve">
<path fill="#C81A28" d="M27.264,16.237c-2.53-10.221-10.728-5.769-10.728-5.769l-0.539,0.081l-0.534-0.081
	c0,0-8.197-4.452-10.728,5.769c0,0-1.417,7.996,6.781,12.854c0,0,2.024,0.607,3.947-0.911c0.216-0.171,0.389-0.299,0.542-0.41
	c0.147,0.111,0.315,0.239,0.53,0.409c1.923,1.518,3.947,0.911,3.947,0.911C28.681,24.232,27.264,16.237,27.264,16.237z"/>
<path fill="#FD7A60" d="M10.708,10.449c0,0-5.759,1.552-4.831,8.874C5.877,19.322,5.839,13.828,10.708,10.449z"/>
<path fill="#683625" d="M14.691,3.715L14.691,3.715c-0.001-0.14-0.254-0.252-0.563-0.252c-0.312,0-0.564,0.112-0.564,0.252h-0.001v0
	l0,0c0,0.005,0.01,0.007,0.01,0.011c3.467,3.542,2.072,8.714,2.072,8.714c0.316-0.314,0.553-0.658,0.727-1.022
	C17.956,8.086,14.111,3.024,14.691,3.715z"/>
<path fill="#935247" d="M18.53,10.966c0,0-2.216,3.22-5.062,0.146C13.468,11.112,17.802,12.404,18.53,10.966z"/>
<ellipse fill="#7A4638" cx="14.129" cy="3.713" rx="0.556" ry="0.25"/>
<path fill="#489017" d="M24.212,2.791c-0.001,0-0.002,0.001-0.003,0.002c0.001-0.001,0.001-0.002,0.002-0.003l-0.006,0.005
	c-0.585,0.348-1.347,0.423-1.347,0.423c-1.623,0.003-3.496,1.093-3.496,1.093c-2.818,2.291-1.708,3.888-1.548,4.09v0
	c0,0,0.004,0.004,0.005,0.006c0.008,0.009,0.014,0.016,0.014,0.016l0.001-0.001c0.18,0.185,1.622,1.489,4.252-1.014
	c0,0,1.319-1.719,1.529-3.329c0,0,0.173-0.747,0.592-1.284L24.212,2.791z"/>
<path fill="#3B750D" d="M20.348,5.769c0.598-1.106,1.614-1.977,3.051-2.278c0.168-0.205,0.338-0.408,0.547-0.579
	c-0.528,0.235-1.087,0.292-1.087,0.292c-1.623,0.003-3.496,1.093-3.496,1.093c-2.818,2.291-1.708,3.888-1.548,4.09v0
	c0,0,0.004,0.004,0.005,0.006c0.008,0.009,0.014,0.016,0.014,0.016l0.001-0.001c0.028,0.029,0.091,0.083,0.184,0.146
	c0.147-0.141,0.308-0.268,0.477-0.388c0.154-0.142,0.33-0.262,0.512-0.375C19.274,7.014,19.726,6.315,20.348,5.769z"/>
<path fill="#F4B06C" d="M21.262,9.552"/>
<g>
	<path fill="#AD1426" d="M10.913,28.699c0.204,0.133,0.387,0.271,0.604,0.4c0,0,0.897,0.255,2.06-0.009
		C12.657,29.075,11.768,28.937,10.913,28.699z"/>
	<path fill="#AD1426" d="M27.264,16.245c-0.789-3.188-2.13-4.949-3.602-5.862c0.973,1.835,1.539,3.959,1.539,6.231
		c0,5.625-3.415,10.378-8.108,11.939c1.738,1.024,3.391,0.545,3.391,0.545C28.682,24.24,27.264,16.245,27.264,16.245z"/>
</g>
</svg>
