<?xml version="1.0" encoding="utf-8"?>
<!-- Generator: Adobe Illustrator 16.0.0, SVG Export Plug-In . SVG Version: 6.00 Build 0)  -->
<!DOCTYPE svg PUBLIC "-//W3C//DTD SVG 1.1//EN" "http://www.w3.org/Graphics/SVG/1.1/DTD/svg11.dtd">
<svg version="1.1" id="Layer_1" xmlns="http://www.w3.org/2000/svg" xmlns:xlink="http://www.w3.org/1999/xlink" x="0px" y="0px"
	 width="32px" height="32px" viewBox="0 0 32 32" enable-background="new 0 0 32 32" xml:space="preserve">
<ellipse fill="#EF8D2B" cx="12" cy="16.29" rx="9.73" ry="9.525"/>
<ellipse fill="#ED8221" cx="9.284" cy="17.491" rx="7.704" ry="10.479"/>
<path fill="#C46116" d="M12.534,6.275c-1.432,0-2.781,0.404-3.989,1.101c4.013,1.182,6.994,5.502,6.994,10.667
	c0,4.361-2.129,8.119-5.206,9.896c0.707,0.208,1.441,0.331,2.201,0.331c5.079,0,9.195-4.924,9.195-10.998
	C21.729,11.199,17.613,6.275,12.534,6.275z"/>
<g>
	<polygon fill="#F9994B" points="23.23,9.622 23.23,9.622 23.23,9.622 	"/>
	<path fill="#F9994B" d="M16.999,10.168"/>
	<path fill="#F9994B" d="M29.442,15.494c-1.439-3.511-4.031-5.139-6.212-5.872l-3.303,1.067l-2.929-0.521
		c-2.046,1.179-4.489,3.445-5.001,7.572c-0.93,7.517,4.141,11.871,9.616,12.087c0.327,0.013,0.607-0.054,0.848-0.185
		c0.269,0.063,0.556,0.054,0.868-0.045C28.556,27.95,32.317,22.502,29.442,15.494z"/>
	<path fill="#F9994B" d="M23.23,9.622"/>
</g>
<g>
	<polygon fill="#ED8435" points="23.235,9.664 23.235,9.663 23.235,9.664 	"/>
	<path fill="#ED8435" d="M29.448,15.534c-1.439-3.511-4.032-5.138-6.213-5.871l-3.028,0.977l2.551,19.07
		c0.184,0.006,0.373-0.008,0.577-0.072C28.561,27.991,32.321,22.543,29.448,15.534z"/>
	<path fill="#ED8435" d="M23.235,9.663"/>
</g>
<path fill="#D17420" d="M25.443,19.373c0.46,3.442-1.081,6.489-3.446,6.806c-2.36,0.316-4.649-2.219-5.109-5.662
	c-0.46-3.442,1.08-6.488,3.442-6.805C22.694,13.396,24.983,15.931,25.443,19.373z"/>
<ellipse transform="matrix(0.9912 -0.1325 0.1325 0.9912 -2.4558 2.9798)" fill="#632D20" cx="21.165" cy="19.945" rx="3.417" ry="5.961"/>
<path fill="#D86B21" d="M24.012,28.765c-0.312,0.099-0.6,0.108-0.867,0.045c-0.241,0.131-0.522,0.199-0.848,0.184
	c-5.474-0.215-10.546-4.568-9.617-12.088c0.229-1.836,0.843-3.3,1.63-4.468c-1.105,1.285-2.016,3.019-2.305,5.354
	c-0.93,7.518,4.143,11.873,9.617,12.088c0.326,0.014,0.607-0.054,0.847-0.186c0.269,0.063,0.556,0.055,0.869-0.044
	c2.244-0.707,4.214-2.12,5.509-4.052C27.585,27.077,25.897,28.172,24.012,28.765z"/>
<path fill="#875B39" d="M19.861,15.893c0,0-3.298,4.768,1.065,7.962C20.926,23.855,17.958,20.112,19.861,15.893z"/>
<path fill="#683625" d="M10.743,3.267L10.743,3.267c-0.009-0.081,0.125-0.163,0.302-0.187c0.178-0.024,0.328,0.021,0.34,0.101l0,0
	l0,0l0,0c0,0.002-0.005,0.004-0.005,0.007c-1.701,2.276-0.516,5.108-0.516,5.108c-0.202-0.155-0.363-0.332-0.49-0.525
	C9.221,5.998,11.021,2.829,10.743,3.267z"/>
<path fill="#489017" d="M10.825,4.627c0.003,0,0.003,0,0.003,0c0,0,0,0.001,0,0.001l0.005-0.001
	c0.764,0.045,1.456,0.459,1.456,0.459c1.353,1.026,3.777,1.189,3.777,1.189c4.158-0.366,4.499-2.573,4.526-2.861V3.412
	c0,0-0.001-0.006-0.001-0.008c0.004-0.014,0.004-0.026,0.004-0.026l-0.002,0.001c-0.004-0.287-0.17-2.43-4.342-1.744
	c0,0-2.458,0.776-3.907,2.16c0,0-0.735,0.591-1.51,0.832L10.825,4.627z"/>
<path fill="#407C11" d="M16.749,3.664c1-0.254,1.999-0.45,2.997-0.51c0.276-0.016,0.552-0.02,0.822-0.016
	c-0.121-0.635-0.778-2.118-4.418-1.509c0,0-2.521,0.8-4.01,2.209c0,0-0.608,0.469-1.299,0.748c0.286,0.016,0.533,0.093,0.8,0.141
	C13.195,4.077,15.023,3.737,16.749,3.664z"/>
</svg>
