<?xml version="1.0" encoding="utf-8"?>
<!-- Generator: Adobe Illustrator 16.0.0, SVG Export Plug-In . SVG Version: 6.00 Build 0)  -->
<!DOCTYPE svg PUBLIC "-//W3C//DTD SVG 1.1//EN" "http://www.w3.org/Graphics/SVG/1.1/DTD/svg11.dtd">
<svg version="1.1" id="Layer_1" xmlns="http://www.w3.org/2000/svg" xmlns:xlink="http://www.w3.org/1999/xlink" x="0px" y="0px"
	 width="32px" height="32px" viewBox="0 0 32 32" enable-background="new 0 0 32 32" xml:space="preserve">
<g>
	<line fill="none" stroke="#9B7D29" stroke-width="2" stroke-miterlimit="10" x1="23.198" y1="8.881" x2="29.897" y2="7.772"/>
	<path fill="#CCA63E" d="M27.754,8.008c0.401,2.229-0.751,4.303-2.573,4.63L7.83,15.773c-1.822,0.329-3.623-1.211-4.028-3.439l0,0
		c-0.402-2.23,0.749-4.303,2.57-4.632L23.725,4.57C25.546,4.24,27.351,5.781,27.754,8.008L27.754,8.008z"/>
	<path fill="#7C641F" d="M8.609,11.463c0.377,2.093-0.394,3.983-1.717,4.223c-1.331,0.238-2.712-1.262-3.091-3.354
		c-0.377-2.089,0.394-3.977,1.721-4.215C6.85,7.876,8.233,9.375,8.609,11.463z"/>
	<line fill="none" stroke="#B29436" stroke-width="2" stroke-miterlimit="10" x1="1.858" y1="12.28" x2="6.3" y2="11.581"/>
</g>
<ellipse fill="#C46A10" cx="6.133" cy="26.626" rx="1.054" ry="1.006"/>
<path fill="#844532" d="M19.107,18.43c-0.015-0.021-0.023-0.048-0.048-0.058c-0.189-0.086-0.547,0.18-0.8,0.596
	c-0.253,0.414-0.305,0.817-0.115,0.902c0.023,0.009,0.054,0.001,0.083,0l-0.034,0.057l11.11,4.969l0.017-0.028
	c0.19,0.083,0.55-0.183,0.803-0.596s0.304-0.818,0.112-0.903l0.019-0.029l-11.112-4.968L19.107,18.43z"/>
<g>
	<path fill="#3A2416" d="M13.025,20.051c-0.23-2.676-3.299-2.625-3.299-2.625l0.687,0.548l-0.688-0.546c0,0,0.638,3.001,3.298,2.628
		l0.005,0.006c0-0.001-0.002-0.004-0.001-0.006c0.001,0.001,0.003-0.001,0.005,0L13.025,20.051z"/>
	<path fill="#3A2416" d="M13.159,19.803c2.271-1.436,0.814-4.138,0.814-4.138l-0.172,0.863l0.171-0.863c0,0-2.373,1.944-0.82,4.135
		v0.009c0.002-0.001,0.002-0.002,0.004-0.003c0,0,0.001,0.001,0.002,0.004L13.159,19.803z"/>
	<path fill="#3A2416" d="M12.803,20.266c-1.057,2.47-3.955,1.461-3.955,1.461l0.823-0.307l-0.825,0.305c0,0,1.545-2.652,3.954-1.465
		l0.007-0.002c-0.001,0.001-0.002,0.003-0.003,0.004c0.003,0,0.003,0.001,0.005,0.001L12.803,20.266z"/>
	<path fill="#3A2416" d="M13.213,20.131c2.668-0.304,3.227,2.715,3.227,2.715l-0.673-0.564l0.672,0.564c0,0-3.068-0.027-3.229-2.71
		l-0.005-0.004c0.002,0,0.003,0,0.004,0c0.001-0.001,0.001-0.003,0-0.006L13.213,20.131z"/>
	<path fill="#3A2416" d="M13.394,19.934c1.029-2.482,3.938-1.505,3.938-1.505l-0.819,0.314l0.819-0.312c0,0-1.515,2.667-3.935,1.506
		l-0.007,0.002c0,0,0.001-0.001,0.002-0.002c-0.001-0.001-0.003-0.001-0.003-0.002L13.394,19.934z"/>
	<path fill="#3A2416" d="M12.973,20.412c-2.205,1.536-0.628,4.168-0.628,4.168l0.133-0.867l-0.131,0.87c0,0,2.285-2.051,0.631-4.169
		l0.001-0.008c-0.001,0.002-0.003,0.003-0.003,0.004c-0.001-0.001-0.002-0.002-0.004-0.005L12.973,20.412z"/>
</g>
<path fill="#A85F45" d="M18.24,20.869c-0.016-0.021-0.022-0.047-0.046-0.058c-0.189-0.085-0.549,0.181-0.8,0.595
	c-0.255,0.414-0.307,0.818-0.115,0.904c0.022,0.009,0.054,0,0.081,0l-0.034,0.056l11.11,4.97l0.018-0.027
	c0.19,0.083,0.549-0.184,0.803-0.598c0.251-0.413,0.302-0.816,0.112-0.903l0.018-0.027l-11.111-4.968L18.24,20.869z"/>
<ellipse fill="#C46A10" cx="9.725" cy="26.626" rx="0.694" ry="1.003"/>
<circle fill="#663F34" cx="4.958" cy="24.606" r="1.175"/>
<circle fill="#663F34" cx="10.458" cy="24.263" r="0.884"/>
<circle fill="#663F34" cx="7.7" cy="23.433" r="1.174"/>
<circle fill="#C46A10" cx="5.849" cy="22.845" r="0.956"/>
<circle fill="#663F34" cx="7.031" cy="26.688" r="0.741"/>
<g>
	<path fill="#683523" d="M15.728,26.066c1.093-1.545-0.581-2.913-0.581-2.913l0.12,0.606l-0.121-0.606c0,0-1.023,1.906,0.578,2.914
		l0.001,0.004c0-0.001,0-0.002,0.001-0.002c0,0,0.002,0,0.003,0.001L15.728,26.066z"/>
	<path fill="#683523" d="M15.912,25.992c1.875,0.26,2.319-1.854,2.319-1.854l-0.483,0.386l0.483-0.388c0,0-2.161-0.032-2.321,1.853
		l-0.004,0.004c0.001,0,0.002,0,0.003,0c0,0.001,0,0.002-0.001,0.004L15.912,25.992z"/>
	<path fill="#683523" d="M15.51,26.08c-1.691,0.849-2.792-1.013-2.792-1.013l0.582,0.21l-0.582-0.211c0,0,2.037-0.726,2.793,1.011
		l0.005,0.001c-0.001,0-0.002,0.001-0.003,0.001c0.001,0.001,0.001,0.001,0.001,0.003L15.51,26.08z"/>
	<path fill="#683523" d="M15.792,26.194c1.574,1.05,0.502,2.928,0.502,2.928l-0.104-0.61l0.104,0.61c0,0-1.638-1.411-0.504-2.927
		l-0.002-0.005c0.002,0.001,0.002,0.001,0.003,0.002c0-0.001,0.001-0.001,0.002-0.003V26.194z"/>
	<path fill="#683523" d="M15.979,26.17c1.683-0.868,2.803,0.98,2.803,0.98l-0.585-0.203l0.585,0.205c0,0-2.029,0.747-2.804-0.979
		l-0.005-0.003c0,0,0.002,0,0.003,0c0-0.001-0.001-0.002-0.002-0.003L15.979,26.17z"/>
	<path fill="#683523" d="M15.534,26.236c-1.884-0.176-2.232,1.957-2.232,1.957l0.467-0.406l-0.466,0.408
		c0,0,2.161-0.064,2.234-1.956l0.004-0.003c-0.001,0-0.003,0-0.004,0c0-0.001,0-0.002,0-0.004L15.534,26.236z"/>
</g>
</svg>
