<?xml version="1.0" encoding="utf-8"?>
<!-- Generator: Adobe Illustrator 16.0.0, SVG Export Plug-In . SVG Version: 6.00 Build 0)  -->
<!DOCTYPE svg PUBLIC "-//W3C//DTD SVG 1.1//EN" "http://www.w3.org/Graphics/SVG/1.1/DTD/svg11.dtd">
<svg version="1.1" id="Layer_1" xmlns="http://www.w3.org/2000/svg" xmlns:xlink="http://www.w3.org/1999/xlink" x="0px" y="0px"
	 width="32px" height="32px" viewBox="0 0 32 32" enable-background="new 0 0 32 32" xml:space="preserve">
<path fill="#459113" d="M18.532,2.969l0.015-0.001c-0.13-0.131,0.98-0.325,2.447-0.445c1.462-0.122,2.773-0.122,2.895,0.002l0,0l0,0
	l0,0c0.019,0.004-0.039,0.011-0.035,0.015c-13.32,4.509-5.341,8.206-6.498,7.951C6.917,8.136,20.676,2.124,18.532,2.969z"/>
<path fill="#66BC2E" d="M23.739,2.566c0.034,0.136-1.104,0.352-2.547,0.481c-1.443,0.131-2.644,0.129-2.679-0.004
	c-0.035-0.14,1.106-0.353,2.546-0.484C22.505,2.428,23.705,2.431,23.739,2.566z"/>
<path fill="#3A820B" d="M24.634,9.469c0,1.224-3.684,2.21-8.232,2.21c-4.551,0-8.234-0.986-8.234-2.21
	c0-1.227,3.684-2.213,8.234-2.213C20.951,7.256,24.634,8.242,24.634,9.469z"/>
<path fill="#891111" d="M16.177,10.493c-0.782-0.946-2.088-1.546-3.533-1.484l-1.627,0.07c-0.074,0.002-0.142-0.01-0.215-0.007
	c-0.071,0.004-0.138,0.021-0.209,0.023l-2.974,0.13c-2.109,0.089-3.723,1.556-3.774,3.33l-0.009-0.003l0.005,0.072
	c-0.001,0.078-0.018,0.152-0.011,0.23c0.008,0.105,0.041,0.203,0.058,0.308l0.281,3.144l0.567,7.917
	c0.198,2.757,3.548,4.853,7.485,4.684c3.937-0.169,6.971-2.539,6.773-5.295l-0.705-9.854C18.196,12.465,17.393,11.329,16.177,10.493
	z"/>
<path fill="#F76B6B" d="M15.83,10.483c0.787-0.945,2.094-1.54,3.539-1.476l1.627,0.072c0.073,0.003,0.141-0.009,0.215-0.006
	c0.07,0.005,0.137,0.021,0.21,0.025l2.972,0.134c2.108,0.094,3.718,1.563,3.764,3.339l0.01-0.003l-0.005,0.072
	c-0.001,0.078,0.014,0.151,0.01,0.229c-0.009,0.107-0.043,0.205-0.059,0.307l-0.293,3.144l-0.592,7.915
	c-0.207,2.757-3.565,4.847-7.502,4.668c-3.937-0.176-6.962-2.553-6.756-5.307l0.739-9.854C13.806,12.45,14.613,11.317,15.83,10.483z
	"/>
<path fill="#DD2F2F" d="M23.067,24.409c0,2.85-2.984,5.16-6.665,5.16l0,0c-3.681,0-6.667-2.31-6.667-5.16V14.22
	c0-2.85,2.986-5.16,6.667-5.16l0,0c3.681,0,6.665,2.311,6.665,5.16V24.409z"/>
<path fill="#FF8D8D" d="M18.75,10.934c0,0,6.987-0.947,1.579,14.983C20.329,25.917,22.663,12.794,18.75,10.934z"/>
<path fill="#FFCACA" d="M24.542,10.371c0,0,5.254-0.712,1.188,11.267C25.729,21.638,27.484,11.77,24.542,10.371z"/>
</svg>
