<?xml version="1.0" encoding="utf-8"?>
<!-- Generator: Adobe Illustrator 16.0.0, SVG Export Plug-In . SVG Version: 6.00 Build 0)  -->
<!DOCTYPE svg PUBLIC "-//W3C//DTD SVG 1.1//EN" "http://www.w3.org/Graphics/SVG/1.1/DTD/svg11.dtd">
<svg version="1.1" id="Layer_1" xmlns="http://www.w3.org/2000/svg" xmlns:xlink="http://www.w3.org/1999/xlink" x="0px" y="0px"
	 width="32px" height="32px" viewBox="0 0 32 32" enable-background="new 0 0 32 32" xml:space="preserve">
<path fill="#8FBC22" d="M9.863,3.585c0,0-0.216,0.912,0.052,1.094c0.27,0.183-0.064,0.534-0.064,0.534l0.273,1.018L8.976,5.55
	L9.01,6.031L7.499,5.897l0.278,0.508L6.159,6.529l-0.412,0.03L4.611,6.643l0.409,0.646c0,0-1.141-0.817-2.582,0.792
	c0,0,1.506,0.068,1.79-0.134c0.287-0.201-0.377,0.547-0.377,0.547l1.279,0.267L4.619,9.162l1.76,0.305L5.58,9.945
	c0,0,0.864,0.498,2.858,0.482c1.993-0.016-2.992,0.95-2.992,0.95l0.63,0.394c0,0-1.083-0.024-1.269,0.702l0.603,0.006l-0.986,1.278
	l0.815-0.334l-1.062,1.073l0.68,0.249c0,0-0.422-0.808-1.068,0.981l0.956-0.07c0,0-1.237,0.329-1.59,2.009l1.073-0.081
	c0,0-0.944,0.201-1.441,1.6l0.717-0.054c0,0-0.633,0.348-0.776,0.859c0,0,0.08,0.015,0.286,0.098
	C3.223,20.171,2.55,21.64,2.55,21.64L14.059,9.635c0,0-1.258-1.891-0.654-1.854c0.604,0.039,0.051-1.723-0.418-1.568
	c-0.469,0.157-0.763-1.382-1.068-1.423C11.616,4.754,9.863,3.585,9.863,3.585z"/>
<path fill="#83A519" d="M19.916,12.948c0,0-0.892,0.284-1.094,0.036c-0.201-0.254-0.529,0.107-0.529,0.107l-1.034-0.192l0.768,1.09
	l-0.478,0.002l0.25,1.497l-0.531-0.238l0.009,1.622l0.001,0.414l0.002,1.14l-0.675-0.358c0,0,0.902,1.074-0.59,2.636
	c0,0-0.186-1.494-0.006-1.795c0.181-0.301-0.515,0.42-0.515,0.42l-0.365-1.255l-0.362,0.539l-0.44-1.728l-0.415,0.833
	c0,0-0.562-0.823-0.702-2.81c-0.142-1.988-0.713,3.057-0.713,3.057l-0.445-0.599c0,0,0.112,1.078-0.6,1.32l-0.052-0.6l-1.195,1.084
	l0.267-0.842l-0.983,1.144l-0.303-0.657c0,0,0.84,0.358-0.895,1.141l-0.006-0.959c0,0-0.23,1.259-1.877,1.744l-0.005-1.078
	c0,0-0.126,0.96-1.481,1.562l-0.002-0.718c0,0-0.298,0.659-0.796,0.84c0,0-0.021-0.08-0.119-0.278
	c-0.103-0.2-1.512,0.585-1.512,0.585L13.553,9.239c0,0,1.988,1.107,1.905,0.509c-0.084-0.599,1.714-0.187,1.596,0.294
	c-0.118,0.478,1.439,0.653,1.501,0.951C18.615,11.292,19.916,12.948,19.916,12.948z"/>
<path fill="#683625" d="M9.409,2.14L9.409,2.14c-0.11-0.103-0.045-0.388,0.143-0.645c0.19-0.259,0.43-0.386,0.539-0.287l0,0l0,0l0,0
	c0.007,0.002-0.001,0.014,0.006,0.018c0.675,5.373,5.574,7.884,5.574,7.884c-0.439,0.042-0.852-0.007-1.244-0.12
	C10.855,7.934,9.218,1.168,9.409,2.14z"/>
<path opacity="0.8" fill="#683625" d="M12.088,7.538L12.088,7.538c-0.042-0.117,0.075-0.24,0.261-0.284
	c0.189-0.042,0.373,0.012,0.415,0.125l0,0l0,0l0,0c0.003,0.005-0.004,0.008-0.001,0.013c-1.012,3.338,1.39,7.308,1.39,7.308
	c-0.286-0.208-0.533-0.451-0.748-0.72C11.446,11.515,12.227,6.897,12.088,7.538z"/>
<path opacity="0.8" fill="#683625" d="M22.895,24.255L22.895,24.255c-0.117-0.044-0.134-0.214-0.047-0.383
	c0.089-0.173,0.25-0.276,0.364-0.236l0,0l0,0l0,0c0.005,0.001,0.003,0.01,0.01,0.011c1.881,2.937,6.459,3.688,6.459,3.688
	c-0.345,0.083-0.689,0.112-1.033,0.102C25.501,27.325,22.497,23.732,22.895,24.255z"/>
<path fill="#683625" d="M16.188,9.762L16.188,9.762c-0.064-0.101-0.262-0.086-0.446,0.025c-0.188,0.118-0.289,0.288-0.229,0.388l0,0
	l0,0l0,0c0.003,0.006,0.011,0.002,0.012,0.007c3.624,1.236,5.056,5.413,5.056,5.413c0.053-0.339,0.044-0.671-0.01-0.992
	C20.055,11.658,15.538,9.485,16.188,9.762z"/>
<path fill="#683625" d="M19.546,17.021L19.546,17.021c-0.043-0.107,0.062-0.266,0.231-0.366c0.176-0.097,0.35-0.093,0.392,0.012l0,0
	l0,0l0,0c0.004,0.005-0.004,0.01-0.001,0.014c-0.831,3.725,1.528,7.145,1.528,7.145c-0.274-0.134-0.512-0.316-0.719-0.531
	C19.08,21.302,19.656,16.323,19.546,17.021z"/>
<circle fill="#2A155E" cx="27.111" cy="27.512" r="2.707"/>
<circle fill="#36246D" cx="16.996" cy="7.03" r="3.614"/>
<path fill="#130A3A" d="M18.852,9.493C16.889,9.865,15,8.574,14.627,6.615c-0.185-0.972,0.041-1.925,0.552-2.688
	c-1.287,0.75-2.034,2.241-1.74,3.786c0.372,1.959,2.262,3.251,4.225,2.878c0.99-0.188,1.806-0.765,2.327-1.539
	C19.643,9.252,19.267,9.414,18.852,9.493z"/>
<path fill="#36246D" d="M17.998,13.739c0.372,1.962-0.917,3.853-2.88,4.224c-1.959,0.373-3.852-0.914-4.223-2.879
	c-0.37-1.959,0.916-3.852,2.877-4.223C15.733,10.489,17.625,11.779,17.998,13.739z"/>
<circle fill="#2A155E" cx="22.209" cy="15.977" r="3.614"/>
<circle fill="#2A155E" cx="21.986" cy="23.771" r="3.255"/>
<ellipse transform="matrix(0.9557 -0.2943 0.2943 0.9557 -0.8565 5.6378)" fill="#9E89E0" cx="18.307" cy="5.665" rx="0.763" ry="1.187"/>
<ellipse transform="matrix(0.9555 -0.295 0.295 0.9555 -0.8638 5.7411)" fill="#BAAEED" cx="18.599" cy="5.734" rx="0.505" ry="0.785"/>
<ellipse transform="matrix(0.9555 -0.2951 0.2951 0.9555 -3.2093 5.3687)" fill="#9E89E0" cx="16.183" cy="13.318" rx="0.762" ry="1.186"/>
<path fill="#9E89E0" d="M24.688,14.57c0.278,0.592,0.196,1.218-0.188,1.397c-0.379,0.178-0.915-0.156-1.196-0.75
	c-0.276-0.593-0.191-1.217,0.191-1.397C23.876,13.64,24.408,13.976,24.688,14.57z"/>
<ellipse transform="matrix(0.9054 -0.4246 0.4246 0.9054 -7.5228 12.3232)" fill="#9E89E0" cx="23.888" cy="23.041" rx="0.652" ry="1.014"/>
<ellipse transform="matrix(0.9063 -0.4226 0.4226 0.9063 -8.6231 14.3721)" fill="#9E89E0" cx="28.108" cy="26.638" rx="0.478" ry="0.745"/>
<ellipse transform="matrix(0.9555 -0.2949 0.2949 0.9555 -3.2142 5.4526)" fill="#BAAEED" cx="16.474" cy="13.385" rx="0.506" ry="0.786"/>
<ellipse transform="matrix(0.9558 -0.2941 0.2941 0.9558 -3.324 7.7809)" fill="#BAAEED" cx="24.211" cy="14.943" rx="0.505" ry="0.784"/>
<ellipse transform="matrix(0.9559 -0.2938 0.2938 0.9559 -5.7206 8.0991)" fill="#BAAEED" cx="24.095" cy="23.088" rx="0.414" ry="0.645"/>
<ellipse transform="matrix(0.9557 -0.2943 0.2943 0.9557 -6.5878 9.4756)" fill="#BAAEED" cx="28.19" cy="26.627" rx="0.322" ry="0.5"/>
<path fill="#130A3A" d="M16.288,16.935c-1.962,0.372-3.853-0.917-4.225-2.879c-0.184-0.971,0.043-1.924,0.552-2.687
	c-1.285,0.751-2.033,2.242-1.738,3.786c0.371,1.964,2.262,3.251,4.223,2.88c0.989-0.188,1.807-0.765,2.327-1.541
	C17.081,16.696,16.701,16.856,16.288,16.935z"/>
<path fill="#130A3A" d="M23.951,18.478c-1.959,0.369-3.851-0.919-4.222-2.878c-0.186-0.974,0.041-1.926,0.551-2.688
	c-1.285,0.748-2.032,2.241-1.739,3.785c0.371,1.961,2.264,3.25,4.224,2.879c0.99-0.187,1.807-0.762,2.328-1.538
	C24.746,18.239,24.368,18.396,23.951,18.478z"/>
<path fill="#130A3A" d="M23.604,25.895c-1.734,0.33-3.404-0.808-3.731-2.541c-0.164-0.858,0.037-1.699,0.486-2.373
	c-1.137,0.662-1.795,1.977-1.536,3.345c0.328,1.731,1.997,2.869,3.731,2.54c0.872-0.163,1.593-0.674,2.054-1.358
	C24.302,25.686,23.97,25.825,23.604,25.895z"/>
<path fill="#130A3A" d="M28.403,29.355c-1.438,0.271-2.824-0.673-3.094-2.109c-0.136-0.715,0.029-1.412,0.402-1.971
	c-0.943,0.549-1.489,1.643-1.274,2.776c0.272,1.437,1.657,2.38,3.096,2.108c0.724-0.138,1.321-0.56,1.706-1.128
	C28.983,29.177,28.707,29.295,28.403,29.355z"/>
<path fill="#2A155E" d="M15.029,3.82c-0.479,0.328-0.961,0.462-1.073,0.299c-0.11-0.163,0.188-0.562,0.668-0.89
	c0.481-0.329,0.962-0.461,1.073-0.301C15.809,3.094,15.51,3.492,15.029,3.82z"/>
<path fill="#2A155E" d="M12.257,11.185c-0.454,0.361-0.926,0.53-1.051,0.375c-0.121-0.154,0.148-0.575,0.604-0.937
	c0.455-0.362,0.926-0.531,1.047-0.377C12.98,10.404,12.712,10.822,12.257,11.185z"/>
<path fill="#2A155E" d="M23.039,12.337c-0.562-0.151-0.979-0.428-0.928-0.621c0.051-0.189,0.55-0.225,1.11-0.072
	c0.563,0.152,0.978,0.427,0.928,0.618C24.096,12.452,23.602,12.489,23.039,12.337z"/>
<path fill="#2A155E" d="M17.929,22.382c0.17-0.47,0.438-0.807,0.599-0.751c0.157,0.058,0.154,0.488-0.016,0.959
	c-0.169,0.472-0.435,0.806-0.596,0.75C17.756,23.28,17.762,22.853,17.929,22.382z"/>
<ellipse transform="matrix(0.0744 -0.9972 0.9972 0.0744 0.588 49.4772)" fill="#2A155E" cx="26.947" cy="24.422" rx="0.243" ry="0.712"/>
</svg>
