<?xml version="1.0" encoding="utf-8"?>
<!-- Generator: Adobe Illustrator 16.0.0, SVG Export Plug-In . SVG Version: 6.00 Build 0)  -->
<!DOCTYPE svg PUBLIC "-//W3C//DTD SVG 1.1//EN" "http://www.w3.org/Graphics/SVG/1.1/DTD/svg11.dtd">
<svg version="1.1" id="Layer_1" xmlns="http://www.w3.org/2000/svg" xmlns:xlink="http://www.w3.org/1999/xlink" x="0px" y="0px"
	 width="32px" height="32px" viewBox="0 0 32 32" enable-background="new 0 0 32 32" xml:space="preserve">
<path fill="#6EB247" d="M16.348,12.139c2.32-0.697,9.03-1.571,7.958-9.42c-8.661-0.047-7.687,7.087-8.15,9.247l-0.277,0.284
	C16.033,12.204,16.188,12.167,16.348,12.139z"/>
<circle fill="#3C2568" cx="13.074" cy="25.693" r="3.587"/>
<path fill="#63A03C" d="M18.668,11.938c1.778-1.204,6.785-3.582,5.562-9.093c-0.664,3.54-4.204,5.287-5.641,6.261
	c-0.143,0.075-0.281,0.159-0.418,0.246L18.351,9c-0.06-0.65-0.367-1.68-0.561-2.872c-0.319,2.293,0.537,4.571,0.641,5.706
	l-0.179,0.35C18.388,12.097,18.526,12.012,18.668,11.938z"/>
<path fill="#2C0A4C" d="M13.717,27.54c-1.98,0-3.587-1.605-3.587-3.588c0-0.104,0.021-0.2,0.03-0.301
	c-0.404,0.579-0.645,1.282-0.645,2.042c0,1.982,1.606,3.589,3.587,3.589c1.879,0,3.402-1.447,3.559-3.285
	C16.012,26.928,14.938,27.54,13.717,27.54z"/>
<circle fill="#3C2568" cx="18.609" cy="25.693" r="3.587"/>
<path fill="#2C0A4C" d="M19.237,27.54c-1.98,0-3.587-1.605-3.587-3.588c0-0.104,0.021-0.2,0.03-0.301
	c-0.403,0.579-0.644,1.282-0.644,2.042c0,1.982,1.605,3.589,3.586,3.589c1.879,0,3.402-1.447,3.559-3.285
	C21.532,26.928,20.457,27.54,19.237,27.54z"/>
<circle fill="#3C2568" cx="21.376" cy="22.106" r="3.587"/>
<circle fill="#3C2568" cx="10.716" cy="22.106" r="3.587"/>
<path fill="#260D49" d="M11.345,23.952c-1.98,0-3.586-1.605-3.586-3.587c0-0.104,0.021-0.201,0.03-0.302
	c-0.404,0.58-0.645,1.282-0.645,2.043c0,1.981,1.605,3.588,3.587,3.588c1.879,0,3.401-1.447,3.558-3.285
	C13.642,23.341,12.566,23.952,11.345,23.952z"/>
<path fill="#260D49" d="M22.005,23.952c-1.981,0-3.587-1.605-3.587-3.587c0-0.104,0.021-0.201,0.03-0.302
	c-0.403,0.58-0.644,1.282-0.644,2.043c0,1.981,1.605,3.588,3.586,3.588c1.879,0,3.402-1.447,3.559-3.285
	C24.3,23.341,23.225,23.952,22.005,23.952z"/>
<circle fill="#4E317C" cx="15.841" cy="22.106" r="3.587"/>
<path fill="#321059" d="M16.484,23.952c-1.98,0-3.587-1.605-3.587-3.587c0-0.104,0.021-0.201,0.03-0.302
	c-0.404,0.58-0.645,1.282-0.645,2.043c0,1.981,1.606,3.588,3.588,3.588c1.878,0,3.401-1.447,3.558-3.285
	C18.779,23.341,17.705,23.952,16.484,23.952z"/>
<circle fill="#2C0A4C" cx="24.401" cy="17.029" r="3.587"/>
<circle fill="#2C0A4C" cx="7.692" cy="17.029" r="3.587"/>
<ellipse transform="matrix(0.9291 0.3697 -0.3697 0.9291 6.0306 -2.0809)" fill="#4E397F" cx="8.444" cy="14.693" rx="1.101" ry="0.574"/>
<ellipse transform="matrix(0.9291 0.3697 -0.3697 0.9291 7.2546 -8.4677)" fill="#4E397F" cx="25.72" cy="14.693" rx="1.101" ry="0.573"/>
<path fill="#150528" d="M25.029,18.877c-1.98,0-3.587-1.606-3.587-3.589c0-0.104,0.021-0.2,0.03-0.301
	c-0.403,0.58-0.644,1.282-0.644,2.042c0,1.983,1.605,3.589,3.587,3.589c1.878,0,3.401-1.447,3.558-3.285
	C27.324,18.264,26.249,18.877,25.029,18.877z"/>
<circle fill="#3C2568" cx="21.426" cy="17.747" r="3.587"/>
<path fill="#150528" d="M8.319,18.877c-1.98,0-3.586-1.606-3.586-3.589c0-0.104,0.021-0.2,0.029-0.301
	c-0.404,0.58-0.644,1.282-0.644,2.042c0,1.983,1.605,3.589,3.587,3.589c1.878,0,3.401-1.447,3.558-3.285
	C10.615,18.264,9.54,18.877,8.319,18.877z"/>
<circle fill="#3C2568" cx="10.767" cy="17.747" r="3.587"/>
<path fill="#260D49" d="M11.396,19.594c-1.98,0-3.586-1.606-3.586-3.588c0-0.104,0.021-0.201,0.029-0.302
	c-0.404,0.58-0.644,1.283-0.644,2.043c0,1.981,1.605,3.589,3.587,3.589c1.878,0,3.401-1.448,3.558-3.286
	C13.691,18.981,12.616,19.594,11.396,19.594z"/>
<path fill="#260D49" d="M22.056,19.594c-1.98,0-3.588-1.606-3.588-3.588c0-0.104,0.022-0.201,0.031-0.302
	c-0.404,0.58-0.645,1.283-0.645,2.043c0,1.981,1.606,3.589,3.588,3.589c1.878,0,3.401-1.448,3.558-3.286
	C24.351,18.981,23.275,19.594,22.056,19.594z"/>
<circle fill="#4E317C" cx="15.891" cy="17.747" r="3.587"/>
<ellipse transform="matrix(0.9291 0.3697 -0.3697 0.9291 6.886 -5.203)" fill="#6D569B" cx="17.018" cy="15.364" rx="1.101" ry="0.573"/>
<ellipse transform="matrix(0.9291 0.3697 -0.3697 0.9291 6.4784 -3.0757)" fill="#6D569B" cx="11.264" cy="15.364" rx="1.101" ry="0.573"/>
<ellipse transform="matrix(0.9291 0.3699 -0.3699 0.9291 7.3037 -7.3654)" fill="#6D569B" cx="22.86" cy="15.364" rx="1.101" ry="0.572"/>
<ellipse transform="matrix(0.9292 0.3696 -0.3696 0.9292 7.2688 -7.2171)" fill="#6D569B" cx="22.472" cy="15.364" rx="1.102" ry="0.573"/>
<circle fill="#2C0A4C" cx="24.474" cy="12.469" r="3.587"/>
<circle fill="#2C0A4C" cx="7.765" cy="12.469" r="3.587"/>
<ellipse transform="matrix(0.9291 0.3697 -0.3697 0.9291 4.3497 -2.4311)" fill="#4E397F" cx="8.518" cy="10.133" rx="1.101" ry="0.573"/>
<ellipse transform="matrix(0.9292 0.3696 -0.3696 0.9292 5.5706 -8.8148)" fill="#4E397F" cx="25.793" cy="10.133" rx="1.102" ry="0.573"/>
<path fill="#426625" d="M14.909,2.146L14.909,2.146c0.049-0.173-0.412-0.462-1.027-0.661c-0.626-0.197-1.17-0.226-1.223-0.057l0,0
	l0,0l0,0c-0.007,0.005,0.016,0.014,0.013,0.018c5.582,6.439,0.827,11.732,0.827,11.732c0.751-0.172,1.355-0.436,1.844-0.756
	C19.77,9.445,14.018,0.949,14.909,2.146z"/>
<path fill="#6EB247" d="M16.796,10.773C15.905,8.52,14.469,1.909,6.74,3.636c0.683,8.638,7.709,7.064,9.901,7.347l0.304,0.252
	C16.89,11.082,16.837,10.929,16.796,10.773z"/>
<path fill="#63A03C" d="M16.484,10.749c-0.789-1.997-2.017-7.403-7.662-7.409c3.311,1.42,4.243,5.256,4.881,6.87
	c0.041,0.155,0.093,0.309,0.148,0.461l-0.304-0.252c-0.647-0.083-1.721-0.008-2.925-0.079c2.168,0.812,4.577,0.473,5.707,0.619
	l0.304,0.251C16.578,11.058,16.526,10.904,16.484,10.749z"/>
<path fill="#150528" d="M25.103,14.315c-1.98,0-3.587-1.606-3.587-3.588c0-0.104,0.021-0.201,0.03-0.302
	c-0.403,0.58-0.644,1.283-0.644,2.043c0,1.982,1.605,3.589,3.586,3.589c1.88,0,3.402-1.448,3.559-3.285
	C27.398,13.703,26.323,14.315,25.103,14.315z"/>
<circle fill="#3C2568" cx="21.5" cy="13.187" r="3.587"/>
<path fill="#150528" d="M8.393,14.315c-1.98,0-3.587-1.606-3.587-3.588c0-0.104,0.021-0.201,0.03-0.302
	c-0.403,0.58-0.644,1.283-0.644,2.043c0,1.982,1.605,3.589,3.587,3.589c1.879,0,3.401-1.448,3.558-3.285
	C10.688,13.703,9.612,14.315,8.393,14.315z"/>
<circle fill="#3C2568" cx="10.84" cy="13.187" r="3.587"/>
<path fill="#260D49" d="M11.469,15.032c-1.98,0-3.586-1.605-3.586-3.588c0-0.104,0.021-0.2,0.029-0.301
	c-0.403,0.579-0.644,1.282-0.644,2.043c0,1.981,1.605,3.588,3.587,3.588c1.879,0,3.401-1.447,3.558-3.285
	C13.765,14.42,12.689,15.032,11.469,15.032z"/>
<ellipse transform="matrix(0.9291 0.3697 -0.3697 0.9291 9.0935 -4.7799)" fill="#7865A5" cx="17.018" cy="21.335" rx="1.101" ry="0.573"/>
<path fill="#260D49" d="M22.129,15.032c-1.981,0-3.587-1.605-3.587-3.588c0-0.104,0.021-0.2,0.029-0.301
	c-0.403,0.579-0.643,1.282-0.643,2.043c0,1.981,1.605,3.588,3.586,3.588c1.879,0,3.402-1.447,3.559-3.285
	C24.424,14.42,23.349,15.032,22.129,15.032z"/>
<circle fill="#4E317C" cx="15.965" cy="13.187" r="3.587"/>
<ellipse transform="matrix(0.9291 0.3697 -0.3697 0.9291 7.4126 -5.1301)" fill="#7865A5" cx="17.091" cy="16.774" rx="1.101" ry="0.572"/>
<path fill="#321059" d="M16.607,15.032c-1.979,0-3.587-1.605-3.587-3.588c0-0.104,0.021-0.2,0.031-0.301
	c-0.404,0.579-0.645,1.282-0.645,2.043c0,1.981,1.605,3.588,3.587,3.588c1.879,0,3.402-1.447,3.558-3.285
	C18.903,14.42,17.828,15.032,16.607,15.032z"/>
<ellipse transform="matrix(0.9291 0.3697 -0.3697 0.9291 5.2048 -5.5532)" fill="#7865A5" cx="17.091" cy="10.803" rx="1.101" ry="0.574"/>
<ellipse transform="matrix(0.9291 0.3697 -0.3697 0.9291 4.7971 -3.426)" fill="#6D569B" cx="11.337" cy="10.803" rx="1.101" ry="0.573"/>
<ellipse transform="matrix(0.9292 0.3696 -0.3696 0.9292 5.6157 -7.7103)" fill="#6D569B" cx="22.933" cy="10.803" rx="1.102" ry="0.574"/>
<ellipse transform="matrix(0.9291 0.3697 -0.3697 0.9291 5.5913 -7.57)" fill="#6D569B" cx="22.546" cy="10.803" rx="1.101" ry="0.574"/>
<path fill="#321059" d="M16.534,19.594c-1.98,0-3.586-1.606-3.586-3.588c0-0.104,0.021-0.201,0.029-0.302
	c-0.403,0.58-0.644,1.283-0.644,2.043c0,1.981,1.605,3.589,3.587,3.589c1.878,0,3.401-1.448,3.558-3.286
	C18.83,18.981,17.755,19.594,16.534,19.594z"/>
</svg>
