<?xml version="1.0" encoding="utf-8"?>
<!-- Generator: Adobe Illustrator 16.0.0, SVG Export Plug-In . SVG Version: 6.00 Build 0)  -->
<!DOCTYPE svg PUBLIC "-//W3C//DTD SVG 1.1//EN" "http://www.w3.org/Graphics/SVG/1.1/DTD/svg11.dtd">
<svg version="1.1" id="Layer_1" xmlns="http://www.w3.org/2000/svg" xmlns:xlink="http://www.w3.org/1999/xlink" x="0px" y="0px"
	 width="32px" height="32px" viewBox="0 0 32 32" enable-background="new 0 0 32 32" xml:space="preserve">
<circle fill="#070F2D" cx="22.815" cy="27.208" r="1.183"/>
<path fill="#BC7D44" d="M16.333,7.839c0.013,1.269-1.624,2.316-3.653,2.335c-2.027,0.019-3.684-0.995-3.695-2.264
	c-0.013-1.271,1.623-2.316,3.65-2.335C14.665,5.553,16.319,6.569,16.333,7.839z"/>
<path fill="#CE8E4E" d="M12.687,10.79c0,0-4.144,0.041-3.373,4.576c0.775,4.536,0.678,6.106,0.571,6.837
	c-0.103,0.731-0.564,2.587-0.564,2.587l3.499-0.034l3.5-0.035c0,0-0.496-1.845-0.615-2.573c-0.118-0.728-0.246-2.297,0.44-6.847
	C16.83,10.751,12.687,10.79,12.687,10.79z"/>
<rect x="9.171" y="25.677" transform="matrix(1 -0.01 0.01 1 -0.2688 0.1294)" fill="#BC7D44" width="7.348" height="2.715"/>
<circle fill="#CE8E4E" cx="12.592" cy="3.666" r="1.295"/>
<circle fill="#070F2D" cx="23.689" cy="23.966" r="1.183"/>
<circle fill="#070F2D" cx="21.177" cy="21.845" r="1.183"/>
<circle fill="#070F2D" cx="19.994" cy="25.639" r="1.183"/>
<circle fill="#070F2D" cx="26.501" cy="25.981" r="1.183"/>
</svg>
