<?xml version="1.0" encoding="utf-8"?>
<!-- Generator: Adobe Illustrator 16.0.0, SVG Export Plug-In . SVG Version: 6.00 Build 0)  -->
<!DOCTYPE svg PUBLIC "-//W3C//DTD SVG 1.1//EN" "http://www.w3.org/Graphics/SVG/1.1/DTD/svg11.dtd">
<svg version="1.1" id="Layer_1" xmlns="http://www.w3.org/2000/svg" xmlns:xlink="http://www.w3.org/1999/xlink" x="0px" y="0px"
	 width="32px" height="32px" viewBox="0 0 32 32" enable-background="new 0 0 32 32" xml:space="preserve">
<ellipse transform="matrix(0.9997 0.0246 -0.0246 0.9997 0.3021 -0.2162)" fill="#2A2ABC" cx="8.921" cy="12.147" rx="7.628" ry="6.758"/>
<path fill="#161670" d="M13.563,6.792c1.004,1.178,1.589,2.648,1.55,4.234c-0.092,3.731-3.581,6.672-7.792,6.567
	c-1.658-0.041-3.176-0.554-4.408-1.38c1.358,1.593,3.486,2.649,5.908,2.709c4.212,0.104,7.701-2.836,7.793-6.567
	C16.669,10.093,15.459,8.064,13.563,6.792z"/>
<ellipse fill="#3939C6" cx="23.302" cy="11.402" rx="7.628" ry="6.759"/>
<path fill="#2D2DAD" d="M24.486,16.257c-4.212,0-7.627-3.025-7.627-6.758c0-0.746,0.142-1.461,0.394-2.133
	c-0.999,1.144-1.6,2.573-1.6,4.132c0,3.732,3.415,6.758,7.626,6.758c3.373,0,6.229-1.939,7.236-4.627
	C29.121,15.226,26.942,16.257,24.486,16.257z"/>
<path fill="#6060E2" d="M25.084,23.217c-1.242,4.445-6.315,6.911-11.332,5.509c-5.016-1.4-8.076-6.139-6.834-10.583
	c1.241-4.443,6.315-6.913,11.331-5.51C23.264,14.031,26.323,18.773,25.084,23.217z"/>
<path fill="#4848CC" d="M16.135,28.14c-5.014-1.401-8.074-6.139-6.833-10.583c0.699-2.499,2.609-4.374,5.04-5.286
	c-3.516,0.373-6.509,2.569-7.424,5.839c-1.241,4.445,1.819,9.183,6.834,10.584c2.195,0.613,4.403,0.486,6.295-0.225
	C18.786,28.604,17.458,28.51,16.135,28.14z"/>
<path fill="#6060E2" d="M19.185,16.827c-0.289,1.146-1.455,1.839-2.602,1.55c-1.146-0.29-1.842-1.456-1.553-2.599
	c0.291-1.15,1.456-1.842,2.601-1.553C18.778,14.517,19.475,15.68,19.185,16.827z"/>
<polygon fill="#181896" points="14.538,18.684 14.468,14.396 18.524,13.006 21.101,16.434 18.637,19.942 "/>
<path fill="#4C4CCC" d="M19.845,17.015c-0.345,1.364-1.736,2.194-3.104,1.849c-1.368-0.346-2.196-1.733-1.85-3.103
	c0.346-1.366,1.733-2.193,3.101-1.848C19.362,14.258,20.192,15.646,19.845,17.015z"/>
<circle fill="#2222AF" cx="17.368" cy="16.389" r="1.511"/>
<polygon fill="#111160" points="6.42,10.312 6.366,7.009 9.491,5.938 11.476,8.577 9.579,11.281 "/>
<circle fill="#4646B7" cx="8.6" cy="8.609" r="1.937"/>
<circle fill="#1B1B9B" cx="8.6" cy="8.543" r="1.164"/>
<circle fill="#2222AF" cx="22.389" cy="7.739" r="1.383"/>
<polygon fill="#161687" points="21.584,10.41 19.617,7.721 21.569,5.018 24.741,6.04 24.751,9.371 "/>
<circle fill="#3C3CC6" cx="22.39" cy="7.739" r="1.962"/>
<path fill="#A7A7EA" d="M22.104,16.358c0,0,4.407,1.668,1.388,8.229C23.491,24.587,24.492,19.382,22.104,16.358z"/>
<path fill="#3838BA" d="M3.073,14.794c0,0-3.228-3.434,2.366-8.002C5.439,6.792,2.254,11.029,3.073,14.794z"/>
<path fill="#8D8DD3" d="M26.549,6.236c0,0,4.279,0.513,3.039,7.003C29.588,13.239,29.332,8.396,26.549,6.236z"/>
<circle fill="#1E1E9E" cx="22.389" cy="7.712" r="1.169"/>
</svg>
