<?xml version="1.0" encoding="utf-8"?>
<!-- Generator: Adobe Illustrator 16.0.0, SVG Export Plug-In . SVG Version: 6.00 Build 0)  -->
<!DOCTYPE svg PUBLIC "-//W3C//DTD SVG 1.1//EN" "http://www.w3.org/Graphics/SVG/1.1/DTD/svg11.dtd">
<svg version="1.1" id="Layer_1" xmlns="http://www.w3.org/2000/svg" xmlns:xlink="http://www.w3.org/1999/xlink" x="0px" y="0px"
	 width="32px" height="32px" viewBox="0 0 32 32" enable-background="new 0 0 32 32" xml:space="preserve">
<path fill="#4D56C1" d="M20.228,2.978h-1.707c0-0.896-0.894-1.623-1.997-1.623h-0.839c-1.103,0-1.998,0.727-1.998,1.623h-1.29
	L9.92,7.517h12.864L20.228,2.978z"/>
<polygon fill="#4D56C1" points="12.226,18.697 9.749,30.078 22.612,30.078 20.056,18.697 "/>
<ellipse fill="#CFF5F9" cx="16.104" cy="13.724" rx="9.549" ry="9.143"/>
<path fill="#ACDFE2" d="M17.144,21.747c-5.273,0-9.549-4.094-9.549-9.143c0-2.171,0.794-4.162,2.114-5.731
	C7.613,8.55,6.278,11.07,6.278,13.891c0,5.049,4.275,9.143,9.549,9.143c3.006,0,5.684-1.333,7.435-3.412
	C21.604,20.948,19.472,21.747,17.144,21.747z"/>
<ellipse fill="#EA2828" cx="14.328" cy="19.235" rx="2.024" ry="1.938"/>
<ellipse fill="#EA2828" cx="22.17" cy="13.421" rx="2.024" ry="1.938"/>
<ellipse fill="#1EED00" cx="10.705" cy="17.298" rx="2.024" ry="1.938"/>
<ellipse fill="#1EED00" cx="18.408" cy="15.361" rx="2.024" ry="1.937"/>
<ellipse fill="#00B1FF" cx="18.408" cy="19.236" rx="2.024" ry="1.937"/>
<ellipse fill="#FFF422" cx="10.704" cy="13.422" rx="2.024" ry="1.938"/>
<ellipse fill="#FFF422" cx="21.992" cy="17.297" rx="2.024" ry="1.939"/>
<ellipse fill="#C6AEFF" cx="14.328" cy="15.359" rx="2.024" ry="1.939"/>
<ellipse fill="#00B1FF" cx="16.581" cy="11.982" rx="2.024" ry="1.939"/>
<path fill="#17266D" d="M17.515,27.184c0,0.706-0.598,1.277-1.334,1.277l0,0c-0.737,0-1.334-0.572-1.334-1.277v-2.015
	c0-0.706,0.597-1.277,1.334-1.277l0,0c0.737,0,1.334,0.572,1.334,1.277V27.184z"/>
</svg>
