<?xml version="1.0" encoding="utf-8"?>
<!-- Generator: Adobe Illustrator 16.0.0, SVG Export Plug-In . SVG Version: 6.00 Build 0)  -->
<!DOCTYPE svg PUBLIC "-//W3C//DTD SVG 1.1//EN" "http://www.w3.org/Graphics/SVG/1.1/DTD/svg11.dtd">
<svg version="1.1" id="Layer_1" xmlns="http://www.w3.org/2000/svg" xmlns:xlink="http://www.w3.org/1999/xlink" x="0px" y="0px"
	 width="32px" height="32px" viewBox="0 0 32 32" enable-background="new 0 0 32 32" xml:space="preserve">
<rect x="4.079" y="12.542" fill="#EFE752" width="20.787" height="12.395"/>
<polygon fill="#E5CE28" points="6.162,22.565 6.162,12.542 4.079,12.542 4.079,24.937 24.866,24.937 24.866,22.565 "/>
<rect x="2.666" y="24.804" fill="#828D8E" width="26.668" height="1.076"/>
<path fill="#E5D32C" d="M14.381,12.292c-0.198,0-0.372,0.057-0.527,0.135c-0.143-0.078-0.299-0.135-0.473-0.135
	c-0.24,0-0.451,0.096-0.624,0.237c-0.182-0.141-0.461-0.237-0.793-0.237c-0.552,0-0.999,0.252-0.999,0.564v2.752
	c0,0.312,0.447,0.563,0.999,0.563c0.15,0,0.29-0.021,0.418-0.055v2.056c0,0.552,0.447,0.999,0.999,0.999c0.553,0,1-0.447,1-0.999
	v-0.501c0.553,0,1-0.35,1-0.781v-3.816C15.381,12.642,14.934,12.292,14.381,12.292z"/>
<polygon fill="#8F9B9B" points="9.382,12.542 19.298,3.172 20.215,3.672 15.298,8.839 15.215,12.542 "/>
<rect x="25.364" y="12.541" fill="#EFE752" width="2.135" height="12.263"/>
</svg>
