<?xml version="1.0" encoding="utf-8"?>
<!-- Generator: Adobe Illustrator 16.0.0, SVG Export Plug-In . SVG Version: 6.00 Build 0)  -->
<!DOCTYPE svg PUBLIC "-//W3C//DTD SVG 1.1//EN" "http://www.w3.org/Graphics/SVG/1.1/DTD/svg11.dtd">
<svg version="1.1" id="Layer_1" xmlns="http://www.w3.org/2000/svg" xmlns:xlink="http://www.w3.org/1999/xlink" x="0px" y="0px"
	 width="32px" height="32px" viewBox="0 0 32 32" enable-background="new 0 0 32 32" xml:space="preserve">
<rect x="3.313" y="8.718" fill="#68787A" width="25.499" height="20.35"/>
<rect x="4.997" y="10.172" fill="#B5C7C9" width="22.133" height="17.236"/>
<polygon fill="#354F56" points="1.693,4.408 3.498,8.837 28.696,8.837 30.308,4.408 "/>
<path fill="#8C462A" d="M8.512,11.385c0.016-0.026,0.047-0.053,0.047-0.083c0-0.242-0.547-0.44-1.223-0.44
	c-0.676,0-1.223,0.198-1.223,0.44c0,0.03,0.031,0.057,0.047,0.083H6.068v14.312h0.045c0,0.246,0.547,0.443,1.223,0.443
	c0.675,0,1.223-0.197,1.223-0.443h0.044V11.385H8.512z"/>
<path fill="#8C462A" d="M12.021,11.385c0.015-0.026,0.046-0.053,0.046-0.083c0-0.242-0.547-0.44-1.223-0.44s-1.222,0.198-1.222,0.44
	c0,0.03,0.031,0.057,0.047,0.083H9.577v14.312h0.045c0,0.246,0.547,0.443,1.222,0.443s1.223-0.197,1.223-0.443h0.045V11.385H12.021z
	"/>
<path fill="#8C462A" d="M15.434,11.385c0.016-0.026,0.047-0.053,0.047-0.083c0-0.242-0.547-0.44-1.223-0.44s-1.222,0.198-1.222,0.44
	c0,0.03,0.031,0.057,0.046,0.083h-0.092v14.312h0.046c0,0.246,0.546,0.443,1.222,0.443s1.223-0.197,1.223-0.443h0.045V11.385H15.434
	z"/>
<path fill="#8C462A" d="M18.872,11.385c0.016-0.026,0.047-0.053,0.047-0.083c0-0.242-0.546-0.44-1.224-0.44
	c-0.675,0-1.222,0.198-1.222,0.44c0,0.03,0.032,0.057,0.047,0.083h-0.092v14.312h0.045c0,0.246,0.547,0.443,1.222,0.443
	c0.678,0,1.224-0.197,1.224-0.443h0.045V11.385H18.872z"/>
<path fill="#3D1911" d="M6.781,25.696H6.735V11.385h0.093c-0.016-0.026-0.047-0.053-0.047-0.083c0-0.2,0.379-0.362,0.889-0.416
	c-0.108-0.012-0.215-0.024-0.333-0.024c-0.676,0-1.223,0.198-1.223,0.44c0,0.03,0.031,0.057,0.047,0.083H6.068v14.312h0.045
	c0,0.246,0.547,0.443,1.223,0.443c0.118,0,0.225-0.013,0.333-0.024C7.16,26.062,6.781,25.899,6.781,25.696z"/>
<path fill="#3D1911" d="M10.289,25.696h-0.045V11.385h0.093c-0.016-0.026-0.047-0.053-0.047-0.083c0-0.2,0.379-0.362,0.889-0.416
	c-0.108-0.012-0.215-0.024-0.333-0.024c-0.676,0-1.223,0.198-1.223,0.44c0,0.03,0.031,0.057,0.047,0.083H9.577v14.312h0.045
	c0,0.246,0.547,0.443,1.223,0.443c0.118,0,0.225-0.013,0.333-0.024C10.668,26.062,10.289,25.899,10.289,25.696z"/>
<path fill="#3D1911" d="M13.703,25.696h-0.045V11.385h0.093c-0.016-0.026-0.047-0.053-0.047-0.083c0-0.2,0.379-0.362,0.889-0.416
	c-0.108-0.012-0.215-0.024-0.333-0.024c-0.676,0-1.223,0.198-1.223,0.44c0,0.03,0.031,0.057,0.047,0.083h-0.093v14.312h0.045
	c0,0.246,0.547,0.443,1.223,0.443c0.118,0,0.225-0.013,0.333-0.024C14.083,26.062,13.703,25.899,13.703,25.696z"/>
<path fill="#3D1911" d="M17.141,25.696h-0.045V11.385h0.093c-0.017-0.026-0.048-0.053-0.048-0.083c0-0.2,0.38-0.362,0.89-0.416
	c-0.108-0.012-0.216-0.024-0.333-0.024c-0.676,0-1.223,0.198-1.223,0.44c0,0.03,0.031,0.057,0.047,0.083h-0.093v14.312h0.045
	c0,0.246,0.547,0.443,1.223,0.443c0.117,0,0.225-0.013,0.333-0.024C17.521,26.062,17.141,25.899,17.141,25.696z"/>
<path fill="#60362C" d="M29.6,15.211c0.033-0.004,0.072,0.004,0.095-0.017c0.183-0.152-0.02-0.695-0.453-1.215
	c-0.435-0.518-0.933-0.812-1.116-0.658c-0.023,0.019-0.021,0.059-0.033,0.089l-0.061-0.072l-10.764,9.013l0.029,0.035
	c-0.184,0.154,0.02,0.697,0.453,1.214c0.434,0.52,0.933,0.815,1.117,0.659l0.028,0.036l10.765-9.014L29.6,15.211z"/>
<path fill="#E2CF40" d="M28.39,16.288c-0.235,0.195-0.776-0.065-1.21-0.582c-0.434-0.518-0.594-1.096-0.358-1.293l-0.03-0.036
	l-2.629,2.203l0.029,0.033c-0.234,0.198-0.074,0.775,0.361,1.292c0.434,0.52,0.973,0.78,1.207,0.582l0.029,0.036l2.629-2.2
	L28.39,16.288z"/>
<rect x="1.693" y="3.397" fill="#B5C7C9" width="28.614" height="1.011"/>
<path fill="#E2CF40" d="M8.559,13.07c0,0.306-0.547,0.553-1.223,0.553c-0.676,0-1.223-0.247-1.223-0.553H6.068v3.43h0.045
	c0,0.306,0.547,0.554,1.223,0.554c0.675,0,1.223-0.248,1.223-0.554h0.044v-3.43H8.559z"/>
<path fill="#E2CF40" d="M12.066,13.07c0,0.306-0.547,0.553-1.223,0.553s-1.222-0.247-1.222-0.553H9.577v3.43h0.045
	c0,0.306,0.547,0.554,1.222,0.554s1.223-0.248,1.223-0.554h0.045v-3.43H12.066z"/>
<path fill="#E2CF40" d="M15.481,13.07c0,0.306-0.547,0.553-1.223,0.553s-1.222-0.247-1.222-0.553h-0.046v3.43h0.046
	c0,0.306,0.546,0.554,1.222,0.554s1.223-0.248,1.223-0.554h0.045v-3.43H15.481z"/>
<path fill="#E2CF40" d="M18.919,13.07c0,0.306-0.546,0.553-1.224,0.553c-0.675,0-1.222-0.247-1.222-0.553h-0.045v3.43h0.045
	c0,0.306,0.547,0.554,1.222,0.554c0.678,0,1.224-0.248,1.224-0.554h0.045v-3.43H18.919z"/>
</svg>
