<?xml version="1.0" encoding="utf-8"?>
<!-- Generator: Adobe Illustrator 16.0.0, SVG Export Plug-In . SVG Version: 6.00 Build 0)  -->
<!DOCTYPE svg PUBLIC "-//W3C//DTD SVG 1.1//EN" "http://www.w3.org/Graphics/SVG/1.1/DTD/svg11.dtd">
<svg version="1.1" id="Layer_1" xmlns="http://www.w3.org/2000/svg" xmlns:xlink="http://www.w3.org/1999/xlink" x="0px" y="0px"
	 width="32px" height="32px" viewBox="0 0 32 32" enable-background="new 0 0 32 32" xml:space="preserve">
<path fill="#7F422D" d="M2.542,20.908c-0.052,0.012-0.111,0.001-0.157,0.035c-0.363,0.28-0.276,1.213,0.197,2.09
	c0.471,0.875,1.147,1.358,1.511,1.08c0.045-0.035,0.061-0.104,0.091-0.156l0.065,0.119l21.308-16.37l-0.033-0.059
	c0.365-0.28,0.277-1.216-0.194-2.091c-0.472-0.876-1.148-1.358-1.513-1.079l-0.032-0.059L2.478,20.789L2.542,20.908z"/>
<path fill="#381D19" d="M25.429,5.739c-0.109-0.202-0.482-0.148-0.834,0.122l-0.008-0.015L3.993,21.668l0.016,0.028
	c-0.044,0.026-0.086,0.044-0.128,0.078c-0.013,0.01-0.021,0.021-0.034,0.032c-0.445-0.726-1.013-1.128-1.326-0.888
	c-0.34,0.262-0.245,1.156,0.21,2c0.454,0.845,1.098,1.319,1.437,1.057c0.262-0.201,0.261-0.782,0.039-1.424
	c0.023-0.016,0.046-0.025,0.069-0.042c0.043-0.032,0.076-0.071,0.114-0.108l0.017,0.029L24.998,6.609l-0.008-0.013
	C25.342,6.326,25.538,5.941,25.429,5.739z"/>
<path fill="#683525" d="M8.094,23.945c-0.052,0.017-0.112,0.012-0.155,0.049c-0.345,0.311-0.201,1.234,0.323,2.067
	c0.523,0.833,1.226,1.255,1.571,0.947c0.044-0.039,0.055-0.109,0.083-0.165l0.071,0.113L30.246,8.789L30.21,8.731
	c0.348-0.311,0.203-1.234-0.322-2.069c-0.523-0.832-1.227-1.254-1.574-0.943l-0.036-0.056L8.021,23.833L8.094,23.945z"/>
<path fill="#381D19" d="M8.106,23.859c-0.325,0.292-0.177,1.175,0.329,1.977c0.505,0.804,1.175,1.222,1.5,0.931
	c0.249-0.224-0.004-1.452,0.018-1.472C9.994,25.258,8.404,23.592,8.106,23.859z"/>
<path fill="#A85F45" d="M3.976,17.364C3.92,17.366,3.86,17.344,3.808,17.37c-0.417,0.213-0.459,1.167-0.089,2.132
	c0.368,0.965,1.006,1.573,1.425,1.362c0.05-0.026,0.078-0.093,0.117-0.139l0.051,0.13L29.826,8.371L29.8,8.306
	c0.419-0.214,0.46-1.168,0.092-2.134c-0.369-0.964-1.006-1.573-1.427-1.359L28.44,4.748L3.925,17.232L3.976,17.364z"/>
<path fill="#4C2822" d="M29.968,6.373c-0.085-0.223-0.481-0.237-0.886-0.031l-0.006-0.016L5.382,18.394l0.011,0.031
	c-0.048,0.017-0.094,0.031-0.145,0.055c-0.014,0.007-0.025,0.018-0.04,0.027c-0.361-0.811-0.896-1.32-1.256-1.137
	c-0.392,0.201-0.419,1.116-0.063,2.045c0.355,0.932,0.958,1.526,1.35,1.327c0.302-0.153,0.382-0.736,0.241-1.422
	c0.026-0.01,0.051-0.016,0.078-0.028c0.05-0.026,0.088-0.058,0.133-0.087l0.012,0.032L29.396,7.168L29.39,7.152
	C29.795,6.946,30.053,6.599,29.968,6.373z"/>
</svg>
