<?xml version="1.0" encoding="utf-8"?>
<!-- Generator: Adobe Illustrator 16.0.0, SVG Export Plug-In . SVG Version: 6.00 Build 0)  -->
<!DOCTYPE svg PUBLIC "-//W3C//DTD SVG 1.1//EN" "http://www.w3.org/Graphics/SVG/1.1/DTD/svg11.dtd">
<svg version="1.1" id="Layer_1" xmlns="http://www.w3.org/2000/svg" xmlns:xlink="http://www.w3.org/1999/xlink" x="0px" y="0px"
	 width="32px" height="32px" viewBox="0 0 32 32" enable-background="new 0 0 32 32" xml:space="preserve">
<path fill="#33681A" d="M1.571,22.158c0,0,21.118-2.954,21.523-7.16C23.503,10.79,2.81,20.846,1.571,22.158z"/>
<path fill="#33681A" d="M2.513,27.127c0,0,18.667-10.678,17.841-13.761C19.53,10.28,3.282,25.711,2.513,27.127z"/>
<path fill="#33681A" d="M6.583,31.158c0,0,12.827-16.213,10.774-18.79C15.302,9.789,6.704,29.586,6.583,31.158z"/>
<ellipse fill="#44220B" cx="14.1" cy="11.385" rx="9.327" ry="8.44"/>
<path fill="#63391C" d="M20.441,5.19c-1.665-1.4-3.89-2.264-6.342-2.264c0,0-6.614-0.472-9.855,4.115c0,0,0.275,5.066,0.824,6.443
	l0.014-0.016c0.139,0.48,0.312,0.948,0.535,1.393c1.665,1.4,3.89,2.264,6.342,2.264c5.151,0,9.327-3.779,9.327-8.44
	C21.286,7.438,20.979,6.257,20.441,5.19z"/>
<path fill="#875129" d="M27.841,8.56c3.767,5.21,3.091,12.131-1.509,15.459c-4.601,3.331-11.387,1.805-15.154-3.404
	C7.411,15.407,24.072,3.354,27.841,8.56z"/>
<path fill="#512B11" d="M27.484,8.98c1.602,2.214-0.566,6.517-4.842,9.61c-4.275,3.092-9.037,3.805-10.641,1.593
	c-1.603-2.217,0.565-6.518,4.843-9.613C21.118,7.479,25.882,6.767,27.484,8.98z"/>
<ellipse transform="matrix(0.8102 -0.5861 0.5861 0.8102 -4.8229 14.3226)" fill="#FFFBF8" cx="19.706" cy="14.609" rx="9.078" ry="4.386"/>
<ellipse transform="matrix(0.8103 -0.586 0.586 0.8103 -5.191 14.3495)" fill="#E5E5E5" cx="19.568" cy="15.192" rx="7.514" ry="3.604"/>
<ellipse transform="matrix(0.8103 -0.5861 0.5861 0.8103 -5.0232 14.8693)" fill="#B2B2B2" cx="20.452" cy="15.192" rx="6.168" ry="3.034"/>
</svg>
