<?xml version="1.0" encoding="utf-8"?>
<!-- Generator: Adobe Illustrator 16.0.0, SVG Export Plug-In . SVG Version: 6.00 Build 0)  -->
<!DOCTYPE svg PUBLIC "-//W3C//DTD SVG 1.1//EN" "http://www.w3.org/Graphics/SVG/1.1/DTD/svg11.dtd">
<svg version="1.1" id="Layer_1" xmlns="http://www.w3.org/2000/svg" xmlns:xlink="http://www.w3.org/1999/xlink" x="0px" y="0px"
	 width="32px" height="32px" viewBox="0 0 32 32" enable-background="new 0 0 32 32" xml:space="preserve">
<g>
	
		<rect x="5.764" y="20.829" transform="matrix(-0.6709 0.7416 -0.7416 -0.6709 33.4524 33.362)" fill="#8E5F4A" width="7.117" height="6.551"/>
	<polygon fill="#AA7865" points="14.955,23.714 13.404,23.786 9.326,28.292 9.512,29.764 	"/>
	<polygon fill="#774D3C" points="9.116,18.43 8.662,19.958 13.164,24.051 14.946,23.733 	"/>
	<polygon fill="#5E3B2F" points="3.663,24.435 5.247,23.954 9.588,28.004 9.512,29.764 	"/>
	<polygon fill="#AA7865" points="9.121,18.436 9.056,20.315 5.526,24.217 3.646,24.455 	"/>
</g>
<g>
	
		<rect x="11.376" y="14.922" transform="matrix(-0.6709 0.7416 -0.7416 -0.6709 38.4492 19.3294)" fill="#8E5F4A" width="7.118" height="6.551"/>
	<polygon fill="#AA7865" points="20.566,17.806 19.015,17.88 14.939,22.386 15.122,23.858 	"/>
	<polygon fill="#774D3C" points="14.728,12.523 14.273,14.05 18.775,18.145 20.556,17.825 	"/>
	<polygon fill="#5E3B2F" points="9.275,18.528 10.859,18.047 15.201,22.098 15.122,23.858 	"/>
	<polygon fill="#AA7865" points="14.734,12.528 14.667,14.407 11.139,18.308 9.257,18.547 	"/>
</g>
<g>
	
		<rect x="16.705" y="8.917" transform="matrix(-0.6709 0.7415 -0.7415 -0.6709 42.9002 5.348)" fill="#8E5F4A" width="7.117" height="6.551"/>
	<polygon fill="#AA7865" points="25.893,11.802 24.341,11.875 20.268,16.38 20.45,17.853 	"/>
	<polygon fill="#774D3C" points="20.056,6.518 19.604,8.045 24.105,12.139 25.883,11.821 	"/>
	<polygon fill="#5E3B2F" points="14.603,12.523 16.187,12.042 20.528,16.091 20.45,17.853 	"/>
	<polygon fill="#AA7865" points="20.062,6.523 19.995,8.403 16.467,12.304 14.585,12.543 	"/>
</g>
<g>
	
		<rect x="10.961" y="3.574" transform="matrix(-0.6709 0.7415 -0.7415 -0.6709 29.3407 0.6763)" fill="#8E5F4A" width="7.119" height="6.55"/>
	<polygon fill="#AA7865" points="20.15,6.458 18.601,6.531 14.524,11.036 14.708,12.508 	"/>
	<polygon fill="#774D3C" points="14.313,1.174 13.859,2.701 18.361,6.793 20.142,6.477 	"/>
	<polygon fill="#5E3B2F" points="8.861,7.179 10.445,6.699 14.785,10.748 14.708,12.508 	"/>
	<polygon fill="#AA7865" points="14.319,1.179 14.252,3.058 10.724,6.959 8.843,7.199 	"/>
</g>
<g>
	
		<rect x="5.504" y="9.605" transform="matrix(-0.6709 0.7416 -0.7416 -0.6709 24.6939 14.8022)" fill="#8E5F4A" width="7.116" height="6.551"/>
	<polygon fill="#AA7865" points="14.693,12.49 13.141,12.563 9.065,17.068 9.248,18.54 	"/>
	<polygon fill="#774D3C" points="8.855,7.207 8.4,8.732 12.901,12.827 14.683,12.509 	"/>
	<polygon fill="#5E3B2F" points="3.402,13.211 4.986,12.731 9.326,16.78 9.248,18.54 	"/>
	<polygon fill="#AA7865" points="8.861,7.211 8.794,9.091 5.266,12.992 3.384,13.231 	"/>
</g>
<g>
	<path fill="#5D251B" d="M25.629,8.98l-0.092,0.61l-0.192,1.27l-0.655,0.625c0,0-0.082-1.041-1.845,0.052
		c0,0-1.169,2.458-1.556,2.36C20.907,13.8,14.56,21.94,19.13,28.145c0,0,1.219,2.5,2.873,2.112c1.656-0.386,3.472-2.348,4.685-4.558
		c1.214-2.213,2.399-4.779,1.742-8.856c-0.66-4.077-0.565-5.23-1.964-5.473c-1.402-0.242-0.147-1.139-0.147-1.139l0.638-1.048
		C26.956,9.182,25.722,8.369,25.629,8.98z"/>
	
		<ellipse transform="matrix(0.967 0.2547 -0.2547 0.967 6.0064 -5.196)" fill="#FFFFFF" cx="23.069" cy="20.598" rx="3.93" ry="8.338"/>
	<path fill="#FEC106" d="M25.309,15.136c-0.04,0.274-0.471,0.437-0.961,0.364c-0.487-0.075-0.851-0.357-0.811-0.633
		c0.043-0.275,0.474-0.436,0.963-0.362C24.986,14.579,25.352,14.861,25.309,15.136z"/>
	<path fill="#FEC106" d="M25.455,17.473c-0.07,0.478-0.952,0.74-1.963,0.585c-1.009-0.154-1.771-0.662-1.698-1.141
		c0.071-0.477,0.951-0.74,1.959-0.585C24.769,16.484,25.528,16.995,25.455,17.473z"/>
	
		<ellipse transform="matrix(0.9887 0.1497 -0.1497 0.9887 3.1939 -3.2283)" fill="#FEC106" cx="23.036" cy="19.596" rx="2.314" ry="1.116"/>
	<path fill="#FEC106" d="M24.304,22.619c-0.075,0.507-0.987,0.788-2.036,0.627c-1.048-0.158-1.836-0.697-1.76-1.204
		c0.079-0.507,0.99-0.786,2.038-0.627C23.596,21.574,24.384,22.112,24.304,22.619z"/>
	
		<ellipse transform="matrix(0.9887 0.15 -0.15 0.9887 3.9627 -3.0027)" fill="#FEC106" cx="21.88" cy="24.759" rx="1.259" ry="0.609"/>
	<path fill="#FEC106" d="M22.472,26.854c-0.045,0.271-0.456,0.432-0.924,0.361c-0.467-0.07-0.812-0.347-0.771-0.618
		c0.04-0.27,0.453-0.431,0.918-0.361C22.162,26.308,22.509,26.583,22.472,26.854z"/>
	
		<ellipse transform="matrix(0.9888 0.1492 -0.1492 0.9888 2.8862 -3.732)" fill="#FEC106" cx="26.32" cy="17.373" rx="0.255" ry="0.379"/>
	
		<ellipse transform="matrix(0.9887 0.1501 -0.1501 0.9887 3.1631 -3.7151)" fill="#FEC106" cx="26.185" cy="19.09" rx="0.528" ry="0.657"/>
	
		<ellipse transform="matrix(0.9886 0.1504 -0.1504 0.9886 3.4398 -3.65)" fill="#FEC106" cx="25.844" cy="20.91" rx="0.659" ry="0.838"/>
	
		<ellipse transform="matrix(0.9888 0.1493 -0.1493 0.9888 3.7171 -3.5461)" fill="#FEC106" cx="25.47" cy="22.977" rx="0.548" ry="0.696"/>
	
		<ellipse transform="matrix(0.9888 0.1492 -0.1492 0.9888 3.9569 -3.3585)" fill="#FEC106" cx="24.362" cy="24.692" rx="0.36" ry="0.458"/>
	
		<ellipse transform="matrix(-0.9721 -0.2347 0.2347 -0.9721 37.5234 37.5422)" fill="#FEC106" cx="20.996" cy="16.538" rx="0.161" ry="0.376"/>
	
		<ellipse transform="matrix(-0.9715 -0.237 0.237 -0.9715 36.1257 40.719)" fill="#FEC106" cx="20.511" cy="18.188" rx="0.335" ry="0.656"/>
	
		<ellipse transform="matrix(-0.9716 -0.2368 0.2368 -0.9716 34.9165 44.1788)" fill="#FEC106" cx="20.111" cy="19.993" rx="0.418" ry="0.839"/>
	
		<ellipse transform="matrix(-0.9707 -0.2402 0.2402 -0.9707 33.4294 48.1612)" fill="#FEC106" cx="19.65" cy="22.043" rx="0.347" ry="0.697"/>
	<path fill="#FEC106" d="M19.502,23.924c-0.061,0.244-0.011,0.467,0.111,0.499c0.123,0.03,0.271-0.146,0.332-0.392
		c0.058-0.243,0.008-0.466-0.114-0.496C19.709,23.505,19.562,23.678,19.502,23.924z"/>
</g>
</svg>
