<?xml version="1.0" encoding="utf-8"?>
<!-- Generator: Adobe Illustrator 16.0.0, SVG Export Plug-In . SVG Version: 6.00 Build 0)  -->
<!DOCTYPE svg PUBLIC "-//W3C//DTD SVG 1.1//EN" "http://www.w3.org/Graphics/SVG/1.1/DTD/svg11.dtd">
<svg version="1.1" id="Layer_1" xmlns="http://www.w3.org/2000/svg" xmlns:xlink="http://www.w3.org/1999/xlink" x="0px" y="0px"
	 width="32px" height="32px" viewBox="0 0 32 32" enable-background="new 0 0 32 32" xml:space="preserve">
<path fill="#F4E2B5" d="M18.519,7.056h-6.347c-0.394,0-0.76,0.186-1.067,0.497c-0.022,0.028-0.051,0.053-0.074,0.08
	c-0.5,0.56-0.829,1.47-0.829,2.504c0,1.702,0.883,3.082,1.971,3.082h6.347c1.088,0,1.971-1.38,1.971-3.082
	C20.489,8.436,19.606,7.056,18.519,7.056z"/>
<path fill="#F4E2B5" d="M23.846,14.378c0,2.107-1.396,3.816-3.118,3.816H10.69c-1.722,0-3.118-1.709-3.118-3.816l0,0
	c0-2.106,1.396-3.815,3.118-3.815h10.037C22.449,10.562,23.846,12.271,23.846,14.378L23.846,14.378z"/>
<path fill="#FFF8EB" d="M17.297,12.3h3.752c0.427,0,0.783,0.227,0.987,0.549c0.104-0.164,0.179-0.345,0.179-0.55
	c0-0.605-0.522-1.098-1.166-1.098h-3.752c-0.644,0-1.166,0.492-1.166,1.098c0,0.205,0.075,0.386,0.179,0.55
	C16.514,12.526,16.87,12.3,17.297,12.3z"/>
<path fill="#F4E2B5" d="M25.577,18.761c0,2.421-1.695,4.383-3.785,4.383H9.614c-2.091,0-3.785-1.962-3.785-4.383l0,0
	c0-2.42,1.694-4.383,3.785-4.383h12.178C23.882,14.378,25.577,16.341,25.577,18.761L25.577,18.761z"/>
<path fill="#FFF8EB" d="M14.604,17.101h7.69c0.983,0,1.826,0.445,2.193,1.079c0.126-0.218,0.197-0.456,0.197-0.708
	c0-0.986-1.07-1.787-2.391-1.787h-7.69c-1.32,0-2.391,0.801-2.391,1.787c0,0.252,0.071,0.49,0.197,0.708
	C12.778,17.546,13.621,17.101,14.604,17.101z"/>
<path fill="#F4E2B5" d="M17.835,2.793c0,0-3.687,4.171-6.632,4.651c-0.037,0.05-0.087,0.09-0.126,0.139l7.506,1.373
	C18.583,8.956,21.12,6.565,17.835,2.793z"/>
<g>
	<path fill="#D8BF8D" d="M23.417,21.86H11.239c-2.091,0-3.785-1.962-3.785-4.383c0-1.573,0.723-2.942,1.798-3.716
		c-0.031-0.217-0.055-0.438-0.055-0.667c0-0.903,0.265-1.725,0.694-2.375c-1.331,0.434-2.319,1.894-2.319,3.658
		c0,0.229,0.023,0.45,0.055,0.667c-1.075,0.773-1.798,2.143-1.798,3.716c0,2.421,1.694,4.383,3.785,4.383h12.178
		c1.149,0,2.166-0.605,2.86-1.542C24.264,21.758,23.853,21.86,23.417,21.86z"/>
	<path fill="#D8BF8D" d="M17.994,2.994c-0.056-0.067-0.1-0.133-0.159-0.201c0,0-0.835,0.947-2.025,1.992
		C16.623,4.216,17.381,3.567,17.994,2.994z"/>
	<path fill="#D8BF8D" d="M12.214,7.056h-0.042c-0.351,0-0.674,0.155-0.959,0.405c-0.009,0.002-0.018,0.001-0.026,0.003
		c-0.042,0.057-0.1,0.103-0.145,0.157c-0.508,0.558-0.841,1.475-0.841,2.516c0,0.059,0.008,0.114,0.011,0.172
		c0.45-0.503,1.014-0.857,1.646-0.973c-0.017-0.158-0.031-0.317-0.031-0.482C11.826,8.177,11.977,7.564,12.214,7.056z"/>
</g>
<path fill="#808989" d="M4.911,19.218c0,0,9.242,5.998,21.595,0l-2.57,10.117H7.396L4.911,19.218z"/>
<path fill="#636868" d="M9.259,28.085l-1.887-7.683c-1.579-0.613-2.461-1.185-2.461-1.185l2.484,10.117h16.54l0.317-1.25H9.259z"/>
<circle fill="#FFF8EB" cx="17.994" cy="5.874" r="1.075"/>
</svg>
