<?xml version="1.0" encoding="utf-8"?>
<!-- Generator: Adobe Illustrator 16.0.0, SVG Export Plug-In . SVG Version: 6.00 Build 0)  -->
<!DOCTYPE svg PUBLIC "-//W3C//DTD SVG 1.1//EN" "http://www.w3.org/Graphics/SVG/1.1/DTD/svg11.dtd">
<svg version="1.1" id="Layer_1" xmlns="http://www.w3.org/2000/svg" xmlns:xlink="http://www.w3.org/1999/xlink" x="0px" y="0px"
	 width="32px" height="32px" viewBox="0 0 32 32" enable-background="new 0 0 32 32" xml:space="preserve">
<path fill="#EA7657" d="M25.521,3.047L25.52,3.049c0.24-0.299,0.301-0.642,0.138-0.771c-0.163-0.13-0.488,0.001-0.727,0.297l0,0l0,0
	l0,0c-0.01,0.014-0.008,0.021-0.016,0.03c-4.272,8.993-13.89,19.416-13.89,19.416c0.706-0.539,1.416-1.167,2.131-1.867
	C19.712,13.728,26.402,1.338,25.521,3.047z"/>
<path fill="#9B553D" d="M18.876,10.339c-0.017-1.51-2.087-2.715-4.628-2.687c-2.536,0.027-5.492,1.099-5.476,2.61
	c0.016,1.511,2.996,2.888,5.534,2.862C16.846,13.096,18.893,11.851,18.876,10.339z"/>
<path fill="#7C3432" d="M18.844,10.106c-0.21-1.402-2.176-2.49-4.586-2.463c-2.536,0.027-5.494,1.099-5.477,2.612
	c0,0.081,0.042,0.157,0.058,0.237L18.844,10.106z"/>
<path fill="#561611" d="M10.073,10.349c-0.007,0.485,3.303,0.798,4.66,0.782c1.357-0.018,2.952-0.373,2.959-0.859
	c0.01-0.487-1.569-0.921-2.927-0.906C13.405,9.383,10.082,9.861,10.073,10.349z"/>
<path fill="#561611" d="M17.635,10.132c-0.266-0.425-1.653-0.775-2.874-0.761c-1.358,0.018-4.685,0.496-4.69,0.984
	c0,0.036,0.05,0.069,0.084,0.102L17.635,10.132z"/>
<path fill="#9B553D" d="M23.266,4.445c-0.163-1.435-2.252-2.374-4.663-2.097c-2.407,0.278-5.111,1.587-4.946,3.024
	c0.163,1.433,3.135,2.448,5.543,2.171C21.609,7.266,23.431,5.881,23.266,4.445z"/>
<path fill="#7C3432" d="M23.212,4.227c-0.338-1.312-2.313-2.15-4.601-1.888c-2.409,0.278-5.114,1.588-4.948,3.024
	c0.009,0.076,0.056,0.145,0.079,0.219L23.212,4.227z"/>
<path fill="#561611" d="M14.902,5.326c0.04,0.462,3.217,0.432,4.506,0.282c1.289-0.15,2.768-0.646,2.727-1.109
	c-0.039-0.463-1.583-0.721-2.871-0.572C17.974,4.078,14.862,4.86,14.902,5.326z"/>
<path fill="#561611" d="M22.067,4.37c-0.295-0.376-1.649-0.572-2.809-0.438c-1.289,0.15-4.401,0.934-4.36,1.398
	c0.004,0.034,0.055,0.061,0.091,0.089L22.067,4.37z"/>
<path fill="#9B553D" d="M14.667,17.015c0.233-1.632-1.801-3.274-4.545-3.664c-2.741-0.391-6.109,0.276-6.341,1.91
	c-0.232,1.63,2.756,3.61,5.497,4.001C12.022,19.653,14.435,18.649,14.667,17.015z"/>
<path fill="#7C3432" d="M14.669,16.759c0.008-1.547-1.932-3.046-4.537-3.417c-2.741-0.39-6.107,0.276-6.341,1.91
	c-0.013,0.087,0.02,0.178,0.024,0.267L14.669,16.759z"/>
<path fill="#561611" d="M5.171,15.57c-0.089,0.523,3.429,1.408,4.897,1.615c1.469,0.206,3.246,0.085,3.334-0.437
	c0.092-0.523-1.541-1.256-3.009-1.462C8.926,15.079,5.261,15.045,5.171,15.57z"/>
<path fill="#561611" d="M13.363,16.587c-0.216-0.502-1.655-1.11-2.976-1.296c-1.467-0.208-5.133-0.241-5.224,0.284
	c-0.006,0.038,0.045,0.083,0.075,0.124L13.363,16.587z"/>
<path fill="#9B553D" d="M12.664,22.492c-0.955-1.344-3.561-1.136-5.819,0.47c-2.258,1.603-4.243,4.404-3.286,5.749
	c0.953,1.344,4.483,0.723,6.74-0.879C12.559,26.226,13.619,23.837,12.664,22.492z"/>
<path fill="#7C3432" d="M12.489,22.304c-1.061-1.126-3.499-0.879-5.644,0.645c-2.258,1.604-4.242,4.403-3.286,5.749
	c0.051,0.073,0.136,0.116,0.201,0.177L12.489,22.304z"/>
<path fill="#561611" d="M4.779,27.979c0.296,0.44,3.456-1.338,4.664-2.199c1.206-0.861,2.414-2.171,2.117-2.611
	c-0.293-0.443-1.98,0.148-3.188,1.01C7.166,25.039,4.482,27.537,4.779,27.979z"/>
<path fill="#561611" d="M11.422,23.078c-0.502-0.216-1.966,0.334-3.05,1.108c-1.208,0.858-3.891,3.357-3.594,3.801
	c0.021,0.032,0.089,0.029,0.14,0.038L11.422,23.078z"/>
<path fill="#9B553D" d="M16.706,17.91c-1.639,0.205-2.632,2.72-2.215,5.618c0.415,2.896,2.028,6.143,3.668,5.936
	c1.638-0.205,2.68-3.783,2.266-6.678C20.008,19.887,18.346,17.704,16.706,17.91z"/>
<path fill="#7C3432" d="M16.459,17.977c-1.491,0.413-2.375,2.792-1.979,5.543c0.417,2.897,2.028,6.142,3.669,5.935
	c0.088-0.009,0.165-0.067,0.251-0.096L16.459,17.977z"/>
<path fill="#561611" d="M18.055,27.966c0.529-0.052,0.366-3.872,0.142-5.422c-0.226-1.55-0.855-3.327-1.384-3.274
	c-0.53,0.049-0.763,1.907-0.537,3.458C16.499,24.278,17.525,28.018,18.055,27.966z"/>
<path fill="#561611" d="M16.67,19.354c-0.421,0.355-0.592,1.986-0.389,3.379c0.222,1.548,1.25,5.288,1.781,5.237
	c0.039-0.004,0.066-0.067,0.098-0.11L16.67,19.354z"/>
<path fill="#9B553D" d="M20.667,13.32c-1.351,0.508-1.754,2.761-0.9,5.033c0.854,2.269,2.782,4.573,4.137,4.064
	c1.349-0.508,1.611-3.636,0.759-5.905C23.806,14.242,22.02,12.811,20.667,13.32z"/>
<path fill="#7C3432" d="M20.469,13.425c-1.19,0.647-1.522,2.768-0.713,4.923c0.854,2.269,2.784,4.573,4.137,4.064
	c0.07-0.028,0.127-0.091,0.192-0.13L20.469,13.425z"/>
<path fill="#561611" d="M23.555,21.22c0.439-0.152-0.364-3.225-0.822-4.439c-0.46-1.212-1.299-2.528-1.737-2.376
	c-0.44,0.152-0.315,1.711,0.142,2.925C21.597,18.544,23.114,21.372,23.555,21.22z"/>
<path fill="#561611" d="M20.887,14.502c-0.295,0.377-0.155,1.74,0.258,2.83c0.458,1.214,1.975,4.043,2.416,3.89
	c0.031-0.011,0.044-0.067,0.063-0.11L20.887,14.502z"/>
<path fill="#9B553D" d="M24.127,6.523c-1.315,0.594-1.574,2.868-0.576,5.08c0.996,2.21,3.068,4.386,4.387,3.792
	c1.313-0.594,1.376-3.732,0.381-5.942C27.316,7.242,25.443,5.929,24.127,6.523z"/>
<path fill="#7C3432" d="M23.936,6.642C22.789,7.363,22.592,9.5,23.539,11.6c0.999,2.21,3.07,4.386,4.388,3.792
	c0.07-0.032,0.12-0.098,0.186-0.143L23.936,6.642z"/>
<path fill="#561611" d="M27.514,14.222c0.428-0.18-0.568-3.195-1.104-4.377c-0.536-1.18-1.457-2.44-1.887-2.26
	c-0.429,0.18-0.204,1.728,0.33,2.91C25.388,11.677,27.084,14.403,27.514,14.222z"/>
<path fill="#561611" d="M24.422,7.689c-0.271,0.395-0.045,1.745,0.438,2.807c0.534,1.183,2.229,3.909,2.66,3.728
	c0.03-0.013,0.039-0.071,0.057-0.114L24.422,7.689z"/>
</svg>
