<?xml version="1.0" encoding="utf-8"?>
<!-- Generator: Adobe Illustrator 16.0.0, SVG Export Plug-In . SVG Version: 6.00 Build 0)  -->
<!DOCTYPE svg PUBLIC "-//W3C//DTD SVG 1.1//EN" "http://www.w3.org/Graphics/SVG/1.1/DTD/svg11.dtd">
<svg version="1.1" id="Layer_1" xmlns="http://www.w3.org/2000/svg" xmlns:xlink="http://www.w3.org/1999/xlink" x="0px" y="0px"
	 width="32px" height="32px" viewBox="0 0 32 32" enable-background="new 0 0 32 32" xml:space="preserve">
<path fill="none" stroke="#5FAF19" stroke-miterlimit="10" d="M10.272,1.531c0,14.838,8.504,26.845,19.013,26.845"/>
<path fill="none" stroke="#5FAF19" stroke-miterlimit="10" d="M5.745,4.221c0,5.055,2.743,9.145,6.134,9.145"/>
<path fill="none" stroke="#5FAF19" stroke-miterlimit="10" d="M5.96,20.101c2.124,2.98,6.374,2.544,9.504-0.978"/>
<path fill="none" stroke="#5FAF19" stroke-miterlimit="10" d="M13.525,15.992c3.364-2.769,4.583-7.896,2.724-11.458"/>
<path fill="none" stroke="#5FAF19" stroke-miterlimit="10" d="M17.989,23.23c4.86-4.001,6.62-11.405,3.935-16.554"/>
<path fill="none" stroke="#5FAF19" stroke-miterlimit="10" d="M8.083,4.221c0,2.349-0.731,4.25-1.636,4.25"/>
<path fill="none" stroke="#5FAF19" stroke-miterlimit="10" d="M3.196,7.402C4.432,9.166,5.98,9.984,6.659,9.233"/>
<path fill="none" stroke="#5FAF19" stroke-miterlimit="10" d="M18.226,13.474c1.708,2.438,3.817,3.602,4.717,2.605"/>
<path fill="none" stroke="#5FAF19" stroke-miterlimit="10" d="M9.845,16.43c0,3.123-0.462,5.648-1.033,5.648"/>
<path fill="none" stroke="#5FAF19" stroke-miterlimit="10" d="M14.518,6.278c0,1.669,1.163,3.021,2.601,3.021"/>
<path fill="none" stroke="#5FAF19" stroke-miterlimit="10" d="M20.585,10.334c0,1.67,1.163,3.021,2.601,3.021"/>
<path fill="none" stroke="#5FAF19" stroke-miterlimit="10" d="M5.704,23.581c1.255,0.544,2.651-0.396,3.121-2.103"/>
<path fill="none" stroke="#5FAF19" stroke-miterlimit="10" d="M11.592,26.044c0.938-1.182,0.873-3.171-0.145-4.446"/>
<path fill="none" stroke="#5FAF19" stroke-miterlimit="10" d="M16.201,12.381c2.814-1.729,4.269-5.238,3.254-7.847"/>
<path fill="none" stroke="#5FAF19" stroke-miterlimit="10" d="M23.409,27.323c1.574-0.968,1.933-4.101,0.803-7.006"/>
<path fill="none" stroke="#5FAF19" stroke-miterlimit="10" d="M22.608,16.226c1.559,0.103,2.929-2.428,3.063-5.656"/>
</svg>
