<?xml version="1.0" encoding="utf-8"?>
<!-- Generator: Adobe Illustrator 16.0.0, SVG Export Plug-In . SVG Version: 6.00 Build 0)  -->
<!DOCTYPE svg PUBLIC "-//W3C//DTD SVG 1.1//EN" "http://www.w3.org/Graphics/SVG/1.1/DTD/svg11.dtd">
<svg version="1.1" id="Layer_1" xmlns="http://www.w3.org/2000/svg" xmlns:xlink="http://www.w3.org/1999/xlink" x="0px" y="0px"
	 width="32px" height="32px" viewBox="0 0 32 32" enable-background="new 0 0 32 32" xml:space="preserve">
<path fill="#3F111C" d="M21.933,13.335c0,0,1.414,1.35,1.787,1.266c0.374,0.897,1.409,0.584,1.496,0.583
	c0.088-0.004,0.96,0.01,2.09-0.967c0,0,3.125-0.504,0.691-3.74c0,0-0.647-0.992-1.86-0.836c-1.377-0.499-1.554-0.213-1.554-0.213
	s-1.158,0.555-1.675,0.572c-0.516,0.019-0.945,0.034-1.634,1.372C20.583,12.707,21.933,13.335,21.933,13.335z"/>
<path fill="#C6720E" d="M11.181,15.235c-4.627-0.648-8.633,0.632-8.946,2.861c-0.313,2.229,3.183,4.564,7.811,5.217
	c4.626,0.65,8.632-0.629,8.946-2.859C19.305,18.223,15.808,15.889,11.181,15.235z M10.445,21.441
	c-3.208-0.451-5.661-1.877-5.477-3.186c0.183-1.307,2.935-2.002,6.144-1.551c3.209,0.448,5.661,1.877,5.478,3.186
	C16.406,21.201,13.654,21.893,10.445,21.441z"/>
<path fill="#E5D32E" d="M11.324,14.216c-4.627-0.651-8.633,0.631-8.946,2.858c-0.313,2.234,3.184,4.568,7.811,5.219
	c4.627,0.648,8.632-0.631,8.946-2.861C19.448,17.205,15.952,14.868,11.324,14.216z M10.588,20.42
	c-3.208-0.447-5.662-1.873-5.478-3.186c0.184-1.305,2.935-2.002,6.144-1.549c3.209,0.452,5.662,1.875,5.478,3.186
	C16.549,20.178,13.797,20.877,10.588,20.42z"/>
<path fill="#C6720E" d="M11.973,19.207c-4.628-0.652-8.632,0.629-8.946,2.857c-0.314,2.232,3.183,4.564,7.811,5.215
	c4.626,0.652,8.632-0.627,8.946-2.857C20.097,22.191,16.601,19.857,11.973,19.207z M11.237,25.41
	c-3.209-0.451-5.661-1.877-5.477-3.186c0.184-1.307,2.936-2.002,6.144-1.551c3.209,0.453,5.661,1.879,5.478,3.186
	C17.198,25.168,14.447,25.863,11.237,25.41z"/>
<path fill="#E5D32E" d="M12.117,18.189c-4.627-0.65-8.633,0.629-8.947,2.855c-0.313,2.229,3.183,4.568,7.811,5.219
	c4.626,0.652,8.632-0.627,8.947-2.859C20.24,21.174,16.744,18.838,12.117,18.189z M11.381,24.395
	c-3.208-0.455-5.662-1.881-5.478-3.186c0.184-1.311,2.935-2.006,6.144-1.555c3.209,0.455,5.661,1.881,5.478,3.189
	C17.341,24.15,14.59,24.842,11.381,24.395z"/>
<path fill="#AF7828" d="M13.134,6.14l-0.003-0.001c-0.372-0.102-0.818-0.135-1.309-0.109c-1.166-0.746-3.003-1.43-5.19-0.593
	c-0.097,0.02-0.188,0.044-0.251,0.076C6.354,5.527,6.336,5.544,6.311,5.559c-0.024,0.01-0.048,0.015-0.072,0.027c0,0,0.012,0,0.03,0
	C5.977,5.768,5.803,6.013,5.884,6.173C5.97,6.345,6.902,6.306,7.309,6.142c0.15,0.311,0.167,0.789-0.134,1.541
	C5.866,8.534,4.922,9.55,4.577,10.455H4.576c0,0-1.592,3.52,1.004,3.31l-0.011,0.005c0,0,0.017-0.002,0.041-0.009
	c0.403-0.036,0.901-0.159,1.521-0.396c1.602-0.498,4.225-1.518,6.838-3.451c0.503-0.322,0.871-0.62,1.135-0.895
	c0.003-0.003,0.007-0.007,0.01-0.008L15.11,9.013C17.037,6.98,13.134,6.14,13.134,6.14z"/>
<path fill="#E2B564" d="M8.651,9.531c0.762-1.368,2.299-3.761,4.194-4.771c0,0,1.271-1.058,3.214-1.285
	c0.041-0.003-1.9,1.462-1.593,1.896c0.308,0.434,2.728,1.621,3.31,2.297c0.001,0.002-0.001,0.004,0,0.007
	c0.563,0.512,0.953,1.173,1.088,1.951c0.416,2.385-1.679,4.95-4.683,5.726c-3.002,0.779-5.775-0.526-6.192-2.912
	C7.878,11.802,8.504,9.761,8.651,9.531z"/>
<path fill="#DB8D58" d="M17.586,7.71c0-0.001,0-0.005-0.001-0.008c-0.514-0.597-4.022-2.485-4.386-2.852
	c-0.128,0.088-0.201,0.146-0.201,0.146c-1.764,0.941-3.193,3.169-3.902,4.441c-0.135,0.213-0.255,0.434-0.35,0.658
	c-0.084,0.171-0.136,0.277-0.136,0.277s0.015-0.003,0.036-0.007c-0.201,0.582-0.268,1.186-0.165,1.777
	c0.389,2.22,2.967,3.433,5.762,2.71c2.792-0.725,4.744-3.11,4.355-5.33C18.472,8.799,18.11,8.187,17.586,7.71z"/>
<path fill="#B75B37" d="M17.328,7.854c-0.001-0.002,0-0.003-0.002-0.003c-0.484-0.564-3.785-2.341-4.125-2.687
	c-0.12,0.083-0.188,0.139-0.188,0.139c-1.661,0.885-3.005,2.981-3.674,4.177C9.212,9.683,9.1,9.89,9.008,10.103
	c-0.08,0.158-0.125,0.258-0.125,0.258s0.011-0.002,0.033-0.007C8.727,10.9,8.662,11.469,8.76,12.026
	c0.365,2.089,2.792,3.232,5.421,2.55c2.63-0.681,4.465-2.926,4.098-5.014C18.162,8.882,17.822,8.303,17.328,7.854z"/>
<path fill="#A53E26" d="M15.81,8.514c0,0,0.001-0.002-0.001-0.003c-0.316-0.368-2.471-1.528-2.694-1.754
	c-0.078,0.055-0.124,0.089-0.124,0.089c-1.084,0.58-1.962,1.95-2.398,2.731c-0.084,0.132-0.158,0.268-0.216,0.405
	c-0.052,0.105-0.083,0.17-0.083,0.17s0.008,0,0.021-0.004c-0.124,0.358-0.165,0.728-0.102,1.091c0.24,1.364,1.826,2.11,3.542,1.667
	c1.717-0.445,2.916-1.913,2.677-3.276C16.354,9.185,16.131,8.809,15.81,8.514z"/>
<path fill="#DBA437" d="M16.54,8.551c-0.177,0.179-0.461,0.214-0.637,0.077c-0.177-0.136-0.176-0.391,0-0.569
	c0.178-0.178,0.464-0.212,0.639-0.077C16.716,8.118,16.716,8.372,16.54,8.551z"/>
<path fill="#C9912D" d="M15.553,9.546c-0.176,0.179-0.464,0.214-0.639,0.078c-0.175-0.136-0.175-0.39,0.001-0.57
	c0.176-0.178,0.464-0.211,0.64-0.077C15.73,9.115,15.729,9.369,15.553,9.546z"/>
<path fill="#DBA437" d="M14.968,8.525c-0.177,0.179-0.462,0.214-0.639,0.078c-0.175-0.137-0.175-0.391,0.002-0.571
	c0.177-0.177,0.463-0.212,0.64-0.075C15.146,8.092,15.146,8.347,14.968,8.525z"/>
<path fill="#DBA437" d="M14.324,10.308c-0.178,0.179-0.464,0.214-0.64,0.077c-0.176-0.136-0.174-0.391,0.002-0.568
	c0.177-0.179,0.463-0.213,0.639-0.077S14.5,10.13,14.324,10.308z"/>
<path fill="#DBA437" d="M14.155,9.345c-0.176,0.178-0.462,0.213-0.638,0.077c-0.176-0.136-0.176-0.391,0.002-0.57
	c0.177-0.178,0.463-0.212,0.64-0.077C14.333,8.911,14.333,9.166,14.155,9.345z"/>
<path fill="#DBA437" d="M13.691,8.439c-0.175,0.178-0.46,0.213-0.637,0.078c-0.175-0.137-0.175-0.392,0.001-0.57
	c0.177-0.178,0.463-0.213,0.64-0.075C13.871,8.007,13.869,8.262,13.691,8.439z"/>
<path fill="#C9912D" d="M12.463,9.201c-0.176,0.178-0.462,0.213-0.638,0.076c-0.175-0.134-0.176-0.39,0.001-0.567
	c0.178-0.179,0.464-0.213,0.639-0.077C12.642,8.768,12.641,9.021,12.463,9.201z"/>
<path fill="#DBA437" d="M12.845,7.29c-0.175,0.179-0.46,0.212-0.637,0.076c-0.176-0.135-0.176-0.39,0.002-0.568
	c0.177-0.179,0.462-0.213,0.639-0.078C13.023,6.856,13.023,7.11,12.845,7.29z"/>
<path fill="#DBA437" d="M13.179,10.326c-0.176,0.178-0.462,0.213-0.637,0.077c-0.176-0.135-0.175-0.39,0.001-0.569
	c0.177-0.178,0.462-0.211,0.639-0.076C13.358,9.893,13.357,10.148,13.179,10.326z"/>
<path fill="#DBA437" d="M12.193,11.321c-0.177,0.18-0.463,0.214-0.638,0.077c-0.175-0.134-0.175-0.39,0.003-0.569
	c0.176-0.178,0.462-0.212,0.637-0.076C12.37,10.889,12.369,11.145,12.193,11.321z"/>
<path fill="#DBA437" d="M11.61,10.299c-0.178,0.179-0.465,0.214-0.64,0.079c-0.175-0.135-0.174-0.392,0.003-0.57
	c0.176-0.177,0.463-0.212,0.639-0.076C11.787,9.866,11.787,10.122,11.61,10.299z"/>
<path fill="#B27C1D" d="M10.964,12.083c-0.177,0.18-0.464,0.213-0.639,0.077c-0.175-0.135-0.175-0.391,0.001-0.569
	c0.178-0.178,0.465-0.212,0.641-0.075C11.142,11.65,11.141,11.905,10.964,12.083z"/>
<path fill="#DBA437" d="M10.797,11.119c-0.178,0.179-0.463,0.213-0.639,0.078c-0.175-0.136-0.174-0.392,0.003-0.57
	c0.176-0.178,0.463-0.212,0.637-0.075C10.974,10.687,10.974,10.941,10.797,11.119z"/>
<path fill="#C9912D" d="M14.349,12.13c-0.177,0.18-0.462,0.214-0.638,0.077c-0.177-0.135-0.175-0.39,0-0.568
	c0.179-0.179,0.464-0.212,0.639-0.077C14.529,11.698,14.527,11.954,14.349,12.13z"/>
<path fill="#B27C1D" d="M14.673,10.766c-0.177,0.179-0.462,0.214-0.64,0.077c-0.174-0.136-0.174-0.39,0.004-0.568
	c0.176-0.178,0.463-0.214,0.638-0.077C14.851,10.334,14.85,10.587,14.673,10.766z"/>
<path fill="#DBA437" d="M12.778,12.105c-0.178,0.178-0.462,0.213-0.639,0.077c-0.176-0.136-0.173-0.39,0.004-0.569
	c0.175-0.179,0.462-0.213,0.638-0.077C12.957,11.672,12.955,11.927,12.778,12.105z"/>
<path fill="#C9912D" d="M13.445,11.528c-0.179,0.179-0.463,0.213-0.639,0.077c-0.175-0.135-0.176-0.391,0.002-0.57
	c0.176-0.177,0.463-0.211,0.639-0.076C13.621,11.096,13.621,11.349,13.445,11.528z"/>
<path fill="#B27C1D" d="M13.277,10.563c-0.177,0.179-0.464,0.213-0.639,0.078c-0.176-0.136-0.175-0.392,0.002-0.57
	c0.176-0.178,0.463-0.211,0.639-0.075C13.454,10.131,13.454,10.386,13.277,10.563z"/>
<path fill="#63202B" d="M21.606,12.217c0,0-2.059-0.48-2.359-0.193c-0.843-0.629-1.634,0.227-1.713,0.281
	c-0.08,0.052-0.901,0.514-1.416,2.046c0,0-2.627,2.191,1.42,3.864c0,0,1.145,0.564,2.189-0.246c1.557-0.295,1.564-0.658,1.564-0.658
	s0.772-1.151,1.242-1.456c0.472-0.301,0.862-0.553,0.767-2.174C23.207,12.057,21.606,12.217,21.606,12.217z"/>
<path fill="#AD6674" d="M21.55,13.394c0,0-3.306-1.185-4.877,2.342C16.673,15.736,20.122,11.572,21.55,13.394z"/>
<path fill="#AD6674" d="M17.822,16.519c0,0,2.374,0.518,3.844-1.736C21.666,14.783,18.573,17.887,17.822,16.519z"/>
<path fill="#AD6674" d="M19.683,17.383c0,0,2.376-0.504,2.789-3.165C22.471,14.218,20.929,18.318,19.683,17.383z"/>
<path fill="#823745" d="M28.072,18.559c0,0-2.167-1.955-2.668-1.817c-0.66-1.314-2.041-0.83-2.164-0.823
	c-0.119,0.009-1.329,0.007-2.74,1.476c0,0-4.246,0.827-0.374,5.539c0,0,1.048,1.445,2.703,1.181
	c1.984,0.697,2.188,0.277,2.188,0.277s1.513-0.852,2.224-0.891c0.712-0.04,1.306-0.071,2.052-2.062
	C30.036,19.449,28.072,18.559,28.072,18.559z"/>
<path fill="#CC5E44" d="M28.223,20.511c0,0-4.512-5.021-8.046-1.594C20.176,18.917,27.05,16.586,28.223,20.511z"/>
<path fill="#CC5E44" d="M19.729,19.528c0,0,4.108,5.469,7.445,2.724C27.174,22.252,20.659,24.127,19.729,19.528z"/>
<path fill="#CC5E44" d="M22.876,19.604c0,0,3.366,3.206,5.312,1.037C28.188,20.642,24.006,22.562,22.876,19.604z"/>
</svg>
