<?xml version="1.0" encoding="utf-8"?>
<!-- Generator: Adobe Illustrator 16.0.0, SVG Export Plug-In . SVG Version: 6.00 Build 0)  -->
<!DOCTYPE svg PUBLIC "-//W3C//DTD SVG 1.1//EN" "http://www.w3.org/Graphics/SVG/1.1/DTD/svg11.dtd">
<svg version="1.1" id="Layer_1" xmlns="http://www.w3.org/2000/svg" xmlns:xlink="http://www.w3.org/1999/xlink" x="0px" y="0px"
	 width="32px" height="32px" viewBox="0 0 32 32" enable-background="new 0 0 32 32" xml:space="preserve">
<path fill="#43632E" d="M27.509,31.113c0,0,0.04-0.082,0.112-0.232c0.042,0.029,0.11,0.074,0.11,0.074l-0.05-0.204
	c1.182-2.532,8.225-18.996-6.093-22.936L21.519,7.55c-0.062,0.064-0.097,0.126-0.151,0.188c-0.026-0.006-0.047-0.018-0.074-0.024
	l0.025,0.087c-10.281,11.293,3.832,21.434,6.09,22.942L27.509,31.113z"/>
<path fill="#54773D" d="M1.174,5.548c0,0,0.053,0.069,0.152,0.194C1.28,5.767,1.209,5.806,1.209,5.806l0.203,0.042
	C3.089,7.925,14.29,20.865,24.7,9.975l0.269,0.049c-0.026-0.081-0.065-0.137-0.093-0.21c0.019-0.02,0.038-0.034,0.057-0.055
	l-0.088-0.012C19.79-3.895,3.98,4.261,1.552,5.614L1.174,5.548z"/>
<path fill="#6C9955" d="M17.921,9.457c-0.092-0.001-0.171,0.012-0.27,0.012c-0.013-0.023-0.026-0.044-0.041-0.067l-0.049,0.07
	C-0.004,9.235,4.491,25.593,5.299,28.136l-0.197,0.302c0,0,0.1-0.022,0.273-0.063C5.391,28.42,5.417,28.5,5.417,28.5l0.108-0.163
	c3.041-0.764,21.694-6.07,12.267-18.676L17.921,9.457z"/>
<path fill="#FFFAD2" d="M11.924,14.686c0.322-0.76,0.161-1.554-0.359-1.774c-0.393-0.167-0.875,0.04-1.228,0.477
	c-0.319-0.729-0.972-1.152-1.482-0.946c-0.524,0.212-0.699,1.003-0.39,1.768c0.005,0.014,0.013,0.024,0.019,0.039
	c-0.63-0.139-1.215,0.04-1.398,0.475c-0.221,0.52,0.215,1.203,0.976,1.525c0.148,0.062,0.298,0.102,0.444,0.129
	c-0.146,0.637,0.033,1.232,0.471,1.419c0.52,0.221,1.203-0.217,1.525-0.976c0.027-0.061,0.044-0.124,0.064-0.184
	c0.057,0.03,0.113,0.062,0.174,0.088c0.76,0.323,1.554,0.162,1.775-0.358c0.195-0.462-0.128-1.051-0.733-1.403
	C11.833,14.877,11.882,14.784,11.924,14.686z"/>
<circle fill="#CEBB5B" cx="9.856" cy="14.92" r="0.735"/>
<circle fill="#E5CD67" cx="9.856" cy="14.92" r="0.61"/>
<ellipse transform="matrix(0.3903 -0.9207 0.9207 0.3903 -7.8532 15.2534)" fill="#F4D34D" cx="7.59" cy="13.556" rx="0.31" ry="0.468"/>
<ellipse transform="matrix(-0.9207 -0.3903 0.3903 -0.9207 15.7219 27.8043)" fill="#F4D34D" cx="10.686" cy="12.305" rx="0.31" ry="0.468"/>
<ellipse transform="matrix(-0.6279 -0.7783 0.7783 -0.6279 -0.5787 33.4987)" fill="#F4D34D" cx="7.719" cy="16.888" rx="0.31" ry="0.469"/>
<ellipse transform="matrix(-0.1261 -0.992 0.992 -0.1261 -0.5228 29.3241)" fill="#F4D34D" cx="12.655" cy="14.892" rx="0.31" ry="0.468"/>
<line fill="#F4D34D" stroke="#EEBB81" stroke-width="0.25" stroke-miterlimit="10" x1="7.869" y1="13.74" x2="8.455" y2="14.082"/>
<line fill="#F4D34D" stroke="#EEBB81" stroke-width="0.25" stroke-miterlimit="10" x1="10.522" y1="16.597" x2="10.778" y2="17.226"/>
<line fill="#F4D34D" stroke="#EEBB81" stroke-width="0.25" stroke-miterlimit="10" x1="11.583" y1="14.97" x2="12.253" y2="14.869"/>
<line fill="#F4D34D" stroke="#EEBB81" stroke-width="0.25" stroke-miterlimit="10" x1="8.491" y1="16.266" x2="7.983" y2="16.717"/>
<line fill="#F4D34D" stroke="#EEBB81" stroke-width="0.25" stroke-miterlimit="10" x1="10.545" y1="12.678" x2="10.308" y2="13.312"/>
<path fill="#FFFAD2" d="M17.167,18.176c0.583-0.584,0.731-1.38,0.332-1.78c-0.3-0.301-0.827-0.291-1.317-0.018
	c-0.023-0.797-0.469-1.434-1.02-1.434c-0.564,0-1.023,0.669-1.023,1.494c0,0.015,0.002,0.028,0.002,0.041
	c-0.532-0.364-1.141-0.417-1.475-0.083c-0.399,0.4-0.25,1.197,0.333,1.78c0.114,0.114,0.238,0.207,0.364,0.286
	c-0.375,0.536-0.432,1.155-0.095,1.493c0.399,0.399,1.197,0.251,1.78-0.332c0.046-0.048,0.086-0.098,0.127-0.147
	c0.042,0.049,0.082,0.1,0.128,0.147c0.583,0.583,1.38,0.73,1.779,0.332c0.355-0.355,0.275-1.022-0.153-1.576
	C17.011,18.32,17.09,18.252,17.167,18.176z"/>
<circle fill="#CEBB5B" cx="15.162" cy="17.619" r="0.735"/>
<circle fill="#E5CD67" cx="15.162" cy="17.619" r="0.61"/>
<ellipse transform="matrix(0.7075 -0.7067 0.7067 0.7075 -6.988 14.1268)" fill="#F4D34D" cx="13.572" cy="15.505" rx="0.31" ry="0.468"/>
<ellipse transform="matrix(-0.7079 -0.7063 0.7063 -0.7079 17.9298 38.4258)" fill="#F4D34D" cx="16.911" cy="15.505" rx="0.31" ry="0.467"/>
<ellipse transform="matrix(-0.292 -0.9564 0.9564 -0.292 -1.7544 35.987)" fill="#F4D34D" cx="12.442" cy="18.643" rx="0.31" ry="0.467"/>
<ellipse transform="matrix(-0.9172 0.3984 -0.3984 -0.9172 27.9047 29.439)" fill="#F4D34D" cx="10.894" cy="17.619" rx="0.31" ry="0.467"/>
<ellipse transform="matrix(0.2566 -0.9665 0.9665 0.2566 -4.8101 31.0315)" fill="#F4D34D" cx="17.767" cy="18.643" rx="0.31" ry="0.468"/>
<ellipse fill="#F4D34D" cx="15.152" cy="20.499" rx="0.31" ry="0.468"/>
<line fill="#F4D34D" stroke="#EEBB81" stroke-width="0.25" stroke-miterlimit="10" x1="13.761" y1="15.78" x2="14.177" y2="16.316"/>
<line fill="#F4D34D" stroke="#EEBB81" stroke-width="0.25" stroke-miterlimit="10" x1="15.151" y1="19.422" x2="15.153" y2="20.102"/>
<line fill="#F4D34D" stroke="#EEBB81" stroke-width="0.25" stroke-miterlimit="10" x1="16.743" y1="18.312" x2="17.404" y2="18.469"/>
<line fill="#F4D34D" stroke="#EEBB81" stroke-width="0.25" stroke-miterlimit="10" x1="13.391" y1="18.354" x2="12.752" y2="18.583"/>
<line fill="#F4D34D" stroke="#EEBB81" stroke-width="0.25" stroke-miterlimit="10" x1="16.64" y1="15.797" x2="16.183" y2="16.299"/>
<path fill="#FFFAD2" d="M17.298,6.007c0.583-0.583,0.732-1.381,0.332-1.78c-0.3-0.301-0.826-0.291-1.316-0.018
	c-0.023-0.796-0.469-1.433-1.02-1.433c-0.566,0-1.024,0.669-1.024,1.493c0,0.015,0.003,0.028,0.003,0.042
	c-0.532-0.365-1.141-0.418-1.475-0.084c-0.399,0.399-0.251,1.196,0.333,1.78c0.114,0.115,0.238,0.206,0.364,0.287
	c-0.375,0.536-0.433,1.154-0.096,1.492c0.4,0.4,1.197,0.25,1.781-0.332c0.047-0.048,0.086-0.098,0.127-0.147
	c0.042,0.05,0.083,0.099,0.129,0.147c0.583,0.583,1.38,0.732,1.78,0.332c0.354-0.355,0.275-1.021-0.154-1.575
	C17.143,6.151,17.223,6.083,17.298,6.007z"/>
<circle fill="#CEBB5B" cx="15.294" cy="5.45" r="0.736"/>
<circle fill="#E5CD67" cx="15.294" cy="5.45" r="0.61"/>
<ellipse transform="matrix(0.7083 -0.7059 0.7059 0.7083 1.4889 10.6745)" fill="#F4D34D" cx="13.661" cy="3.536" rx="0.303" ry="0.456"/>
<ellipse transform="matrix(-0.7083 -0.7059 0.7059 -0.7083 26.4459 17.9991)" fill="#F4D34D" cx="16.942" cy="3.536" rx="0.303" ry="0.457"/>
<ellipse transform="matrix(-0.2904 -0.9569 0.9569 -0.2904 10.0318 20.3866)" fill="#F4D34D" cx="12.575" cy="6.474" rx="0.31" ry="0.468"/>
<ellipse transform="matrix(0.2566 -0.9665 0.9665 0.2566 7.0494 22.1123)" fill="#F4D34D" cx="17.899" cy="6.474" rx="0.31" ry="0.467"/>
<ellipse fill="#F4D34D" cx="15.284" cy="8.329" rx="0.31" ry="0.467"/>
<line fill="#F4D34D" stroke="#EEBB81" stroke-width="0.25" stroke-miterlimit="10" x1="13.846" y1="3.804" x2="14.25" y2="4.328"/>
<line fill="#F4D34D" stroke="#EEBB81" stroke-width="0.25" stroke-miterlimit="10" x1="15.283" y1="7.255" x2="15.285" y2="7.933"/>
<line fill="#F4D34D" stroke="#EEBB81" stroke-width="0.25" stroke-miterlimit="10" x1="16.875" y1="6.144" x2="17.536" y2="6.3"/>
<line fill="#F4D34D" stroke="#EEBB81" stroke-width="0.25" stroke-miterlimit="10" x1="13.523" y1="6.186" x2="12.885" y2="6.415"/>
<line fill="#F4D34D" stroke="#EEBB81" stroke-width="0.25" stroke-miterlimit="10" x1="16.677" y1="3.822" x2="16.229" y2="4.311"/>
<path fill="#FFFAD2" d="M22.621,8.681c0.583-0.583,0.732-1.38,0.333-1.78C22.652,6.6,22.126,6.61,21.635,6.883
	c-0.022-0.796-0.468-1.433-1.02-1.433c-0.564,0-1.022,0.669-1.022,1.495c0,0.014,0.002,0.027,0.002,0.04
	c-0.532-0.363-1.141-0.417-1.475-0.083c-0.399,0.4-0.251,1.197,0.332,1.78c0.114,0.114,0.238,0.207,0.364,0.287
	c-0.375,0.536-0.431,1.155-0.094,1.492c0.4,0.4,1.196,0.251,1.78-0.332c0.047-0.048,0.086-0.098,0.127-0.147
	c0.042,0.049,0.082,0.101,0.128,0.147c0.583,0.583,1.379,0.731,1.78,0.332c0.354-0.354,0.275-1.022-0.155-1.575
	C22.465,8.825,22.545,8.756,22.621,8.681z"/>
<circle fill="#CEBB5B" cx="20.616" cy="8.124" r="0.736"/>
<circle fill="#E5CD67" cx="20.616" cy="8.124" r="0.61"/>
<ellipse transform="matrix(0.7071 -0.7071 0.7071 0.7071 1.323 15.2141)" fill="#F4D34D" cx="19.027" cy="6.01" rx="0.31" ry="0.467"/>
<ellipse transform="matrix(-0.7075 -0.7067 0.7067 -0.7075 33.9413 26.0679)" fill="#F4D34D" cx="22.365" cy="6.01" rx="0.311" ry="0.468"/>
<ellipse transform="matrix(-0.2906 -0.9568 0.9568 -0.2906 14.345 28.9298)" fill="#F4D34D" cx="17.897" cy="9.147" rx="0.31" ry="0.468"/>
<ellipse transform="matrix(0.2544 -0.9671 0.9671 0.2544 8.4684 29.2778)" fill="#F4D34D" cx="23.221" cy="9.147" rx="0.31" ry="0.467"/>
<ellipse fill="#F4D34D" cx="20.606" cy="11.003" rx="0.31" ry="0.468"/>
<line fill="#F4D34D" stroke="#EEBB81" stroke-width="0.25" stroke-miterlimit="10" x1="19.216" y1="6.284" x2="19.63" y2="6.821"/>
<line fill="#F4D34D" stroke="#EEBB81" stroke-width="0.25" stroke-miterlimit="10" x1="20.606" y1="9.928" x2="20.607" y2="10.606"/>
<line fill="#F4D34D" stroke="#EEBB81" stroke-width="0.25" stroke-miterlimit="10" x1="22.197" y1="8.817" x2="22.858" y2="8.973"/>
<line fill="#F4D34D" stroke="#EEBB81" stroke-width="0.25" stroke-miterlimit="10" x1="18.845" y1="8.859" x2="18.206" y2="9.088"/>
<line fill="#F4D34D" stroke="#EEBB81" stroke-width="0.25" stroke-miterlimit="10" x1="22.095" y1="6.303" x2="21.638" y2="6.803"/>
<path fill="#FFFAD2" d="M17.034,12.318c0.583-0.583,0.733-1.38,0.333-1.78c-0.302-0.301-0.828-0.289-1.318-0.017
	c-0.023-0.797-0.469-1.434-1.019-1.434c-0.565,0-1.024,0.669-1.024,1.494c0,0.014,0.003,0.027,0.003,0.041
	c-0.532-0.365-1.142-0.417-1.474-0.083c-0.401,0.4-0.253,1.197,0.331,1.78c0.116,0.115,0.239,0.207,0.364,0.288
	c-0.375,0.535-0.432,1.154-0.094,1.492c0.399,0.4,1.196,0.251,1.779-0.332c0.046-0.048,0.086-0.098,0.128-0.148
	c0.042,0.051,0.081,0.102,0.129,0.148c0.582,0.583,1.379,0.732,1.78,0.332c0.354-0.355,0.275-1.022-0.156-1.575
	C16.878,12.462,16.958,12.395,17.034,12.318z"/>
<circle fill="#CEBB5B" cx="15.03" cy="11.761" r="0.736"/>
<circle fill="#E5CD67" cx="15.031" cy="11.761" r="0.61"/>
<ellipse transform="matrix(0.7083 -0.7059 0.7059 0.7083 -2.8901 12.3022)" fill="#F4D34D" cx="13.44" cy="9.648" rx="0.31" ry="0.468"/>
<ellipse transform="matrix(-0.7083 -0.7059 0.7059 -0.7083 21.8536 28.3266)" fill="#F4D34D" cx="16.78" cy="9.648" rx="0.31" ry="0.468"/>
<ellipse transform="matrix(-0.2923 -0.9563 0.9563 -0.2923 3.6811 28.2946)" fill="#F4D34D" cx="12.31" cy="12.785" rx="0.31" ry="0.468"/>
<ellipse transform="matrix(0.2557 -0.9668 0.9668 0.2557 0.7657 26.5652)" fill="#F4D34D" cx="17.635" cy="12.785" rx="0.31" ry="0.468"/>
<ellipse fill="#F4D34D" cx="15.02" cy="14.641" rx="0.31" ry="0.467"/>
<line fill="#F4D34D" stroke="#EEBB81" stroke-width="0.25" stroke-miterlimit="10" x1="13.629" y1="9.922" x2="14.044" y2="10.459"/>
<line fill="#F4D34D" stroke="#EEBB81" stroke-width="0.25" stroke-miterlimit="10" x1="15.019" y1="13.565" x2="15.021" y2="14.245"/>
<line fill="#F4D34D" stroke="#EEBB81" stroke-width="0.25" stroke-miterlimit="10" x1="16.612" y1="12.454" x2="17.271" y2="12.611"/>
<line fill="#F4D34D" stroke="#EEBB81" stroke-width="0.25" stroke-miterlimit="10" x1="13.259" y1="12.497" x2="12.62" y2="12.725"/>
<line fill="#F4D34D" stroke="#EEBB81" stroke-width="0.25" stroke-miterlimit="10" x1="16.509" y1="9.94" x2="16.051" y2="10.441"/>
<path fill="#FFFAD2" d="M23.407,15.47c0.503-0.653,0.549-1.462,0.101-1.808c-0.335-0.26-0.855-0.184-1.307,0.15
	c-0.125-0.787-0.647-1.362-1.194-1.292c-0.561,0.072-0.93,0.794-0.825,1.612c0.001,0.014,0.006,0.026,0.008,0.04
	c-0.573-0.292-1.185-0.267-1.473,0.105c-0.346,0.447-0.098,1.219,0.556,1.723c0.129,0.099,0.263,0.175,0.398,0.239
	c-0.303,0.578-0.281,1.2,0.096,1.492c0.447,0.346,1.219,0.096,1.723-0.557c0.042-0.053,0.074-0.109,0.109-0.163
	c0.048,0.044,0.093,0.089,0.146,0.13c0.654,0.504,1.462,0.55,1.808,0.102c0.306-0.397,0.142-1.049-0.354-1.542
	C23.271,15.631,23.342,15.555,23.407,15.47z"/>
<circle fill="#CEBB5B" cx="21.348" cy="15.174" r="0.736"/>
<circle fill="#E5CD67" cx="21.348" cy="15.174" r="0.609"/>
<ellipse transform="matrix(0.6113 -0.7914 0.7914 0.6113 -2.9292 20.596)" fill="#F4D34D" cx="19.501" cy="13.28" rx="0.31" ry="0.468"/>
<ellipse transform="matrix(-0.7914 -0.6113 0.6113 -0.7914 33.0109 36.9705)" fill="#F4D34D" cx="22.813" cy="12.853" rx="0.31" ry="0.468"/>
<ellipse transform="matrix(-0.4107 -0.9118 0.9118 -0.4107 11.4171 40.4503)" fill="#F4D34D" cx="18.781" cy="16.535" rx="0.31" ry="0.468"/>
<ellipse transform="matrix(0.1299 -0.9915 0.9915 0.1299 5.2146 37.6541)" fill="#F4D34D" cx="24.063" cy="15.856" rx="0.31" ry="0.467"/>
<ellipse transform="matrix(0.9914 -0.1306 0.1306 0.9914 -2.1692 2.9897)" fill="#F4D34D" cx="21.706" cy="18.031" rx="0.31" ry="0.467"/>
<ellipse fill="#F4D34D" cx="26.924" cy="20.646" rx="0.31" ry="0.468"/>
<line fill="#F4D34D" stroke="#EEBB81" stroke-width="0.25" stroke-miterlimit="10" x1="19.724" y1="13.529" x2="20.205" y2="14.007"/>
<line fill="#F4D34D" stroke="#EEBB81" stroke-width="0.25" stroke-miterlimit="10" x1="21.568" y1="16.964" x2="21.656" y2="17.637"/>
<line fill="#F4D34D" stroke="#EEBB81" stroke-width="0.25" stroke-miterlimit="10" x1="23.005" y1="15.659" x2="23.68" y2="15.729"/>
<line fill="#F4D34D" stroke="#EEBB81" stroke-width="0.25" stroke-miterlimit="10" x1="19.685" y1="16.129" x2="19.081" y2="16.437"/>
<line fill="#F4D34D" stroke="#EEBB81" stroke-width="0.25" stroke-miterlimit="10" x1="22.583" y1="13.179" x2="22.191" y2="13.733"/>
<g>
	<path fill="#FFFAD2" d="M28.01,15.995c-0.356-0.745-1.059-1.149-1.568-0.906c-0.383,0.184-0.549,0.683-0.456,1.237
		c-0.759-0.244-1.506-0.035-1.689,0.485c-0.188,0.533,0.29,1.187,1.069,1.461c0.013,0.005,0.027,0.007,0.039,0.011
		c-0.52,0.381-0.772,0.938-0.569,1.363c0.244,0.51,1.045,0.635,1.789,0.278c0.146-0.069,0.273-0.156,0.392-0.248
		c0.381,0.532,0.946,0.791,1.376,0.586c0.509-0.245,0.634-1.046,0.279-1.79c-0.03-0.06-0.065-0.114-0.097-0.17
		c0.06-0.022,0.121-0.042,0.182-0.071c0.743-0.357,1.148-1.059,0.904-1.568c-0.217-0.452-0.872-0.599-1.537-0.379
		C28.094,16.189,28.056,16.09,28.01,15.995z"/>
	<circle fill="#CEBB5B" cx="26.819" cy="17.699" r="0.735"/>
	<circle fill="#E5CD67" cx="26.818" cy="17.7" r="0.61"/>
	
		<ellipse transform="matrix(-0.4324 -0.9017 0.9017 -0.4324 18.1253 48.4018)" fill="#F4D34D" cx="24.297" cy="18.496" rx="0.311" ry="0.467"/>
	
		<ellipse transform="matrix(-0.9021 0.4314 -0.4314 -0.9021 54.9494 18.2307)" fill="#F4D34D" cx="25.407" cy="15.347" rx="0.311" ry="0.467"/>
	
		<ellipse transform="matrix(-0.8264 -0.563 0.563 -0.8264 43.554 44.59)" fill="#F4D34D" cx="28.65" cy="15.582" rx="0.31" ry="0.469"/>
	
		<ellipse transform="matrix(0.3304 -0.9439 0.9439 0.3304 2.1575 40.373)" fill="#F4D34D" cx="29.531" cy="18.666" rx="0.31" ry="0.468"/>
	
		<line fill="#F4D34D" stroke="#EEBB81" stroke-width="0.25" stroke-miterlimit="10" x1="24.619" y1="18.409" x2="25.263" y2="18.196"/>
	
		<line fill="#F4D34D" stroke="#EEBB81" stroke-width="0.25" stroke-miterlimit="10" x1="28.516" y1="18.309" x2="29.158" y2="18.533"/>
	
		<line fill="#F4D34D" stroke="#EEBB81" stroke-width="0.25" stroke-miterlimit="10" x1="27.999" y1="16.438" x2="28.366" y2="15.867"/>
	
		<line fill="#F4D34D" stroke="#EEBB81" stroke-width="0.25" stroke-miterlimit="10" x1="26.924" y1="19.613" x2="26.926" y2="20.293"/>
	
		<line fill="#F4D34D" stroke="#EEBB81" stroke-width="0.25" stroke-miterlimit="10" x1="25.593" y1="15.7" x2="25.912" y2="16.297"/>
</g>
</svg>
