<?xml version="1.0" encoding="utf-8"?>
<!-- Generator: Adobe Illustrator 16.0.0, SVG Export Plug-In . SVG Version: 6.00 Build 0)  -->
<!DOCTYPE svg PUBLIC "-//W3C//DTD SVG 1.1//EN" "http://www.w3.org/Graphics/SVG/1.1/DTD/svg11.dtd">
<svg version="1.1" id="Layer_1" xmlns="http://www.w3.org/2000/svg" xmlns:xlink="http://www.w3.org/1999/xlink" x="0px" y="0px"
	 width="32px" height="32px" viewBox="0 0 32 32" enable-background="new 0 0 32 32" xml:space="preserve">
<path fill="#448E2D" d="M9.823,12.181c-0.008,0.02-0.028,0.039-0.025,0.061c0.036,0.177,0.494,0.313,1.026,0.307
	c0.532-0.006,0.934-0.155,0.901-0.331c-0.004-0.023-0.032-0.042-0.049-0.06l0.073-0.001L9.722,1.806H9.684
	C9.65,1.629,9.191,1.492,8.658,1.499c-0.533,0.007-0.935,0.155-0.9,0.333l-0.036,0l2.029,10.35L9.823,12.181z"/>
<path fill="#9BA53D" d="M12.18,8.325L8.818,8.9c-0.856,1.961-2.091,5.014-2.88,7.972c4.006,2.525,5.94,5.205,6.514,7.708
	C17.454,22.013,21.187,14.786,12.18,8.325z"/>
<path fill="#448E2D" d="M16.033,15.768c-0.012,0.019-0.034,0.035-0.035,0.058c0.006,0.186,0.443,0.399,0.977,0.48
	c0.534,0.08,0.961-0.005,0.957-0.189c0-0.023-0.026-0.047-0.04-0.069l0.073,0.011L17.635,5.191l-0.038-0.005
	C17.593,5,17.155,4.785,16.621,4.705c-0.534-0.08-0.962,0.005-0.956,0.192L15.628,4.89l0.333,10.866L16.033,15.768z"/>
<path fill="#448E2D" d="M5.967,17.294c-0.008,0.02-0.029,0.039-0.026,0.061c0.032,0.177,0.487,0.323,1.021,0.326
	c0.532,0.004,0.937-0.136,0.907-0.313c-0.004-0.022-0.032-0.041-0.048-0.062l0.073,0.001L6.067,6.918l-0.037,0
	C6,6.741,5.543,6.595,5.01,6.591C4.478,6.587,4.072,6.728,4.104,6.906l-0.036,0l1.826,10.388H5.967z"/>
<path fill="#CBE269" d="M18.171,11.771c0,0-13.044,8.58-9.743,11.984C11.729,27.159,21.207,24.833,18.171,11.771z"/>
<path fill="#D6F495" d="M4.882,12.077c0,0-0.764,12.775,7.817,13.244c8.105,0.441-0.617-8.789-0.984-8.966
	S4.467,13.958,4.882,12.077z"/>
<path fill="#B9D178" d="M12.699,21.598c-5.11-0.279-6.906-4.922-7.522-8.633c-0.233-0.298-0.358-0.597-0.294-0.888
	c0,0-0.764,12.775,7.817,13.244c4.018,0.219,3.899-1.939,2.715-4.192C14.877,21.484,14.011,21.669,12.699,21.598z"/>
<path fill="none" stroke="#FBFFE9" stroke-width="0.4" stroke-miterlimit="10" d="M5.676,15.01c0,4.789,4.315,8.663,9.648,8.663"/>
<path fill="none" stroke="#FBFFE9" stroke-width="0.4" stroke-miterlimit="10" d="M6.473,15.155
	c1.409,3.761,5.012,5.883,8.056,4.743"/>
<path fill="#597F40" d="M13.985,25.729l0-0.005c-0.062,0.054-0.157-0.297-0.215-0.77s-0.06-0.904,0-0.953l0,0l0,0l0,0
	c0.001-0.007,0.006,0.011,0.007,0.009c2.185,4.028,3.972,1.108,3.848,1.509C16.487,29.142,13.578,25.089,13.985,25.729z"/>
<path fill="#CBE269" d="M15.239,26.093c3.56,3.961,9.028,2.259,9.028,2.259l-1.883-0.474l1.883,0.472c0,0-4.674-4.245-9.027-2.267
	l-0.014-0.003c0.001,0.002,0.005,0.005,0.006,0.007c-0.002,0.001-0.005,0.002-0.006,0.002L15.239,26.093z"/>
<g>
	<path fill="#448E2D" d="M24.047,28.279c-0.1,0.012-0.205,0.022-0.313,0.031l0.495,0.124C24.229,28.434,24.165,28.376,24.047,28.279
		z"/>
	<path fill="#448E2D" d="M24.229,28.435l-0.499-0.125c-1.909,0.16-4.907-0.081-7.154-2.567c-0.458,0.082-0.918,0.218-1.375,0.425
		l-0.013-0.003c0.001,0.002,0.003,0.005,0.005,0.006c-0.002,0.001-0.005,0.003-0.007,0.003l0.012,0.003
		C18.761,30.138,24.229,28.435,24.229,28.435z"/>
</g>
<g>
	<polygon fill="#A5A546" points="22.935,28.596 23.027,28.618 23.027,28.618 	"/>
	<path fill="#A5A546" d="M24.015,28.431c0.159-0.04,0.247-0.066,0.247-0.066l-0.53-0.134C23.831,28.3,23.927,28.368,24.015,28.431z"
		/>
	<path fill="#A5A546" d="M15.892,26.757c3.042-1.312,6.218,0.361,7.836,1.472l0.533,0.133c0,0-4.674-4.244-9.027-2.266l-0.013-0.003
		c0,0.002,0.003,0.006,0.006,0.006c-0.003,0.002-0.006,0.003-0.007,0.004l0.012,0.003C15.446,26.344,15.667,26.559,15.892,26.757z"
		/>
</g>
<path fill="#597F40" d="M18.778,21.841l0-0.004c-0.053,0.046-0.133-0.252-0.183-0.655s-0.051-0.769,0-0.81l0,0l0,0l0,0
	c0.001-0.006,0.005,0.009,0.006,0.008c1.858,3.426,3.377,0.942,3.272,1.284C20.906,24.745,18.432,21.297,18.778,21.841z"/>
<path fill="#CBE269" d="M19.844,22.151c3.028,3.368,7.678,1.921,7.678,1.921l-1.602-0.403l1.602,0.402c0,0-3.975-3.61-7.677-1.929
	l-0.011-0.002c0,0.002,0.003,0.004,0.005,0.006c-0.002,0.001-0.004,0.002-0.006,0.002L19.844,22.151z"/>
<g>
	<path fill="#448E2D" d="M27.336,24.01c-0.085,0.01-0.174,0.018-0.266,0.026l0.42,0.105C27.49,24.142,27.435,24.093,27.336,24.01z"
		/>
	<path fill="#448E2D" d="M27.49,24.143l-0.424-0.106c-1.624,0.136-4.174-0.069-6.084-2.184c-0.39,0.07-0.781,0.186-1.169,0.362
		l-0.011-0.003c0,0.002,0.003,0.004,0.004,0.005c-0.001,0.001-0.004,0.003-0.006,0.003l0.011,0.002
		C22.839,25.591,27.49,24.143,27.49,24.143z"/>
</g>
<g>
	<polygon fill="#A5A546" points="26.389,24.28 26.468,24.299 26.468,24.299 	"/>
	<path fill="#A5A546" d="M27.307,24.139c0.136-0.034,0.21-0.056,0.21-0.056l-0.451-0.114C27.151,24.027,27.233,24.086,27.307,24.139
		z"/>
	<path fill="#A5A546" d="M20.4,22.716c2.586-1.116,5.288,0.307,6.664,1.251l0.453,0.113c0,0-3.975-3.609-7.678-1.927l-0.011-0.003
		c0,0.002,0.003,0.005,0.005,0.005c-0.002,0.002-0.005,0.003-0.006,0.003l0.011,0.002C20.02,22.365,20.208,22.548,20.4,22.716z"/>
</g>
<path fill="#597F40" d="M19.396,25.171l0-0.004c-0.053,0.045-0.133-0.252-0.183-0.655c-0.05-0.402-0.05-0.769,0-0.81l0,0l0,0l0,0
	c0.001-0.006,0.005,0.009,0.006,0.008c1.858,3.426,3.378,0.942,3.272,1.283C21.523,28.074,19.049,24.627,19.396,25.171z"/>
<path fill="#CBE269" d="M20.461,25.481c3.028,3.368,7.678,1.92,7.678,1.92l-1.601-0.403L28.14,27.4c0,0-3.976-3.61-7.677-1.928
	l-0.011-0.003c0,0.003,0.004,0.005,0.005,0.006c-0.001,0.001-0.004,0.002-0.006,0.003L20.461,25.481z"/>
<g>
	<path fill="#448E2D" d="M27.953,27.34c-0.085,0.009-0.174,0.018-0.266,0.026l0.42,0.105C28.107,27.471,28.053,27.422,27.953,27.34z
		"/>
	<path fill="#448E2D" d="M28.107,27.472l-0.424-0.106c-1.623,0.136-4.173-0.069-6.083-2.184c-0.39,0.07-0.781,0.186-1.169,0.362
		l-0.011-0.003c0,0.002,0.003,0.004,0.005,0.005c-0.002,0.001-0.005,0.002-0.006,0.003l0.01,0.003
		C23.457,28.921,28.107,27.472,28.107,27.472z"/>
</g>
<g>
	<polygon fill="#A5A546" points="27.006,27.609 27.085,27.628 27.085,27.628 	"/>
	<path fill="#A5A546" d="M27.924,27.468c0.136-0.033,0.21-0.056,0.21-0.056l-0.451-0.114C27.769,27.357,27.851,27.415,27.924,27.468
		z"/>
	<path fill="#A5A546" d="M21.017,26.046c2.586-1.116,5.288,0.307,6.665,1.251l0.453,0.113c0,0-3.975-3.609-7.678-1.927l-0.011-0.003
		c0,0.002,0.003,0.005,0.005,0.005c-0.002,0.001-0.005,0.002-0.006,0.003l0.011,0.003C20.638,25.694,20.826,25.877,21.017,26.046z"
		/>
</g>
</svg>
