<?xml version="1.0" encoding="utf-8"?>
<!-- Generator: Adobe Illustrator 16.0.0, SVG Export Plug-In . SVG Version: 6.00 Build 0)  -->
<!DOCTYPE svg PUBLIC "-//W3C//DTD SVG 1.1//EN" "http://www.w3.org/Graphics/SVG/1.1/DTD/svg11.dtd">
<svg version="1.1" id="Layer_1" xmlns="http://www.w3.org/2000/svg" xmlns:xlink="http://www.w3.org/1999/xlink" x="0px" y="0px"
	 width="32px" height="32px" viewBox="0 0 32 32" enable-background="new 0 0 32 32" xml:space="preserve">
<path fill="#9B1E6E" d="M22.147,12.709l-0.004,0.001c-0.544-0.814-1.275-1.534-2.13-2.15c-1.34-3.731-3.877-8.23-8.308-8.974
	c-0.181-0.079-0.357-0.139-0.492-0.139c-0.058,0-0.105,0.021-0.16,0.025c-0.05-0.004-0.094-0.023-0.145-0.025
	c0,0,0.022,0.017,0.051,0.039C10.306,1.586,11.532,3,12.25,4.51c-0.053,3.938-3.956,2.903-8.337,8.199H3.911
	c0,0-5.719,7.599-1.125,10.663H2.761c0,0,0.032,0.014,0.077,0.037c0.715,0.462,1.666,0.825,2.925,1.029
	c3.146,0.878,8.476,1.713,14.573-0.008c1.13-0.186,2.01-0.499,2.695-0.901c0.007,0,0.015-0.003,0.022-0.006h-0.01
	C28.06,20.563,22.147,12.709,22.147,12.709z"/>
<path fill="#7C1443" d="M22.117,12.845l-0.004,0.002c-0.544-0.814-1.275-1.532-2.131-2.151c-1.34-3.731-3.876-8.226-8.308-8.972
	c-0.181-0.079-0.356-0.14-0.493-0.14c-0.057,0-0.105,0.021-0.159,0.023c-0.05-0.002-0.095-0.021-0.145-0.023
	c0,0,0.021,0.018,0.05,0.041c-0.159,0.022-0.31,0.07-0.445,0.133c3.992,0.767,6.295,4.841,7.517,8.24
	c0.79,0.572,1.464,1.232,1.966,1.983h0.005c0,0,5.458,7.252,0.826,9.985h0.009c-0.006,0.003-0.014,0.005-0.02,0.009
	c-0.633,0.37-1.445,0.657-2.49,0.832c-5.629,1.588-10.551,0.816-13.455,0.004c-1.162-0.19-2.04-0.521-2.7-0.948
	c-0.042-0.021-0.072-0.035-0.072-0.035h0.023c-0.469-0.313-0.806-0.684-1.063-1.084c0.148,1.063,0.644,2.044,1.726,2.766H2.73
	c0,0,0.031,0.014,0.078,0.038c0.715,0.462,1.665,0.822,2.924,1.028c3.146,0.88,8.477,1.713,14.573-0.006
	c1.131-0.19,2.01-0.502,2.696-0.902c0.005-0.002,0.014-0.005,0.021-0.008h-0.01C28.029,20.699,22.117,12.845,22.117,12.845z"/>
<path fill="#6B0B3B" d="M12.389,14.012c2.625-1.823,7.587-4.835,11.97-4.99c0,0,3.278-0.795,7.045,0.53
	c0.077,0.026-4.795,0.975-4.621,2.044c0.176,1.069,3.549,5.415,4.009,7.179c0.001,0.004-0.004,0.008-0.004,0.012
	c0.572,1.446,0.693,3.005,0.247,4.554c-1.375,4.748-7.516,7.571-13.722,6.304C11.11,28.377,7.195,23.499,8.569,18.75
	C8.936,17.484,11.916,14.305,12.389,14.012z"/>
<path fill="#D8A459" d="M29.994,18.888c0-0.004,0.002-0.008,0.001-0.012c-0.398-1.528-5.045-8.004-5.374-8.983
	c-0.308,0.048-0.49,0.091-0.49,0.091c-3.999,0.139-8.524,2.887-10.918,4.551c-0.431,0.265-0.838,0.556-1.208,0.877
	c-0.302,0.231-0.487,0.379-0.487,0.379s0.027,0.005,0.069,0.017c-0.871,0.867-1.524,1.894-1.857,3.048
	c-1.253,4.332,2.314,8.78,7.974,9.937c5.659,1.154,11.262-1.42,12.514-5.751C30.628,21.627,30.515,20.207,29.994,18.888z"/>
<path fill="#D85339" d="M28.719,18.786c0-0.001,0.004-0.005,0-0.007c-0.335-1.288-4.255-6.755-4.533-7.582
	c-0.259,0.039-0.413,0.076-0.413,0.076c-3.375,0.118-7.194,2.437-9.215,3.84c-0.362,0.225-0.708,0.471-1.02,0.742
	c-0.254,0.192-0.408,0.317-0.408,0.317s0.021,0.007,0.058,0.015c-0.734,0.732-1.286,1.597-1.568,2.572
	c-1.057,3.656,1.954,7.409,6.728,8.384c4.776,0.976,9.504-1.199,10.559-4.852C29.253,21.103,29.16,19.902,28.719,18.786z"/>
<path fill="#A0281F" d="M26.028,18.677c0-0.002,0.002-0.004,0-0.006c-0.228-0.879-2.901-4.605-3.09-5.168
	c-0.178,0.026-0.282,0.052-0.282,0.052c-2.301,0.08-4.905,1.659-6.281,2.618c-0.249,0.152-0.485,0.32-0.697,0.503
	c-0.174,0.134-0.279,0.218-0.279,0.218s0.014,0.006,0.041,0.011c-0.503,0.499-0.878,1.088-1.07,1.754
	c-0.721,2.492,1.334,5.052,4.588,5.716c3.255,0.665,6.478-0.816,7.199-3.309C26.392,20.255,26.327,19.436,26.028,18.677z"/>
<path fill="#DBA437" d="M27.732,19.289c-0.484,0.167-1.038-0.024-1.239-0.43c-0.201-0.407,0.028-0.874,0.513-1.045
	c0.485-0.168,1.04,0.029,1.239,0.434C28.446,18.654,28.216,19.12,27.732,19.289z"/>
<path fill="#C9912D" d="M25.031,20.229c-0.486,0.167-1.043-0.023-1.242-0.43c-0.2-0.407,0.028-0.875,0.514-1.045
	c0.483-0.168,1.04,0.027,1.24,0.434C25.744,19.595,25.512,20.061,25.031,20.229z"/>
<path fill="#DBA437" d="M24.875,17.833c-0.485,0.169-1.04-0.024-1.24-0.43c-0.199-0.407,0.03-0.875,0.514-1.045
	c0.485-0.167,1.041,0.028,1.241,0.435C25.589,17.198,25.359,17.664,24.875,17.833z"/>
<path fill="#DBA437" d="M22.095,20.521c-0.486,0.171-1.042-0.023-1.243-0.429c-0.199-0.408,0.032-0.875,0.516-1.043
	c0.483-0.168,1.037,0.026,1.239,0.433C22.807,19.888,22.578,20.353,22.095,20.521z"/>
<path fill="#DBA437" d="M22.651,18.605c-0.486,0.171-1.04-0.022-1.24-0.428c-0.201-0.408,0.029-0.875,0.514-1.045
	c0.484-0.167,1.039,0.027,1.24,0.434C23.363,17.973,23.133,18.438,22.651,18.605z"/>
<path fill="#DBA437" d="M22.61,16.53c-0.482,0.171-1.037-0.022-1.237-0.428c-0.201-0.409,0.029-0.875,0.513-1.044
	c0.485-0.168,1.041,0.026,1.24,0.432C23.327,15.899,23.096,16.362,22.61,16.53z"/>
<path fill="#C9912D" d="M19.676,16.826c-0.485,0.168-1.039-0.025-1.239-0.432c-0.2-0.407,0.028-0.872,0.513-1.041
	c0.485-0.17,1.04,0.024,1.241,0.432C20.39,16.192,20.16,16.656,19.676,16.826z"/>
<path fill="#DBA437" d="M22.091,13.664c-0.484,0.168-1.038-0.023-1.237-0.432c-0.201-0.406,0.027-0.871,0.514-1.042
	c0.483-0.167,1.038,0.026,1.24,0.433C22.807,13.029,22.576,13.496,22.091,13.664z"/>
<path fill="#DBA437" d="M19.982,19.531c-0.485,0.169-1.04-0.023-1.239-0.43s0.028-0.872,0.514-1.042
	c0.484-0.169,1.038,0.025,1.238,0.432C20.696,18.899,20.465,19.364,19.982,19.531z"/>
<path fill="#DBA437" d="M17.279,20.472c-0.485,0.17-1.04-0.023-1.241-0.429c-0.198-0.406,0.03-0.875,0.516-1.043
	c0.483-0.17,1.037,0.026,1.238,0.431C17.992,19.838,17.761,20.304,17.279,20.472z"/>
<path fill="#DBA437" d="M17.125,18.076c-0.487,0.167-1.042-0.024-1.242-0.432c-0.2-0.406,0.031-0.872,0.517-1.041
	c0.483-0.169,1.039,0.026,1.239,0.432C17.838,17.442,17.609,17.907,17.125,18.076z"/>
<path fill="#B27C1D" d="M14.344,20.767c-0.485,0.168-1.042-0.022-1.241-0.431c-0.201-0.406,0.031-0.873,0.513-1.043
	c0.483-0.168,1.041,0.026,1.24,0.434C15.056,20.134,14.828,20.598,14.344,20.767z"/>
<path fill="#DBA437" d="M14.902,18.851c-0.486,0.166-1.041-0.025-1.241-0.432c-0.2-0.406,0.031-0.873,0.513-1.042
	c0.484-0.169,1.041,0.026,1.238,0.434C15.613,18.216,15.385,18.681,14.902,18.851z"/>
<path fill="#C9912D" d="M20.508,23.889c-0.486,0.169-1.04-0.022-1.24-0.431c-0.201-0.404,0.029-0.873,0.513-1.041
	c0.486-0.168,1.041,0.026,1.241,0.434C21.223,23.255,20.992,23.722,20.508,23.889z"/>
<path fill="#B27C1D" d="M17.805,24.829c-0.486,0.17-1.04-0.021-1.243-0.431c-0.199-0.406,0.032-0.872,0.518-1.042
	c0.481-0.166,1.038,0.026,1.239,0.434C18.518,24.196,18.29,24.66,17.805,24.829z"/>
<path fill="#DBA437" d="M17.649,22.433c-0.485,0.17-1.038-0.023-1.24-0.43c-0.2-0.406,0.03-0.871,0.517-1.042
	c0.482-0.169,1.038,0.025,1.239,0.434C18.365,21.8,18.133,22.266,17.649,22.433z"/>
<path fill="#C9912D" d="M14.87,25.124c-0.487,0.168-1.042-0.024-1.242-0.431c-0.2-0.405,0.03-0.873,0.516-1.043
	c0.481-0.168,1.039,0.027,1.238,0.435C15.581,24.49,15.353,24.956,14.87,25.124z"/>
<path fill="#B27C1D" d="M15.426,23.208c-0.484,0.168-1.041-0.025-1.24-0.431c-0.2-0.407,0.03-0.875,0.515-1.042
	c0.482-0.169,1.038,0.024,1.239,0.433C16.138,22.574,15.909,23.04,15.426,23.208z"/>
<path fill="#32490E" d="M11.301,1.587c0.083,0.165-0.063,0.408-0.331,0.546c-0.267,0.136-0.556,0.11-0.636-0.051
	c-0.084-0.167,0.064-0.407,0.332-0.546C10.934,1.399,11.218,1.423,11.301,1.587z"/>
<ellipse transform="matrix(0.97 0.243 -0.243 0.97 3.236 -7.2208)" fill="#774A13" cx="30.889" cy="9.507" rx="0.5" ry="0.197"/>
</svg>
