<?xml version="1.0" encoding="utf-8"?>
<!-- Generator: Adobe Illustrator 16.0.0, SVG Export Plug-In . SVG Version: 6.00 Build 0)  -->
<!DOCTYPE svg PUBLIC "-//W3C//DTD SVG 1.1//EN" "http://www.w3.org/Graphics/SVG/1.1/DTD/svg11.dtd">
<svg version="1.1" id="Layer_1" xmlns="http://www.w3.org/2000/svg" xmlns:xlink="http://www.w3.org/1999/xlink" x="0px" y="0px"
	 width="32px" height="32px" viewBox="0 0 32 32" enable-background="new 0 0 32 32" xml:space="preserve">
<polygon fill="#FFEBDC" points="2.757,18.683 18.447,3.423 29.966,11.053 "/>
<path fill="#EDCAB0" d="M18.732,3.423l-15.69,15.26l27.21-7.63L18.732,3.423z M18.975,4.79l8.84,5.854L6.937,16.499L18.975,4.79z"/>
<polygon fill="#9B6135" points="2.757,18.683 2.757,29.396 29.966,20.922 29.966,11.053 "/>
<path fill="#597F42" d="M25.937,5.425c0,0-0.027-0.013-0.075-0.036c0.008-0.01,0.019-0.034,0.019-0.034l-0.062,0.02
	c-0.838-0.387-6.262-2.67-7.268,1.812l-0.082,0.021c0.02,0.021,0.04,0.031,0.06,0.046c0,0.012-0.002,0.018-0.006,0.027l0.029-0.008
	c3.818,3.279,6.823-1.116,7.271-1.816L25.937,5.425z"/>
<path fill="#597F42" d="M18.685,7.343c0.012-0.02,0.015-0.037,0.024-0.058c0.008,0,0.015-0.001,0.02,0.003l-0.012-0.022
	c1.714-3.661-3.323-5.757-4.117-6.057l-0.067-0.1c0,0-0.001,0.024-0.006,0.071c-0.018-0.005-0.04-0.015-0.04-0.015l0.037,0.054
	c-0.071,0.783-0.326,5.702,4.118,6.058L18.685,7.343z"/>
<path fill="#C60018" d="M19.572,6.539c0.524,0.841,0.265,1.948-0.579,2.47c-0.841,0.52-1.947,0.266-2.47-0.579
	c-0.525-0.845-0.263-1.949,0.579-2.475C17.945,5.434,19.051,5.692,19.572,6.539z"/>
<path fill="#EF0718" d="M21.105,8.963c0.523,0.842,0.264,1.947-0.579,2.471c-0.844,0.521-1.949,0.263-2.471-0.579
	c-0.526-0.844-0.264-1.95,0.579-2.475C19.479,7.86,20.585,8.117,21.105,8.963z"/>
<path fill="#EF0718" d="M17.811,8.564c0.521,0.844,0.265,1.948-0.578,2.471c-0.847,0.525-1.949,0.265-2.473-0.579
	c-0.525-0.843-0.265-1.947,0.581-2.47C16.181,7.462,17.287,7.722,17.811,8.564z"/>
<ellipse transform="matrix(0.8574 0.5147 -0.5147 0.8574 12.268 -0.4543)" fill="#E23A29" cx="6.954" cy="21.907" rx="2.227" ry="1.749"/>
<path fill="#BA2B24" d="M26.468,16.489c-0.419,0.671-1.263,0.924-1.883,0.567c-0.622-0.36-0.786-1.198-0.366-1.869
	c0.419-0.67,1.261-0.926,1.882-0.565C26.724,14.98,26.887,15.816,26.468,16.489z"/>
<polygon fill="#FFEC40" points="28.256,20.281 27.519,20.663 26.967,19.224 27.701,18.842 "/>
<polygon fill="#FFEC40" points="14.82,19.221 12.402,21.098 11.053,19.068 13.464,17.197 "/>
<polygon fill="#EFBA89" points="2.824,22.158 29.898,14.338 29.898,17.666 2.824,25.337 "/>
<path fill="#6C9955" d="M15.162,23.757c-0.081,0.878-1.088,1.51-2.249,1.417c-1.166-0.1-2.045-0.889-1.966-1.767
	c0.078-0.881,1.084-1.516,2.248-1.42C14.359,22.085,15.238,22.876,15.162,23.757z"/>
<path fill="#BA2B24" d="M3.812,23.737c-0.4,0-0.767,0.168-1.055,0.428v2.825c0.288,0.264,0.654,0.425,1.055,0.425
	c0.92,0,1.666-0.821,1.666-1.837C5.478,24.564,4.731,23.737,3.812,23.737z"/>
<polygon fill="#FFEC40" points="22.654,16.736 21.122,19.046 18.675,17.133 20.205,14.83 "/>
<path fill="#BA2B24" d="M19.441,21.702c-0.367,0.588-1.106,0.81-1.649,0.497c-0.545-0.315-0.688-1.05-0.321-1.638
	c0.367-0.587,1.104-0.811,1.648-0.495C19.665,20.381,19.809,21.113,19.441,21.702z"/>
</svg>
