<?xml version="1.0" encoding="utf-8"?>
<!-- Generator: Adobe Illustrator 16.0.0, SVG Export Plug-In . SVG Version: 6.00 Build 0)  -->
<!DOCTYPE svg PUBLIC "-//W3C//DTD SVG 1.1//EN" "http://www.w3.org/Graphics/SVG/1.1/DTD/svg11.dtd">
<svg version="1.1" id="Layer_1" xmlns="http://www.w3.org/2000/svg" xmlns:xlink="http://www.w3.org/1999/xlink" x="0px" y="0px"
	 width="32px" height="32px" viewBox="0 0 32 32" enable-background="new 0 0 32 32" xml:space="preserve">
<path fill="#F3C186" d="M22.903,10.762c-0.872-0.641,1.145-1.338,1.145-1.338s-1.352-1.233,1.365-0.525
	c1.462,0.382,2.248-4.17,2.798-5.808c-2.611-1.954-6.695-0.155-6.695-0.155s-2.126,0.292-3.041,1.56
	c-0.645,0.896-3.523,5.1-4.652,6.808c0.658-1.99-3.297-4.859-3.297-4.859c-1.153,0.094-4.309,2.503-2.656,5.482
	c1.651,2.98-0.591,8.368-1.298,8.715c-0.708,0.345-3.157,0.783-3.157,0.783c-1.684,4.38,1.794,7.983,1.794,7.983
	c5.492,2.37,7.602-1.653,6.612-3.196c-0.989-1.542,1.301-2.093,1.301-2.093c4.286,0.64,1.229-2.66,1.229-2.66
	c-0.833-1.547,4.46-2.007,4.46-2.007c5.448,2.908,8.267-3.71,8.267-3.71l-0.966-4.184C25.093,10.543,22.903,10.762,22.903,10.762z"
	/>
<path fill="#F2D188" d="M23.749,13.724l-0.811-3.514c-0.856-0.852-2.695-0.668-2.695-0.668c-0.732-0.539,0.961-1.124,0.961-1.124
	s-1.135-1.036,1.146-0.441c1.065,0.278,1.703-2.563,2.155-4.217c-1.274,0.214-2.226,0.63-2.226,0.63s-2.126,0.292-3.041,1.56
	c-0.645,0.896-3.523,5.1-4.652,6.808c0.35-1.058-0.604-2.361-1.574-3.352c-0.148,0.22-0.282,0.421-0.394,0.591
	c0.108-0.328,0.064-0.685-0.071-1.046c-0.678-0.63-1.258-1.052-1.258-1.052c-1.153,0.094-4.309,2.503-2.656,5.482
	c1.651,2.98-0.591,8.368-1.298,8.715c-0.708,0.345-3.157,0.783-3.157,0.783c-0.039,0.102-0.062,0.2-0.095,0.301
	C4.639,24.423,5.386,25.2,5.386,25.2c4.612,1.99,6.383-1.388,5.552-2.684c-0.831-1.295,1.092-1.758,1.092-1.758
	c3.599,0.538,1.032-2.233,1.032-2.233c-0.699-1.299,3.746-1.686,3.746-1.686C21.382,19.281,23.749,13.724,23.749,13.724z"/>
<g>
	<path fill="#E4A96D" d="M12.963,8.76c-0.207-0.262-1.062-1.128-1.29-1.364c0.645,0.888,0.152,1.999,0,2.457
		C12.109,9.476,12.779,9.033,12.963,8.76z"/>
	<path fill="#E4A96D" d="M25.062,10.973l0.68,2.942c0,0-2.818,6.618-8.269,3.71c0,0-5.292,0.46-4.46,2.009
		c0,0,3.057,3.3-1.228,2.659c0,0-2.291,0.551-1.301,2.094c0.984,1.534-1.101,5.518-6.527,3.227c0.601,1.12,1.251,1.795,1.251,1.795
		c5.492,2.37,7.602-1.653,6.612-3.196c-0.989-1.542,1.301-2.093,1.301-2.093c4.285,0.64,1.229-2.66,1.229-2.66
		c-0.833-1.547,4.46-2.007,4.46-2.007c5.448,2.908,8.267-3.71,8.267-3.71l-0.966-4.184C25.83,11.276,25.455,11.096,25.062,10.973z"
		/>
	<path fill="#E4A96D" d="M28.037,5.886c-0.847,0.738-2.272,1.626-3.961,1.186c-2.718-0.708-1.363,0.524-1.363,0.524
		s-2.016,0.697-1.146,1.338c0,0,1.22-0.121,2.262,0.24c-0.227-0.319-0.314-0.771,1.585-0.276
		C26.875,9.281,28.189,6.664,28.037,5.886z"/>
</g>
<path fill="#BF8762" d="M22.219,5.153c-0.036-1.277,0.249-2.294,0.661-2.472c-0.003-0.002-0.008-0.005-0.01-0.005
	c-0.506-0.079-0.883,1.042-0.842,2.499c0.041,1.457,0.484,2.699,0.989,2.775c0.065,0.01,0.125,0,0.183-0.023
	C22.696,7.832,22.26,6.601,22.219,5.153z"/>
<path fill="#BF8762" d="M24.388,4.912c0.438-1.533,1.262-2.625,1.955-2.669c-0.005-0.004-0.009-0.009-0.014-0.01
	c-0.733-0.3-1.737,0.878-2.236,2.627c-0.501,1.749-0.311,3.407,0.423,3.705c0.093,0.038,0.188,0.05,0.283,0.046
	C24.076,8.295,23.892,6.652,24.388,4.912z"/>
<path fill="#CC9271" d="M10.87,11.579c-1.268,0.585-2.544,0.562-3.076-0.007c0.002,0.007,0.001,0.014,0.004,0.019
	c0.351,0.823,1.809,0.945,3.256,0.277c1.449-0.668,2.337-1.878,1.986-2.698c-0.043-0.104-0.106-0.193-0.179-0.276
	C13.192,9.716,12.31,10.914,10.87,11.579z"/>
<path fill="#BF8762" d="M11.772,13.913c-1.402,0.701-2.791,0.773-3.347,0.222c0.002,0.007,0,0.014,0.003,0.019
	c0.349,0.828,1.932,0.846,3.532,0.043c1.603-0.8,2.615-2.12,2.265-2.945c-0.043-0.104-0.107-0.192-0.185-0.271
	C14.371,11.808,13.365,13.115,11.772,13.913z"/>
<path fill="#BF8762" d="M19.165,6.083c-0.344-0.997-0.301-1.911,0.074-2.208c-0.004,0.001-0.009,0-0.012,0
	c-0.532,0.13-0.645,1.159-0.247,2.297c0.394,1.137,1.144,1.954,1.677,1.822c0.065-0.015,0.123-0.046,0.181-0.087
	C20.303,8.025,19.559,7.215,19.165,6.083z"/>
<path fill="#BF8762" d="M12.29,17.896c1.424,1.048,2.297,2.219,2.148,2.812c0.004-0.003,0.01-0.003,0.013-0.008
	c0.51-0.476-0.398-1.832-2.026-3.027c-1.627-1.195-3.359-1.78-3.869-1.303c-0.062,0.059-0.103,0.131-0.126,0.215
	C8.952,16.126,10.669,16.708,12.29,17.896z"/>
<path fill="#BF8762" d="M11.601,19.263c1.478,0.781,2.536,1.561,2.576,1.877c0.004-0.001,0.009-0.001,0.012-0.003
	c0.289-0.202-0.849-1.091-2.54-1.984c-1.688-0.891-3.292-1.45-3.581-1.246c-0.037,0.025-0.049,0.061-0.045,0.105
	C8.328,17.82,9.918,18.376,11.601,19.263z"/>
<path fill="#BF8762" d="M9.854,22.875c1.063,1.328,1.573,2.647,1.271,3.177c0.006-0.001,0.012,0,0.016-0.003
	c0.609-0.334,0.118-1.838-1.1-3.356c-1.213-1.516-2.693-2.478-3.302-2.141c-0.077,0.041-0.135,0.102-0.179,0.175
	C7.179,20.411,8.643,21.364,9.854,22.875z"/>
<path fill="#BF8762" d="M11.167,21.426c1.429,1.024,2.312,2.18,2.168,2.774c0.006-0.002,0.013-0.002,0.016-0.006
	c0.501-0.482-0.416-1.823-2.053-2.994c-1.63-1.167-3.363-1.725-3.865-1.239c-0.063,0.06-0.103,0.133-0.124,0.217
	C7.825,19.711,9.54,20.265,11.167,21.426z"/>
<path fill="#CC9271" d="M9.315,25.06c1.081,1.971,1.546,3.722,1.17,4.234c0.007,0,0.014,0.002,0.018,0.001
	c0.701-0.165,0.27-2.126-0.965-4.378c-1.235-2.248-2.806-3.938-3.506-3.771c-0.088,0.019-0.156,0.068-0.211,0.14
	C6.53,21.145,8.084,22.822,9.315,25.06z"/>
<path fill="#CC9271" d="M5.288,26.14c0.435,1.63,0.368,2.987-0.118,3.282c0.004,0.001,0.009,0.005,0.015,0.006
	c0.688,0.017,0.844-1.483,0.348-3.347c-0.497-1.864-1.458-3.389-2.148-3.403c-0.085-0.004-0.161,0.02-0.231,0.06
	C3.841,22.772,4.792,24.284,5.288,26.14z"/>
<path fill="#CC9271" d="M7.565,25.54c1.032,2.026,1.495,3.854,1.162,4.416c0.006-0.001,0.012,0.004,0.016,0
	c0.64-0.213,0.204-2.264-0.977-4.579c-1.179-2.312-2.655-4.014-3.295-3.799c-0.079,0.027-0.141,0.082-0.19,0.158
	C4.93,21.551,6.39,23.239,7.565,25.54z"/>
<path fill="#CC9271" d="M20.475,11.329c-2.315-1.61-3.807-3.331-3.665-4.141c-0.008,0.003-0.016,0.004-0.019,0.01
	c-0.707,0.603,0.866,2.588,3.51,4.426c2.641,1.837,5.354,2.837,6.06,2.232c0.089-0.075,0.137-0.172,0.161-0.285
	C25.795,14.152,23.104,13.16,20.475,11.329z"/>
<path fill="#CC9271" d="M19.156,14.577c-2.613-1.824-4.285-3.79-4.113-4.725c-0.008,0.004-0.017,0.005-0.021,0.012
	c-0.812,0.708,0.949,2.973,3.931,5.057c2.981,2.082,6.054,3.193,6.866,2.485c0.103-0.087,0.16-0.2,0.189-0.331
	C25.171,17.756,22.123,16.648,19.156,14.577z"/>
<path fill="#CC9271" d="M17.315,17.226c-2.297-1.629-3.735-3.427-3.542-4.324c-0.005,0.005-0.015,0.007-0.019,0.014
	c-0.766,0.704,0.739,2.783,3.364,4.643c2.622,1.857,5.367,2.792,6.131,2.084c0.096-0.087,0.152-0.196,0.186-0.322
	C22.647,20.002,19.925,19.073,17.315,17.226z"/>
<path fill="#BF8762" d="M13.814,17.23c-1.299-1.246-2.122-2.407-2.025-2.808c-0.003,0-0.008,0-0.011,0.001
	c-0.417,0.196,0.448,1.506,1.93,2.93c1.483,1.423,3.021,2.415,3.438,2.22c0.05-0.026,0.08-0.068,0.099-0.122
	C16.813,19.631,15.288,18.645,13.814,17.23z"/>
<path fill="#CC9271" d="M9.748,9.384c-0.937,0.697-1.891,0.977-2.298,0.708c0,0.005,0,0.01,0.004,0.013
	c0.276,0.485,1.369,0.23,2.438-0.567c1.07-0.797,1.713-1.835,1.434-2.318c-0.034-0.06-0.082-0.108-0.139-0.148
	C11.451,7.562,10.812,8.59,9.748,9.384z"/>
<ellipse transform="matrix(0.6435 0.7654 -0.7654 0.6435 23.4137 -2.6872)" fill="#A56D4E" cx="14.592" cy="23.793" rx="0.461" ry="0.931"/>
<ellipse transform="matrix(0.6793 0.7339 -0.7339 0.6793 8.6357 -4.0787)" fill="#C18E57" cx="8.984" cy="7.841" rx="0.461" ry="1.706"/>
<ellipse transform="matrix(0.9877 0.1561 -0.1561 0.9877 1.2283 -4.1697)" fill="#E0AA70" cx="27.168" cy="5.738" rx="1.835" ry="3.135"/>
<ellipse transform="matrix(0.9864 0.1643 -0.1643 0.9864 1.3125 -4.3949)" fill="#FFF533" cx="27.224" cy="5.737" rx="1.599" ry="2.934"/>
</svg>
