<?xml version="1.0" encoding="utf-8"?>
<!-- Generator: Adobe Illustrator 16.0.0, SVG Export Plug-In . SVG Version: 6.00 Build 0)  -->
<!DOCTYPE svg PUBLIC "-//W3C//DTD SVG 1.1//EN" "http://www.w3.org/Graphics/SVG/1.1/DTD/svg11.dtd">
<svg version="1.1" id="Layer_1" xmlns="http://www.w3.org/2000/svg" xmlns:xlink="http://www.w3.org/1999/xlink" x="0px" y="0px"
	 width="32px" height="32px" viewBox="0 0 32 32" enable-background="new 0 0 32 32" xml:space="preserve">
<path fill="#5B3610" d="M25.019,26.716c0,0,1.952,2.303,2.683,2.452c0.729,0.149-0.855-2.166-0.855-2.166l1.767,1.086l-0.54-1.731
	l1.36,0.645c0,0,0.26-1.06-1.306-2.143c-2.479-1.716-4.464-0.249-4.464-0.249l0,0L25.019,26.716z"/>
<path fill="#5B3610" d="M3.822,22.499c0,0-2.122,1.368-2.324,1.958c-0.203,0.589,1.888-0.474,1.888-0.474l-1.092,1.346l1.494-0.259
	l-0.683,1.057c0,0,0.851,0.331,1.918-0.85c1.692-1.869,0.691-3.674,0.691-3.674l0,0L3.822,22.499z"/>
<path fill="#4B7226" d="M13.245,2.169c0,0-1.003,0.34-0.557,1.082c0.446,0.742-0.466,0.376-0.466,0.376v0.852H11.26v1.093
	l-0.921-0.668l0.668,2.248l-0.668,0.426v1.155c0,0,1.58,1.276,1.884,1.397c0.304,0.122-2.866,0-2.866,0L7.665,10.86l1.034,0.547
	l-1.52,0.972l0.304,1.218l-1.421,0.997h0.794l3.054,2.652h10.196l2.754-1.664l-0.607-0.395l1.032-1.59l-0.364-0.489l0.972-1.397
	v-0.425l0.306-1.216l-2.272,0.183V8.916l-1.819-0.061L18.179,9.28l0.812-3.282L17.754,6.12l-0.183-1.824l-0.891,0.79l-0.503-1.834
	l-0.515,1.167l-0.846-1.167l-0.505,0.498L13.245,2.169z"/>
<path fill="#4B7226" d="M30.593,17.385c0,0-0.22-0.59-0.588-0.297c-0.369,0.295-0.217-0.266-0.217-0.266s-3.35,0.045-3.398,0.233
	c-0.051,0.187-0.119-1.722-0.119-1.722l-0.45-0.99l-0.242,0.64l-0.572-0.878l-1.203-0.591l0.034,0.479l-1.264,1.928l1.403,7.721
	l1.053,0.184l2.394-0.984l-0.043-1.095l1.447-0.771l-0.114-0.74l0.946-0.175l-0.451-0.507l0.94-0.368l-0.632-0.267l0.575-0.551
	L30.593,17.385z"/>
<path fill="#9AB528" d="M20.024,6.986"/>
<ellipse transform="matrix(0.7316 0.6817 -0.6817 0.7316 15.3283 -1.4476)" fill="#788918" cx="9.503" cy="18.745" rx="5.548" ry="7.208"/>
<path fill="#C0D350" d="M14.179,13.268c0,0-9.519,2.812-10.077,10.208C7.017,18.893,5.421,18.658,14.179,13.268z"/>
<path fill="#C0D350" d="M15.123,14.273c0,0-2.069,9.585-9.334,10.618C10.101,21.714,10.451,23.274,15.123,14.273z"/>
<path fill="#C0D350" d="M12.528,12.435c0,0-9.422,1.399-9.154,9.625C3.374,22.059,4.962,13.756,12.528,12.435z"/>
<path fill="#C0D350" d="M15.553,15.304c0,0-0.732,9.498-8.957,9.81C6.597,25.114,14.767,22.944,15.553,15.304z"/>
<path fill="#C0D350" d="M14.692,13.872c0,0-5.201,8.316-9.981,10.014C4.711,23.886,13.415,16.458,14.692,13.872z"/>
<ellipse transform="matrix(0.6174 -0.7866 0.7866 0.6174 -8.8905 24.215)" fill="#ABB734" cx="20.449" cy="21.247" rx="6.158" ry="8.001"/>
<ellipse transform="matrix(0.6174 -0.7867 0.7867 0.6174 -7.0166 24.7384)" fill="#C3C94F" cx="21.922" cy="19.582" rx="3.455" ry="5.367"/>
<path fill="#DDDD76" d="M13.953,16.589c0,0,4.001,10.265,12.235,10.188C20.846,23.984,20.735,25.77,13.953,16.589z"/>
<path fill="#EFF498" d="M14.976,15.451c0,0,10.795,1.39,12.619,9.327C23.675,20.308,25.368,19.773,14.976,15.451z"/>
<path fill="#DDDD76" d="M13.186,18.493c0,0,2.43,10.29,11.501,9.223C24.688,27.716,15.357,26.737,13.186,18.493z"/>
<path fill="#EFF498" d="M16.077,14.877c0,0,10.572-0.08,11.689,8.987C27.766,23.864,24.601,15.031,16.077,14.877z"/>
<path fill="#EFF498" d="M14.572,15.965c0,0,9.685,4.973,12.012,10.1C26.584,26.064,17.553,17.135,14.572,15.965z"/>
</svg>
