<?xml version="1.0" encoding="utf-8"?>
<!-- Generator: Adobe Illustrator 16.0.0, SVG Export Plug-In . SVG Version: 6.00 Build 0)  -->
<!DOCTYPE svg PUBLIC "-//W3C//DTD SVG 1.1//EN" "http://www.w3.org/Graphics/SVG/1.1/DTD/svg11.dtd">
<svg version="1.1" id="Layer_1" xmlns="http://www.w3.org/2000/svg" xmlns:xlink="http://www.w3.org/1999/xlink" x="0px" y="0px"
	 width="32px" height="32px" viewBox="0 0 32 32" enable-background="new 0 0 32 32" xml:space="preserve">
<circle fill="#E0A728" cx="12.999" cy="15.329" r="9.58"/>
<path fill="#CE9524" d="M14.4,23.475c-5.292,0-9.579-4.289-9.579-9.581c0-2.125,0.702-4.081,1.871-5.67
	c-1.965,1.755-3.208,4.3-3.208,7.141c0,5.292,4.288,9.581,9.58,9.581c3.167,0,5.967-1.542,7.712-3.911
	C19.081,22.548,16.853,23.475,14.4,23.475z"/>
<path fill="#528E24" d="M12.526,6.361"/>
<circle fill="#DD8C2A" cx="20.206" cy="21.479" r="9.601"/>
<circle fill="#FFFBE1" cx="20.206" cy="21.479" r="8.941"/>
<circle fill="#E54A1A" cx="20.35" cy="21.458" r="8.243"/>
<circle fill="#D13F18" cx="20.3" cy="21.479" r="7.279"/>
<polyline fill="#FFFBE1" points="13.928,15.932 20.11,21.818 26.443,27.526 26.673,27.362 14.184,15.762 "/>
<polyline fill="#FFFBE1" points="14.23,27.547 20.296,21.431 26.152,15.218 25.95,15.06 14.018,27.365 "/>
<polyline fill="#FFFBE1" points="11.438,21.463 20.374,21.639 29.264,21.581 29.268,21.305 11.455,21.162 "/>
<polyline fill="#FFFBE1" points="20.208,12.776 20.123,21.493 20.266,30.161 20.537,30.169 20.504,12.799 "/>
<ellipse fill="#FFF8CB" cx="20.351" cy="21.345" rx="0.699" ry="0.664"/>
<path fill="#EAAD92" d="M17.593,22.173c0,0-2.283,0.343-1.772,1.254C16.329,24.337,17.593,22.173,17.593,22.173z"/>
<path fill="#EAAD92" d="M19.302,23.92c0,0-1.811,1.52-0.937,2.033C19.235,26.466,19.302,23.92,19.302,23.92z"/>
<path fill="#EAAD92" d="M21.248,23.983c0,0,0.301,2.433,1.163,1.899C23.273,25.35,21.248,23.983,21.248,23.983z"/>
<path fill="#EAAD92" d="M22.861,22.307c0,0,1.472,1.887,1.934,0.949C25.26,22.315,22.861,22.307,22.861,22.307z"/>
<path fill="#EAAD92" d="M17.593,20.753c0,0-2.283-0.345-1.772-1.254C16.329,18.588,17.593,20.753,17.593,20.753z"/>
<path fill="#EAAD92" d="M19.625,18.905c0,0-1.81-1.52-0.938-2.032C19.559,16.36,19.625,18.905,19.625,18.905z"/>
<path fill="#EAAD92" d="M21.248,18.842c0,0,0.301-2.432,1.163-1.898C23.273,17.475,21.248,18.842,21.248,18.842z"/>
<path fill="#EAAD92" d="M22.625,20.619c0,0,1.472-1.887,1.933-0.948C25.022,20.61,22.625,20.619,22.625,20.619z"/>
<path fill="#683625" d="M17.419,2.919L17.419,2.919c0.038-0.083,0.243-0.073,0.459,0.021s0.361,0.238,0.324,0.322l0.001,0l0,0l0,0
	c-0.001,0.003-0.008,0.001-0.009,0.004c-3.337,1.059-3.722,4.572-3.722,4.572c-0.139-0.284-0.213-0.562-0.237-0.832
	C14.008,4.536,18.003,2.682,17.419,2.919z"/>
<path fill="#80B765" d="M4.794,4.54c0,0,5.812-5.292,9.892-1.635L4.794,4.54z"/>
<path fill="#6C9955" d="M4.747,4.469c0,0,7.022,3.17,9.891-1.634L4.747,4.469z"/>
<path fill="#B27A18" d="M16.286,7.921c0,0-2.46,1.525-3.476-1.407C12.811,6.514,15.366,8.68,16.286,7.921z"/>
</svg>
