<?xml version="1.0" encoding="utf-8"?>
<!-- Generator: Adobe Illustrator 16.0.0, SVG Export Plug-In . SVG Version: 6.00 Build 0)  -->
<!DOCTYPE svg PUBLIC "-//W3C//DTD SVG 1.1//EN" "http://www.w3.org/Graphics/SVG/1.1/DTD/svg11.dtd">
<svg version="1.1" id="Layer_1" xmlns="http://www.w3.org/2000/svg" xmlns:xlink="http://www.w3.org/1999/xlink" x="0px" y="0px"
	 width="32px" height="32px" viewBox="0 0 32 32" enable-background="new 0 0 32 32" xml:space="preserve">
<path fill="#315B16" d="M24.12,12.556c0,0-3.812,8.377-3.064,14.027l-5.371-1.082C15.685,25.502,17.924,16.928,24.12,12.556z"/>
<path fill="#457526" d="M6.342,9.126c0,0,3.226,9.663,1.743,15.473h6.042C14.127,24.599,12.657,15.063,6.342,9.126z"/>
<path fill="#4E8729" d="M10.234,2.569c0,0,3.225,14.253,1.742,22.826h6.044C18.021,25.395,16.549,11.326,10.234,2.569z"/>
<path fill="#50842F" d="M28.574,12.186c0,0-3.811,8.377-3.063,14.027l-5.372-1.081C20.139,25.131,22.379,16.557,28.574,12.186z"/>
<path fill="#599334" d="M30.875,16.954c-3.021,1.265-4.791,3.342-5.706,4.753H9.283c0,0-1.471-4.395-7.785-7.13
	c0,0,2.541,3.518,2.064,6.18V27h25.216v-5.293h-0.051C29.195,19.332,30.875,16.954,30.875,16.954z"/>
</svg>
