<?xml version="1.0" encoding="utf-8"?>
<!-- Generator: Adobe Illustrator 16.0.0, SVG Export Plug-In . SVG Version: 6.00 Build 0)  -->
<!DOCTYPE svg PUBLIC "-//W3C//DTD SVG 1.1//EN" "http://www.w3.org/Graphics/SVG/1.1/DTD/svg11.dtd">
<svg version="1.1" id="Layer_1" xmlns="http://www.w3.org/2000/svg" xmlns:xlink="http://www.w3.org/1999/xlink" x="0px" y="0px"
	 width="32px" height="32px" viewBox="0 0 32 32" enable-background="new 0 0 32 32" xml:space="preserve">
<path fill="#77421B" d="M2.89,9.742c0.475,0.053,0.784,0.794,0.688,1.661c-0.096,0.865-0.56,1.525-1.034,1.473
	c-0.478-0.053-0.786-0.798-0.69-1.664C1.954,10.347,2.416,9.688,2.89,9.742z"/>
<path fill="#81AA31" d="M5.973,19.068c0,0-9.696-10.178,4.34-13.624c9.748-0.373,15.738,9.755,15.738,9.755
	S16.824,27.124,5.973,19.068z"/>
<path fill="#73912A" d="M2.709,11.581c-0.345,3.724,3.225,7.485,3.225,7.485c9.553,7.092,17.84-1.293,19.687-3.403
	C18.949,17.514,11.074,17.152,2.709,11.581z"/>
<path fill="#596D1B" d="M25.228,15.908c0.184-0.195,0.341-0.369,0.467-0.513c-6.671,1.851-14.546,1.489-22.911-4.082
	c-0.017,0.181-0.017,0.361-0.016,0.542C10.952,17.244,18.661,17.658,25.228,15.908z"/>
<path fill="#90AF4E" d="M11.949,20.253c0,0-0.757-3.311,0.299-5.937c-2.247,2.633-1.155,7.383-1.155,7.383
	c4.68,11.051,17.412,6.203,17.412,6.203s0.002-0.435-0.06-1.154C25.448,27.609,15.872,29.515,11.949,20.253z"/>
<path fill="#B2D85D" d="M11.606,21.005c0,0-2.706-12.053,9.431-8.307c7.515,4.125,7.451,14.468,7.451,14.468
	S16.145,31.981,11.606,21.005z"/>
<path fill="#C4A455" d="M13.448,20.424c0,0-2.031-9.045,7.075-6.233c5.64,3.095,5.594,10.855,5.594,10.855
	S16.853,28.661,13.448,20.424z"/>
<path fill="#E2DC61" d="M14.317,20.367c0,0-1.728-7.691,6.019-5.3c4.794,2.631,4.756,9.23,4.756,9.23S17.215,27.372,14.317,20.367z"
	/>
<path fill="#7A731F" d="M15.01,20.292c0,0-1.502-6.687,5.232-4.608c4.168,2.288,4.135,8.025,4.135,8.025S17.528,26.381,15.01,20.292
	z"/>
<ellipse transform="matrix(0.6981 -0.716 0.716 0.6981 -8.4788 20.0839)" fill="#E5F4AE" cx="19.578" cy="20.097" rx="3.381" ry="6.472"/>
<ellipse transform="matrix(0.698 -0.7161 0.7161 0.698 -7.3814 20.5141)" fill="#FBFFEB" cx="20.628" cy="19.008" rx="0.872" ry="4.211"/>
<ellipse transform="matrix(0.8135 -0.5815 0.5815 0.8135 -5.1493 10.1926)" fill="#77421B" cx="13.319" cy="13.126" rx="1.582" ry="0.308"/>
</svg>
