<?xml version="1.0" encoding="utf-8"?>
<!-- Generator: Adobe Illustrator 16.0.0, SVG Export Plug-In . SVG Version: 6.00 Build 0)  -->
<!DOCTYPE svg PUBLIC "-//W3C//DTD SVG 1.1//EN" "http://www.w3.org/Graphics/SVG/1.1/DTD/svg11.dtd">
<svg version="1.1" id="Layer_1" xmlns="http://www.w3.org/2000/svg" xmlns:xlink="http://www.w3.org/1999/xlink" x="0px" y="0px"
	 width="32px" height="32px" viewBox="0 0 32 32" enable-background="new 0 0 32 32" xml:space="preserve">
<path fill="#683625" d="M3.069,21.901c0,0,0.506-2.133,2.024-2.26C5.135,21.163,3.069,21.901,3.069,21.901z"/>
<g>
	<path fill="#683625" d="M1.807,21.026c0,0,2.241-1.564,2.203-1.857c-0.006-0.042-0.032-0.07-0.066-0.09
		c0.236-0.041,0.488-0.041,0.76,0.027C4.408,20.956,1.807,21.026,1.807,21.026z"/>
</g>
<g>
	<path fill="#683625" d="M3.854,23.13c0,0,1.312-2.402,1.61-2.396c0.039,0,0.068,0.022,0.095,0.057
		c0.013-0.239-0.016-0.491-0.112-0.751C3.64,20.536,3.854,23.13,3.854,23.13z"/>
</g>
<path fill="#683625" d="M19.36,5.744L19.36,5.744c0.076-0.08,0.282-0.014,0.464,0.146c0.182,0.166,0.271,0.363,0.198,0.445l0,0l0,0
	l0,0c-0.003,0.004-0.008,0-0.01,0.003c-3.89,0.255-5.786,4.014-5.786,4.014c-0.019-0.351,0.022-0.676,0.112-0.979
	C15.16,6.591,20.062,5.645,19.36,5.744z"/>
<path fill="#A9D651" d="M16.881,14.017c0.644-1.52,0.513-3.098-0.488-3.995c-0.485-0.434-1.109-0.639-1.782-0.655
	c-0.092-0.668-0.365-1.268-0.849-1.7c-1.051-0.942-2.742-0.855-4.236,0.067C7.561,7.859,5.598,8.754,4.13,10.391
	c-2.838,3.167-2.736,7.887,0.225,10.538c2.961,2.655,7.662,2.237,10.499-0.929C16.4,18.271,17.069,16.083,16.881,14.017z"/>
<path fill="#88AD2F" d="M16.901,14.354c-0.029,0.206,0.027,0.363,0.008,0.582c-0.218,2.517-0.589-0.914-0.755-2.702
	c-0.026,0.013-0.055,0.027-0.082,0.042c-0.077,0.325-0.144,0.669-0.195,1.033c0.122,1.995-0.552,4.091-2.043,5.754
	c-2.659,2.969-6.952,3.522-9.92,1.397c0.164,0.183,0.341,0.358,0.526,0.524c2.962,2.655,7.663,2.237,10.501-0.929
	C16.433,18.391,17.022,16.352,16.901,14.354z"/>
<path fill="#C9EA78" d="M7.859,10.111c0,0-5.034,1.204-3.796,6.886C4.063,16.997,4.625,13.089,7.859,10.111z"/>
<path fill="#618949" d="M2.862,1.96c0,0,0.032,0.029,0.09,0.08C2.919,2.049,2.896,2.053,2.896,2.053l0.106,0.03
	c0.994,0.855,7.537,6.221,12.142,3.305l0.14,0.037c-0.019-0.026-0.038-0.054-0.057-0.082c0.006-0.002,0.014-0.006,0.021-0.01
	L15.211,5.32C11.77,0.215,4.243,1.738,3.059,2.015L2.862,1.96z"/>
<circle fill="#84992B" cx="20.048" cy="20.95" r="9.672"/>
<circle fill="#EF3763" cx="20.048" cy="20.95" r="8.693"/>
<g>
	<path fill="#870F3B" d="M19.697,26.45c-0.934-0.446-1.644-2.616-1.644-5.242c0-2.377,0.585-4.369,1.391-5.058
		c0.01-0.019,0.008-0.027,0.023-0.047c0.334-0.485,0.172-1.392-0.079-2.193c-0.378-0.181-0.78-0.289-1.212-0.29
		c-1.44-0.002-2.67,1.081-3.179,2.605c-1.41,1.271-2.297,3.062-2.298,5.057c-0.009,3.756,3.111,6.817,7.023,6.979
		C19.904,27.567,19.98,26.858,19.697,26.45z"/>
	<path fill="#870F3B" d="M24.873,16.034c-0.544-1.418-1.718-2.405-3.091-2.409c-0.4,0-0.779,0.096-1.137,0.251
		c-0.071,1.041-0.015,2.228-0.015,2.228s-0.015,0.007-0.021,0.008c0.829,0.653,1.437,2.677,1.437,5.097
		c0,2.438-0.614,4.471-1.449,5.108c0.153,0.073,0.265,0.132,0.265,0.132s-0.042,0.879-0.008,1.785
		c3.677-0.38,6.536-3.334,6.542-6.929C27.399,19.203,26.422,17.318,24.873,16.034z"/>
</g>
<ellipse transform="matrix(0.8636 0.5042 -0.5042 0.8636 11.4429 -5.6139)" fill="#EDE956" cx="16.097" cy="18.341" rx="0.769" ry="0.488"/>
<ellipse transform="matrix(0.8637 0.504 -0.504 0.8637 10.5706 -6.3704)" fill="#EDE956" cx="17.064" cy="16.36" rx="0.63" ry="0.399"/>
<ellipse transform="matrix(0.8634 0.5045 -0.5045 0.8634 15.2684 -5.1068)" fill="#EDE956" cx="17.064" cy="25.641" rx="0.63" ry="0.397"/>
<ellipse transform="matrix(0.8629 0.5053 -0.5053 0.8629 12.5764 -4.6031)" fill="#EDE956" cx="14.773" cy="20.88" rx="0.77" ry="0.486"/>
<ellipse transform="matrix(0.8634 0.5046 -0.5046 0.8634 14.0793 -5.0109)" fill="#EDE956" cx="16.292" cy="23.491" rx="0.77" ry="0.485"/>
<ellipse transform="matrix(-0.8638 0.5039 -0.5039 -0.8638 54.1492 22.0392)" fill="#EDE956" cx="24.095" cy="18.34" rx="0.769" ry="0.487"/>
<path fill="#EDE956" d="M22.583,16.679c0.109,0.191,0.443,0.203,0.744,0.027c0.3-0.174,0.453-0.471,0.342-0.662
	c-0.111-0.188-0.442-0.202-0.746-0.026C22.624,16.192,22.47,16.488,22.583,16.679z"/>
<ellipse transform="matrix(-0.863 0.5052 -0.5052 -0.863 56.0379 36.0854)" fill="#EDE956" cx="23.126" cy="25.641" rx="0.629" ry="0.398"/>
<ellipse transform="matrix(-0.8629 0.5053 -0.5053 -0.8629 57.9037 26.0521)" fill="#EDE956" cx="25.418" cy="20.879" rx="0.77" ry="0.487"/>
<ellipse transform="matrix(-0.8632 0.5049 -0.5049 -0.8632 56.3896 31.7011)" fill="#EDE956" cx="23.9" cy="23.49" rx="0.77" ry="0.486"/>
</svg>
