<?xml version="1.0" encoding="utf-8"?>
<!-- Generator: Adobe Illustrator 16.0.0, SVG Export Plug-In . SVG Version: 6.00 Build 0)  -->
<!DOCTYPE svg PUBLIC "-//W3C//DTD SVG 1.1//EN" "http://www.w3.org/Graphics/SVG/1.1/DTD/svg11.dtd">
<svg version="1.1" id="Layer_1" xmlns="http://www.w3.org/2000/svg" xmlns:xlink="http://www.w3.org/1999/xlink" x="0px" y="0px"
	 width="32px" height="32px" viewBox="0 0 32 32" enable-background="new 0 0 32 32" xml:space="preserve">
<path fill="none" stroke="#EF5CFF" stroke-width="0.7" stroke-miterlimit="10" d="M13.337,20.811
	c0.761-3.286-0.628-6.522-3.096-7.23"/>
<path fill="#227528" d="M7.837,30.501c0,0,2.201-8.646,6.617-11.606L7.837,30.501z"/>
<path fill="#7B247F" d="M13.991,19.637c0,0-2.385-7.129,7.366-9.557c0,0,2.574-0.116,2.051,1.311c0.001,0-0.151-0.028-0.412-0.063
	c-0.915-0.12-3.841,0.384-5.11,1.056C17.886,12.383,14.166,13.021,13.991,19.637z"/>
<path fill="#902B93" d="M13.523,20.764c0,0,0.549-4.829,10.829-0.24c0,0,2.508,1.465,1.443,1.84c0,0-1.022-0.127-2.096-0.947
	c-1.237-0.941-0.75-1.225-2.641-1.769C21.06,19.648,16.315,17.693,13.523,20.764z"/>
<path fill="#B841BF" d="M12.492,20.498c0,0,0.138-4.305,11.147,3.172c0,0,2.717,2.145,1.652,2.16c0,0-3.127-2.906-5.126-4.004
	C20.166,21.826,15.099,18.525,12.492,20.498z"/>
<path fill="#902B93" d="M13.201,20.421c0,0,1.682-2.584-6.958-3.289c0,0-2.241,0.325-1.709,0.767c0,0,2.775-0.196,4.237,0.062
	C8.771,17.962,12.689,18.357,13.201,20.421z"/>
<path fill="#AC3DB2" d="M11.516,19.797c0,0,4.847,1.394,1.522-10.285c0,0-1.155-2.986-1.653-2.116c0,0,0.007,1.031,0.689,2.386
	c0.786,1.559,1.125,1.206,1.44,3.235C13.515,13.017,14.887,18.342,11.516,19.797z"/>
<path fill="#AC3DB2" d="M12.325,20.342c0,0,3.939-0.045-0.219-8.405c0,0-1.297-2.065-1.563-1.268c0,0,0.145,0.805,0.855,1.705
	c0.82,1.037,1.033,0.68,1.553,2.193C12.951,14.568,14.736,18.414,12.325,20.342z"/>
<path fill="#EF5CFF" d="M17.826,6.941c0.404-1.545,1.55,1.294,1.55,1.294c0.253-0.771,0.602-1.492-0.43-3.58
	c-0.634-1.283-1.838,0.07-2.675,1.303c0.016-0.29,0.016-0.591-0.018-0.913c-0.229-2.227-2.692-0.013-2.692-0.013
	c1.491-0.388,1.852,1.042,1.903,2.245c-0.059,0.11-0.096,0.181-0.096,0.181l-1.505,11.651C14.835,11.593,17.826,6.941,17.826,6.941z
	"/>
<path fill="#EF5CFF" d="M24.42,10.374c1.511-1.038-2.133-1.25-2.133-1.25c0.728-0.576,1.36-1.24,4.127-0.872
	c1.698,0.226,0.77,2.089-0.201,3.492c0.312-0.125,0.645-0.24,1.014-0.324c2.548-0.585,1.252,3.015,1.252,3.015
	c-0.261-1.819-1.997-1.684-3.343-1.289c-0.094,0.11-0.152,0.178-0.152,0.178l-12.102,6.094C20.688,15.488,24.42,10.374,24.42,10.374
	z"/>
<path fill="#EF5CFF" d="M10.88,14.267c0.107-0.206,0.28-0.449,0.42-0.645c0,0-5.533-3.59-4.135-4.388c0,0-3.932,0.202-1.787,1.947
	c0.31,0.255,2.132,0.782,2.441,0.976c-1.83-0.273-5.544-0.677-4.642,0.691c1.464,2.227,2.441,2.489,3.406,2.852
	C6.584,15.7,3.961,11.127,10.88,14.267z"/>
<path fill="#902B93" d="M13.337,20.811c0,0,1.308-5.519,8.363-3.663c0,0,1.659,0.836,0.772,1.585c0,0-0.763,0.18-1.436-0.391
	c-0.777-0.655-0.351-1.121-1.704-1.131C19.333,17.211,16.046,16.535,13.337,20.811z"/>
<ellipse transform="matrix(0.8937 0.4486 -0.4486 0.8937 10.3803 -3.5936)" fill="#227528" cx="12.776" cy="20.115" rx="1.444" ry="0.72"/>
<path fill="#227528" d="M11.458,19.728c0,0,1.075-0.043-1.624,5.319l2.617-4.29L11.458,19.728z"/>
<ellipse transform="matrix(0.9609 0.2768 -0.2768 0.9609 1.3092 -4.622)" fill="#CB3727" cx="17.025" cy="2.326" rx="0.23" ry="0.533"/>
<ellipse transform="matrix(0.9997 0.0244 -0.0244 0.9997 0.0684 -0.3912)" fill="#CB3727" cx="16.091" cy="2.612" rx="0.231" ry="0.533"/>
<ellipse transform="matrix(0.9606 0.278 -0.278 0.9606 1.2642 -4.8875)" fill="#CB3727" cx="17.87" cy="2.015" rx="0.229" ry="0.532"/>
<ellipse transform="matrix(0.8337 0.5523 -0.5523 0.8337 4.8864 -9.6424)" fill="#CB3727" cx="18.451" cy="3.291" rx="0.231" ry="0.532"/>
<ellipse transform="matrix(-0.4603 0.8878 -0.8878 -0.4603 12.57 10.8443)" fill="#CB3727" cx="2.989" cy="9.243" rx="0.23" ry="0.533"/>
<ellipse transform="matrix(-0.6696 0.7427 -0.7427 -0.6696 12.9161 11.7802)" fill="#CB3727" cx="3.838" cy="8.763" rx="0.23" ry="0.533"/>
<ellipse transform="matrix(-0.4616 0.8871 -0.8871 -0.4616 11.7413 12.1582)" fill="#CB3727" cx="2.181" cy="9.642" rx="0.23" ry="0.532"/>
<ellipse transform="matrix(-0.1733 0.9849 -0.9849 -0.1733 13.953 10.1727)" fill="#CB3727" cx="2.707" cy="10.942" rx="0.231" ry="0.531"/>
<path fill="#CB3727" d="M29.786,8.279c-0.351,0.166-0.695,0.178-0.765,0.026c-0.072-0.15,0.153-0.409,0.503-0.575
	c0.353-0.165,0.693-0.178,0.767-0.027C30.36,7.854,30.137,8.113,29.786,8.279z"/>
<ellipse transform="matrix(0.6397 0.7686 -0.7686 0.6397 15.9466 -18.8259)" fill="#CB3727" cx="28.054" cy="7.597" rx="0.303" ry="0.704"/>
<ellipse transform="matrix(0.4287 0.9034 -0.9034 0.4287 25.4213 -21.3091)" fill="#CB3727" cx="29.561" cy="9.447" rx="0.303" ry="0.701"/>
<ellipse transform="matrix(0.138 0.9904 -0.9904 0.138 36.1043 -19.8187)" fill="#CB3727" cx="29.438" cy="10.833" rx="0.304" ry="0.701"/>
</svg>
