<?xml version="1.0" encoding="utf-8"?>
<!-- Generator: Adobe Illustrator 16.0.0, SVG Export Plug-In . SVG Version: 6.00 Build 0)  -->
<!DOCTYPE svg PUBLIC "-//W3C//DTD SVG 1.1//EN" "http://www.w3.org/Graphics/SVG/1.1/DTD/svg11.dtd">
<svg version="1.1" id="Layer_1" xmlns="http://www.w3.org/2000/svg" xmlns:xlink="http://www.w3.org/1999/xlink" x="0px" y="0px"
	 width="32px" height="32px" viewBox="0 0 32 32" enable-background="new 0 0 32 32" xml:space="preserve">
<polygon fill="#FBB03B" stroke="#DD8D24" stroke-miterlimit="10" points="14.245,9.513 19.24,9.513 22.116,14.39 19.165,19.157 
	14.245,19.157 11.294,14.39 "/>
<polygon fill="#FBB03B" stroke="#DD8D24" stroke-miterlimit="10" points="14.449,19.801 19.445,19.801 22.32,24.678 19.37,29.446 
	14.449,29.446 11.498,24.678 "/>
<polygon fill="#FBB03B" stroke="#DD8D24" stroke-miterlimit="10" points="22.826,14.829 27.821,14.829 30.697,19.706 27.745,24.476 
	22.826,24.476 19.874,19.706 "/>
<polygon fill="#FBB03B" stroke="#DD8D24" stroke-miterlimit="10" points="5.665,4.29 10.66,4.29 13.536,9.167 10.584,13.935 
	5.665,13.935 2.713,9.167 "/>
<polygon fill="#FBB03B" stroke="#DD8D24" stroke-miterlimit="10" points="5.665,14.829 10.66,14.829 13.536,19.706 10.584,24.476 
	5.665,24.476 2.713,19.706 "/>
<ellipse fill="#F9DE3D" cx="8.124" cy="11.646" rx="1.816" ry="0.893"/>
<ellipse fill="#F9DE3D" cx="8.124" cy="22.343" rx="1.816" ry="0.892"/>
<ellipse fill="#F9DE3D" cx="16.909" cy="16.95" rx="1.816" ry="0.891"/>
<ellipse fill="#F9DE3D" cx="25.991" cy="22.343" rx="1.816" ry="0.892"/>
<ellipse fill="#F9DE3D" cx="16.909" cy="27.485" rx="1.816" ry="0.891"/>
<path fill="#F9DE3D" d="M23.99,6.164c2.075,1.724,3.031,3.994,2.138,5.069s-3.301,0.549-5.375-1.177
	c-0.776-0.646-1.397-1.371-1.824-2.079c-0.709-1.182-0.872-2.319-0.313-2.99C19.509,3.911,21.917,4.438,23.99,6.164z"/>
<polygon fill="#7F570F" points="22.043,10.937 25.129,7.226 24.232,6.308 20.942,10.263 "/>
<polygon fill="#7F570F" points="22.764,11.34 25.62,7.904 26.258,8.887 23.847,11.788 "/>
<path fill="#261D10" d="M24.37,6.722c-0.018,0.021-0.016,0.043-0.024,0.054l-0.01,0.011c-0.043-0.017-0.053-0.025-0.053-0.025
	L24.37,6.722z"/>
<path fill="#261D10" d="M25.885,3.079c-0.04-0.01-0.069-0.03-0.1-0.041l0.01-0.02C25.825,3.038,25.855,3.059,25.885,3.079z"/>
<path fill="#261D10" d="M24.346,6.775c0.01,0.009,0.021,0.019,0.053,0.025l-0.079,0.028c0,0,0.009-0.012,0.017-0.043L24.346,6.775z"
	/>
<path fill="#261D10" d="M25.936,3.099l-0.011,0.01c-0.01-0.01-0.029-0.02-0.04-0.029C25.905,3.089,25.915,3.089,25.936,3.099z"/>
<path fill="#261D10" d="M21.599,9.22c-0.006-0.027-0.023-0.039-0.026-0.053l-0.003-0.016c0.041-0.021,0.054-0.023,0.054-0.023
	L21.599,9.22z"/>
<path fill="#261D10" d="M27.232,10.446c0.039-0.03,0.081-0.043,0.113-0.062l0.013,0.023C27.315,10.421,27.273,10.434,27.232,10.446z
	"/>
<path fill="#918C87" d="M21.352,7.161c0.029-0.021,0.045-0.025,0.062-0.028c0.003,0.017,0.022,0.03,0.03,0.063
	c0.362,0.728,2.167,4.686-1.153,4.155c-0.052-0.007-0.107-0.032-0.175-0.033c-0.021-0.015-0.057-0.024-0.075-0.037
	C16.962,9.903,20.618,7.594,21.352,7.161z"/>
<path fill="#918C87" d="M21.291,7.231c-0.016,0.035-0.016,0.051-0.016,0.067c0.017-0.001,0.032,0.018,0.066,0.019
	c0.782,0.223,5.003,1.277,3.876-1.892c-0.017-0.051-0.052-0.101-0.065-0.167c-0.017-0.018-0.033-0.051-0.049-0.066
	C23.188,2.417,21.583,6.433,21.291,7.231z"/>
<path fill="#261D10" d="M21.572,9.167c-0.013,0.002-0.028,0.004-0.055,0.023l0.03-0.078c0,0,0.003,0.014,0.021,0.039L21.572,9.167z"
	/>
<path fill="#261D10" d="M27.174,10.478l-0.001-0.018c0.017-0.001,0.042-0.012,0.06-0.014C27.206,10.457,27.199,10.466,27.174,10.478
	z"/>
<ellipse transform="matrix(0.7688 0.6395 -0.6395 0.7688 13.7825 -14.3575)" fill="#070707" cx="26.748" cy="11.882" rx="0.891" ry="0.133"/>
<circle fill="#7F570F" cx="19.269" cy="5.616" r="1.393"/>
<path fill="#60584E" d="M20.532,6.464c-0.657,0.79-1.831,0.898-2.621,0.242c-0.793-0.66-0.896-1.832-0.241-2.621
	c0.658-0.791,1.829-0.9,2.622-0.242C21.081,4.5,21.188,5.674,20.532,6.464z"/>
<path fill="#070707" d="M19.101,5.274"/>
<line fill="none" stroke="#60584E" stroke-width="0.25" stroke-miterlimit="10" x1="15.396" y1="4.674" x2="17.24" y2="5.024"/>
<line fill="none" stroke="#60584E" stroke-width="0.25" stroke-miterlimit="10" x1="17.667" y1="2.257" x2="18.455" y2="3.962"/>
</svg>
