<?xml version="1.0" encoding="utf-8"?>
<!-- Generator: Adobe Illustrator 16.0.0, SVG Export Plug-In . SVG Version: 6.00 Build 0)  -->
<!DOCTYPE svg PUBLIC "-//W3C//DTD SVG 1.1//EN" "http://www.w3.org/Graphics/SVG/1.1/DTD/svg11.dtd">
<svg version="1.1" id="Layer_1" xmlns="http://www.w3.org/2000/svg" xmlns:xlink="http://www.w3.org/1999/xlink" x="0px" y="0px"
	 width="32px" height="32px" viewBox="0 0 32 32" enable-background="new 0 0 32 32" xml:space="preserve">
<path fill="#7E37D1" d="M15.774,2.102c0,0-3.446,0.256-0.584,6.022h1.281C16.472,8.124,19.348,2.956,15.774,2.102z"/>
<path fill="#7E37D1" d="M12.101,3.969c0,0-2.589-0.095,2.854,6.073l-0.093,0.874c0,0-4.122-3.487-5.145-5.334
	C8.696,3.734,8.182,0.516,12.101,3.969z"/>
<path fill="#7E37D1" d="M20.56,3.969c0,0,2.588-0.095-2.854,6.073l0.093,0.874c0,0,4.121-3.487,5.143-5.334
	C23.963,3.734,24.478,0.516,20.56,3.969z"/>
<ellipse fill="#662ABC" cx="15.96" cy="9.513" rx="2.284" ry="1.666"/>
<line fill="none" stroke="#227528" stroke-miterlimit="10" x1="16.012" y1="19.26" x2="15.954" y2="30.938"/>
<path fill="#9F4EDD" d="M15.866,20.309c0,0-9.189-0.473-1.559-11.109h3.418C17.726,9.2,25.396,18.734,15.866,20.309z"/>
<path fill="#A365E5" d="M15.904,18.551c0,0-7.736-0.398-1.312-9.351h2.877C17.469,9.2,23.926,17.225,15.904,18.551z"/>
<path fill="#EDCC40" d="M14.822,9.513c-0.113,0.471-0.18,1.019-0.18,1.612c0,1.712,0.537,3.1,1.202,3.1
	c0.664,0,1.203-1.387,1.203-3.1c0-0.594-0.067-1.142-0.181-1.612H14.822z"/>
<path fill="#662ABC" d="M15.488,7.911c-0.039-0.316-0.063-0.682-0.063-1.079c0-1.146,0.188-2.074,0.419-2.074
	c0.233,0,0.421,0.928,0.421,2.074c0,0.397-0.022,0.763-0.062,1.079H15.488z"/>
<path fill="#9F4EDD" d="M9.971,16.114c0,0-3.396-2.579,4.349-5.581L14.284,9.2c0,0-5.745,0.604-7.266,2.143
	C5.496,12.88,4.495,16.881,9.971,16.114z"/>
<path fill="#9F4EDD" d="M22.053,16.114c0,0,3.397-2.579-4.348-5.581L17.739,9.2c0,0,5.745,0.604,7.266,2.143
	C26.527,12.88,27.528,16.881,22.053,16.114z"/>
<ellipse fill="#B570E5" cx="15.844" cy="16.916" rx="1.967" ry="0.984"/>
<path fill="#227528" d="M23.104,18.631c0,0-6.649,6.303-7.092,11.744L23.104,18.631z"/>
</svg>
