<?xml version="1.0" encoding="utf-8"?>
<!-- Generator: Adobe Illustrator 16.0.0, SVG Export Plug-In . SVG Version: 6.00 Build 0)  -->
<!DOCTYPE svg PUBLIC "-//W3C//DTD SVG 1.1//EN" "http://www.w3.org/Graphics/SVG/1.1/DTD/svg11.dtd">
<svg version="1.1" id="Layer_1" xmlns="http://www.w3.org/2000/svg" xmlns:xlink="http://www.w3.org/1999/xlink" x="0px" y="0px"
	 width="32px" height="32px" viewBox="0 0 32 32" enable-background="new 0 0 32 32" xml:space="preserve">
<path fill="#5B9627" d="M18.965,12.833l0.425-1.627c0,0-1.121-6.978-8.162-4.336c-1.815,1.064-2.153,3.384-2.153,3.384
	s-1.811,6.881-2.279,7.427c-0.469,0.546-2.023,3.685-3.522,4.564c-1.584,1.458-1.467,2.291-1.467,2.291s-0.079,1.584,6.802-0.699
	C15.488,21.554,18.965,12.833,18.965,12.833z"/>
<path fill="#4A771E" d="M14.302,6.282c2.712,1.161,3.263,4.542,3.263,4.542l-0.425,1.627c0,0-3.477,8.72-10.357,11.004
	c-2.411,0.8-3.954,1.12-4.959,1.205c0.179,0.327,1.179,1.021,6.763-0.832c6.88-2.284,10.357-11.004,10.357-11.004l0.425-1.627
	C19.369,11.197,18.585,6.41,14.302,6.282z"/>
<path fill="#EF351D" d="M25.924,14.802v-1.682c0,0-2.847-6.469-8.992-2.135c-1.488,1.488-1.229,3.816-1.229,3.816
	s-0.015,7.116-0.331,7.764c-0.316,0.646-1.028,4.075-2.257,5.305c-1.164,1.812-0.841,2.588-0.841,2.588s0.323,1.552,6.404-2.394
	C24.759,24.119,25.924,14.802,25.924,14.802z"/>
<path fill="#FFAAA4" d="M19.39,11.375c0,0-3.688-0.164-2.199,9.428C17.19,20.802,18.29,11.762,19.39,11.375z"/>
<path fill="#B4E089" d="M12.711,7.502c0,0-3.636-0.637-3.394,9.066C9.317,16.568,11.571,7.746,12.711,7.502z"/>
<path fill="#308429" d="M22.263,1.841c0,0-2.05-1.056-6.144,3.291L16.117,5.13l-1.838,1.238l2.792,1.125l-0.046-1.745l0,0
	c0.688-1.107,2.5-3.297,5.987-3.072L22.263,1.841z"/>
<path fill="#308429" d="M29.353,4.582c0,0-2.274-1.138-6.823,3.464l-0.156-0.073l-1.865,1.615l3.284,0.774l-0.275-1.636
	c0.817-1.227,2.847-3.476,6.679-3.239L29.353,4.582z"/>
<path fill="#BF2119" d="M19.738,9.612c2.921,0.416,4.333,3.537,4.333,3.537l0.013,1.681c0,0-1.088,9.325-7.138,13.32
	c-2.119,1.399-3.526,2.11-4.475,2.454c0.258,0.269,1.404,0.68,6.313-2.562c6.049-3.996,7.138-13.32,7.138-13.32l-0.013-1.682
	C25.909,13.04,23.907,8.622,19.738,9.612z"/>
</svg>
