<?xml version="1.0" encoding="utf-8"?>
<!-- Generator: Adobe Illustrator 16.0.0, SVG Export Plug-In . SVG Version: 6.00 Build 0)  -->
<!DOCTYPE svg PUBLIC "-//W3C//DTD SVG 1.1//EN" "http://www.w3.org/Graphics/SVG/1.1/DTD/svg11.dtd">
<svg version="1.1" id="Layer_1" xmlns="http://www.w3.org/2000/svg" xmlns:xlink="http://www.w3.org/1999/xlink" x="0px" y="0px"
	 width="32px" height="32px" viewBox="0 0 32 32" enable-background="new 0 0 32 32" xml:space="preserve">
<path fill="#497A39" d="M22.798,13.337c-0.327-0.244-0.676-0.486-1.054-0.718l0.11,0.011c-0.016-0.044-0.033-0.089-0.048-0.136
	c0.012-0.01,3.753-7.656,4.125-8.647l0.211-0.161c0,0-0.053,0-0.146,0.003c0.016-0.054-0.085,0.002-0.085,0.002
	c-0.944,0.033-4.89,0.3-8.165,2.379c-2.543-2.806-7.272-5.351-7.272-5.351s-0.503,4.414,0.536,7.786
	c-2.663,0.741-5.898,2.341-5.835,2.414c-0.053,0.034-0.086,0.053-0.086,0.053l0.145,0.013c0.421,0.482,3.649,3.089,3.642,3.093
	l0.046,0.008c0.002,0.001,0.003,0.001,0.006,0.001c0.155,0.428-2.901-0.391-3.426-0.662c0,0-0.558,3.131,0.203,5.597
	c-1.948,0.541-4.329,1.804-4.329,1.804s1.381,1.4,2.779,2.262c-0.004,0.002,0.022,0.014,0.022,0.014c0.002,0-1.333,4.06-1.333,4.06
	s3.285,0.395,5.644-0.623c1.514,1.67,3.913,3.253,3.913,3.253c0.097-0.365,0.321-1.323,0.403-2.549
	c1.412,0.119,4.112,0.143,6.706-0.977c2.07,2.285,5.354,4.452,5.354,4.452c0.181-0.685,0.694-2.879,0.578-5.477
	c2.167-0.694,3.924-1.593,4.546-1.929c0,0-3.467-3.358-3.455-3.371c0,0,3.719-7.628,4.091-8.618
	C30.624,11.326,25.998,11.456,22.798,13.337z M13.582,21.547c-0.004,0.003-0.008,0.007-0.014,0.011l0.045,0.007
	c0.003,0.001,0.004,0.002,0.005,0.002c0.091,0.248,0.192,0.478,0.297,0.699c-0.119-0.081-0.237-0.16-0.363-0.238l0.08,0.008
	c-0.011-0.032-0.024-0.065-0.036-0.1c0.01-0.007,0.017-0.012,0.026-0.021l-0.036-0.005c-0.066-0.183-0.144-0.342-0.22-0.506
	C13.439,21.453,13.507,21.501,13.582,21.547z"/>
<path fill="#FFFEF8" d="M21.089,10.008c0,0-0.21-3.031-2.356-0.915c-2.15,2.115-4.719,5.622-2.637,7.687
	c3.706,0.222,4.959-2.176,4.959-2.176S21.737,13.371,21.089,10.008z"/>
<path fill="#EADFB2" d="M16.754,16.428c-2.081-2.065,0.488-5.571,2.637-7.687c0.147-0.145,0.281-0.261,0.413-0.359
	c-0.29,0.075-0.641,0.286-1.071,0.711c-2.15,2.115-4.719,5.622-2.637,7.687c1.66,0.099,2.83-0.328,3.613-0.832
	C18.97,16.277,18.006,16.503,16.754,16.428z"/>
<path fill="#FFFEF8" d="M23.882,19.937c0,0,2.828-1.107,0.167-2.525c-2.66-1.419-6.774-2.826-8.123-0.222
	c0.896,3.604,3.559,4.085,3.559,4.085S20.863,21.559,23.882,19.937z"/>
<path fill="#EADFB2" d="M16.441,17.742c1.348-2.604,5.462-1.202,8.125,0.214c0.181,0.097,0.332,0.191,0.467,0.286
	c-0.159-0.255-0.467-0.527-1-0.811c-2.663-1.417-6.777-2.817-8.124-0.215c0.404,1.619,1.161,2.603,1.876,3.2
	C17.251,19.811,16.745,18.958,16.441,17.742z"/>
<path fill="#FFFEF8" d="M15.372,25.368c0,0,1.877,2.387,2.464-0.571c0.583-2.958,0.737-7.303-2.145-7.838
	c-3.188,1.901-2.877,4.59-2.877,4.59S12.943,22.948,15.372,25.368z"/>
<path fill="#EADFB2" d="M15.433,17.651c2.87,0.603,2.62,4.942,1.966,7.885c-0.044,0.204-0.095,0.375-0.151,0.527
	c0.203-0.221,0.384-0.587,0.514-1.18c0.654-2.944,0.905-7.284-1.965-7.885c-1.448,0.821-2.195,1.814-2.58,2.662
	C13.656,18.984,14.342,18.268,15.433,17.651z"/>
<path fill="#FFFEF8" d="M7.692,18.894c0,0-1.794,2.451,1.213,2.219c3.007-0.231,7.231-1.254,6.973-4.174
	c-2.692-2.562-5.196-1.536-5.196-1.536S9.366,15.905,7.692,18.894z"/>
<path fill="#EADFB2" d="M15.191,16.837c0.24,2.921-3.993,3.915-7,4.127c-0.206,0.015-0.386,0.014-0.547,0.005
	c0.269,0.131,0.672,0.198,1.275,0.156c3.01-0.211,7.241-1.207,7.001-4.128c-1.201-1.158-2.366-1.59-3.288-1.717
	C13.406,15.51,14.288,15.966,15.191,16.837z"/>
<path fill="#FFFEF8" d="M11.232,9.952c0,0-2.899-0.908-1.711,1.863c1.189,2.771,3.52,6.441,6.2,5.253
	c1.556-3.371-0.222-5.412-0.222-5.412S14.601,10.573,11.232,9.952z"/>
<path fill="#EADFB2" d="M15.548,16.261c-2.698,1.146-4.972-2.562-6.117-5.35c-0.078-0.191-0.134-0.36-0.178-0.517
	c-0.038,0.296,0.023,0.701,0.253,1.26c1.146,2.788,3.419,6.493,6.119,5.35c0.722-1.503,0.766-2.744,0.597-3.66
	C16.246,14.151,16.092,15.132,15.548,16.261z"/>
<path fill="#A58E2D" d="M16.408,17.439c-0.178,0.292-0.557,0.384-0.851,0.204c-0.288-0.176-0.382-0.558-0.204-0.849
	c0.178-0.292,0.562-0.382,0.85-0.206C16.496,16.768,16.587,17.148,16.408,17.439z"/>
<g>
	<path fill="#FFF648" d="M15.316,17.109c-0.202-0.111-1.318-0.13-1.128,0.723l-0.001,0c0.001,0.002,0.002,0.002,0.002,0.002
		s0,0.002-0.001,0.002l0.003,0c0.001,0.004,0.003,0.006,0.005,0.008c0.001,0.003,0.001,0.005,0.002,0.008l-0.003,0
		c0.002,0,0.003,0.001,0.002,0.002c0,0.001,0,0.001,0,0.002l0.002,0c0.456,0.745,1.245-0.046,1.312-0.265
		c0.073-0.235,0.186-0.325,0.267-0.39C15.675,17.214,15.531,17.228,15.316,17.109z"/>
	<path fill="#FFF648" d="M16.125,17.56c-0.21-0.125-0.27-0.256-0.312-0.349c-0.014,0.102-0.036,0.245-0.201,0.425
		c-0.156,0.17-0.438,1.25,0.436,1.266l0.001,0.001c0.002,0,0.002,0,0.003-0.001c0,0,0.002,0,0.003,0l-0.001-0.001
		c0.004,0,0.006-0.003,0.008-0.003c0.003,0,0.006,0,0.01,0.001l0.001,0.001c0-0.001,0-0.001,0.001-0.002
		c0.001-0.001,0.001-0.001,0.004,0l-0.001-0.001C16.906,18.63,16.326,17.678,16.125,17.56z"/>
	<path fill="#FFF648" d="M15.343,17.009c0.244,0.015,0.358,0.103,0.44,0.166c-0.034-0.097-0.081-0.233-0.018-0.471
		c0.061-0.221-0.187-1.31-0.969-0.922l0,0c-0.001,0-0.002,0-0.003,0.001c-0.001,0-0.002,0.001-0.002,0.001l0,0
		c-0.002,0.003-0.004,0.004-0.005,0.007c-0.004,0-0.008,0.001-0.009,0.003l-0.001,0l-0.001,0.001c-0.001,0-0.004,0.001-0.004,0.001
		v0.001C14.159,16.418,15.112,16.996,15.343,17.009z"/>
	<path fill="#FFF648" d="M15.821,17.08c0.079-0.064,0.192-0.154,0.437-0.172c0.229-0.016,1.179-0.605,0.555-1.218l0.001-0.001
		c-0.001,0-0.001,0-0.001,0c-0.001,0-0.002-0.003-0.003-0.003l-0.001,0c-0.004-0.001-0.006-0.001-0.009-0.002
		c-0.002-0.002-0.003-0.004-0.005-0.006l0.001-0.001c-0.001,0-0.002-0.001-0.003-0.001c0-0.001-0.001-0.001-0.001-0.001l-0.001,0
		c-0.789-0.378-1.021,0.714-0.958,0.935C15.9,16.846,15.854,16.983,15.821,17.08z"/>
	<path fill="#FFF648" d="M17.533,17.447c0,0,0.001-0.001,0.002-0.002h-0.002c0.001-0.003,0-0.006,0.001-0.008
		c0.001-0.002,0.003-0.005,0.002-0.008l0.002,0c0-0.002-0.001-0.003-0.001-0.004c0-0.002,0-0.002,0.001-0.003h-0.001
		c0.007-0.872-1.082-0.618-1.253-0.467c-0.187,0.163-0.329,0.179-0.432,0.19c0.093,0.046,0.223,0.111,0.342,0.324
		c0.112,0.2,1.048,0.805,1.338-0.019h0.003C17.535,17.45,17.533,17.448,17.533,17.447z"/>
</g>
<polyline fill="#618949" points="29.836,11.353 29.94,11.36 30.021,11.46 "/>
</svg>
