<?xml version="1.0" encoding="utf-8"?>
<!-- Generator: Adobe Illustrator 16.0.0, SVG Export Plug-In . SVG Version: 6.00 Build 0)  -->
<!DOCTYPE svg PUBLIC "-//W3C//DTD SVG 1.1//EN" "http://www.w3.org/Graphics/SVG/1.1/DTD/svg11.dtd">
<svg version="1.1" id="Layer_1" xmlns="http://www.w3.org/2000/svg" xmlns:xlink="http://www.w3.org/1999/xlink" x="0px" y="0px"
	 width="32px" height="32px" viewBox="0 0 32 32" enable-background="new 0 0 32 32" xml:space="preserve">
<path fill="#986C27" d="M7.508,10.379c0,0-1.607-9.044,12.084-7.205c13.693,1.84,12.102,13.434,8.153,15.16
	c-1.782,0.779-4.174,0.948-7.513,1.71c0,0-7.403-1.128-7.945-2.356c-0.541-1.226-7.408,1.438-3.995-4.234"/>
<ellipse transform="matrix(-0.3351 0.9422 -0.9422 -0.3351 44.1473 -1.9623)" fill="#986C27" cx="22.766" cy="14.597" rx="6.058" ry="6.966"/>
<path fill="#7B5925" d="M3.225,25.74l12.168-15.688c0,0,6.291,4.348,5.42,11.403c0,0-0.25,6.027-6.971,7.366
	C13.842,28.822,9.788,30.378,3.225,25.74z"/>
<path fill="#936F3F" d="M14.509,10.395l-2.173,2.802c3.2,1.474,5.506,5.559,5.506,10.38c0,1.181-0.143,2.315-0.398,3.381
	c2.357-2.229,2.486-5.16,2.486-5.16C20.801,14.742,14.509,10.395,14.509,10.395z"/>
<ellipse transform="matrix(0.8013 0.5983 -0.5983 0.8013 12.8719 -2.2153)" fill="#825A31" cx="9.771" cy="18.268" rx="7.199" ry="9.962"/>
<ellipse transform="matrix(0.8013 0.5983 -0.5983 0.8013 12.8712 -2.2154)" fill="#98E93A" cx="9.771" cy="18.268" rx="6.79" ry="9.396"/>
<ellipse transform="matrix(0.8012 0.5984 -0.5984 0.8012 12.7992 -1.9946)" fill="#92D628" cx="9.402" cy="18.268" rx="5.742" ry="8.306"/>
<ellipse transform="matrix(0.8013 0.5983 -0.5983 0.8013 12.7982 -1.9945)" fill="#86AA15" cx="9.401" cy="18.268" rx="4.923" ry="7.121"/>
<ellipse transform="matrix(0.8013 0.5983 -0.5983 0.8013 12.1961 -2.0083)" fill="#CBD8A4" cx="9.121" cy="17.354" rx="2.698" ry="3.769"/>
<ellipse transform="matrix(0.2809 0.9597 -0.9597 0.2809 24.9007 -2.5863)" fill="#161614" cx="14.176" cy="15.324" rx="0.28" ry="0.761"/>
<ellipse transform="matrix(0.8958 -0.4444 0.4444 0.8958 -5.7934 4.4332)" fill="#161614" cx="6.559" cy="14.573" rx="0.28" ry="0.552"/>
<ellipse transform="matrix(-0.1551 0.9879 -0.9879 -0.1551 22.6648 15.1241)" fill="#161614" cx="4.865" cy="17.254" rx="0.28" ry="0.529"/>
<ellipse transform="matrix(-0.1291 0.9916 -0.9916 -0.1291 34.298 7.8181)" fill="#161614" cx="13.716" cy="18.97" rx="0.28" ry="0.759"/>
<ellipse transform="matrix(0.936 -0.3521 0.3521 0.936 -7.0626 5.2546)" fill="#161614" cx="10.916" cy="22.045" rx="0.28" ry="0.76"/>
<ellipse transform="matrix(0.2687 0.9632 -0.9632 0.2687 22.6895 10.6052)" fill="#161614" cx="4.36" cy="20.246" rx="0.28" ry="0.589"/>
<ellipse transform="matrix(0.9577 0.2878 -0.2878 0.9577 6.9432 -0.8059)" fill="#161614" cx="6.212" cy="23.209" rx="0.28" ry="0.76"/>
<ellipse fill="#161614" cx="9.121" cy="12.639" rx="0.279" ry="0.553"/>
<ellipse transform="matrix(0.7555 0.6552 -0.6552 0.7555 11.2595 -4.9375)" fill="#161614" cx="12.245" cy="12.616" rx="0.28" ry="0.76"/>
<path fill="#A5783D" d="M19.393,5.2c6.426,1.221,10.889,6.144,9.967,10.997c-0.063,0.334-0.156,0.658-0.266,0.974
	c2.682-3.472,2.301-12.395-9.571-13.99C9.459,1.829,7.662,6.354,7.416,8.848C9.7,5.825,14.398,4.252,19.393,5.2z"/>
<ellipse transform="matrix(0.9833 0.1818 -0.1818 0.9833 3.0528 -5.187)" fill="#7B5925" cx="29.827" cy="14.062" rx="0.688" ry="1.441"/>
<ellipse fill="#986C27" cx="12.961" cy="4.671" rx="0.382" ry="0.43"/>
<ellipse fill="#986C27" cx="14.614" cy="4.242" rx="0.345" ry="0.364"/>
<ellipse fill="#A5783D" cx="13.859" cy="6.345" rx="0.609" ry="0.687"/>
</svg>
