<?xml version="1.0" encoding="utf-8"?>
<!-- Generator: Adobe Illustrator 16.0.0, SVG Export Plug-In . SVG Version: 6.00 Build 0)  -->
<!DOCTYPE svg PUBLIC "-//W3C//DTD SVG 1.1//EN" "http://www.w3.org/Graphics/SVG/1.1/DTD/svg11.dtd">
<svg version="1.1" id="Layer_1" xmlns="http://www.w3.org/2000/svg" xmlns:xlink="http://www.w3.org/1999/xlink" x="0px" y="0px"
	 width="32px" height="32px" viewBox="0 0 32 32" enable-background="new 0 0 32 32" xml:space="preserve">
<path fill="#E5B43B" d="M19.64,16.646c1.607-1.389,2.09-12.154,2.09-12.154h-4.662h-1.125H11.28c0,0,0.483,10.766,2.092,12.154
	L15.3,27.988l-2.675,1.199c0,0-0.305,1.258,3.881,1.035c4.186,0.223,1.505-1.598,1.505-1.598l-0.299-0.637L19.64,16.646z"/>
<g>
	<path fill="#CC9B2F" d="M15.28,27.878l1.466-0.548l-1.928-11.343c-1.368-1.182-1.922-9.141-2.058-11.496H11.28
		c0,0,0.483,10.766,2.092,12.154L15.28,27.878z"/>
</g>
<path fill="#565153" d="M21.73,4.562c0,0.155-0.174,0.283-0.392,0.283h-9.667c-0.217,0-0.392-0.128-0.392-0.283l0,0
	c0-0.155,0.175-0.283,0.392-0.283h9.667C21.556,4.279,21.73,4.407,21.73,4.562L21.73,4.562z"/>
<g>
	<path fill="#BDBDC0" d="M14.462,23.062c0,0,1.875,3.164,4.086,0l-0.837,4.926l4.019,1.504c0,0-4.5,2.133-10.451,0l4.02-1.504
		L14.462,23.062z"/>
	<g>
		<path fill="#565153" d="M12.365,29.492l4.02-1.504l-0.629-3.705c-0.79-0.38-1.293-1.221-1.293-1.221l0.837,4.926l-4.02,1.504
			c2.245,0.805,4.282,1.002,5.951,0.936C15.791,30.382,14.145,30.131,12.365,29.492z"/>
	</g>
</g>
<circle fill="#E6E1D5" cx="18.429" cy="7.216" r="1.172"/>
<ellipse fill="#E6E1D5" cx="19.538" cy="10.008" rx="0.767" ry="0.838"/>
<path fill="#E6E1D5" d="M18.92,12.144c0,0.475-0.407,0.859-0.909,0.859c-0.501,0-0.909-0.385-0.909-0.859
	c0-0.478,0.408-0.862,0.909-0.862C18.513,11.281,18.92,11.666,18.92,12.144z"/>
<path fill="#DBD2C6" d="M21.309,2.824c-0.32-0.721-2.365-1.277-4.867-1.277c-2.725,0-4.933,0.659-4.933,1.473
	c0,0.002,0.003,0.005,0.003,0.008c-0.134,0.161-0.232,0.337-0.232,0.539c0,0.59,0.662,1.066,1.481,1.066h7.49
	c0.818,0,1.479-0.477,1.479-1.066C21.73,3.278,21.568,3.016,21.309,2.824z"/>
<path fill="#FFF7EE" d="M20.643,2.735c-0.13-0.324-1.077-0.634-2.256-0.712c-1.284-0.086-2.344,0.134-2.368,0.489
	c0,0,0.002,0.003,0.001,0.004c-0.068,0.065-0.119,0.141-0.125,0.229c-0.018,0.258,0.28,0.487,0.667,0.514l3.529,0.235
	c0.386,0.026,0.711-0.162,0.729-0.42C20.828,2.948,20.758,2.828,20.643,2.735z"/>
</svg>
