<?xml version="1.0" encoding="utf-8"?>
<!-- Generator: Adobe Illustrator 16.0.0, SVG Export Plug-In . SVG Version: 6.00 Build 0)  -->
<!DOCTYPE svg PUBLIC "-//W3C//DTD SVG 1.1//EN" "http://www.w3.org/Graphics/SVG/1.1/DTD/svg11.dtd">
<svg version="1.1" id="Layer_1" xmlns="http://www.w3.org/2000/svg" xmlns:xlink="http://www.w3.org/1999/xlink" x="0px" y="0px"
	 width="32px" height="32px" viewBox="0 0 32 32" enable-background="new 0 0 32 32" xml:space="preserve">
<path fill="none" stroke="#648E4C" stroke-width="0.8" stroke-miterlimit="10" d="M19.494,4.109
	c3.866,14.119,6.565,25.657,6.035,25.8"/>
<path fill="#8F4FDB" d="M19.466,4.049L19.466,4.049c0,0-1.706-1.001-1.277-1.64l0,0l0,0l0-0.001l0,0
	C19.02,2.287,19.466,4.049,19.466,4.049z"/>
<path fill="#9045D8" d="M20.258,5.834L20.258,5.834c0,0,0.172-2.022,1.047-1.663l0,0v0.001V4.171l0,0
	C21.849,5.055,20.258,5.834,20.258,5.834z"/>
<path fill="#9045D8" d="M20.589,7.457L20.589,7.457c0-0.001,0.201-2.365,1.225-1.942l0,0h0.001l0,0l0,0
	C22.452,6.549,20.589,7.457,20.589,7.457z"/>
<path fill="#9045D8" d="M21.066,9.052l-0.001-0.001c0,0,0.202-2.364,1.225-1.942l0,0l0,0h0l0,0
	C22.926,8.142,21.066,9.052,21.066,9.052z"/>
<path fill="#8140CC" d="M21.844,11.23l-0.002-0.002c0,0,0.244-2.873,1.486-2.36l0,0l0,0.001h0.001l0,0
	C24.104,10.126,21.844,11.23,21.844,11.23z"/>
<path fill="#733DC1" d="M22.487,13.327v-0.004c0,0,0.284-3.336,1.729-2.738l0,0h0.001l0,0l0,0
	C25.116,12.041,22.487,13.327,22.487,13.327z"/>
<path fill="#9045D8" d="M20.147,5.75L20.147,5.75c0,0-1.274-1.672-1.83-0.964l0,0h0h0l0,0C18.337,5.797,20.147,5.75,20.147,5.75z"/>
<path fill="#9045D8" d="M20.458,7.361L20.458,7.361c0,0-1.49-1.957-2.141-1.129l0,0l0,0v0.001l0,0
	C18.342,7.415,20.458,7.361,20.458,7.361z"/>
<path fill="#9045D8" d="M20.934,8.957L20.934,8.957c-0.001-0.001-1.489-1.956-2.141-1.13l0,0l0,0h0l0,0
	C18.816,9.008,20.934,8.957,20.934,8.957z"/>
<path fill="#8140CC" d="M21.684,11.111L21.684,11.111c0,0-1.807-2.372-2.601-1.371l0,0l0,0.002l0,0l0,0
	C19.112,11.179,21.684,11.111,21.684,11.111z"/>
<path fill="#733DC1" d="M22.302,13.188L22.302,13.188c0,0-2.104-2.759-3.023-1.594l0,0v0.001l0,0l0,0
	C19.313,13.268,22.302,13.188,22.302,13.188z"/>
<path fill="#648E4C" d="M24.898,11.944c0,0-2.126,8.982,0.48,13.928L24.898,11.944z"/>
<path fill="#648E4C" d="M14.965,23.955c0,0,7.322,1.047,10.698,4.479L14.965,23.955z"/>
<path fill="#648E4C" d="M20.724,17.561c0,0,3.491,2.818,4.373,6.348L20.724,17.561z"/>
<path fill="none" stroke="#648E4C" stroke-width="0.8" stroke-miterlimit="10" d="M5.74,12.598
	c11.794,9.8,21.606,17.397,21.941,16.99"/>
<path fill="#8F4FDB" d="M5.427,12.726L5.427,12.726c0,0-0.451-2.326-1.331-2.125l0,0l0,0l0,0.001l0,0
	C3.635,11.473,5.427,12.726,5.427,12.726z"/>
<path fill="#9045D8" d="M6.658,13.712L6.658,13.712c0,0-1.774-0.826-1.717,0.057l0,0l0-0.001l0,0l0,0
	C5.541,14.633,6.658,13.712,6.658,13.712z"/>
<path fill="#9045D8" d="M8.165,14.97L8.165,14.97c-0.001-0.001-1.979-0.923-1.916,0.062l0,0l0.001,0.001l0,0l0,0
	C6.918,15.992,8.165,14.97,8.165,14.97z"/>
<path fill="#9045D8" d="M9.332,16.061L9.332,16.061c0,0-1.978-0.92-1.914,0.062l0,0l0,0l0,0.002l0,0
	C8.083,17.086,9.332,16.061,9.332,16.061z"/>
<path fill="#8140CC" d="M10.951,17.229H10.95c0,0-2.423-1.128-2.345,0.073l0,0v0.001l0,0l0,0
	C9.422,18.485,10.951,17.229,10.951,17.229z"/>
<path fill="#733DC1" d="M12.502,18.662L12.502,18.662c0,0-3.015-1.401-2.917,0.096l0,0l0.001,0.001l0,0l0,0
	C10.602,20.226,12.502,18.662,12.502,18.662z"/>
<path fill="#783AC1" d="M6.619,13.583l0-0.002c0,0-1.061-1.83-0.298-1.943l0,0l0,0.001l0,0l0,0
	C7.178,12.138,6.619,13.583,6.619,13.583z"/>
<path fill="#783AC1" d="M8.123,14.824L8.123,14.824c0-0.001-1.186-2.042-0.334-2.167l0,0l0,0l0,0.001l0,0
	C8.743,13.213,8.123,14.824,8.123,14.824z"/>
<path fill="#783AC1" d="M9.29,15.916H9.289c0,0-1.184-2.04-0.333-2.165l0,0l0,0v-0.002l0,0C9.911,14.305,9.29,15.916,9.29,15.916z"
	/>
<path fill="#8140CC" d="M10.899,17.053L10.899,17.053c0,0-1.45-2.497-0.41-2.657l0,0l0.001,0.004l0,0l0,0
	C11.661,15.081,10.899,17.053,10.899,17.053z"/>
<path fill="#733DC1" d="M12.438,18.443L12.438,18.443c0,0-1.804-3.111-0.509-3.305l0,0l0,0l0,0l0,0
	C13.386,15.988,12.438,18.443,12.438,18.443z"/>
<path fill="#648E4C" d="M14.334,16.861c0,0,7.471,3.522,10.093,8.335L14.334,16.861z"/>
<path fill="none" stroke="#648E4C" stroke-width="0.8" stroke-miterlimit="10" d="M9.401,5.884
	C19.47,19.765,27.906,30.786,28.262,30.529"/>
<path fill="#8F4FDB" d="M9.312,5.754V5.752c0,0-0.55-2.517-1.737-2.085l0,0l0,0l0,0l0,0C6.936,4.759,9.312,5.754,9.312,5.754z"/>
<path fill="#9045D8" d="M10.136,7.215L10.136,7.215c0,0-2.074-1.165-2.504-0.081l0,0h0.001h0l0,0
	C7.991,8.243,10.136,7.215,10.136,7.215z"/>
<path fill="#9045D8" d="M11.45,8.908L11.45,8.908c-0.001-0.001-2.246-1.261-2.713-0.087l0,0l0.002,0.001l0,0l0,0
	C9.127,10.022,11.45,8.908,11.45,8.908z"/>
<path fill="#9045D8" d="M12.532,10.432L12.532,10.432c0,0-2.567-1.443-3.101-0.103l0,0l0,0h0l0,0
	C9.877,11.704,12.532,10.432,12.532,10.432z"/>
<path fill="#8140CC" d="M13.712,12.066L13.712,12.066c0-0.001-2.86-1.607-3.454-0.113l0,0l0,0.001h0l0,0
	C10.755,13.484,13.712,12.066,13.712,12.066z"/>
<path fill="#9045D8" d="M10.324,7.041L10.324,7.041c-0.001-0.001-0.462-2.332,0.702-2.405l0,0h0h0l0,0
	C11.968,5.321,10.324,7.041,10.324,7.041z"/>
<path fill="#9045D8" d="M11.475,8.732L11.475,8.732c-0.001-0.001-0.503-2.527,0.758-2.604l0,0l0,0h0l0,0
	C13.254,6.868,11.475,8.732,11.475,8.732z"/>
<path fill="#9045D8" d="M12.558,10.229L12.558,10.229c-0.001-0.001-0.575-2.886,0.867-2.978l0,0l0,0l0-0.001l0,0
	C14.593,8.1,12.558,10.229,12.558,10.229z"/>
<path fill="#8140CC" d="M13.742,11.843L13.742,11.843c0,0-0.639-3.218,0.967-3.318l0,0h0l0,0l0,0
	C16.011,9.472,13.742,11.843,13.742,11.843z"/>
<path fill="#733DC1" d="M15.381,13.562L15.381,13.562c0,0-0.695-3.501,1.052-3.609l0,0l0,0l0,0l0,0
	C17.848,10.979,15.381,13.562,15.381,13.562z"/>
<path fill="#733DC1" d="M15.044,13.932L15.044,13.932c0,0-3.112-1.748-3.758-0.123l0,0l0.001,0.003l0,0l0,0
	C11.827,15.475,15.044,13.932,15.044,13.932z"/>
</svg>
