<?xml version="1.0" encoding="utf-8"?>
<!-- Generator: Adobe Illustrator 16.0.0, SVG Export Plug-In . SVG Version: 6.00 Build 0)  -->
<!DOCTYPE svg PUBLIC "-//W3C//DTD SVG 1.1//EN" "http://www.w3.org/Graphics/SVG/1.1/DTD/svg11.dtd">
<svg version="1.1" id="Layer_1" xmlns="http://www.w3.org/2000/svg" xmlns:xlink="http://www.w3.org/1999/xlink" x="0px" y="0px"
	 width="32px" height="32px" viewBox="0 0 32 32" enable-background="new 0 0 32 32" xml:space="preserve">
<path fill="#442A14" d="M27.125,8.674V6.742c-0.811,0.415-1.728,0.654-2.702,0.654c-3.165,0-5.744-2.475-5.926-5.595h-4.867
	c-0.182,3.12-2.762,5.595-5.927,5.595c-1.024,0-1.988-0.259-2.829-0.715v2.103c1.702,1.186,2.861,3.527,2.861,6.224
	c0,2.697-1.159,5.038-2.861,6.224v1.294v1.828c0.841-0.456,1.805-0.715,2.829-0.715c3.283,0,5.944,2.661,5.944,5.944
	c0,0.326-0.033,0.643-0.083,0.954h4.999c-0.05-0.311-0.083-0.628-0.083-0.954c0-3.283,2.661-5.944,5.944-5.944
	c0.974,0,1.891,0.239,2.702,0.654v-1.766v-1.185c-1.795-1.146-3.035-3.547-3.035-6.334C24.09,12.221,25.33,9.819,27.125,8.674z"/>
<path fill="none" stroke="#B7856A" stroke-width="0.5" stroke-miterlimit="10" d="M24.675,9.441V8.478
	c-0.632,0.324-1.347,0.51-2.107,0.51c-2.467,0-4.843-1.93-4.985-4.362h-2.917C14.524,7.058,12,8.987,9.532,8.987
	c-0.799,0-1.55-0.202-2.206-0.558v1.011c1.327,0.925,2.23,3.379,2.23,5.481s-0.903,4.938-2.23,5.863l0,0v1.425
	c0.656-0.356,1.407-0.558,2.206-0.558c2.56,0,4.635,2.075,4.635,4.635c0,0.254,3.767,0.254,3.767,0c0-2.56,2.075-4.635,4.635-4.635
	c0.76,0,1.475,0.186,2.107,0.51v-1.377l0,0c-1.4-0.893-2.367-3.69-2.367-5.863C22.308,12.75,23.275,10.334,24.675,9.441z"/>
<circle fill="#FFEBDC" cx="16" cy="4.357" r="0.89"/>
</svg>
