<?xml version="1.0" encoding="utf-8"?>
<!-- Generator: Adobe Illustrator 16.0.0, SVG Export Plug-In . SVG Version: 6.00 Build 0)  -->
<!DOCTYPE svg PUBLIC "-//W3C//DTD SVG 1.1//EN" "http://www.w3.org/Graphics/SVG/1.1/DTD/svg11.dtd">
<svg version="1.1" id="Layer_1" xmlns="http://www.w3.org/2000/svg" xmlns:xlink="http://www.w3.org/1999/xlink" x="0px" y="0px"
	 width="32px" height="32px" viewBox="0 0 32 32" enable-background="new 0 0 32 32" xml:space="preserve">
<path fill="#FFDB14" d="M16.942,18.689c4.746-2.807,7.16-7.665,5.849-11.345c0.939-0.841,1.436-1.659,1.167-2.112
	c-0.27-0.461-1.252-0.412-2.463,0.023C18.84,2.517,13.559,2.359,8.918,5.102C4.181,7.902,1.77,12.747,3.062,16.424
	c-1.008,0.873-1.549,1.735-1.271,2.203c0.281,0.477,1.322,0.412,2.595-0.072C7.046,21.277,12.312,21.427,16.942,18.689z"/>
<circle fill="#F3B802" cx="20.355" cy="20.831" r="9.44"/>
<circle fill="#FFF8CB" cx="20.333" cy="20.852" r="9.013"/>
<circle fill="#F6E000" cx="20.355" cy="20.831" r="8.309"/>
<polyline fill="#FFF8CB" points="13.883,15.26 20.115,21.193 26.499,26.947 26.73,26.782 14.14,15.09 "/>
<polyline fill="#FFF8CB" points="14.186,26.969 20.3,20.804 26.205,14.542 26,14.382 13.973,26.785 "/>
<polyline fill="#FFF8CB" points="11.371,20.836 20.38,21.014 29.339,20.955 29.344,20.677 11.39,20.533 "/>
<polyline fill="#FFF8CB" points="20.212,12.08 20.126,20.866 20.272,29.604 20.544,29.611 20.51,12.103 "/>
<ellipse fill="#FFF8CB" cx="20.357" cy="20.718" rx="0.706" ry="0.667"/>
<path fill="#CEF2BD" d="M17.978,21.238c0,0-1.965,0.277-1.525,1.014C16.891,22.99,17.978,21.238,17.978,21.238z"/>
<path fill="#CEF2BD" d="M19.726,22.939c0,0-1.558,1.23-0.807,1.646C19.669,25.001,19.726,22.939,19.726,22.939z"/>
<path fill="#CEF2BD" d="M21.326,22.99c0,0,0.259,1.969,0.999,1.537C23.067,24.098,21.326,22.99,21.326,22.99z"/>
<path fill="#CEF2BD" d="M22.508,21.346c0,0,1.268,1.527,1.664,0.768C24.572,21.353,22.508,21.346,22.508,21.346z"/>
<path fill="#CEF2BD" d="M17.978,20.088c0,0-1.965-0.277-1.525-1.015C16.891,18.336,17.978,20.088,17.978,20.088z"/>
<path fill="#CEF2BD" d="M19.726,18.402c0,0-1.558-1.23-0.807-1.646C19.669,16.342,19.726,18.402,19.726,18.402z"/>
<path fill="#CEF2BD" d="M21.326,18.3c0,0,0.259-1.968,0.999-1.536C23.067,17.193,21.326,18.3,21.326,18.3z"/>
<path fill="#CEF2BD" d="M22.508,19.979c0,0,1.268-1.527,1.664-0.767C24.572,19.973,22.508,19.979,22.508,19.979z"/>
<path fill="#80B765" d="M3.34,5.014c0,0,10.462-8.039,17.118-1.579L3.34,5.014z"/>
<path fill="#6C9955" d="M3.264,4.891c0,0,11.753,5.992,17.119-1.574L3.264,4.891z"/>
</svg>
