<?xml version="1.0" encoding="utf-8"?>
<!-- Generator: Adobe Illustrator 16.0.0, SVG Export Plug-In . SVG Version: 6.00 Build 0)  -->
<!DOCTYPE svg PUBLIC "-//W3C//DTD SVG 1.1//EN" "http://www.w3.org/Graphics/SVG/1.1/DTD/svg11.dtd">
<svg version="1.1" id="Layer_1" xmlns="http://www.w3.org/2000/svg" xmlns:xlink="http://www.w3.org/1999/xlink" x="0px" y="0px"
	 width="32px" height="32px" viewBox="0 0 32 32" enable-background="new 0 0 32 32" xml:space="preserve">
<g>
	<path fill="#B362F9" d="M13.4,15.408c0.209-0.13,0.608-0.459,1.096-1.237c0,0,0.756-0.932-0.436-0.9
		c-0.476,0.013-1.032,0.073-1.525,0.213c-0.109-0.17-0.447-0.584-1.355-1.069c0,0-0.983-0.69-0.867,0.496
		c0.048,0.501,0.155,1.084,0.348,1.585c-0.082,0.018-0.13,0.037-0.13,0.037s-0.522,0.193-1.195,1.367c0,0-0.718,0.962,0.469,0.882
		c0.535-0.036,1.166-0.134,1.692-0.336c0.133,0.24,0.423,0.638,1.049,1.146c0,0,0.833,0.864,0.945-0.322
		C13.548,16.691,13.548,15.988,13.4,15.408z"/>
	<circle fill="#F7F363" cx="11.914" cy="14.96" r="0.563"/>
</g>
<path fill="none" stroke="#1A841A" stroke-miterlimit="10" d="M7.708,7.107c2.489-1.454,11.13,8.714,19.319,22.735"/>
<path fill="#2EA32E" d="M22.344,23.188c-0.012-0.038-0.025-0.07-0.037-0.108c0.008-0.011,0.018-0.019,0.027-0.029l-0.039-0.002
	c-2.252-6.953-11.051-1.67-12.438-0.784l-0.201-0.013c0,0,0.026,0.034,0.075,0.094c-0.039,0.025-0.065,0.043-0.065,0.043
	l0.107,0.007c0.855,1.027,6.46,7.218,12.436,0.783L22.344,23.188z"/>
<path fill="#2EA32E" d="M23.603,22.381c-0.033-0.022-0.062-0.044-0.093-0.065c-0.014,0.004-0.024,0.012-0.035,0.017l0.008-0.037
	c-6.065-4.078,1.433-11.084,2.667-12.174l0.043-0.198c0,0,0.025,0.035,0.069,0.099c0.034-0.03,0.06-0.051,0.06-0.051l-0.023,0.105
	c0.754,1.104,5.165,8.195-2.666,12.172L23.603,22.381z"/>
<g>
	<path fill="#B362F9" d="M10.616,5.349c0.159-0.187,0.443-0.62,0.677-1.508c0,0,0.444-1.115-0.683-0.729
		C10.158,3.266,9.646,3.489,9.217,3.77C9.061,3.64,8.615,3.345,7.604,3.154c0,0-1.144-0.365-0.68,0.732
		C7.12,4.349,7.396,4.875,7.729,5.294C7.656,5.336,7.616,5.368,7.616,5.368s-0.44,0.34-0.732,1.662c0,0-0.399,1.132,0.711,0.702
		c0.5-0.194,1.073-0.476,1.515-0.825c0.199,0.189,0.594,0.482,1.343,0.781c0,0,1.053,0.576,0.806-0.59
		C11.138,6.529,10.929,5.859,10.616,5.349z"/>
	<circle fill="#F7F363" cx="9.062" cy="5.365" r="0.562"/>
</g>
<g>
	<path fill="#B362F9" d="M6.046,4.7C6.13,4.601,6.28,4.372,6.404,3.902c0,0,0.235-0.59-0.361-0.386
		c-0.239,0.082-0.51,0.2-0.737,0.349C5.223,3.795,4.987,3.639,4.452,3.538c0,0-0.605-0.193-0.36,0.387
		c0.104,0.246,0.25,0.523,0.426,0.746C4.479,4.693,4.458,4.71,4.458,4.71S4.225,4.89,4.07,5.59c0,0-0.211,0.599,0.376,0.371
		c0.265-0.103,0.568-0.251,0.802-0.437c0.105,0.1,0.314,0.255,0.711,0.413c0,0,0.557,0.305,0.427-0.312
		C6.322,5.325,6.211,4.97,6.046,4.7z"/>
	<circle fill="#F7F363" cx="5.224" cy="4.708" r="0.298"/>
</g>
<g>
	<path fill="#B362F9" d="M7.257,9.524c0.084-0.099,0.234-0.328,0.358-0.798c0,0,0.235-0.59-0.361-0.386
		c-0.239,0.082-0.51,0.2-0.737,0.349C6.434,8.62,6.198,8.463,5.663,8.362c0,0-0.605-0.193-0.36,0.387
		c0.104,0.246,0.25,0.523,0.426,0.746c-0.039,0.022-0.06,0.039-0.06,0.039s-0.233,0.18-0.388,0.88c0,0-0.211,0.599,0.376,0.371
		c0.265-0.103,0.568-0.251,0.802-0.437c0.105,0.1,0.314,0.255,0.711,0.413c0,0,0.557,0.305,0.427-0.312
		C7.534,10.149,7.423,9.794,7.257,9.524z"/>
	<circle fill="#F7F363" cx="6.435" cy="9.533" r="0.298"/>
</g>
<g>
	<path fill="#B362F9" d="M13.996,11.525c0.084-0.099,0.234-0.328,0.358-0.798c0,0,0.235-0.59-0.361-0.386
		c-0.239,0.082-0.51,0.2-0.737,0.349c-0.083-0.069-0.318-0.225-0.854-0.326c0,0-0.605-0.193-0.36,0.387
		c0.104,0.246,0.25,0.523,0.426,0.746c-0.039,0.022-0.06,0.039-0.06,0.039s-0.233,0.18-0.388,0.88c0,0-0.211,0.599,0.376,0.371
		c0.265-0.103,0.568-0.251,0.802-0.437c0.105,0.1,0.314,0.255,0.711,0.413c0,0,0.557,0.305,0.427-0.312
		C14.272,12.15,14.162,11.795,13.996,11.525z"/>
	<circle fill="#F7F363" cx="13.174" cy="11.534" r="0.298"/>
</g>
<path fill="#8448D3" d="M9.721,14.032c0.084-0.099,0.234-0.328,0.358-0.798c0,0,0.235-0.59-0.361-0.386
	c-0.239,0.082-0.51,0.2-0.737,0.349c-0.083-0.069-0.318-0.225-0.854-0.326c0,0-0.605-0.193-0.36,0.387
	c0.104,0.246,0.25,0.523,0.426,0.746c-0.039,0.022-0.06,0.039-0.06,0.039s-0.233,0.18-0.388,0.88c0,0-0.211,0.599,0.376,0.371
	c0.265-0.103,0.568-0.251,0.802-0.437c0.105,0.1,0.314,0.255,0.711,0.413c0,0,0.557,0.305,0.427-0.312
	C9.997,14.657,9.886,14.302,9.721,14.032z"/>
<circle fill="#F7F363" cx="8.898" cy="14.041" r="0.298"/>
<g>
	<path fill="#B362F9" d="M10.875,19.107c0.129,0.01,0.403-0.003,0.856-0.179c0,0,0.615-0.156,0.1-0.52
		c-0.207-0.145-0.461-0.295-0.715-0.392c0.007-0.107-0.005-0.39-0.237-0.882c0,0-0.2-0.604-0.525-0.063
		c-0.138,0.228-0.277,0.509-0.354,0.782c-0.041-0.018-0.066-0.025-0.066-0.025s-0.283-0.083-0.94,0.203c0,0-0.609,0.181-0.079,0.522
		c0.238,0.154,0.537,0.312,0.824,0.393C9.72,19.09,9.717,19.35,9.822,19.764c0,0,0.081,0.63,0.503,0.162
		C10.531,19.698,10.753,19.399,10.875,19.107z"/>
	<circle fill="#F7F363" cx="10.385" cy="18.447" r="0.298"/>
</g>
<g>
	<path fill="#B362F9" d="M19.204,7.787c0.084-0.099,0.234-0.328,0.358-0.798c0,0,0.234-0.59-0.361-0.386
		c-0.24,0.082-0.511,0.2-0.738,0.349c-0.082-0.069-0.318-0.225-0.854-0.326c0,0-0.605-0.193-0.359,0.387
		c0.104,0.246,0.25,0.523,0.426,0.746c-0.039,0.022-0.06,0.039-0.06,0.039s-0.233,0.18-0.388,0.88c0,0-0.211,0.599,0.376,0.371
		c0.265-0.103,0.567-0.251,0.802-0.437c0.105,0.1,0.314,0.255,0.711,0.413c0,0,0.557,0.305,0.427-0.312
		C19.48,8.411,19.369,8.056,19.204,7.787z"/>
	<circle fill="#F7F363" cx="18.382" cy="7.795" r="0.298"/>
</g>
<path fill="#8448D3" d="M21.374,12.956c0.084-0.099,0.234-0.328,0.358-0.798c0,0,0.234-0.59-0.361-0.386
	c-0.24,0.082-0.511,0.2-0.738,0.349c-0.082-0.069-0.318-0.225-0.854-0.326c0,0-0.605-0.193-0.359,0.387
	c0.104,0.246,0.25,0.523,0.426,0.746c-0.039,0.022-0.06,0.039-0.06,0.039s-0.233,0.18-0.388,0.88c0,0-0.211,0.599,0.376,0.371
	c0.265-0.103,0.567-0.251,0.802-0.437c0.105,0.1,0.314,0.255,0.711,0.413c0,0,0.557,0.305,0.427-0.312
	C21.65,13.581,21.539,13.226,21.374,12.956z"/>
<circle fill="#F7F363" cx="20.552" cy="12.964" r="0.298"/>
<g>
	<path fill="#B362F9" d="M15.145,7.689c0.221-0.111,0.646-0.402,1.205-1.131c0,0,0.837-0.858-0.352-0.937
		C15.522,5.59,14.963,5.6,14.459,5.694c-0.093-0.18-0.391-0.623-1.251-1.188c0,0-0.916-0.777-0.909,0.414
		c0.002,0.503,0.055,1.094,0.201,1.61c-0.083,0.011-0.133,0.025-0.133,0.025s-0.538,0.145-1.315,1.252c0,0-0.804,0.892,0.386,0.921
		c0.536,0.013,1.173-0.026,1.716-0.18c0.11,0.251,0.363,0.674,0.939,1.237c0,0,0.75,0.937,0.971-0.234
		C15.172,8.98,15.237,8.28,15.145,7.689z"/>
	<circle fill="#F7F363" cx="13.705" cy="7.107" r="0.563"/>
</g>
<path fill="#C894FF" d="M11.222,11.118c0.225-0.103,0.662-0.378,1.246-1.086c0,0,0.869-0.827-0.316-0.949
	c-0.474-0.048-1.033-0.06-1.54,0.016c-0.087-0.183-0.369-0.637-1.208-1.234c0,0-0.886-0.81-0.923,0.38
	C8.464,8.748,8.496,9.34,8.623,9.861c-0.083,0.007-0.133,0.02-0.133,0.02s-0.542,0.125-1.36,1.203c0,0-0.835,0.862,0.352,0.935
	c0.535,0.033,1.174,0.017,1.721-0.116c0.102,0.255,0.338,0.687,0.893,1.271c0,0,0.715,0.963,0.979-0.199
	C11.204,12.409,11.293,11.712,11.222,11.118z"/>
<circle fill="#FFF75C" cx="9.805" cy="10.482" r="0.563"/>
<path fill="#C894FF" d="M18.678,11.589c0.209-0.13,0.607-0.459,1.096-1.237c0,0,0.756-0.932-0.436-0.9
	c-0.475,0.013-1.031,0.073-1.523,0.213c-0.109-0.17-0.447-0.584-1.356-1.069c0,0-0.983-0.69-0.867,0.496
	c0.048,0.501,0.155,1.084,0.348,1.585c-0.082,0.018-0.13,0.037-0.13,0.037s-0.522,0.193-1.195,1.367c0,0-0.718,0.962,0.469,0.882
	c0.535-0.036,1.166-0.134,1.691-0.336c0.134,0.24,0.424,0.638,1.049,1.146c0,0,0.834,0.864,0.945-0.322
	C18.826,12.872,18.826,12.169,18.678,11.589z"/>
<circle fill="#FFF75C" cx="17.191" cy="11.141" r="0.563"/>
</svg>
