<?xml version="1.0" encoding="utf-8"?>
<!-- Generator: Adobe Illustrator 16.0.0, SVG Export Plug-In . SVG Version: 6.00 Build 0)  -->
<!DOCTYPE svg PUBLIC "-//W3C//DTD SVG 1.1//EN" "http://www.w3.org/Graphics/SVG/1.1/DTD/svg11.dtd">
<svg version="1.1" id="Layer_1" xmlns="http://www.w3.org/2000/svg" xmlns:xlink="http://www.w3.org/1999/xlink" x="0px" y="0px"
	 width="32px" height="32px" viewBox="0 0 32 32" enable-background="new 0 0 32 32" xml:space="preserve">
<path fill="#57B51F" d="M25.898,21.523c2.597-4.673,1.438-10.703-3.025-14.22c-1.336-1.052-2.835-1.763-4.383-2.16
	c-0.122,0.163-0.256,0.324-0.408,0.483c-4.802,5.071-7.846,11.235-11.295,17.189c0.549,0.687,1.176,1.327,1.898,1.896
	c4.565,3.597,10.985,3.305,15.049-0.441c1.243,0.534,2.351,0.586,2.82,0.004C27.037,23.686,26.728,22.613,25.898,21.523z"/>
<g>
	<path fill="#4EA018" d="M24.594,24.22"/>
	<path fill="#4EA018" d="M26.904,22.636"/>
	<path fill="#4EA018" d="M17.801,25.932c-4.19,0-8.051-1.183-10.487-3.938c-0.277,0.477-0.426,0.371-0.707,0.846
		c0.544,0.69,1.169,1.332,1.895,1.899c4.032,3.152,9.591,3.192,13.745,0.487C20.854,25.674,19.362,25.932,17.801,25.932z"/>
</g>
<path fill="#986C27" d="M15,11.928"/>
<ellipse transform="matrix(0.7303 0.6831 -0.6831 0.7303 13.8915 -5.7391)" fill="#71F434" cx="14.214" cy="14.723" rx="9.212" ry="11.078"/>
<ellipse transform="matrix(0.7303 0.6831 -0.6831 0.7303 13.8843 -5.7156)" fill="#EAFCB1" cx="14.181" cy="14.726" rx="8.795" ry="10.577"/>
<ellipse transform="matrix(0.7303 0.6831 -0.6831 0.7303 13.8908 -5.7388)" fill="#93DB4D" cx="14.213" cy="14.723" rx="8.108" ry="9.749"/>
<ellipse transform="matrix(0.7303 0.6831 -0.6831 0.7303 13.8324 -5.8064)" fill="#8ACC46" cx="14.27" cy="14.615" rx="6.822" ry="8.202"/>
<polyline fill="#FFF8CB" points="14.068,5.635 13.751,14.873 13.689,24.061 13.985,24.073 14.388,5.659 "/>
<polyline fill="#FFF8CB" points="4.897,15.87 14.197,14.663 23.425,13.233 23.408,12.959 4.892,15.571 "/>
<polyline fill="#FFF8CB" points="7.808,8.738 14.085,14.896 20.517,20.818 20.743,20.583 8.064,8.491 "/>
<polyline fill="#FFF8CB" points="21.128,7.128 14.022,14.601 7.122,22.186 7.31,22.375 21.321,7.346 "/>
<ellipse transform="matrix(0.7301 0.6833 -0.6833 0.7301 13.8557 -5.828)" fill="#FFF8CB" cx="14.306" cy="14.627" rx="0.688" ry="0.783"/>
<path fill="#E4F7DA" d="M11.882,13.49c0,0-1.768-1.168-2.069-0.16C9.508,14.336,11.882,13.49,11.882,13.49z"/>
<path fill="#E4F7DA" d="M11.754,16.349c0,0-2.285,0.019-2.065,0.951C9.908,18.233,11.754,16.349,11.754,16.349z"/>
<path fill="#E4F7DA" d="M12.951,17.559c0,0-1.52,2.027-0.567,2.162C13.336,19.857,12.951,17.559,12.951,17.559z"/>
<path fill="#E4F7DA" d="M15.306,16.882c0,0-0.349,2.347,0.624,1.926C16.903,18.388,15.306,16.882,15.306,16.882z"/>
<path fill="#E4F7DA" d="M12.887,12.416c0,0-1.282-1.687-0.298-2.056C13.573,9.99,12.887,12.416,12.887,12.416z"/>
<path fill="#E4F7DA" d="M15.718,12.111c0,0-0.135-2.281,0.812-2.123C17.474,10.145,15.718,12.111,15.718,12.111z"/>
<path fill="#E4F7DA" d="M17.05,13.178c0,0,1.921-1.65,2.118-0.709C19.367,13.41,17.05,13.178,17.05,13.178z"/>
<path fill="#E4F7DA" d="M16.5,15.605c0,0,2.319-0.505,1.963,0.493C18.109,17.098,16.5,15.605,16.5,15.605z"/>
</svg>
