<?xml version="1.0" encoding="utf-8"?>
<!-- Generator: Adobe Illustrator 16.0.0, SVG Export Plug-In . SVG Version: 6.00 Build 0)  -->
<!DOCTYPE svg PUBLIC "-//W3C//DTD SVG 1.1//EN" "http://www.w3.org/Graphics/SVG/1.1/DTD/svg11.dtd">
<svg version="1.1" id="Layer_1" xmlns="http://www.w3.org/2000/svg" xmlns:xlink="http://www.w3.org/1999/xlink" x="0px" y="0px"
	 width="32px" height="32px" viewBox="0 0 32 32" enable-background="new 0 0 32 32" xml:space="preserve">
<path fill="#683625" d="M27.421,3.649l0.002,0c0.021-0.081,0.245-0.075,0.5,0.006c0.256,0.081,0.449,0.211,0.429,0.29l0,0l0,0l0,0
	c0.001,0.004-0.01,0.001-0.011,0.004c-3.362,1.084-2.952,4.364-2.952,4.364c-0.216-0.259-0.364-0.517-0.456-0.767
	C24.109,5.253,27.999,3.412,27.421,3.649z"/>
<path fill="#8C093B" d="M26.663,15.456l1.1-0.066l0.501-2.248l0.768-0.629l-0.645-1.576l0.384-2.244l-1.018-0.601l-0.569-2.168
	L27.158,5.92l-0.006-0.024l-2.224-0.277L24.199,4.69l-2.174,0.676l-1.647-0.432l-0.523,0.845l-2.162,0.793l0.08,1.098l-1.375,0.521
	l0.122,1.949l-1.045,0.652l0.394,1.549l-0.666,1.423l1.939,2.334l-0.021-0.146c0.188,0.242,0.394,0.473,0.63,0.68
	c0.251,0.219,0.521,0.402,0.802,0.562l-0.162-0.001l2.569,1.612l1.324-0.846l1.586,0.185l0.51-1.121l1.949-0.139L26.663,15.456z"/>
<polygon fill="#821439" points="18.288,13.063 18.367,15.38 18.669,15.37 18.58,12.716 15.926,12.805 15.937,13.142 "/>
<polygon fill="#821439" points="22.306,13.508 22.385,15.826 22.688,15.816 22.598,13.161 19.944,13.252 19.956,13.588 "/>
<path fill="#683625" d="M3.5,4.082L3.497,4.083C3.457,3.996,3.205,4.05,2.932,4.196C2.66,4.344,2.469,4.533,2.507,4.618l0,0l0,0l0,0
	c0,0.004,0.011-0.001,0.014,0.001C6.569,5.127,6.81,8.938,6.81,8.938C7,8.597,7.112,8.274,7.162,7.97
	C7.605,5.189,2.793,3.937,3.5,4.082z"/>
<path fill="#B50655" d="M16.604,8.044l0.173-1.26L14.343,5.71l-0.54-1.012l-1.931,0.375L9.416,4.132L8.506,5.15L5.921,5.305
	L5.912,5.333L5.884,5.334L5.068,7.792L3.851,8.408l0.276,2.616l-0.86,1.769l0.839,0.784l0.412,2.628l1.262,0.158l0.28,1.674
	l2.235,0.302l0.504,1.331l1.844-0.096l1.463,1.075l3.082-1.67l-0.17-0.009c0.316-0.158,0.624-0.339,0.913-0.561
	c0.305-0.234,0.573-0.5,0.817-0.782l-0.038,0.184l2.407-2.548l-0.661-1.691l0.566-1.755l-1.155-0.831l0.283-2.238L16.604,8.044z"/>
<path fill="#F4E3D7" d="M14.661,18.5c1.052,0.743,1.841,1.294,2.579,1.764c0.196,0.033,0.391,0.073,0.586,0.096
	c1.542,0.212,2.849,0.721,3.937,1.419c0.769-0.523,1.473-1.197,2.061-2.011c2.379-3.3,1.986-7.646-0.876-9.712
	c-2.863-2.064-7.112-1.065-9.491,2.234c-0.902,1.25-1.378,2.648-1.497,4.018C12.77,17.059,13.642,17.783,14.661,18.5z"/>
<g>
	<polygon fill="#770732" points="23.713,23.673 23.795,23.612 23.591,22.926 23.512,22.985 	"/>
	<path fill="#770732" d="M12.025,13.829c0.145,0.477,0.316,0.953,0.532,1.42c2.178,4.738,7.177,6.993,11.162,5.038
		c0.243-0.12,0.477-0.256,0.7-0.397l-0.175-0.605c-0.218,0.141-0.447,0.273-0.686,0.393c-3.737,1.833-8.494-0.43-10.621-5.056
		c-0.21-0.457-0.379-0.92-0.522-1.385l-1.192,0.434l0.005,0.453L12.025,13.829z"/>
	<polygon fill="#770732" points="10.751,16.222 10.753,15.71 10.029,15.967 10.04,16.477 	"/>
</g>
<path fill="#E24B4B" d="M23.728,20.167c-4.183,1.827-9.278-0.592-11.378-5.4c-0.208-0.474-0.369-0.958-0.503-1.439l-1.326,0.428
	l-0.069,1.923L9.1,16.103l-0.075,3.015l-0.804,1.041l1.189,1.806l0.067,2.977l1.416,0.45l1.237,2.586l0.03-0.004l0.017,0.031
	l2.837-0.333l1.135,0.961l2.542-1.531l2.157,0.044l0.446-1.238l2.498-1.676l-0.367-1.373l1.584-1.085l-0.513-2
	C24.251,19.917,23.994,20.049,23.728,20.167z"/>
<g>
	<path fill="#D33C3C" d="M20.452,25.377l-2.542,1.531l-1.135-0.96l-2.837,0.333l-0.017-0.031l-0.03,0.005l-1.237-2.586l-1.415-0.45
		l-0.067-2.977l-1.189-1.806l0.804-1.041l0.075-3.015l1.346-0.422c-0.07-0.209-0.137-0.42-0.195-0.63l-1.326,0.428l-0.069,1.923
		l-1.352,0.423L9.19,19.118l-0.804,1.041l1.189,1.806l0.068,2.977l1.415,0.45l1.237,2.586l0.03-0.004l0.017,0.031l2.837-0.333
		l1.135,0.961l2.542-1.531l2.157,0.044l0.446-1.238l0.736-0.494L20.452,25.377z"/>
	<polygon fill="#D33C3C" points="23.055,24.183 22.745,25.044 23.958,24.23 23.81,23.677 	"/>
</g>
<polygon fill="#BA3256" points="15.467,24.81 15.054,22.907 14.804,22.961 15.277,25.142 17.458,24.667 17.398,24.391 "/>
<polygon fill="#BA3256" points="14.68,21.232 14.267,19.33 14.018,19.383 14.491,21.564 16.671,21.09 16.611,20.813 "/>
<polygon fill="#BA3256" points="18.557,22.806 18.145,20.902 17.896,20.957 18.368,23.137 20.549,22.663 20.488,22.387 "/>
<ellipse transform="matrix(0.2903 0.9569 -0.9569 0.2903 29.2012 -11.8637)" fill="#FFFFFF" cx="22.599" cy="13.754" rx="2.256" ry="1.179"/>
</svg>
