<?xml version="1.0" encoding="utf-8"?>
<!-- Generator: Adobe Illustrator 16.0.0, SVG Export Plug-In . SVG Version: 6.00 Build 0)  -->
<!DOCTYPE svg PUBLIC "-//W3C//DTD SVG 1.1//EN" "http://www.w3.org/Graphics/SVG/1.1/DTD/svg11.dtd">
<svg version="1.1" id="Layer_1" xmlns="http://www.w3.org/2000/svg" xmlns:xlink="http://www.w3.org/1999/xlink" x="0px" y="0px"
	 width="32px" height="32px" viewBox="0 0 32 32" enable-background="new 0 0 32 32" xml:space="preserve">
<path fill="#683625" d="M21.962,3.482L21.962,3.482c0.039-0.111,0.224-0.15,0.415-0.088c0.193,0.063,0.32,0.205,0.282,0.316l0,0l0,0
	l0,0c0,0.005-0.008,0.004-0.009,0.008c-3.071,2.15-3.566,6.595-3.566,6.595c-0.114-0.317-0.17-0.642-0.184-0.971
	C18.799,6.343,22.503,3.043,21.962,3.482z"/>
<path fill="#EFB807" d="M23.748,12.383c-0.854-3.438-4.089-5.851-7.734-5.547c-1.086,0.088-2.094,0.417-2.986,0.918
	C13.01,7.76,7.796,9.367,6.046,17.767l0.028-0.003c-0.108,0.61-0.148,1.243-0.095,1.89c0.02,0.245,0.053,0.485,0.097,0.722h0
	c0,0,0.431,3.823-1.268,5.196c0,0-1.415,1.467-0.045,1.468c0.167,0.106,0.979,0.42,1.186,0.515c2.191,1.121,4.239,1.071,4.292,1.028
	c0.057-0.044,7.738,1.308,12.326-7.26c0.983-2.586,1.776-4.574,1.386-7.706c-0.001-0.021-0.001-0.042-0.002-0.062
	c-0.031-0.374-0.098-0.735-0.181-1.089c-0.004-0.019-0.005-0.035-0.009-0.052C23.756,12.401,23.75,12.394,23.748,12.383z"/>
<path fill="#D89F00" d="M24.007,13.616c-0.001-0.021-0.001-0.042-0.002-0.062c-0.031-0.374-0.098-0.735-0.181-1.089
	c-0.004-0.019-0.005-0.035-0.009-0.052c-0.002-0.012-0.008-0.02-0.01-0.03c-0.532-2.141-1.988-3.884-3.89-4.82
	c0.771,0.868,1.348,1.921,1.64,3.098c0.002,0.011,0.008,0.019,0.01,0.03c0.004,0.017,0.005,0.033,0.009,0.052
	c0.083,0.354,0.15,0.715,0.181,1.089c0.001,0.021,0.001,0.041,0.002,0.062c0.39,3.132-0.403,5.12-1.386,7.706
	c-4.588,8.567-12.269,7.216-12.326,7.26c-0.047,0.038-1.701,0.075-3.622-0.725c-0.258,0.414-0.397,0.903,0.394,0.904
	c0.167,0.106,0.979,0.42,1.186,0.515c2.191,1.121,4.239,1.071,4.292,1.028c0.057-0.044,7.738,1.308,12.326-7.26
	C23.604,18.736,24.397,16.748,24.007,13.616z"/>
<path fill="#198918" d="M27.834,19.974c0,0-6.365-2.748-5.925-15.594L27.834,19.974z"/>
<path fill="#198918" d="M27.81,20.163c0,0-1.301-17.68-5.901-15.783L27.81,20.163z"/>
</svg>
