<?xml version="1.0" encoding="utf-8"?>
<!-- Generator: Adobe Illustrator 16.0.0, SVG Export Plug-In . SVG Version: 6.00 Build 0)  -->
<!DOCTYPE svg PUBLIC "-//W3C//DTD SVG 1.1//EN" "http://www.w3.org/Graphics/SVG/1.1/DTD/svg11.dtd">
<svg version="1.1" id="Layer_1" xmlns="http://www.w3.org/2000/svg" xmlns:xlink="http://www.w3.org/1999/xlink" x="0px" y="0px"
	 width="32px" height="32px" viewBox="0 0 32 32" enable-background="new 0 0 32 32" xml:space="preserve">
<path fill="#7CCECE" d="M5.998,9.376c0,0-1.791,11.074,3.135,19.987h13.658c0,0,5.264-11.209,2.912-20.66H6.025L5.998,9.376z"/>
<rect x="7.004" y="6.04" fill="#FFEBC2" width="17.98" height="1.294"/>
<rect x="6.152" y="4.029" fill="#DD512A" width="19.685" height="1.861"/>
<rect x="7.004" y="2.169" fill="#E86243" width="17.98" height="1.86"/>
<rect x="7.004" y="2.137" fill="#DD512A" width="17.98" height="0.995"/>
<polygon fill="#DD512A" points="7.001,7.086 3.858,11.772 8.385,10.249 10.396,11.772 13.665,9.43 17.94,11.304 20.959,8.843 
	26.994,11.304 24.982,7.086 "/>
<path opacity="0.5" fill="#E2A747" d="M7.004,12.613c0,0,7.825,3.893,9.911,1.182s7.859-1.127,8.069,0S24.2,25.754,22.059,28.502
	h-11.51C10.549,28.502,6.841,27.226,7.004,12.613z"/>
<g>
	<defs>
		
			<rect id="SVGID_1_" x="11.274" y="21.5" transform="matrix(0.4285 -0.9036 0.9036 0.4285 -15.0332 26.0767)" width="3.644" height="6.844"/>
	</defs>
	<clipPath id="SVGID_2_">
		<use xlink:href="#SVGID_1_"  overflow="visible"/>
	</clipPath>
	<circle clip-path="url(#SVGID_2_)" fill="#F98232" cx="13.939" cy="23.351" r="2.612"/>
	<circle clip-path="url(#SVGID_2_)" fill="#DD8C2A" cx="13.939" cy="23.351" r="2.968"/>
	<circle clip-path="url(#SVGID_2_)" fill="#FFFBE1" cx="13.939" cy="23.351" r="2.764"/>
	<circle clip-path="url(#SVGID_2_)" fill="#E07F20" cx="13.982" cy="23.365" r="2.548"/>
	<circle clip-path="url(#SVGID_2_)" fill="#EF8F26" cx="13.965" cy="23.365" r="2.251"/>
	<polyline clip-path="url(#SVGID_2_)" fill="#FFFBE1" points="12.924,20.969 13.867,23.434 14.877,25.869 14.963,25.852 
		13.018,20.955 	"/>
	<polyline clip-path="url(#SVGID_2_)" fill="#FFFBE1" points="11.466,24.251 13.972,23.349 16.432,22.394 16.395,22.322 
		11.431,24.173 	"/>
	<polyline clip-path="url(#SVGID_2_)" fill="#FFFBE1" points="11.494,22.183 13.966,23.418 16.454,24.583 16.492,24.507 
		11.539,22.1 	"/>
	<polyline clip-path="url(#SVGID_2_)" fill="#FFFBE1" points="15.096,20.921 13.914,23.343 12.803,25.784 12.878,25.822 
		15.176,20.968 	"/>
	
		<ellipse transform="matrix(0.9037 0.4281 -0.4281 0.9037 11.336 -3.7461)" clip-path="url(#SVGID_2_)" fill="#FFF8CB" cx="13.998" cy="23.333" rx="0.216" ry="0.205"/>
	<path clip-path="url(#SVGID_2_)" fill="#EAAD92" d="M13.117,23.197c0,0-0.682-0.207-0.661,0.115
		C12.479,23.635,13.117,23.197,13.117,23.197z"/>
	<path clip-path="url(#SVGID_2_)" fill="#EAAD92" d="M13.362,23.912c0,0-0.706,0.185-0.53,0.445
		C13.006,24.614,13.362,23.912,13.362,23.912z"/>
	<path clip-path="url(#SVGID_2_)" fill="#EAAD92" d="M13.898,24.189c0,0-0.239,0.719,0.071,0.685
		C14.282,24.839,13.898,24.189,13.898,24.189z"/>
	<path clip-path="url(#SVGID_2_)" fill="#EAAD92" d="M14.572,23.934c0,0,0.16,0.723,0.413,0.523
		C15.238,24.255,14.572,23.934,14.572,23.934z"/>
	<path clip-path="url(#SVGID_2_)" fill="#EAAD92" d="M13.306,22.802c0,0-0.591-0.401-0.327-0.586
		C13.241,22.03,13.306,22.802,13.306,22.802z"/>
	<path clip-path="url(#SVGID_2_)" fill="#EAAD92" d="M14.119,22.556c0,0-0.304-0.664,0.008-0.692
		C14.438,21.837,14.119,22.556,14.119,22.556z"/>
	<path clip-path="url(#SVGID_2_)" fill="#EAAD92" d="M14.58,22.754c0,0,0.408-0.64,0.577-0.375
		C15.329,22.64,14.58,22.754,14.58,22.754z"/>
	<path clip-path="url(#SVGID_2_)" fill="#EAAD92" d="M14.729,23.432c0,0,0.661-0.331,0.665-0.007
		C15.399,23.749,14.729,23.432,14.729,23.432z"/>
	<polyline clip-path="url(#SVGID_2_)" fill="#93DEE2" points="11.373,22.046 11.227,21.976 12.51,19.318 18.173,22.049 
		16.89,24.708 11.373,22.046 	"/>
</g>
<g>
	<defs>
		
			<rect id="SVGID_3_" x="19.867" y="11.965" transform="matrix(-0.3773 -0.9261 0.9261 -0.3773 15.6219 41.2791)" width="3.644" height="6.844"/>
	</defs>
	<clipPath id="SVGID_4_">
		<use xlink:href="#SVGID_3_"  overflow="visible"/>
	</clipPath>
	<circle clip-path="url(#SVGID_4_)" fill="#F98232" cx="21.1" cy="13.705" r="2.612"/>
	<circle clip-path="url(#SVGID_4_)" fill="#DD8C2A" cx="21.1" cy="13.705" r="2.968"/>
	<circle clip-path="url(#SVGID_4_)" fill="#FFFBE1" cx="21.1" cy="13.705" r="2.764"/>
	<circle clip-path="url(#SVGID_4_)" fill="#E07F20" cx="21.139" cy="13.683" r="2.548"/>
	<circle clip-path="url(#SVGID_4_)" fill="#EF8F26" cx="21.127" cy="13.695" r="2.251"/>
	<polyline clip-path="url(#SVGID_4_)" fill="#FFFBE1" points="18.657,12.846 21.112,13.814 23.59,14.713 23.636,14.639 
		18.71,12.767 	"/>
	<polyline clip-path="url(#SVGID_4_)" fill="#FFFBE1" points="20.094,16.137 21.12,13.68 22.077,11.221 21.999,11.199 
		20.013,16.111 	"/>
	<polyline clip-path="url(#SVGID_4_)" fill="#FFFBE1" points="18.587,14.72 21.167,13.73 23.706,12.682 23.676,12.603 
		18.557,14.631 	"/>
	<polyline clip-path="url(#SVGID_4_)" fill="#FFFBE1" points="20.089,11.211 21.077,13.718 22.127,16.187 22.205,16.156 
		20.177,11.184 	"/>
	
		<ellipse transform="matrix(0.9258 -0.378 0.378 0.9258 -3.5924 8.9986)" clip-path="url(#SVGID_4_)" fill="#FFF8CB" cx="21.125" cy="13.65" rx="0.216" ry="0.205"/>
	<path clip-path="url(#SVGID_4_)" fill="#EAAD92" d="M20.432,14.208c0,0-0.613,0.363-0.361,0.565
		C20.322,14.974,20.432,14.208,20.432,14.208z"/>
	<path clip-path="url(#SVGID_4_)" fill="#EAAD92" d="M21.124,14.509c0,0-0.341,0.646-0.03,0.691
		C21.401,15.246,21.124,14.509,21.124,14.509z"/>
	<path clip-path="url(#SVGID_4_)" fill="#EAAD92" d="M21.69,14.301c0,0,0.368,0.662,0.554,0.41
		C22.429,14.457,21.69,14.301,21.69,14.301z"/>
	<path clip-path="url(#SVGID_4_)" fill="#EAAD92" d="M21.957,13.632c0,0,0.642,0.37,0.665,0.049
		C22.644,13.357,21.957,13.632,21.957,13.632z"/>
	<path clip-path="url(#SVGID_4_)" fill="#EAAD92" d="M20.267,13.802c0,0-0.694,0.165-0.653-0.155
		C19.654,13.328,20.267,13.802,20.267,13.802z"/>
	<path clip-path="url(#SVGID_4_)" fill="#EAAD92" d="M20.635,13.035c0,0-0.695-0.224-0.505-0.473
		C20.32,12.314,20.635,13.035,20.635,13.035z"/>
	<path clip-path="url(#SVGID_4_)" fill="#EAAD92" d="M21.092,12.829c0,0-0.196-0.733,0.113-0.679
		C21.514,12.2,21.092,12.829,21.092,12.829z"/>
	<path clip-path="url(#SVGID_4_)" fill="#EAAD92" d="M21.693,13.177c0,0,0.202-0.71,0.443-0.495
		C22.379,12.896,21.693,13.177,21.693,13.177z"/>
	<polyline clip-path="url(#SVGID_4_)" fill="#93DEE2" points="18.404,14.717 18.254,14.777 17.16,12.036 22.998,9.704 
		24.093,12.445 18.404,14.717 	"/>
</g>
<circle fill="#F98232" cx="12.556" cy="16.444" r="3.918"/>
<circle fill="#DD8C2A" cx="12.556" cy="16.446" r="4.453"/>
<circle fill="#FFFBE1" cx="12.557" cy="16.446" r="4.147"/>
<circle fill="#ED872B" cx="12.556" cy="16.435" r="3.823"/>
<path fill="#EF8F26" d="M12.556,13.07c-1.865,0-3.375,1.512-3.375,3.376c0,1.864,1.51,3.375,3.375,3.375
	c1.867,0,3.377-1.51,3.377-3.375C15.933,14.582,14.423,13.07,12.556,13.07z"/>
<polyline fill="#FFFBE1" points="9.601,13.872 12.467,16.603 15.405,19.25 15.512,19.175 9.719,13.794 "/>
<polyline fill="#FFFBE1" points="9.839,19.259 12.653,16.424 15.37,13.542 15.276,13.468 9.742,19.175 "/>
<polyline fill="#FFFBE1" points="8.422,16.438 12.567,16.521 16.689,16.494 16.691,16.365 8.429,16.299 "/>
<polyline fill="#FFFBE1" points="12.5,12.409 12.46,16.452 12.525,20.473 12.652,20.476 12.638,12.419 "/>
<ellipse fill="#FFF8CB" cx="12.557" cy="16.384" rx="0.324" ry="0.307"/>
<path fill="#EAAD92" d="M11.3,16.767c0,0-1.06,0.16-0.822,0.582S11.3,16.767,11.3,16.767z"/>
<path fill="#EAAD92" d="M12.251,17.579c0,0-0.84,0.706-0.436,0.943C12.218,18.759,12.251,17.579,12.251,17.579z"/>
<path fill="#EAAD92" d="M12.881,17.607c0,0,0.14,1.127,0.54,0.881C13.82,18.241,12.881,17.607,12.881,17.607z"/>
<path fill="#EAAD92" d="M13.744,16.829c0,0,0.684,0.876,0.897,0.441C14.857,16.834,13.744,16.829,13.744,16.829z"/>
<path fill="#EAAD92" d="M11.3,16.109c0,0-1.06-0.161-0.822-0.582C10.715,15.104,11.3,16.109,11.3,16.109z"/>
<path fill="#EAAD92" d="M12.251,15.423c0,0-0.84-0.705-0.437-0.942C12.218,14.242,12.251,15.423,12.251,15.423z"/>
<path fill="#EAAD92" d="M12.881,15.394c0,0,0.14-1.128,0.54-0.881C13.82,14.759,12.881,15.394,12.881,15.394z"/>
<path fill="#EAAD92" d="M13.637,16.046c0,0,0.68-0.875,0.895-0.439C14.747,16.042,13.637,16.046,13.637,16.046z"/>
<path fill="#FCFAFA" d="M7.551,15.351c0,0-0.55,8.405,3.265,13.013C10.815,28.363,7.38,21.043,7.551,15.351z"/>
<circle fill="#F98232" cx="19.678" cy="21.189" r="2.763"/>
<circle fill="#DD8C2A" cx="19.678" cy="21.19" r="3.14"/>
<circle fill="#FFFBE1" cx="19.677" cy="21.19" r="2.924"/>
<circle fill="#ED872B" cx="19.678" cy="21.183" r="2.696"/>
<circle fill="#EF8F26" cx="19.678" cy="21.19" r="2.38"/>
<polyline fill="#FFFBE1" points="17.594,19.375 19.615,21.301 21.688,23.167 21.762,23.114 17.677,19.32 "/>
<polyline fill="#FFFBE1" points="17.762,23.174 19.747,21.174 21.662,19.143 21.596,19.09 17.694,23.115 "/>
<polyline fill="#FFFBE1" points="16.763,21.185 19.686,21.243 22.593,21.224 22.594,21.133 16.768,21.086 "/>
<polyline fill="#FFFBE1" points="19.639,18.344 19.609,21.195 19.656,24.03 19.746,24.032 19.735,18.351 "/>
<ellipse fill="#FFF8CB" cx="19.678" cy="21.146" rx="0.229" ry="0.216"/>
<path fill="#EAAD92" d="M18.792,21.417c0,0-0.746,0.112-0.579,0.411C18.379,22.125,18.792,21.417,18.792,21.417z"/>
<path fill="#EAAD92" d="M20.516,21.46c0,0,0.481,0.618,0.632,0.311C21.301,21.464,20.516,21.46,20.516,21.46z"/>
<path fill="#EAAD92" d="M18.792,20.953c0,0-0.746-0.113-0.579-0.41C18.379,20.244,18.792,20.953,18.792,20.953z"/>
<path fill="#EAAD92" d="M19.462,20.469c0,0-0.591-0.497-0.307-0.665C19.44,19.636,19.462,20.469,19.462,20.469z"/>
<path fill="#EAAD92" d="M19.906,20.448c0,0,0.099-0.795,0.381-0.621C20.569,20.001,19.906,20.448,19.906,20.448z"/>
<path fill="#EAAD92" d="M20.439,20.908c0,0,0.479-0.617,0.631-0.31C21.223,20.905,20.439,20.908,20.439,20.908z"/>
</svg>
