<?xml version="1.0" encoding="utf-8"?>
<!-- Generator: Adobe Illustrator 16.0.0, SVG Export Plug-In . SVG Version: 6.00 Build 0)  -->
<!DOCTYPE svg PUBLIC "-//W3C//DTD SVG 1.1//EN" "http://www.w3.org/Graphics/SVG/1.1/DTD/svg11.dtd">
<svg version="1.1" id="Layer_1" xmlns="http://www.w3.org/2000/svg" xmlns:xlink="http://www.w3.org/1999/xlink" x="0px" y="0px"
	 width="32px" height="32px" viewBox="0 0 32 32" enable-background="new 0 0 32 32" xml:space="preserve">
<path fill="#9DD154" d="M22.115,23.418l0.805,0.722l0.364-0.403l1.011,0.904l0.364-0.402l1.22,0.121l0.361-0.401l1.677,0.158
	l0.417-0.467l1.994-0.109c0.038,0.017,0.083,0.037,0.119,0.055l-0.831-1.868l0.226-0.586l-0.905-1.42l0.197-0.504l-0.669-1.032
	l0.193-0.506l-1.265-0.487l0.192-0.508l-1.009-0.39l0.162-0.42l-1.978-1.149c-2.679-2.099-8.373,0.116-8.373,0.116
	s0.512,0.375,1.348,0.967c-0.96-0.5-1.554-0.798-1.554-0.798s0.622,6.077,3.709,7.505l1.924,1.24L22.115,23.418z"/>
<path fill="#5E9D08" d="M22.115,23.362l0.805,0.723l0.364-0.404l1.011,0.905l0.364-0.403l1.22,0.121l0.361-0.402l1.677,0.158
	l0.417-0.466l1.994-0.11c0.038,0.018,0.083,0.037,0.119,0.056l-14.06-8.755c0,0,0.512,0.376,1.348,0.969
	c-0.96-0.502-1.554-0.8-1.554-0.8s0.622,6.077,3.709,7.507l1.924,1.239L22.115,23.362z"/>
<path fill="#71B12E" d="M21.32,10.601l0.415-0.854l-0.427-0.209l0.521-1.068l-0.426-0.208l-0.189-1.061l-0.427-0.207l-0.268-1.452
	l-0.493-0.24l-0.571-1.654c0.005-0.035,0.014-0.076,0.018-0.112l-1.376,1.147L17.55,4.632l-0.981,1.103l-0.473-0.042l-0.71,0.811
	l-0.473-0.045l-0.108,1.186l-0.473-0.043l-0.086,0.945l-0.395-0.035l-0.496,1.942c-1.125,2.763,2.105,7.03,2.105,7.03
	s0.195-0.521,0.493-1.366c-0.193,0.93-0.302,1.503-0.302,1.503s4.975-1.981,5.44-4.927l0.583-1.919L21.32,10.601z"/>
<path fill="#5E9D08" d="M21.28,10.598l0.415-0.854l-0.428-0.21l0.521-1.067l-0.426-0.209l-0.188-1.061l-0.428-0.208l-0.268-1.45
	l-0.494-0.241l-0.569-1.654c0.004-0.034,0.013-0.076,0.018-0.113l-4.012,13.949c0,0,0.193-0.52,0.493-1.366
	c-0.194,0.931-0.302,1.504-0.302,1.504s4.974-1.981,5.44-4.927l0.583-1.92L21.28,10.598z"/>
<path fill="#71B12E" d="M7.433,12.654l-0.945-0.07l-0.036,0.475l-1.187-0.086L5.23,13.446l-0.914,0.566l-0.035,0.474l-1.25,0.788
	l-0.039,0.55l-1.326,1.141c-0.035,0.009-0.078,0.017-0.113,0.023l1.576,0.854l0.157,0.527l1.387,0.502l0.135,0.454l1.018,0.36
	l0.134,0.454l1.141-0.338l0.136,0.456l0.909-0.271l0.113,0.379l1.989-0.261c2.983,0.021,5.749-4.562,5.749-4.562
	s-0.555,0.015-1.452,0.049c0.935-0.165,1.507-0.277,1.507-0.277s-3.683-3.884-6.592-3.224l-1.999,0.17L7.433,12.654z"/>
<path fill="#5E9D08" d="M1.668,16.966c-0.035,0.009-0.078,0.017-0.113,0.023l1.576,0.854l0.157,0.527l1.387,0.502l0.136,0.455
	l1.017,0.359l0.134,0.454l1.141-0.338l0.136,0.456l0.909-0.271l0.113,0.379l1.989-0.26C13.233,20.128,16,15.544,16,15.544
	s-0.555,0.015-1.453,0.049c0.937-0.165,1.508-0.277,1.508-0.277L1.668,16.966z"/>
<path fill="#9DD154" d="M10.231,20.02l-0.532,0.784l0.394,0.269l-0.667,0.985l0.393,0.267l0.036,1.075l0.392,0.266l0.06,1.477
	l0.455,0.306l0.329,1.721c-0.01,0.036-0.023,0.074-0.035,0.108l1.526-0.939l0.536,0.128l1.126-0.953l0.463,0.109l0.818-0.702
	l0.462,0.11l0.274-1.155l0.463,0.107l0.218-0.924l0.386,0.093l0.767-1.854c1.506-2.572-1.084-7.258-1.084-7.258
	s-0.266,0.487-0.683,1.283c0.323-0.894,0.513-1.444,0.513-1.444s-5.206,1.254-6.086,4.104l-0.85,1.817L10.231,20.02z"/>
<path fill="#6DAA0E" d="M10.231,20.02l-0.532,0.784l0.394,0.269l-0.667,0.985l0.393,0.267l0.036,1.075l0.392,0.266l0.06,1.477
	l0.455,0.306l0.329,1.721c-0.01,0.036-0.023,0.074-0.035,0.108l5.956-13.238c0,0-0.266,0.487-0.683,1.283
	c0.323-0.894,0.513-1.444,0.513-1.444s-5.206,1.254-6.086,4.104l-0.85,1.817L10.231,20.02z"/>
<path fill="#447C13" d="M11.319,10.586l-0.54-0.448l-0.226,0.27L9.875,9.845l-0.224,0.271l-0.796-0.05l-0.224,0.27l-1.091-0.063
	l-0.26,0.312l-1.29,0.118c-0.026-0.011-0.054-0.021-0.078-0.035l0.582,1.195l-0.133,0.383l0.62,0.899l-0.114,0.332l0.457,0.654
	l-0.114,0.331l0.832,0.288l-0.114,0.332l0.665,0.229l-0.095,0.276l1.311,0.697c1.787,1.297,5.426-0.272,5.426-0.272
	s-0.34-0.229-0.896-0.594c0.634,0.3,1.026,0.479,1.026,0.479s-0.545-3.926-2.582-4.778l-1.277-0.758L11.319,10.586z"/>
<path fill="#447C13" d="M21.379,18.004l0.679,0.181l0.09-0.342L23,18.066l0.089-0.341l0.742-0.291l0.088-0.339l1.015-0.406
	l0.104-0.393l1.118-0.653c0.026-0.002,0.058-0.002,0.085-0.002l-1.033-0.834l-0.043-0.404l-0.942-0.55l-0.038-0.352l-0.691-0.397
	l-0.038-0.351l-0.875,0.093l-0.039-0.349l-0.698,0.074l-0.031-0.292l-1.483-0.077c-2.167-0.418-4.798,2.547-4.798,2.547
	s0.405,0.064,1.063,0.16c-0.703-0.007-1.135-0.002-1.135-0.002s2.159,3.324,4.365,3.234l1.478,0.146L21.379,18.004z"/>
<path fill="#AADD58" d="M17.981,11.556l0.146-0.375l-0.227-0.057l0.182-0.467l-0.226-0.055l-0.395-0.473l-0.235-0.569l-0.26-0.062
	l-0.4-0.632c0-0.018,0-0.036,0.002-0.05l-0.602,0.561l-0.274,0.016l-0.407,0.514l-0.534,0.392l-0.236,0.015l0.03,0.488l-0.237,0.014
	l0.025,0.389l-0.198,0.012l-0.108,0.822c-0.363,1.195,1.538,2.705,1.538,2.705s0.059-0.224,0.148-0.586
	c-0.03,0.387-0.043,0.627-0.043,0.627s2.323-1.144,2.344-2.366L17.981,11.556z"/>
<path fill="#AADD58" d="M12.509,17.304l0.201,0.122l-0.313,0.429l0.235,0.595l0.2,0.125l0.286,0.79l0.194,0.765
	c-0.004,0.017-0.01,0.037-0.017,0.05l0.744-0.4l0.811-0.349l0.233,0.051l0.396-0.302l0.23,0.052l0.118-0.509l0.231,0.055
	l0.092-0.407l0.543-0.769c0.705-1.125-0.666-3.225-0.666-3.225s-0.123,0.213-0.317,0.56c0.145-0.391,0.229-0.634,0.229-0.634
	s-2.567,0.51-2.954,1.762l-0.391,0.793L12.509,17.304z"/>
<path fill="#5D9B0D" d="M13.664,12.776l-0.682-0.028l-0.467,0.074l-0.55,0.154c-0.009-0.004-0.019-0.011-0.028-0.015l0.16,0.561
	l0.179,0.438l0.377,0.57l0.202,0.179l0.465,0.247c0.634,0.461,1.926-0.097,1.926-0.097s-0.121-0.081-0.318-0.211
	c0.226,0.106,0.364,0.171,0.364,0.171s-0.193-1.394-0.916-1.697l-0.454-0.269L13.664,12.776z"/>
<path fill="#5D9B0D" d="M17.312,15.832l0.631-0.264l0.394-0.261l0.434-0.372c0.01,0,0.021-0.001,0.03,0.001l-0.379-0.44
	l-0.347-0.322l-0.582-0.359l-0.258-0.08l-0.526-0.028c-0.769-0.15-1.708,0.897-1.708,0.897s0.145,0.021,0.377,0.058
	c-0.249-0.003-0.402-0.004-0.402-0.004s0.76,1.185,1.544,1.156l0.524,0.054L17.312,15.832z"/>
<path fill="#356902" d="M23.312,10.762"/>
</svg>
