<?xml version="1.0" encoding="utf-8"?>
<!-- Generator: Adobe Illustrator 16.0.0, SVG Export Plug-In . SVG Version: 6.00 Build 0)  -->
<!DOCTYPE svg PUBLIC "-//W3C//DTD SVG 1.1//EN" "http://www.w3.org/Graphics/SVG/1.1/DTD/svg11.dtd">
<svg version="1.1" id="Layer_1" xmlns="http://www.w3.org/2000/svg" xmlns:xlink="http://www.w3.org/1999/xlink" x="0px" y="0px"
	 width="32px" height="32px" viewBox="0 0 32 32" enable-background="new 0 0 32 32" xml:space="preserve">
<path fill="#E8D885" d="M21.246,25.323c0,2.513-2.349,4.551-5.246,4.551l0,0c-2.897,0-5.246-2.038-5.246-4.551v-7.332
	c0-2.513,2.349-4.55,5.246-4.55l0,0c2.897,0,5.246,2.037,5.246,4.55V25.323z"/>
<path fill="#F4EAA4" d="M11.75,21.096c-0.341,0-0.673,0.025-0.996,0.065v5.317c0,1.875,2.349,3.395,5.246,3.395
	c0.341,0,0.673-0.024,0.996-0.065v-5.318C16.996,22.616,14.647,21.096,11.75,21.096z"/>
<path fill="#FF7373" d="M28.799,14.925c0,7.068-25.598,7.068-25.598,0s5.73-12.799,12.8-12.799
	C23.068,2.126,28.799,7.857,28.799,14.925z"/>
<path fill="#E25D5D" d="M16.917,2.15c4.206,2.097,7.103,6.43,7.103,11.449c0,4.444-10.117,6.092-17.631,4.948
	c6.859,3.08,22.41,1.866,22.41-3.644C28.799,8.144,23.556,2.622,16.917,2.15z"/>
<ellipse fill="#F4E995" cx="12.475" cy="9.459" rx="3.741" ry="3.633"/>
<ellipse fill="#F4E995" cx="22.332" cy="15.244" rx="3.993" ry="3.778"/>
<path fill="#F4E995" d="M4.882,10.792c1.639,0.44,2.872,1.723,2.658,3.357s-1.752,2.781-3.436,2.56
	C2.422,16.488,3.166,10.332,4.882,10.792z"/>
<path fill="#F4E995" d="M24.169,5.763c-0.589,1.788-2.98,2.455-5.058,1.599c-2.075-0.856-3.141-2.947-2.456-4.7
	C17.219,1.219,24.688,4.188,24.169,5.763z"/>
</svg>
