<?xml version="1.0" encoding="utf-8"?>
<!-- Generator: Adobe Illustrator 16.0.0, SVG Export Plug-In . SVG Version: 6.00 Build 0)  -->
<!DOCTYPE svg PUBLIC "-//W3C//DTD SVG 1.1//EN" "http://www.w3.org/Graphics/SVG/1.1/DTD/svg11.dtd">
<svg version="1.1" id="Layer_1" xmlns="http://www.w3.org/2000/svg" xmlns:xlink="http://www.w3.org/1999/xlink" x="0px" y="0px"
	 width="32px" height="32px" viewBox="0 0 32 32" enable-background="new 0 0 32 32" xml:space="preserve">
<path fill="#683625" d="M9.579,4.702L9.579,4.702C9.56,4.598,9.387,4.542,9.192,4.575c-0.196,0.032-0.339,0.14-0.323,0.244l0,0l0,0
	l0,0c0,0.005,0.008,0.005,0.008,0.007c2.61,2.261,2.363,6.232,2.363,6.232c0.161-0.266,0.268-0.544,0.333-0.832
	C12.163,7.597,9.13,4.25,9.579,4.702z"/>
<ellipse fill="#E24930" cx="10.392" cy="17.765" rx="8.892" ry="10.459"/>
<ellipse transform="matrix(0.9797 0.2007 -0.2007 0.9797 3.2197 -1.2012)" fill="#FF6E5F" cx="7.534" cy="15.279" rx="4.455" ry="5.947"/>
<ellipse transform="matrix(0.9797 0.2007 -0.2007 0.9797 3.1402 -0.9468)" fill="#FF9792" cx="6.24" cy="15.014" rx="3.134" ry="4.183"/>
<path fill="#D8401D" d="M14.523,6.569c-1.531,0-2.973,0.403-4.265,1.1c4.289,1.18,7.478,5.492,7.478,10.647
	c0,4.354-2.277,8.104-5.565,9.879c0.755,0.207,1.54,0.33,2.353,0.33c5.43,0,9.83-4.915,9.83-10.978S19.953,6.569,14.523,6.569z"/>
<path fill="#47752C" d="M19.179,1.696c0,0-8.737-1.969-7.19,3.228L19.179,1.696z"/>
<path fill="#3B6023" d="M19.179,1.696c0,0-4.333,7.837-7.19,3.228L19.179,1.696z"/>
<path fill="#C13C21" d="M21.498,13.356c0,0,2.504-1.441,3.346-1.247c0.844,0.197,3.91,1.765,5.37,4.941
	c1.463,3.174,0.544,5.538,0.544,5.538s-0.628,3.724-2.44,4.827c-1.811,1.106-4.143,2.795-4.143,2.795L21.498,13.356z"/>
<path fill="#C13C21" d="M20.96,13.617c0,0-2.964-0.543-3.733-0.078c-0.772,0.467-3.294,2.979-3.69,6.491
	c-0.397,3.512,1.296,5.46,1.296,5.46s1.861,3.341,4.025,3.792c2.164,0.452,4.797,1.329,4.797,1.329L20.96,13.617z"/>
<path fill="#EACEB0" d="M21.09,13.61c0,0-2.84-0.583-3.573-0.118c-0.733,0.466-3.12,2.991-3.464,6.552
	c-0.345,3.56,1.295,5.556,1.295,5.556s1.812,3.408,3.887,3.889c2.075,0.48,4.602,1.396,4.602,1.396L21.09,13.61z"/>
<path fill="#EABD8C" d="M20.957,13.596c0,0,2.501-1.466,3.344-1.263c0.845,0.204,3.919,1.823,5.394,5.082
	c1.477,3.259,0.566,5.676,0.566,5.676s-0.614,3.812-2.422,4.936c-1.809,1.123-4.136,2.845-4.136,2.845L20.957,13.596z"/>
<ellipse transform="matrix(0.9865 -0.1636 0.1636 0.9865 -3.1102 3.889)" fill="#E04A27" cx="22.06" cy="20.83" rx="3.939" ry="4.395"/>
<path fill="#8C260E" d="M24.829,21.002c0.364,2.191-0.544,4.167-2.03,4.413c-1.484,0.246-2.984-1.33-3.348-3.521
	c-0.363-2.189,0.343-5.397,1.828-5.644C22.766,16.004,24.467,18.812,24.829,21.002z"/>
<path fill="none" stroke="#542411" stroke-width="0.25" stroke-miterlimit="10" d="M20.604,16.698
	c0.789,1.23,1.087,1.282,2.372,0.413"/>
<path fill="none" stroke="#542411" stroke-width="0.25" stroke-miterlimit="10" d="M19.85,18.021
	c1.09,1.699,1.579,1.716,3.911,0.138"/>
<path fill="none" stroke="#542411" stroke-width="0.25" stroke-miterlimit="10" d="M19.541,19.85
	c1.209,1.886,1.823,1.856,4.912-0.233"/>
<path fill="none" stroke="#542411" stroke-width="0.25" stroke-miterlimit="10" d="M19.474,21.581
	c1.334,2.083,2.004,2.058,5.345-0.203"/>
<path fill="none" stroke="#542411" stroke-width="0.25" stroke-miterlimit="10" d="M19.933,23.302
	c1.627,2.017,2.226,1.993,4.783-0.193"/>
</svg>
