<?xml version="1.0" encoding="utf-8"?>
<!-- Generator: Adobe Illustrator 16.0.0, SVG Export Plug-In . SVG Version: 6.00 Build 0)  -->
<!DOCTYPE svg PUBLIC "-//W3C//DTD SVG 1.1//EN" "http://www.w3.org/Graphics/SVG/1.1/DTD/svg11.dtd">
<svg version="1.1" id="Layer_1" xmlns="http://www.w3.org/2000/svg" xmlns:xlink="http://www.w3.org/1999/xlink" x="0px" y="0px"
	 width="32px" height="32px" viewBox="0 0 32 32" enable-background="new 0 0 32 32" xml:space="preserve">
<path fill="#DD934A" d="M26.493,4.578c0,0-6.539-3.02-10.146,1.559c-2.984,1.735-9.466-1.203-12.725,5.749
	c-1.562,5.457,4.782,6.896,6.205,6.886c1.425-0.01,5.682,0.109,9.74-6.784C26.799,13.089,26.34,7.585,26.493,4.578z"/>
<path fill="#B7763B" d="M19.518,9.915c-4.059,6.894-8.315,6.774-9.74,6.784c-1.143,0.008-5.45-0.924-6.298-4.115
	c-1.089,5.082,4.916,6.45,6.298,6.44c1.425-0.01,5.682,0.109,9.74-6.783c7.232,1.101,6.772-4.403,6.925-7.41
	c0,0-0.042-0.019-0.106-0.046C26.11,7.636,25.14,10.77,19.518,9.915z"/>
<path fill="#7C3D1A" d="M23.339,9.41c-0.463,0.098-0.917-0.197-1.014-0.66l0,0c-0.098-0.462,0.198-0.917,0.661-1.015l0.168-0.036
	c0.462-0.098,0.917,0.198,1.014,0.661l0,0c0.098,0.462-0.199,0.917-0.661,1.014L23.339,9.41z"/>
<path fill="#7C3D1A" d="M20.991,6.514c-0.463,0.097-0.917-0.199-1.014-0.662l0,0c-0.097-0.463,0.198-0.917,0.662-1.014l0.167-0.036
	c0.463-0.097,0.917,0.199,1.015,0.662l0,0c0.098,0.462-0.199,0.917-0.661,1.015L20.991,6.514z"/>
<path fill="#7C3D1A" d="M20.619,10.334c-0.462,0.098-0.917-0.198-1.015-0.661l0,0c-0.098-0.462,0.199-0.917,0.661-1.014l0.168-0.035
	c0.462-0.097,0.917,0.198,1.015,0.661l0,0c0.097,0.462-0.199,0.917-0.662,1.015L20.619,10.334z"/>
<path fill="#7C3D1A" d="M18.824,7.999c-0.462,0.097-0.916-0.198-1.014-0.662l0,0c-0.098-0.462,0.198-0.916,0.661-1.013l0.167-0.037
	c0.463-0.096,0.917,0.199,1.015,0.662l0,0c0.098,0.462-0.199,0.917-0.662,1.014L18.824,7.999z"/>
<path fill="#7C3D1A" d="M16.578,12.937c-0.462,0.098-0.917-0.198-1.014-0.661l0,0c-0.098-0.463,0.198-0.917,0.661-1.015l0.167-0.035
	c0.463-0.097,0.917,0.199,1.015,0.662l0,0c0.098,0.462-0.198,0.917-0.661,1.014L16.578,12.937z"/>
<path fill="#7C3D1A" d="M13.61,10.064c-0.464,0.097-0.918-0.199-1.016-0.662l0,0c-0.097-0.462,0.2-0.917,0.662-1.014l0.167-0.036
	c0.463-0.097,0.917,0.199,1.015,0.662l0,0c0.097,0.462-0.199,0.916-0.663,1.014L13.61,10.064z"/>
<path fill="#7C3D1A" d="M10.427,12.042c-0.462,0.097-0.916-0.199-1.014-0.662l0,0c-0.097-0.463,0.198-0.917,0.661-1.014l0.167-0.036
	c0.462-0.098,0.917,0.199,1.015,0.662l0,0c0.098,0.462-0.2,0.917-0.662,1.014L10.427,12.042z"/>
<path fill="#7C3D1A" d="M6.616,13.176c-0.464,0.097-0.917-0.199-1.015-0.662l0,0c-0.097-0.463,0.198-0.916,0.662-1.015l0.166-0.035
	c0.464-0.098,0.917,0.198,1.016,0.662l0,0c0.097,0.463-0.199,0.917-0.663,1.015L6.616,13.176z"/>
<path fill="#7C3D1A" d="M8.988,16.247c-0.463,0.097-0.917-0.198-1.015-0.661l0,0c-0.097-0.463,0.198-0.917,0.662-1.015l0.167-0.035
	c0.464-0.098,0.918,0.198,1.015,0.66l0,0c0.098,0.463-0.198,0.917-0.661,1.015L8.988,16.247z"/>
<path fill="#7C3D1A" d="M13.256,15.388c-0.461,0.097-0.916-0.198-1.013-0.661l0,0c-0.098-0.463,0.197-0.917,0.659-1.015l0.169-0.035
	c0.462-0.098,0.916,0.198,1.014,0.661l0,0c0.098,0.462-0.198,0.917-0.66,1.014L13.256,15.388z"/>
<path fill="#B5953C" d="M29.116,15.749c-0.083-1.377-2.266-2.366-4.876-2.209c-2.128,0.128-3.884,0.978-4.413,2.034
	c0.132-0.027,0.224-0.04,0.224-0.04l6.441,0.007c0,0-4.731,0.917-6.797,0.985c0.282,1.264,2.37,2.147,4.844,1.997
	C27.148,18.37,29.197,17.124,29.116,15.749z"/>
<path fill="#B58540" d="M16.154,17.456c-0.529,1.375,0.583,3.08,2.478,3.811c1.545,0.594,3.138,0.352,3.959-0.506
	c-0.104-0.018-0.175-0.035-0.175-0.035l-4.512-2.182c0,0,3.708,0.699,5.184,1.326c0.341-1.334-0.747-2.904-2.544-3.592
	C18.649,15.55,16.683,16.076,16.154,17.456z"/>
<path fill="#C6A246" d="M30.399,18.885c-0.602-1.023-2.884-0.793-5.094,0.51c-1.801,1.062-2.998,2.514-3.05,3.567
	c0.104-0.081,0.179-0.133,0.179-0.133l5.603-2.916c0,0-3.76,2.854-5.527,3.843c0.733,0.846,2.89,0.58,4.983-0.657
	C29.702,21.796,31.005,19.908,30.399,18.885z"/>
<path fill="#DDC092" d="M23.984,26.928c0,0,0.553,2.957-1.444,1.444s-2.719-3.439-5.076,0.084c-2.356,3.524-2.151-0.648-2.101-0.986
	c0.049-0.339,0.339-4.425,3.385-4.384C21.794,23.13,22.717,24.604,23.984,26.928z"/>
<path fill="#DDC092" d="M6.25,25.688c0,0-1.996-2.272,0.508-1.993c2.503,0.283,4.118,1.579,4.346-2.678
	c0.23-4.259,2.195-0.542,2.324-0.225c0.131,0.316,1.979,4-0.678,5.527S8.539,27.048,6.25,25.688z"/>
<path fill="#755F41" d="M22.377,25.928c0,0,0.312,1.736-1.005,0.884c-1.317-0.853-1.765-1.978-3.429,0.156
	c-1.664,2.132-1.439-0.34-1.398-0.542c0.041-0.2,0.322-2.621,2.377-2.66C20.978,23.728,21.571,24.58,22.377,25.928z"/>
<path fill="#DDC092" d="M21.708,25.429c0,0,0.206,1.206-0.841,0.646c-1.045-0.56-1.377-1.334-2.788,0.205
	c-1.41,1.539-1.159-0.198-1.119-0.34c0.039-0.141,0.333-1.844,2.003-1.928C20.634,23.925,21.091,24.505,21.708,25.429z"/>
<path fill="#AF9169" d="M9.332,28.769c0,0-2.119-1.185-0.052-1.869c2.067-0.685,3.656-0.186,2.865-3.865
	c-0.789-3.681,1.633-1.268,1.809-1.046c0.179,0.22,2.498,2.651,0.721,4.921C12.899,29.178,11.472,29.074,9.332,28.769z"/>
</svg>
