<?xml version="1.0" encoding="utf-8"?>
<!-- Generator: Adobe Illustrator 16.0.0, SVG Export Plug-In . SVG Version: 6.00 Build 0)  -->
<!DOCTYPE svg PUBLIC "-//W3C//DTD SVG 1.1//EN" "http://www.w3.org/Graphics/SVG/1.1/DTD/svg11.dtd">
<svg version="1.1" id="Layer_1" xmlns="http://www.w3.org/2000/svg" xmlns:xlink="http://www.w3.org/1999/xlink" x="0px" y="0px"
	 width="32px" height="32px" viewBox="0 0 32 32" enable-background="new 0 0 32 32" xml:space="preserve">
<path fill="#683625" d="M14.313,9.592c0,0,3,2.576,2.671,2.857S14.313,9.592,14.313,9.592z"/>
<path fill="#683625" d="M13.503,9.094L13.503,9.094c-0.055-0.099-0.245-0.099-0.425,0c-0.181,0.099-0.286,0.256-0.232,0.355l0,0l0,0
	l0,0c0.001,0.004,0.008,0.001,0.01,0.006c3.369,1.404,4.534,5.494,4.534,5.494c0.063-0.321,0.07-0.638,0.033-0.95
	C17.073,11.149,12.902,8.789,13.503,9.094z"/>
<path fill="#683625" d="M9.013,7.537L9.012,7.536C8.915,7.471,8.74,7.554,8.623,7.723c-0.117,0.169-0.134,0.36-0.037,0.429l0,0l0,0
	l0,0c0.003,0.003,0.009-0.004,0.013,0c3.781-0.164,6.867,3.106,6.867,3.106c-0.1-0.323-0.25-0.618-0.438-0.891
	C13.3,7.889,8.311,7.519,9.013,7.537z"/>
<path fill="#683625" d="M13.053,9.12L13.053,9.12c0.045-0.102,0.203-0.132,0.354-0.067s0.241,0.199,0.197,0.302l0,0l0,0l0,0
	c-0.002,0.004-0.007,0.003-0.008,0.007c-2.797,1.888-3.726,5.983-3.726,5.983c-0.057-0.298-0.065-0.598-0.037-0.901
	C10.096,11.662,13.551,8.733,13.053,9.12z"/>
<path fill="#618949" d="M22.99,3.84c0,0-0.041-0.007-0.114-0.019c0.022-0.025,0.038-0.041,0.038-0.041l-0.103,0.031
	C21.558,3.62,13.44,2.58,11.162,7.333l-0.133,0.04c0.03,0.013,0.06,0.024,0.088,0.038c-0.003,0.006-0.008,0.012-0.012,0.02
	l0.036-0.01c5.443,2.42,10.831-2.69,11.66-3.525L22.99,3.84z"/>
<ellipse transform="matrix(0.5902 0.8073 -0.8073 0.5902 24.3065 -10.1524)" fill="#A4B730" cx="22.152" cy="18.863" rx="8.816" ry="5.247"/>
<ellipse transform="matrix(0.6357 0.772 -0.772 0.6357 21.1734 -11.6139)" fill="#BAC646" cx="22.891" cy="16.625" rx="4.998" ry="2.753"/>
<path opacity="0.8" fill="#88931C" d="M19.266,19.835c-2.001-2.738-2.814-5.786-2.336-7.963c-0.017,0.012-0.034,0.019-0.052,0.031
	c-2.338,1.71-1.905,6.284,0.968,10.215c2.874,3.931,7.101,5.73,9.438,4.021c0.711-0.519,1.161-1.302,1.37-2.25
	C26.306,25.537,22.119,23.739,19.266,19.835z"/>
<path fill="#9AAF1B" d="M7.017,28.936c2.941,1.255,6.458-1.127,7.855-5.32c1.397-4.192,0.145-8.609-2.795-9.864
	c-2.942-1.255-6.458,1.126-7.857,5.318C2.823,23.263,4.076,27.679,7.017,28.936z"/>
<path fill="#BBCE4A" d="M6.832,22.429c1.373,0.698,3.139-0.333,3.945-2.303c0.805-1.97,0.346-4.132-1.026-4.828
	C8.377,14.6,6.612,15.631,5.804,17.6C5,19.569,5.459,21.73,6.832,22.429z"/>
<path fill="#8E9B15" d="M6.993,29.046c-0.604-0.258-1.131-0.655-1.584-1.146c0.13,0.072,0.26,0.144,0.398,0.203
	c2.947,1.257,6.465-1.113,7.858-5.3c1.108-3.33,0.533-6.799-1.227-8.714c2.655,1.475,3.741,5.665,2.414,9.655
	C13.457,27.931,9.939,30.304,6.993,29.046z"/>
</svg>
