<?xml version="1.0" encoding="utf-8"?>
<!-- Generator: Adobe Illustrator 16.0.0, SVG Export Plug-In . SVG Version: 6.00 Build 0)  -->
<!DOCTYPE svg PUBLIC "-//W3C//DTD SVG 1.1//EN" "http://www.w3.org/Graphics/SVG/1.1/DTD/svg11.dtd">
<svg version="1.1" id="Layer_1" xmlns="http://www.w3.org/2000/svg" xmlns:xlink="http://www.w3.org/1999/xlink" x="0px" y="0px"
	 width="32px" height="32px" viewBox="0 0 32 32" enable-background="new 0 0 32 32" xml:space="preserve">
<circle fill="#ED8620" cx="16" cy="15.977" r="12.613"/>
<path fill="#E26D03" d="M17.846,26.701c-6.967,0-12.613-5.647-12.613-12.613c0-2.797,0.924-5.373,2.464-7.465
	c-2.586,2.311-4.224,5.661-4.224,9.401c0,6.966,5.647,12.613,12.613,12.613c4.169,0,7.854-2.03,10.151-5.149
	C24.007,25.479,21.074,26.701,17.846,26.701z"/>
<circle fill="#D16309" cx="22.324" cy="9.436" r="1.027"/>
<circle fill="#D16309" cx="19.179" cy="10.393" r="1.027"/>
<circle fill="#D16309" cx="22.566" cy="12.715" r="1.026"/>
<path fill="#528E24" d="M15.376,4.17"/>
<polygon fill="#528E24" points="16,6.628 14.726,6.608 13.987,7.647 13.612,6.431 12.396,6.05 13.438,5.317 13.422,4.043 
	14.444,4.807 15.648,4.4 15.241,5.605 "/>
<circle fill="#324F14" cx="14.197" cy="5.595" r="0.67"/>
</svg>
