<?xml version="1.0" encoding="utf-8"?>
<!-- Generator: Adobe Illustrator 16.0.0, SVG Export Plug-In . SVG Version: 6.00 Build 0)  -->
<!DOCTYPE svg PUBLIC "-//W3C//DTD SVG 1.1//EN" "http://www.w3.org/Graphics/SVG/1.1/DTD/svg11.dtd">
<svg version="1.1" id="Layer_1" xmlns="http://www.w3.org/2000/svg" xmlns:xlink="http://www.w3.org/1999/xlink" x="0px" y="0px"
	 width="32px" height="32px" viewBox="0 0 32 32" enable-background="new 0 0 32 32" xml:space="preserve">
<path fill="#683625" d="M8.398,3.519C8.414,3.438,8.36,3.352,8.299,3.277C8.2,3.161,8.149,3.118,7.909,3.224
	C7.671,3.328,7.554,3.51,7.654,3.631C7.67,3.651,7.716,3.65,7.744,3.666L7.733,3.668l3.003,2.83l0.283,3.185l-0.133-1.189
	l0.133,1.189l0,0l0.509,0.193l0.052-3.417L8.398,3.519z"/>
<path fill="#CE3636" d="M1.77,11.386c0,0,3.399-8.56,13.567-3.658c0,0,7.875,5.077,0.39,16.86c0,0-3.244,3.478-4.419,3.191
	s-1.539-1.668-3.792-2.638C5.263,24.171-0.843,19.289,1.77,11.386z"/>
<path fill="#4CAF50" d="M18.037,2.223c0,0-10.419,0.001-7.335,5.502L18.037,2.223z"/>
<path fill="#FF6464" d="M24.631,15.171c0,0-0.25-9.118-10.407-7.634c0,0-8.262,2.357-5.532,15.775c0,0,1.685,4.279,2.772,4.371
	c1.088,0.093,1.824-1.098,4.038-1.317C17.717,26.146,24.414,23.427,24.631,15.171z"/>
<path fill="#2F8E2F" d="M18.037,2.223c0,0-2.914,10.002-7.335,5.502L18.037,2.223z"/>
<path fill="#B22F2F" d="M11.869,8.61c0,0-10.331,9.17-0.562,19.169C11.307,27.779,3.812,21.115,11.869,8.61z"/>
<g>
	<path fill="#CE3636" d="M20.507,13.609c0,0,2.599-1.501,3.484-1.357c0.886,0.146,4.117,1.492,5.697,4.457
		c1.578,2.962,0.654,5.267,0.654,5.267s-0.601,3.589-2.481,4.735c-1.879,1.146-4.294,2.876-4.294,2.876L20.507,13.609z"/>
	<path fill="#CE3636" d="M19.949,13.886c0,0-3.11-0.373-3.91,0.111s-3.401,3.01-3.763,6.387c-0.362,3.376,1.442,5.156,1.442,5.156
		s1.997,3.1,4.27,3.424c2.272,0.325,5.042,1.032,5.042,1.032L19.949,13.886z"/>
	<path fill="#FEC372" d="M20.084,13.872c0,0-2.982-0.416-3.742,0.066s-3.219,3.013-3.525,6.434c-0.307,3.419,1.44,5.246,1.44,5.246
		s1.949,3.169,4.127,3.525c2.18,0.357,4.838,1.106,4.838,1.106L20.084,13.872z"/>
	<path fill="#F9A064" d="M19.945,13.866c0,0,2.594-1.526,3.481-1.374c0.886,0.154,4.129,1.548,5.723,4.591
		c1.594,3.041,0.681,5.396,0.681,5.396s-0.584,3.674-2.46,4.839c-1.876,1.164-4.285,2.924-4.285,2.924L19.945,13.866z"/>
	
		<ellipse transform="matrix(0.9807 -0.1955 0.1955 0.9807 -3.6422 4.5459)" fill="#DB286C" cx="21.21" cy="20.725" rx="4.138" ry="4.19"/>
	<path fill="#773B2B" d="M24.113,20.753c0.413,2.076-0.507,4.009-2.059,4.318c-1.551,0.309-3.144-1.123-3.557-3.2
		c-0.414-2.076,0.275-5.176,1.826-5.485C21.874,16.078,23.698,18.676,24.113,20.753z"/>
	<line fill="#FECAA4" x1="16.342" y1="13.938" x2="20.295" y2="16.247"/>
	
		<ellipse transform="matrix(0.9809 -0.1947 0.1947 0.9809 -3.4574 4.1649)" fill="#231614" cx="19.463" cy="19.674" rx="0.226" ry="0.808"/>
	
		<ellipse transform="matrix(0.9806 -0.1961 0.1961 0.9806 -3.4874 4.2154)" fill="#B2A5A4" cx="19.542" cy="19.717" rx="0.097" ry="0.624"/>
	
		<ellipse transform="matrix(0.9805 -0.1966 0.1966 0.9805 -4.0711 4.4022)" fill="#B2A5A4" cx="20.137" cy="22.707" rx="0.097" ry="0.626"/>
	
		<ellipse transform="matrix(0.9812 -0.1932 0.1932 0.9812 -3.7444 4.107)" fill="#B2A5A4" cx="19.183" cy="21.25" rx="0.097" ry="0.626"/>
	
		<ellipse transform="matrix(0.9806 -0.1961 0.1961 0.9806 -3.8004 4.1566)" fill="#B2A5A4" cx="19.088" cy="21.269" rx="0.097" ry="0.625"/>
	
		<ellipse transform="matrix(0.9806 -0.1961 0.1961 0.9806 -3.8004 4.1566)" fill="#B2A5A4" cx="19.088" cy="21.269" rx="0.097" ry="0.625"/>
	
		<ellipse transform="matrix(0.9809 -0.1945 0.1945 0.9809 -3.7714 4.1178)" fill="#231614" cx="19.088" cy="21.269" rx="0.226" ry="0.807"/>
	
		<ellipse transform="matrix(0.9802 -0.1978 0.1978 0.9802 -4.0971 4.4181)" fill="#231614" cx="20.07" cy="22.72" rx="0.226" ry="0.808"/>
	
		<ellipse transform="matrix(0.9812 -0.1932 0.1932 0.9812 -3.7444 4.107)" fill="#B2A5A4" cx="19.183" cy="21.25" rx="0.097" ry="0.626"/>
	
		<ellipse transform="matrix(0.9805 -0.1966 0.1966 0.9805 -4.0711 4.4022)" fill="#B2A5A4" cx="20.137" cy="22.707" rx="0.097" ry="0.626"/>
</g>
</svg>
