<?xml version="1.0" encoding="utf-8"?>
<!-- Generator: Adobe Illustrator 16.0.0, SVG Export Plug-In . SVG Version: 6.00 Build 0)  -->
<!DOCTYPE svg PUBLIC "-//W3C//DTD SVG 1.1//EN" "http://www.w3.org/Graphics/SVG/1.1/DTD/svg11.dtd">
<svg version="1.1" id="Layer_1" xmlns="http://www.w3.org/2000/svg" xmlns:xlink="http://www.w3.org/1999/xlink" x="0px" y="0px"
	 width="32px" height="32px" viewBox="0 0 32 32" enable-background="new 0 0 32 32" xml:space="preserve">
<path fill="#683625" d="M17.284,2.957L17.284,2.957c0.001-0.127,0.23-0.228,0.51-0.228c0.283,0,0.51,0.101,0.511,0.228h0.001
	c0,0,0,0,0,0l0,0c0,0.004-0.009,0.006-0.009,0.01c-3.137,3.206-1.875,7.885-1.875,7.885c-0.286-0.284-0.5-0.596-0.658-0.925
	C14.33,6.913,17.809,2.332,17.284,2.957z"/>
<path fill="#678745" d="M10.441,5.736c0.001,0,0.001,0,0.002,0c-0.001,0-0.001,0.001-0.001,0.001l0.005-0.001
	c0.48-0.036,0.986,0.158,0.986,0.158c1.028,0.51,2.556,0.412,2.556,0.412c2.506-0.561,2.307-1.921,2.27-2.099v0
	c0,0-0.001-0.004-0.001-0.006c-0.002-0.008-0.003-0.014-0.003-0.014l-0.001,0c-0.056-0.174-0.556-1.455-3.011-0.701
	c0,0-1.377,0.671-2.017,1.624c0,0-0.345,0.418-0.78,0.625L10.441,5.736z"/>
<ellipse fill="#CCC83B" cx="16" cy="21.425" rx="8.289" ry="7.846"/>
<ellipse fill="#CCC83B" cx="16" cy="12.308" rx="3.864" ry="4.674"/>
<path fill="#CCC83B" d="M12.342,10.806c0,0-0.224,2.688-2.52,5.393s3.538-2.212,3.538-2.212L12.342,10.806z"/>
<path fill="#CCC83B" d="M19.523,10.806c0,0,0.224,2.688,2.52,5.393s-3.537-2.212-3.537-2.212L19.523,10.806z"/>
<path fill="#BCB239" d="M21.59,15.631c0.133,0.177,0.302,0.257,0.453,0.435c1.747,2.058-1.208-0.293-2.723-1.537
	c-0.014,0.028-0.024,0.059-0.039,0.087c0.185,0.301,0.393,0.608,0.626,0.918c1.639,1.433,2.671,3.479,2.671,5.758
	c0,4.06-3.257,7.399-7.433,7.805c0.281,0.027,0.566,0.042,0.855,0.042c4.578,0,8.288-3.513,8.288-7.846
	C24.289,19.013,23.229,17.064,21.59,15.631z"/>
<path fill="#EAEA5C" d="M10.694,18.678c0,0-3.394,4.336,2.036,7.805C12.73,26.483,10.207,23.135,10.694,18.678z"/>
<circle fill="#EAEA5C" cx="13.104" cy="22.207" r="0.374"/>
<circle fill="#EAEA5C" cx="13.104" cy="23.624" r="0.374"/>
<circle fill="#EAEA5C" cx="14.667" cy="23.624" r="0.374"/>
<circle fill="#EAEA5C" cx="14.667" cy="24.917" r="0.374"/>
</svg>
