<?xml version="1.0" encoding="utf-8"?>
<!-- Generator: Adobe Illustrator 16.0.0, SVG Export Plug-In . SVG Version: 6.00 Build 0)  -->
<!DOCTYPE svg PUBLIC "-//W3C//DTD SVG 1.1//EN" "http://www.w3.org/Graphics/SVG/1.1/DTD/svg11.dtd">
<svg version="1.1" id="Layer_1" xmlns="http://www.w3.org/2000/svg" xmlns:xlink="http://www.w3.org/1999/xlink" x="0px" y="0px"
	 width="32px" height="32px" viewBox="0 0 32 32" enable-background="new 0 0 32 32" xml:space="preserve">
<path fill="#CD6AE5" d="M4.303,8.742c0,0-0.099,6.482,2.793,4.117c2.891-2.364,1.807-4.501,1.807-4.501S8.771,6.179,4.303,8.742z"/>
<path fill="#CD6AE5" d="M21.615,3.272c0,0-6.481-0.096-4.116,2.795c2.365,2.89,4.502,1.805,4.502,1.805S24.18,7.74,21.615,3.272z"/>
<path fill="#CD6AE5" d="M2.984,18.95c0,0,4.468,4.698,4.877,0.985c0.41-3.712-1.86-4.479-1.86-4.479S4.382,13.991,2.984,18.95z"/>
<path fill="#CD6AE5" d="M27.227,8.707c0,0-5.422-3.552-4.972,0.156c0.449,3.707,2.835,3.935,2.835,3.935S27,13.854,27.227,8.707z"/>
<path fill="#CD6AE5" d="M23.881,26.367c0,0,3.456-5.484-0.243-4.969c-3.699,0.516-3.884,2.906-3.884,2.906
	S18.73,26.231,23.881,26.367z"/>
<path fill="#CD6AE5" d="M17.07,29.455c0,0,5.405-3.58,1.819-4.63c-3.584-1.05-4.734,1.054-4.734,1.054S12.43,27.216,17.07,29.455z"
	/>
<path fill="#EDB4F9" d="M20.585,6.067c-0.916-4.132-8.975-2.853-9.307-2.798L11.274,3.26c0,0-0.007,0.005-0.018,0.013l-0.009,0.001
	l0.001,0.004c-0.438,0.325-6.792,5.107-4.517,8.604c2.357,3.622,7.224-2.117,7.224-2.117l-1.811-4.395l1.87,4.372
	C14.016,9.743,21.521,10.285,20.585,6.067z"/>
<path fill="#EDB4F9" d="M5.788,17.742c-2.874,3.108,2.77,9.001,3.004,9.243l-0.007,0.008c0,0,0.01,0.003,0.021,0.008l0.006,0.006
	l0.002-0.003c0.517,0.176,8.069,2.672,9.646-1.191c1.634-4-5.855-4.729-5.855-4.729l-2.579,3.993l2.525-4.029
	C12.551,21.047,8.721,14.569,5.788,17.742z"/>
<path fill="#EDB4F9" d="M22.432,24.109c4.119,0.975,6.479-6.834,6.574-7.158l0.01,0.001c0,0-0.001-0.009-0.003-0.022l0.002-0.009
	l-0.005,0c-0.1-0.536-1.638-8.34-5.776-7.814c-4.287,0.543-1.241,7.424-1.241,7.424l4.744,0.284l-4.75-0.22
	C21.986,16.595,18.227,23.113,22.432,24.109z"/>
<path fill="#F993EA" d="M24.513,6.208c0,0-11.255-3.882-8.782,2.518c2.47,6.398,6.82,5.73,6.82,5.73S26.428,15.477,24.513,6.208z"/>
<path fill="#F993EA" d="M20.524,27.276c0,0,9.043-10.975,1.259-10.385c-7.781,0.588-9.009,5.542-9.009,5.542
	S9.989,26.317,20.524,27.276z"/>
<path fill="#F993EA" d="M3.179,13.651c0,0,4.893,14.268,8.938,6.87c4.047-7.397,0.154-11.243,0.154-11.243
	S10.295,4.605,3.179,13.651z"/>
<path fill="#EF6AD6" d="M26.327,15.463c0,0-5.218-8.714-7.06-3.198c-1.845,5.513,1.341,7.475,1.341,7.475
	S22.575,22.537,26.327,15.463z"/>
<path fill="#EF6AD6" d="M9.055,23.862c0,0,9.994,1.806,7.053-3.211c-2.938-5.016-6.51-3.91-6.51-3.91S6.197,16.383,9.055,23.862z"/>
<path fill="#EF6AD6" d="M13.053,5.042c0,0-7.285,6.702-1.38,7.832c5.903,1.132,7.037-2.477,7.037-2.477S20.973,7.94,13.053,5.042z"
	/>
<path fill="#DB40B3" d="M7.108,12.588c0,0,0.999,10.058,5.058,5.882c4.06-4.176,2.001-7.294,2.001-7.294S13.578,7.823,7.108,12.588z
	"/>
<path fill="#DB40B3" d="M21.354,9.938c0,0-8.403-2.898-6.558,1.88c1.845,4.778,5.093,4.278,5.093,4.278S22.785,16.86,21.354,9.938z"
	/>
<path fill="#DB40B3" d="M18.461,23.865c0,0,6.681-7.726,0.794-7.798c-5.883-0.073-6.739,3.605-6.739,3.605
	S10.466,22.433,18.461,23.865z"/>
<circle fill="#7F1670" cx="15.555" cy="15.752" r="4.656"/>
<circle fill="#600B58" cx="15.555" cy="15.752" r="2.417"/>
</svg>
