<?xml version="1.0" encoding="utf-8"?>
<!-- Generator: Adobe Illustrator 16.0.0, SVG Export Plug-In . SVG Version: 6.00 Build 0)  -->
<!DOCTYPE svg PUBLIC "-//W3C//DTD SVG 1.1//EN" "http://www.w3.org/Graphics/SVG/1.1/DTD/svg11.dtd">
<svg version="1.1" id="Layer_1" xmlns="http://www.w3.org/2000/svg" xmlns:xlink="http://www.w3.org/1999/xlink" x="0px" y="0px"
	 width="32px" height="32px" viewBox="0 0 32 32" enable-background="new 0 0 32 32" xml:space="preserve">
<ellipse fill="#ED8620" cx="11.726" cy="17.421" rx="8.659" ry="9.851"/>
<ellipse fill="#ED8620" cx="20.385" cy="17.421" rx="8.658" ry="9.851"/>
<path fill="#D37118" d="M21.627,25.42c-1.578,0-3.054-0.488-4.328-1.328c-1.275,0.84-2.751,1.328-4.33,1.328
	c-4.782,0-8.659-4.41-8.659-9.85c0-1.809,0.436-3.498,1.183-4.954c-1.498,1.771-2.425,4.174-2.425,6.827
	c0,5.439,3.876,9.851,8.659,9.851c1.578,0,3.054-0.489,4.329-1.328c1.274,0.839,2.75,1.328,4.329,1.328
	c3.193,0,5.974-1.972,7.476-4.896C26.284,24.258,24.077,25.42,21.627,25.42z"/>
<path fill="#2D7221" d="M15.775,8.521c2.296,3.841,6.04-2.526,6.04-2.526S14.58,4.219,15.775,8.521z"/>
<path fill="#358429" d="M15.882,8.808c-2.229,5.952,8.146,4.355,8.146,4.355S19.595,3.647,15.882,8.808z"/>
<path fill="#358429" d="M16.554,8.625c0.015-5.403-7.877-1.27-7.877-1.27S15.1,13.796,16.554,8.625z"/>
<path fill="#358429" d="M17.049,8.771c-6.389-4.51-6.19,6.549-6.19,6.549S22.093,14.809,17.049,8.771z"/>
<ellipse fill="#5E4123" cx="15.874" cy="8.239" rx="2.114" ry="1.173"/>
<ellipse fill="#442B15" cx="15.874" cy="8.239" rx="1.367" ry="0.759"/>
<ellipse fill="#E58F4E" cx="15.873" cy="8.239" rx="0.568" ry="0.315"/>
<path fill="#F4A762" d="M24.028,10.42c0,0,4.97,3.595,3.012,8.938C27.04,19.358,26.89,13.907,24.028,10.42z"/>
</svg>
