<?xml version="1.0" encoding="utf-8"?>
<!-- Generator: Adobe Illustrator 16.0.0, SVG Export Plug-In . SVG Version: 6.00 Build 0)  -->
<!DOCTYPE svg PUBLIC "-//W3C//DTD SVG 1.1//EN" "http://www.w3.org/Graphics/SVG/1.1/DTD/svg11.dtd">
<svg version="1.1" id="Layer_1" xmlns="http://www.w3.org/2000/svg" xmlns:xlink="http://www.w3.org/1999/xlink" x="0px" y="0px"
	 width="32px" height="32px" viewBox="0 0 32 32" enable-background="new 0 0 32 32" xml:space="preserve">
<ellipse fill="#595959" cx="16.406" cy="3.542" rx="9.294" ry="2.417"/>
<ellipse fill="#595959" cx="16.406" cy="27.966" rx="9.294" ry="2.417"/>
<path fill="#595959" d="M16.378,15.685c-5.689,0-10.302,0.414-10.302,0.924v0.925c0,0.511,4.613,0.925,10.302,0.925
	c5.688,0,10.301-0.414,10.301-0.925v-0.925C26.68,16.099,22.066,15.685,16.378,15.685z"/>
<path fill="#595959" d="M16.294,19.316c-5.69,0-10.303,0.467-10.303,1.043v1.044c0,0.575,4.613,1.043,10.303,1.043
	c5.688,0,10.301-0.468,10.301-1.043v-1.044C26.595,19.783,21.981,19.316,16.294,19.316z"/>
<path fill="#595959" d="M25.7,4.865h-0.105c-0.646,1.172-4.507,2.072-9.188,2.072c-4.681,0-8.543-0.9-9.188-2.072H7.112v8.643H7.083
	v14.458h18.589v-6.411H25.7V4.865z"/>
<ellipse transform="matrix(0.9997 -0.0261 0.0261 0.9997 -0.085 0.2873)" fill="#FFFFFF" cx="10.978" cy="3.402" rx="1.976" ry="0.903"/>
<path fill="#FFFFFF" d="M16.406,10.839v-0.288c0,0-0.038,0.052-0.104,0.142c-0.078-0.107-0.125-0.171-0.125-0.171v0.346
	c-1.267,1.793-7.163,10.742,0,12.333v0.026c0.02-0.003,0.036-0.01,0.056-0.013c0.06,0.013,0.112,0.03,0.173,0.042v-0.083
	C23.569,21.581,17.673,12.632,16.406,10.839z"/>
</svg>
