<?xml version="1.0" encoding="utf-8"?>
<!-- Generator: Adobe Illustrator 16.0.0, SVG Export Plug-In . SVG Version: 6.00 Build 0)  -->
<!DOCTYPE svg PUBLIC "-//W3C//DTD SVG 1.1//EN" "http://www.w3.org/Graphics/SVG/1.1/DTD/svg11.dtd">
<svg version="1.1" id="Layer_1" xmlns="http://www.w3.org/2000/svg" xmlns:xlink="http://www.w3.org/1999/xlink" x="0px" y="0px"
	 width="32px" height="32px" viewBox="0 0 32 32" enable-background="new 0 0 32 32" xml:space="preserve">
<path fill="#336811" d="M6.3,9.16c0,0,10.429-3.782,9.513,5.507C15.813,14.667,15.694,10.912,6.3,9.16z"/>
<path fill="#336811" d="M25.44,9.16c0,0-10.429-3.782-9.513,5.507C15.927,14.667,16.046,10.912,25.44,9.16z"/>
<path fill="#45871A" d="M8.336,6.775c0,0,8.209-2.979,7.489,4.334C15.826,11.109,15.731,8.153,8.336,6.775z"/>
<path fill="#45871A" d="M23.403,6.775c0,0-8.209-2.979-7.488,4.334C15.916,11.109,16.009,8.153,23.403,6.775z"/>
<path fill="#56A523" d="M10.092,4.504c0,0,6.297-2.285,5.744,3.325C15.836,7.829,15.765,5.562,10.092,4.504z"/>
<path fill="#56A523" d="M21.649,4.504c0,0-6.297-2.285-5.744,3.325C15.905,7.829,15.977,5.562,21.649,4.504z"/>
<path fill="#E0A336" d="M22.588,23.298c0,3.765-2.998,6.815-6.695,6.815l0,0c-3.698,0-6.696-3.051-6.696-6.815v-4.571
	c0-3.765,2.998-6.816,6.696-6.816l0,0c3.698,0,6.695,3.051,6.695,6.816V23.298z"/>
<path fill="#E0A336" d="M15.893,11.912c-3.698,0-6.696,3.051-6.696,6.816v4.571c0,3.765,2.998,6.815,6.696,6.815V11.912z"/>
<path fill="#EDCD4A" d="M17.218,29.2l2.32-1.86l0.577,0.718c0.292-0.265,0.559-0.554,0.798-0.868l-0.494-0.618l1.46-1.171
	c0.244-0.691,0.384-1.435,0.384-2.213v-1.121l-1-1.244l1-0.802v-1.205c0-0.067-0.008-0.133-0.009-0.201l-1.679,1.348l-1.862-2.32
	l2.321-1.863l0.971,1.209c-0.49-1.717-1.649-3.139-3.173-3.951l1.316,1.638l-2.321,1.863l-1.862-2.321l1.961-1.574
	c-0.51-0.176-1.05-0.284-1.609-0.323l-1.139,0.915l-0.632-0.788c-0.423,0.093-0.83,0.229-1.216,0.405l0.911,1.134l-2.321,1.863
	l-0.944-1.177c-0.25,0.311-0.472,0.647-0.664,1.003l0.714,0.891l-1.402,1.126c-0.062,0.366-0.102,0.739-0.102,1.124v0.572
	l2.292-1.839l1.862,2.32l-2.32,1.862l-1.833-2.285v2.011l0.853,1.061l-0.852,0.683c0.001,0.569,0.08,1.118,0.216,1.643l1.522-1.221
	l1.862,2.319l-1.975,1.583c0.245,0.28,0.511,0.539,0.799,0.773l1.865-1.497l1.861,2.321l-0.643,0.516
	c0.283,0.04,0.569,0.066,0.863,0.066c0.541,0,1.062-0.076,1.564-0.207L17.218,29.2z M22.188,23.895l-2.32,1.861l-1.861-2.319
	l2.32-1.862L22.188,23.895z M19.637,20.714l-2.32,1.863l-1.861-2.321l2.32-1.862L19.637,20.714z M12.708,16.832l2.32-1.862
	l1.862,2.32l-2.32,1.862L12.708,16.832z M12.242,22.835l2.32-1.861l1.861,2.319l-2.321,1.862L12.242,22.835z M14.792,26.014
	l2.321-1.86l1.861,2.321l-2.32,1.861L14.792,26.014z"/>
<path fill="#70B742" d="M15.893,1.887c0,0-1.339,2.478,0,2.635"/>
<path fill="#56A523" d="M15.848,1.887c0,0,1.339,2.478,0,2.635"/>
</svg>
