<?xml version="1.0" encoding="utf-8"?>
<!-- Generator: Adobe Illustrator 16.0.0, SVG Export Plug-In . SVG Version: 6.00 Build 0)  -->
<!DOCTYPE svg PUBLIC "-//W3C//DTD SVG 1.1//EN" "http://www.w3.org/Graphics/SVG/1.1/DTD/svg11.dtd">
<svg version="1.1" id="Layer_1" xmlns="http://www.w3.org/2000/svg" xmlns:xlink="http://www.w3.org/1999/xlink" x="0px" y="0px"
	 width="32px" height="32px" viewBox="0 0 32 32" enable-background="new 0 0 32 32" xml:space="preserve">
<path fill="#683625" d="M16.158,3.452L16.158,3.452c-0.027-0.148-0.272-0.228-0.551-0.182c-0.277,0.045-0.486,0.201-0.461,0.349l0,0
	l0,0l0,0c0,0.005,0.01,0.005,0.01,0.011c3.724,3.225,3.374,8.889,3.374,8.889c0.229-0.378,0.383-0.776,0.475-1.186
	C19.845,7.582,15.519,2.809,16.158,3.452z"/>
<path fill="#80B765" d="M1.54,9.521c0,0,7.908-8.684,14.315-3.635L1.54,9.521z"/>
<path fill="#6C9955" d="M1.462,9.42c0,0,10.666,3.967,14.313-3.632L1.462,9.42z"/>
<path fill="#6D28DB" d="M18.368,8.93c-1.547-0.234-4.626-0.357-7.453,1.608c-3.973,2.763-7.082,10.844,2.936,16.478
	c0,0,3.794,1.899,6.692,1.528L18.368,8.93z"/>
<path fill="#6D28DB" d="M17.129,8.999c1.469-0.415,4.475-0.907,7.731,0.69c4.574,2.246,9.568,9.837,1.042,16.591
	c0,0-3.284,2.33-6.229,2.312L17.129,8.999z"/>
<path fill="#431699" d="M20.24,9.535c0,0,4.048,10.23,1.354,17.896c0,0,1.132-15.896-3.691-18.559"/>
<path fill="#581EC6" d="M9.218,15.948c0-1.738,0.372-3.389,1.035-4.888C6.635,14.209,4.4,21.7,13.851,27.015
	c0,0,3.794,1.9,6.692,1.528l-0.04-0.36C14.167,27.56,9.218,22.321,9.218,15.948z"/>
<path fill="#7247DD" d="M28.728,15.356c0.609,2.037,0.426,3.789-0.411,3.914c-0.833,0.125-2.005-1.423-2.614-3.458
	c-0.609-2.036-0.426-3.789,0.411-3.914C26.949,11.771,28.12,13.321,28.728,15.356z"/>
<path fill="#7247DD" d="M17.126,16.312c-0.042,2.89-1.275,5.222-2.755,5.211c-1.476-0.01-2.637-2.363-2.593-5.253
	c0.046-2.889,1.279-5.221,2.755-5.21C16.01,11.069,17.17,13.422,17.126,16.312z"/>
<path fill="#8B75EA" d="M16.177,16.307c-0.03,1.862-0.823,3.365-1.775,3.357c-0.953-0.006-1.7-1.522-1.674-3.385
	c0.03-1.861,0.826-3.365,1.779-3.358C15.456,12.928,16.203,14.444,16.177,16.307z"/>
<path fill="#8669E2" d="M28.492,15.451c0.427,1.425,0.378,2.64-0.108,2.713c-0.488,0.074-1.228-1.023-1.653-2.449
	c-0.427-1.425-0.378-2.639,0.108-2.713C27.327,12.929,28.065,14.026,28.492,15.451z"/>
</svg>
