<?xml version="1.0" encoding="utf-8"?>
<!-- Generator: Adobe Illustrator 16.0.0, SVG Export Plug-In . SVG Version: 6.00 Build 0)  -->
<!DOCTYPE svg PUBLIC "-//W3C//DTD SVG 1.1//EN" "http://www.w3.org/Graphics/SVG/1.1/DTD/svg11.dtd">
<svg version="1.1" id="Layer_1" xmlns="http://www.w3.org/2000/svg" xmlns:xlink="http://www.w3.org/1999/xlink" x="0px" y="0px"
	 width="32px" height="32px" viewBox="0 0 32 32" enable-background="new 0 0 32 32" xml:space="preserve">
<g>
	<path fill="#B22828" d="M13.907,1.504c0,0,0.986,4.182,0.629,4.49c-0.045,0.039-0.103,0.047-0.168,0.028
		c0.235,0.298,0.53,0.563,0.918,0.771C16.883,4.316,13.907,1.504,13.907,1.504z"/>
</g>
<g>
	<path fill="#B22828" d="M18.946,1.504c0,0-0.986,4.182-0.628,4.49c0.045,0.039,0.103,0.047,0.168,0.028
		c-0.235,0.298-0.529,0.563-0.918,0.771C15.97,4.316,18.946,1.504,18.946,1.504z"/>
</g>
<circle fill="#CC4242" cx="16.541" cy="17.751" r="11.818"/>
<path fill="#AF2E2E" d="M17.502,27.043c-6.527,0-11.818-5.291-11.818-11.818c0-1.04,0.148-2.043,0.4-3.003
	c-0.854,1.635-1.344,3.489-1.344,5.462c0,6.527,5.292,11.818,11.818,11.818c5.486,0,10.085-3.744,11.417-8.813
	C26.002,24.463,22.056,27.043,17.502,27.043z"/>
<ellipse fill="#DBBC7D" cx="12.732" cy="17.528" rx="6.535" ry="7.77"/>
<ellipse fill="#DBBC7D" cx="20.056" cy="17.624" rx="6.829" ry="7.771"/>
<path fill="#AA4141" d="M17.682,17.679c0,3.512-2.394,6.356-5.349,6.356c-2.954,0-5.348-2.845-5.348-6.356
	c0-3.515,2.394-6.36,5.348-6.36C15.289,11.318,17.682,14.164,17.682,17.679z"/>
<path fill="#AA4141" d="M25.824,17.679c0,3.512-2.394,6.356-5.348,6.356c-2.954,0-5.348-2.845-5.348-6.356
	c0-3.515,2.394-6.36,5.348-6.36C23.431,11.318,25.824,14.164,25.824,17.679z"/>
<path fill="#CC4242" d="M16.427,0.331c0,0-3.201,5.879,0,9.257C19.627,6.21,16.427,0.331,16.427,0.331z"/>
<g>
	<path fill="#CC4242" d="M12.38,1.062c0,0,1.629,6.907,1.039,7.416c-0.075,0.064-0.169,0.077-0.278,0.048
		c0.388,0.49,0.875,0.931,1.516,1.271C17.296,5.707,12.38,1.062,12.38,1.062z"/>
</g>
<g>
	<path fill="#CC4242" d="M20.702,1.062c0,0-1.628,6.907-1.038,7.416c0.075,0.064,0.169,0.077,0.278,0.048
		c-0.388,0.49-0.875,0.931-1.517,1.271C15.787,5.707,20.702,1.062,20.702,1.062z"/>
</g>
<path fill="#CC4242" d="M16.357,1.062c0,0-1.938,3.56,0,5.605C18.295,4.621,16.357,1.062,16.357,1.062z"/>
<circle fill="#EF5050" cx="12.673" cy="16.503" r="0.877"/>
<circle fill="#EF5050" cx="12.706" cy="14.355" r="0.877"/>
<circle fill="#EF5050" cx="12.673" cy="18.861" r="0.877"/>
<circle fill="#EF5050" cx="12.672" cy="21.147" r="0.877"/>
<path fill="#EF5050" d="M11.05,15.625c0,0.485-0.393,0.879-0.877,0.879c-0.484,0-0.877-0.394-0.877-0.879
	c0-0.482,0.394-0.875,0.877-0.875C10.658,14.75,11.05,15.143,11.05,15.625z"/>
<circle fill="#EF5050" cx="10.173" cy="17.984" r="0.877"/>
<circle fill="#EF5050" cx="10.173" cy="20.27" r="0.877"/>
<circle fill="#EF5050" cx="20.177" cy="16.503" r="0.877"/>
<circle fill="#EF5050" cx="20.144" cy="14.355" r="0.877"/>
<circle fill="#EF5050" cx="20.177" cy="18.861" r="0.877"/>
<circle fill="#EF5050" cx="20.177" cy="21.147" r="0.877"/>
<path fill="#EF5050" d="M21.799,15.625c0,0.485,0.393,0.879,0.877,0.879c0.484,0,0.877-0.394,0.877-0.879
	c0-0.482-0.394-0.875-0.877-0.875C22.192,14.75,21.799,15.143,21.799,15.625z"/>
<circle fill="#EF5050" cx="22.677" cy="17.984" r="0.877"/>
<circle fill="#EF5050" cx="22.677" cy="20.27" r="0.877"/>
<rect x="15.587" y="7.915" fill="#CC4242" width="1.411" height="18.815"/>
<rect x="14.855" y="11.356" fill="#DBBC7D" width="0.732" height="12.679"/>
<rect x="16.999" y="11.461" fill="#DBBC7D" width="0.733" height="12.574"/>
<path fill="#E87777" d="M21.021,7.915c0,0,3.19,0.36,4.803,3.441C25.824,11.356,22.042,7.955,21.021,7.915z"/>
</svg>
