<?xml version="1.0" encoding="utf-8"?>
<!-- Generator: Adobe Illustrator 16.0.0, SVG Export Plug-In . SVG Version: 6.00 Build 0)  -->
<!DOCTYPE svg PUBLIC "-//W3C//DTD SVG 1.1//EN" "http://www.w3.org/Graphics/SVG/1.1/DTD/svg11.dtd">
<svg version="1.1" id="Layer_1" xmlns="http://www.w3.org/2000/svg" xmlns:xlink="http://www.w3.org/1999/xlink" x="0px" y="0px"
	 width="32px" height="32px" viewBox="0 0 32 32" enable-background="new 0 0 32 32" xml:space="preserve">
<path fill="#5E3E28" d="M7.435,14.869c0,0,0.058-4.131,3.298-3.373c0,0,3.239-5.903,7.031,0.505c0,0,1.93-4.589,4.274-0.058
	c1.793-0.698,3.257,2.77,3.396,2.684c0.137-0.086-0.638,0.918-0.638,0.918L7.435,14.869z"/>
<path fill="#969696" d="M19.638,6.307l1.231-2.404l-0.452-0.373l-0.501,1.233l0.363-1.149h-0.586L19.107,6.25h-3.235
	c0,0-1.591,8.262,1.065,7.938l0.023-0.071c2.005,0.017,5.169-5.748,5.169-5.748L19.638,6.307z"/>
<path fill="#7F604F" d="M9.197,15.123c0,0,0.042-2.966,2.368-2.423c0,0,2.326-4.235,5.047,0.364c0,0,1.386-3.295,3.069-0.041
	c1.287-0.503,2.339,1.986,2.437,1.927c0.099-0.062-0.457,0.659-0.457,0.659L9.197,15.123z"/>
<polygon fill="#E28140" points="7.467,17.642 9.574,29.661 23.035,29.661 25.482,17.642 "/>
<rect x="5.971" y="14.729" fill="#E28140" width="21.075" height="2.912"/>
<polygon fill="#AF6837" points="24.517,14.729 24.517,16.563 22.954,16.563 20.506,28.582 9.384,28.582 9.574,29.661 23.035,29.661 
	25.482,17.642 27.046,17.642 27.046,14.729 "/>
<rect x="7.69" y="14.729" fill="#E28140" width="18.416" height="2.912"/>
<rect x="9.197" y="17.642" fill="#AF6837" width="14.556" height="1.409"/>
<ellipse transform="matrix(0.9194 -0.3934 0.3934 0.9194 -3.482 10.1116)" fill="#8E705B" cx="22.927" cy="13.55" rx="0.724" ry="0.633"/>
<rect x="19.521" y="1.154" transform="matrix(0.9579 0.287 -0.287 0.9579 1.7851 -5.7455)" fill="#3897AD" width="1.943" height="4.126"/>
</svg>
