<?xml version="1.0" encoding="utf-8"?>
<!-- Generator: Adobe Illustrator 16.0.0, SVG Export Plug-In . SVG Version: 6.00 Build 0)  -->
<!DOCTYPE svg PUBLIC "-//W3C//DTD SVG 1.1//EN" "http://www.w3.org/Graphics/SVG/1.1/DTD/svg11.dtd">
<svg version="1.1" id="Layer_1" xmlns="http://www.w3.org/2000/svg" xmlns:xlink="http://www.w3.org/1999/xlink" x="0px" y="0px"
	 width="32px" height="32px" viewBox="0 0 32 32" enable-background="new 0 0 32 32" xml:space="preserve">
<path fill="#3F111C" d="M16.294,9.644c0,0,2.436,2.328,3.078,2.18c0.646,1.546,2.428,1.011,2.577,1.005
	c0.152-0.006,1.655,0.022,3.603-1.661c0,0,5.383-0.873,1.189-6.45c0,0-1.114-1.706-3.204-1.437
	c-2.373-0.859-2.679-0.369-2.679-0.369S18.865,3.868,17.974,3.9c-0.889,0.03-1.629,0.057-2.816,2.361
	C13.968,8.564,16.294,9.644,16.294,9.644z"/>
<path fill="#AF5B73" d="M15.794,7.238c0,0,3.571,4.311,8.588,0.748C24.382,7.986,16.271,10.899,15.794,7.238z"/>
<path fill="#AF5B73" d="M24.976,6.813c0,0-2.835-2.637-6.681-0.737C18.295,6.076,25.056,4.327,24.976,6.813z"/>
<path fill="#AF5B73" d="M23.91,3.958c0,0-3.667-1.238-6.394,2.077C17.517,6.035,22.961,1.659,23.91,3.958z"/>
<path fill="#63202B" d="M12.941,9.485c0,0-3.735-0.87-4.28-0.352c-1.53-1.142-2.965,0.416-3.109,0.51
	c-0.145,0.095-1.634,0.937-2.567,3.715c0,0-4.768,3.977,2.576,7.011c0,0,2.079,1.027,3.972-0.449
	c2.825-0.535,2.839-1.192,2.839-1.192s1.4-2.093,2.253-2.641c0.855-0.544,1.565-1.001,1.393-3.947
	C15.847,9.194,12.941,9.485,12.941,9.485z"/>
<path fill="#AD6674" d="M12.841,11.624c0,0-5.999-2.153-8.849,4.246C3.992,15.87,10.25,8.315,12.841,11.624z"/>
<path fill="#AD6674" d="M6.076,17.292c0,0,4.308,0.941,6.975-3.152C13.051,14.14,7.439,19.775,6.076,17.292z"/>
<path fill="#AD6674" d="M9.452,18.856c0,0,4.312-0.913,5.06-5.741C14.512,13.115,11.714,20.559,9.452,18.856z"/>
<path fill="#D8AE36" d="M26.924,20.583c0,0-3.406-3.072-4.194-2.856c-1.037-2.064-3.209-1.303-3.4-1.292
	c-0.188,0.014-2.09,0.009-4.309,2.318c0,0-6.674,1.301-0.587,8.704c0,0,1.649,2.269,4.248,1.857
	c3.118,1.098,3.438,0.433,3.438,0.433s2.378-1.333,3.497-1.397c1.119-0.061,2.052-0.114,3.225-3.24
	C30.011,21.983,26.924,20.583,26.924,20.583z"/>
<path fill="#CC5E44" d="M27.16,23.651c0,0-7.095-7.892-12.648-2.502C14.512,21.149,25.315,17.48,27.16,23.651z"/>
<path fill="#CC5E44" d="M13.81,22.112c0,0,6.457,8.591,11.702,4.275C25.512,26.387,15.269,29.334,13.81,22.112z"/>
<path fill="#CC5E44" d="M18.756,22.231c0,0,5.291,5.037,8.35,1.629C27.105,23.86,20.531,26.875,18.756,22.231z"/>
</svg>
