<?xml version="1.0" encoding="utf-8"?>
<!-- Generator: Adobe Illustrator 16.0.0, SVG Export Plug-In . SVG Version: 6.00 Build 0)  -->
<!DOCTYPE svg PUBLIC "-//W3C//DTD SVG 1.1//EN" "http://www.w3.org/Graphics/SVG/1.1/DTD/svg11.dtd">
<svg version="1.1" id="Layer_1" xmlns="http://www.w3.org/2000/svg" xmlns:xlink="http://www.w3.org/1999/xlink" x="0px" y="0px"
	 width="32px" height="32px" viewBox="0 0 32 32" enable-background="new 0 0 32 32" xml:space="preserve">
<path fill="#683625" d="M15.75,5.101L15.75,5.101c-0.02-0.107-0.197-0.165-0.398-0.132C15.149,5.002,15,5.115,15.018,5.222l0,0l0,0
	l0,0c0,0.004,0.008,0.004,0.008,0.008c2.695,2.334,2.441,6.434,2.441,6.434c0.166-0.273,0.276-0.562,0.344-0.858
	C18.418,8.09,15.286,4.635,15.75,5.101z"/>
<path fill="#80B765" d="M4.299,9.533c0,0,6.172-6.285,11.171-2.631L4.299,9.533z"/>
<path fill="#6C9955" d="M4.238,9.46c0,0,8.324,2.871,11.17-2.629L4.238,9.46z"/>
<path fill="#DD264E" d="M17.289,9.207c-1.119-0.239-3.348-0.365-5.395,1.642c-2.875,2.82-5.125,11.07,2.125,16.82
	c0,0,2.746,1.939,4.844,1.56L17.289,9.207z"/>
<path fill="#DD264E" d="M16.393,9.277c1.062-0.424,3.238-0.927,5.595,0.705c3.312,2.292,6.927,10.041,0.755,16.937
	c0,0-2.377,2.377-4.509,2.359L16.393,9.277z"/>
<path fill="#700D35" d="M18.645,9.824c0,0,2.93,10.443,0.98,18.269c0,0,0.818-16.228-2.672-18.945"/>
<path fill="#AA1342" d="M10.666,16.371c0-1.774,0.27-3.46,0.75-4.99c-2.619,3.216-4.237,10.861,2.604,16.287
	c0,0,2.745,1.939,4.844,1.56l-0.029-0.368C14.248,28.225,10.666,22.877,10.666,16.371z"/>
<ellipse transform="matrix(0.9782 -0.2077 0.2077 0.9782 -2.8061 5.2693)" fill="#E54C7C" cx="23.692" cy="15.999" rx="1.119" ry="3.847"/>
<ellipse transform="matrix(0.9999 0.0111 -0.0111 0.9999 0.1865 -0.1594)" fill="#E54C7C" cx="14.455" cy="16.722" rx="1.936" ry="5.341"/>
<ellipse transform="matrix(0.9999 0.0113 -0.0113 0.9999 0.1907 -0.1629)" fill="#ED7AA9" cx="14.455" cy="16.723" rx="1.248" ry="3.441"/>
<ellipse transform="matrix(0.9784 -0.2068 0.2068 0.9784 -2.7899 5.3039)" fill="#E57AA6" cx="23.979" cy="15.999" rx="0.652" ry="2.693"/>
</svg>
