<?xml version="1.0" encoding="utf-8"?>
<!-- Generator: Adobe Illustrator 16.0.0, SVG Export Plug-In . SVG Version: 6.00 Build 0)  -->
<!DOCTYPE svg PUBLIC "-//W3C//DTD SVG 1.1//EN" "http://www.w3.org/Graphics/SVG/1.1/DTD/svg11.dtd">
<svg version="1.1" id="Layer_1" xmlns="http://www.w3.org/2000/svg" xmlns:xlink="http://www.w3.org/1999/xlink" x="0px" y="0px"
	 width="32px" height="32px" viewBox="0 0 32 32" enable-background="new 0 0 32 32" xml:space="preserve">
<path fill="#29771B" d="M16.202,11.326c1.416,0.497,2.686,2.185,3.154,4.439c0.021,0.102,0.024,0.203,0.041,0.305
	c0.071-0.059,0.127-0.127,0.199-0.186c1.022-0.847,2.134-1.354,3.165-1.544c-0.082-0.067-0.133-0.108-0.133-0.108
	c7.435-0.343,1.984-3.959,1.984-3.959c5.108-1.353,0.184-4.474,0.184-4.474c0.84-1.894-0.451-2.782-1.131-3.104
	c0.002-0.075,0.004-0.122,0.004-0.122s-2.614-0.75-2.999,1.958c0,0-5.83,0.036-2.219,3.892C18.452,8.423,13.572,8.555,16.202,11.326
	z"/>
<path fill="#29771B" d="M9.101,18.131c0.989-1.127,3.029-1.677,5.297-1.27c0.102,0.018,0.198,0.054,0.299,0.077
	c-0.029-0.088-0.072-0.166-0.1-0.257c-0.404-1.264-0.46-2.484-0.252-3.512c-0.093,0.052-0.149,0.083-0.149,0.083
	c2.456-7.024-2.934-3.317-2.934-3.317c0.652-5.245-4.081-1.84-4.081-1.84C5.736,6.61,4.432,7.475,3.878,7.986
	c-0.066-0.03-0.11-0.049-0.11-0.049s-1.672,2.146,0.695,3.514c0,0-2.142,5.423,2.784,3.51C7.247,14.961,5.548,19.537,9.101,18.131z"
	/>
<line fill="none" stroke="#B70B45" stroke-miterlimit="10" x1="18.846" y1="17.692" x2="21.179" y2="9.886"/>
<path fill="#6DAA49" d="M11.641,12.483c1.409-0.515,3.461-0.016,5.254,1.429c0.081,0.067,0.148,0.142,0.227,0.211
	c0.017-0.091,0.017-0.179,0.035-0.271c0.253-1.304,0.79-2.4,1.467-3.203c-0.107,0.001-0.171,0.001-0.171,0.001
	c5.527-4.982-0.979-4.318-0.979-4.318c3.09-4.288-2.697-3.575-2.697-3.575c-0.552-1.996-2.112-1.864-2.843-1.681
	c-0.045-0.059-0.074-0.097-0.074-0.097s-2.496,1.08-1.077,3.417c0,0-4.483,3.727,0.755,4.416
	C11.536,8.812,7.849,12.011,11.641,12.483z"/>
<line fill="none" stroke="#EF296B" stroke-miterlimit="10" x1="17.631" y1="17.291" x2="15.421" y2="8.117"/>
<line fill="none" stroke="#B70B45" stroke-miterlimit="10" x1="15.949" y1="17.818" x2="9.754" y2="13.789"/>
<path fill="#BC0C47" d="M25.575,21.879c-0.519-3.361-4.108-5.598-8.017-4.995c-3.91,0.603-6.66,3.818-6.142,7.18
	c0.466,3.018,3.406,5.121,6.829,5.087c1.075,0.221,2.394,0.644,3.271,1.462c0,0,0.374-1.079,1.374-2.95
	C24.816,26.281,25.921,24.115,25.575,21.879z"/>
<path fill="#D11C6F" d="M23.498,20.266c-0.324-2.081-2.567-3.465-5.009-3.092c-2.442,0.374-4.159,2.362-3.835,4.444
	c0.291,1.867,2.127,3.169,4.265,3.147c0.673,0.137,1.496,0.399,2.043,0.905c0,0,0.233-0.668,0.858-1.827
	C23.024,22.989,23.713,21.648,23.498,20.266z"/>
<path fill="#EA428E" d="M23.044,20.966c-0.223-1.44-1.76-2.397-3.434-2.14s-2.852,1.635-2.629,3.074
	c0.199,1.292,1.458,2.193,2.924,2.179c0.461,0.095,1.024,0.275,1.4,0.626c0,0,0.16-0.462,0.588-1.264
	C22.719,22.851,23.19,21.923,23.044,20.966z"/>
<g>
	<path fill="#7C0030" d="M19.036,27.923c-3.423,0.033-6.363-2.07-6.829-5.088c-0.176-1.143,0.033-2.267,0.529-3.278
		c-1.048,1.281-1.571,2.876-1.319,4.508c0.466,3.018,3.406,5.121,6.829,5.087c1.075,0.221,2.394,0.644,3.271,1.462
		c0,0,0.175-0.496,0.587-1.381C21.234,28.522,20.036,28.127,19.036,27.923z"/>
	<path fill="#7C0030" d="M23.681,26.434c-0.198,0.371-0.365,0.701-0.517,1.008c0.822-0.651,1.482-1.443,1.908-2.328
		C24.679,25.602,24.216,26.05,23.681,26.434z"/>
</g>
</svg>
