<?xml version="1.0" encoding="utf-8"?>
<!-- Generator: Adobe Illustrator 16.0.0, SVG Export Plug-In . SVG Version: 6.00 Build 0)  -->
<!DOCTYPE svg PUBLIC "-//W3C//DTD SVG 1.1//EN" "http://www.w3.org/Graphics/SVG/1.1/DTD/svg11.dtd">
<svg version="1.1" id="Layer_1" xmlns="http://www.w3.org/2000/svg" xmlns:xlink="http://www.w3.org/1999/xlink" x="0px" y="0px"
	 width="32px" height="32px" viewBox="0 0 32 32" enable-background="new 0 0 32 32" xml:space="preserve">
<path fill="#C052DB" d="M15.741,11.011c0.184,0.557,0.133,1.118-0.077,1.616c2.968,0.137,6.888-2.306,6.888-2.306l1.049-1.505
	l-1.783-0.712c0,0-4.731-0.027-7.113,1.604C15.179,10.013,15.556,10.456,15.741,11.011z"/>
<path fill="#C052DB" d="M23.601,8.815l-1.783-0.712c0,0-2.502-0.011-4.786,0.609c0.849-2.298,1.019-4.991,1.019-4.991l-0.589-1.832
	L15.892,2.84c0,0-1.285,1.789-2.103,3.875c-1.484-1.857-3.412-3.33-3.412-3.33L8.542,2.853L8.558,4.73c0,0,0.926,2.255,2.352,4.177
	c-2.069,0.68-3.851,1.771-3.851,1.771l-1.073,1.499l1.781,0.711c0,0,1.946,0.007,3.979-0.412c-0.635,2.036-0.804,4.08-0.804,4.08
	l0.554,1.838l1.588-0.922c0,0,1.116-1.493,1.961-3.342c0.94,1.519,1.899,2.656,1.899,2.656l1.686,0.948l0.346-1.843
	c0,0-0.527-2.738-1.688-5.052C19.581,10.255,23.601,8.815,23.601,8.815z M15.013,9.941c-0.035,0.018-0.064,0.041-0.101,0.057
	c-0.298,0.132-0.616,0.176-0.934,0.16c-0.023-0.057-0.053-0.109-0.072-0.168c-0.058-0.181-0.084-0.362-0.095-0.542
	c0.308-0.013,0.622,0.031,0.929,0.156c0.025,0.01,0.046,0.026,0.072,0.038c-0.035,0.023-0.074,0.042-0.107,0.065
	C14.813,9.777,14.916,9.856,15.013,9.941z"/>
<path fill="#E2C650" d="M15.738,10.438c-0.108-0.259-0.225-0.498-0.353-0.709c0.072-0.151,0.143-0.311,0.205-0.485
	c0.342-0.972,0.329-1.881-0.035-2.029c-0.359-0.148-0.934,0.522-1.278,1.494c-0.048,0.143-0.09,0.284-0.122,0.421
	c-0.268,0.075-0.552,0.186-0.845,0.339c-0.911,0.483-1.49,1.147-1.291,1.482c0.198,0.335,1.101,0.216,2.018-0.265
	c0.045-0.025,0.218-0.113,0.275-0.09c0.027,0.011,0.117,0.236,0.134,0.278c0.406,0.994,1.026,1.703,1.381,1.581
	C16.183,12.335,16.145,11.433,15.738,10.438z"/>
<path fill="#B23808" d="M8.243,21.535c0,0,10.93-3.516,15.12,0c0,0-5.337-1.874-7.558-0.781c-2.221,1.094-7.562,1.406-7.562,1.406
	V21.535z"/>
<path fill="#E04500" d="M8.243,26.769c0,0,10.93-3.517,15.12,0c0,0-5.337-1.875-7.558-0.781c-2.221,1.093-7.562,1.407-7.562,1.407
	V26.769z"/>
<path fill="#E04500" d="M22.394,13.88c0,0-4.946-4.061-7.688-3.977c0,0,3.043,0.772,3.979,1.725
	c0.943,0.953,3.604,2.463,3.604,2.463L22.394,13.88z"/>
<path fill="#E04500" d="M23.909,3.862c0,0-7.833,3.083-9.559,6.23c0,0,2.882-2.958,4.573-3.43c1.693-0.474,5.152-2.549,5.152-2.549
	L23.909,3.862z"/>
<path fill="#E04500" d="M14.734,18.932c0,0,3.154-6.267,0.287-8.803c0,0,1.47,3.16,0.511,4.42c-0.956,1.266-1.32,4.365-1.32,4.365
	L14.734,18.932z"/>
<path fill="#E57042" d="M26,24.186c0,0-11.355-4.344-15.669,0.238c0,0,5.518-2.494,7.828-1.123c2.312,1.365,7.848,1.683,7.848,1.683
	L26,24.186z"/>
<path fill="#E2531B" d="M20.53,25.506c0,0-11.16-4.328-15.398,0.233c0,0,5.422-2.481,7.691-1.118
	c2.273,1.36,7.716,1.678,7.716,1.678L20.53,25.506z"/>
<path fill="#B23808" d="M26.453,27.885c0,0-11.364-2.989-15.693,0.241c0,0,5.531-1.773,7.839-0.825
	c2.312,0.946,7.856,1.143,7.856,1.143L26.453,27.885z"/>
<path fill="#E04500" d="M23.646,29.301c0,0-11.363-2.991-15.692,0.24c0,0,5.531-1.773,7.839-0.825
	c2.313,0.946,7.858,1.143,7.858,1.143L23.646,29.301z"/>
</svg>
