<?xml version="1.0" encoding="utf-8"?>
<!-- Generator: Adobe Illustrator 16.0.0, SVG Export Plug-In . SVG Version: 6.00 Build 0)  -->
<!DOCTYPE svg PUBLIC "-//W3C//DTD SVG 1.1//EN" "http://www.w3.org/Graphics/SVG/1.1/DTD/svg11.dtd">
<svg version="1.1" id="Layer_1" xmlns="http://www.w3.org/2000/svg" xmlns:xlink="http://www.w3.org/1999/xlink" x="0px" y="0px"
	 width="32px" height="32px" viewBox="0 0 32 32" enable-background="new 0 0 32 32" xml:space="preserve">
<polygon fill="#222323" points="22.857,17.934 19.252,21.381 18.94,25.64 24.884,29.845 29.834,24.149 29.834,23.532 25.203,17.825 
	"/>
<polygon fill="#444C49" points="13.795,21.529 15.656,21.101 18.411,18.195 16.43,19.337 13.968,20.576 "/>
<polygon fill="#8C9692" points="16.329,2.979 8.34,5.614 5.892,11.66 13.461,21.211 22.538,15.971 22.826,15.071 "/>
<polygon fill="#222323" points="9.66,3.836 3.503,10.026 3.592,16.617 13.968,21.529 20.119,12.481 20.037,11.536 12.168,3.558 "/>
<polygon fill="#3F4442" points="11.28,3.359 5.124,9.551 5.212,16.144 15.589,21.055 21.74,12.006 21.657,11.062 13.79,3.084 "/>
<polygon fill="#5F6563" points="12.056,2.365 5.392,7.853 4.913,14.422 14.816,20.45 21.718,12.121 21.718,11.169 14.576,2.365 "/>
<polygon fill="#5F6563" points="22.857,17.934 18.539,21.49 18.229,25.749 24.647,29.657 29.121,24.258 29.121,23.641 24.49,17.934 
	"/>
<polygon fill="#7F8280" points="6.473,8.172 6.071,13.656 14.34,18.691 20.103,11.734 "/>
<polygon fill="#7F8280" points="18.605,22.613 18.229,25.815 22.938,28.73 26.13,24.56 "/>
<polygon fill="#3F3F3F" points="10.734,1.714 12.355,1.374 12.355,2.393 3.051,9.976 2.751,9.435 8.333,3.068 "/>
<polygon fill="#444C49" points="4.913,8.19 2.751,9.951 3.113,12.526 4.913,13.137 5.368,8.19 "/>
<polygon fill="#8C9692" points="12.355,1.374 14.995,1.374 24,10.689 24,11.434 23.4,12.096 22.018,11.78 13.731,2.393 
	12.355,2.393 "/>
<polygon fill="#3F3F3F" points="3.113,12.526 2.751,17.062 4.553,18.96 6.652,20.45 13.795,22.008 13.968,21.529 6.473,18.011 
	4.433,16.793 3.538,12.672 "/>
<polygon fill="#5F6563" points="21.718,11.757 23.4,12.096 24,11.434 24,10.689 "/>
<polygon fill="#444C49" points="21.418,11.266 23.099,11.605 22.36,15.002 21.074,12.055 "/>
</svg>
