<?xml version="1.0" encoding="utf-8"?>
<!-- Generator: Adobe Illustrator 16.0.0, SVG Export Plug-In . SVG Version: 6.00 Build 0)  -->
<!DOCTYPE svg PUBLIC "-//W3C//DTD SVG 1.1//EN" "http://www.w3.org/Graphics/SVG/1.1/DTD/svg11.dtd">
<svg version="1.1" id="Layer_1" xmlns="http://www.w3.org/2000/svg" xmlns:xlink="http://www.w3.org/1999/xlink" x="0px" y="0px"
	 width="32px" height="32px" viewBox="0 0 32 32" enable-background="new 0 0 32 32" xml:space="preserve">
<ellipse fill="#AFAFAF" cx="17.637" cy="25.271" rx="3.45" ry="3.236"/>
<ellipse fill="#AFAFAF" cx="19.684" cy="21.575" rx="3.45" ry="3.236"/>
<ellipse fill="#AFAFAF" cx="14.959" cy="20.392" rx="4.034" ry="3.784"/>
<ellipse fill="#AFAFAF" cx="18.994" cy="16.918" rx="4.034" ry="3.783"/>
<ellipse fill="#AFAFAF" cx="21.325" cy="13.134" rx="4.034" ry="3.784"/>
<ellipse fill="#AFAFAF" cx="14.187" cy="14.989" rx="5.43" ry="5.093"/>
<ellipse fill="#AFAFAF" cx="20.279" cy="9.896" rx="5.43" ry="5.093"/>
<path fill="#F4F4F4" d="M20.063,5.747c2.667-0.068,4.88,1.832,4.942,4.244c0.021,0.812-0.209,1.577-0.619,2.239
	c0.578-0.742,0.912-1.648,0.887-2.624c-0.062-2.412-2.275-4.312-4.942-4.244c-1.77,0.046-3.29,0.95-4.098,2.255
	C17.086,6.522,18.474,5.788,20.063,5.747z"/>
<ellipse fill="#AFAFAF" cx="12.212" cy="8.244" rx="6.025" ry="5.649"/>
<path fill="#F4F4F4" d="M14.956,25.805c0-1.701,1.47-3.081,3.284-3.081c0.863,0,1.642,0.319,2.229,0.83
	c-0.585-0.846-1.597-1.408-2.752-1.408c-1.813,0-3.284,1.38-3.284,3.081c0,0.892,0.41,1.688,1.056,2.251
	C15.154,26.995,14.956,26.423,14.956,25.805z"/>
<path fill="#DBDBDB" d="M11.721,21.113c0-1.977,1.708-3.581,3.816-3.581c1.003,0,1.908,0.371,2.59,0.965
	c-0.68-0.982-1.856-1.637-3.199-1.637c-2.107,0-3.816,1.604-3.816,3.581c0,1.036,0.477,1.961,1.228,2.616
	C11.951,22.497,11.721,21.832,11.721,21.113z"/>
<path fill="#DBDBDB" d="M9.698,15.756c0-2.315,2.001-4.195,4.47-4.195c1.175,0,2.235,0.436,3.034,1.131
	c-0.797-1.151-2.175-1.917-3.747-1.917c-2.468,0-4.47,1.879-4.47,4.194c0,1.214,0.558,2.297,1.438,3.064
	C9.968,17.377,9.698,16.598,9.698,15.756z"/>
<path fill="#E8E8E8" d="M7.362,9.331c0-2.946,2.547-5.34,5.69-5.34c1.497,0,2.846,0.554,3.862,1.439
	c-1.015-1.466-2.769-2.44-4.77-2.44c-3.142,0-5.691,2.393-5.691,5.339c0,1.545,0.71,2.925,1.831,3.901
	C7.706,11.396,7.362,10.402,7.362,9.331z"/>
<path fill="#DBDBDB" d="M22.888,9.443c-1.03-0.587-2.192-0.669-3.204-0.347c0.908-0.181,1.899-0.05,2.791,0.458
	c1.884,1.072,2.595,3.374,1.59,5.141c-0.455,0.799-1.19,1.337-2.026,1.603c1.007-0.201,1.91-0.785,2.439-1.714
	C25.482,12.818,24.771,10.516,22.888,9.443z"/>
<path fill="#DBDBDB" d="M19.165,13.321c-1.107,0-2.087,0.471-2.759,1.198c0.653-0.564,1.517-0.917,2.475-0.917
	c2.023,0,3.663,1.539,3.663,3.436c0,0.858-0.348,1.635-0.903,2.236c0.725-0.628,1.187-1.519,1.187-2.517
	C22.827,14.86,21.188,13.321,19.165,13.321z"/>
</svg>
