<?xml version="1.0" encoding="utf-8"?>
<!-- Generator: Adobe Illustrator 16.0.0, SVG Export Plug-In . SVG Version: 6.00 Build 0)  -->
<!DOCTYPE svg PUBLIC "-//W3C//DTD SVG 1.1//EN" "http://www.w3.org/Graphics/SVG/1.1/DTD/svg11.dtd">
<svg version="1.1" id="Layer_1" xmlns="http://www.w3.org/2000/svg" xmlns:xlink="http://www.w3.org/1999/xlink" x="0px" y="0px"
	 width="32px" height="32px" viewBox="0 0 32 32" enable-background="new 0 0 32 32" xml:space="preserve">
<path fill="#FEB270" d="M3.184,23.02c2.854-1.23,6.797-1.991,11.152-1.991c5.006,0,9.347,1.39,12.236,2.958
	c2.584-2.834,3.883-6.795,2.972-10.187c-1.589-5.904-8.917-8.986-16.369-6.886c-7.453,2.1-8.459,6.887-10.187,13.84
	C2.846,21.325,5.364,23.119,3.184,23.02z"/>
<path fill="#E29054" d="M29.659,13.877c-1.051-3.908-4.623-6.567-9.076-7.318c3.321,1.512,5.821,4.196,6.717,7.718
	c0.771,3.032,0.219,6.188-1.314,9.01c0.278,0.13,0.56,0.259,0.814,0.396C29.383,20.849,30.571,17.269,29.659,13.877z"/>
<path fill="#FFBF8F" d="M24.171,12.161c0.844,3.139-2.109,6.708-6.595,7.971c-4.485,1.266-8.806-0.255-9.65-3.393
	c-0.845-3.141,2.108-6.709,6.594-7.972C19.005,7.502,23.327,9.022,24.171,12.161z"/>
<path fill="#E29054" d="M3.086,22.616c0,0-2.706-8.364,12.2-8.778c0,0,12.453,1.213,11.8,9.662
	C25.611,26.458,2.906,24.425,3.086,22.616z"/>
<path fill="#FFCCA9" d="M4.23,22.282c0,0-2.432-7.514,10.957-7.886c0,0,11.184,1.089,10.599,8.679
	C24.46,25.733,4.068,23.906,4.23,22.282z"/>
<path fill="#FFBF8F" d="M6.396,21.72c0,0-1.96-6.06,8.838-6.36c0,0,9.021,0.879,8.549,7.001C22.714,24.502,6.265,23.03,6.396,21.72z
	"/>
<ellipse transform="matrix(0.9993 0.0369 -0.0369 0.9993 0.6317 -0.5122)" fill="#FFE7D7" cx="14.196" cy="16.862" rx="1.191" ry="0.813"/>
<path fill="#FFE7D7" d="M9.246,20.729c-0.02,0.536-0.67,0.949-1.462,0.921c-0.787-0.03-1.408-0.489-1.388-1.026
	c0.02-0.538,0.673-0.948,1.46-0.92C8.647,19.732,9.266,20.19,9.246,20.729z"/>
<path fill="#FFE7D7" d="M14.578,20.303c-0.013,0.342-0.43,0.605-0.937,0.586c-0.504-0.018-0.902-0.311-0.89-0.654
	c0.013-0.346,0.432-0.609,0.936-0.591C14.194,19.662,14.591,19.956,14.578,20.303z"/>
<path fill="#FFE7D7" d="M21.724,21.439c-0.021,0.55-0.688,0.972-1.501,0.941c-0.809-0.029-1.447-0.499-1.428-1.05
	c0.021-0.555,0.693-0.976,1.501-0.945C21.109,20.415,21.744,20.883,21.724,21.439z"/>
<path fill="#FFE7D7" d="M19.561,18.904c-0.013,0.343-0.429,0.608-0.938,0.59c-0.502-0.02-0.9-0.313-0.887-0.657
	c0.013-0.348,0.431-0.607,0.934-0.59C19.178,18.267,19.573,18.558,19.561,18.904z"/>
<path fill="#FFE7D7" d="M19.263,23.037c-0.011,0.344-0.43,0.607-0.937,0.589c-0.504-0.019-0.899-0.313-0.888-0.657
	c0.012-0.346,0.43-0.607,0.934-0.59C18.879,22.397,19.276,22.69,19.263,23.037z"/>
<path fill="#895547" d="M11.352,8.526c0,0,6.604-1.595,13.395,7.203C24.747,15.729,17.837,10.517,11.352,8.526z"/>
<path fill="#895547" d="M9.502,12.948c0,0,4.131-5.395,14.944-2.821C24.446,10.127,15.795,10.415,9.502,12.948z"/>
</svg>
