<?xml version="1.0" encoding="utf-8"?>
<!-- Generator: Adobe Illustrator 16.0.0, SVG Export Plug-In . SVG Version: 6.00 Build 0)  -->
<!DOCTYPE svg PUBLIC "-//W3C//DTD SVG 1.1//EN" "http://www.w3.org/Graphics/SVG/1.1/DTD/svg11.dtd">
<svg version="1.1" id="Layer_1" xmlns="http://www.w3.org/2000/svg" xmlns:xlink="http://www.w3.org/1999/xlink" x="0px" y="0px"
	 width="32px" height="32px" viewBox="0 0 32 32" enable-background="new 0 0 32 32" xml:space="preserve">
<path fill="#ED3A3A" d="M25.742,14.445c0.001-0.185-0.007-0.324-0.019-0.425c0.006-0.08,0.021-0.158,0.021-0.238
	c0-3.143-4.169-5.689-9.315-5.689c-5.145,0-9.315,2.547-9.315,5.689c0,0.043,0.009,0.084,0.011,0.126
	c-0.035,0.196-0.072,0.639,0.033,1.542c0.003,0.028,0.006,0.044,0.009,0.068c0.417,6.648,2.923,10.526,5.232,12.731h-0.005
	c0,0,2.336,2.876,4.035,2.665c1.7-0.21,4.011-2.665,4.011-2.665h-0.005c2.262-2.176,4.717-5.975,5.182-12.461
	c0.011,0.011,0.029-0.084,0.059-0.339c0.051-0.436,0.066-0.756,0.067-1.003h0.002C25.743,14.446,25.743,14.446,25.742,14.445z
	 M16.397,23.258l-0.001-0.232h0.003L16.397,23.258z"/>
<path opacity="0.7" fill="#F28686" d="M24.67,16.762c-0.194,1.854-0.712,3.316-1.157,3.272c-0.447-0.05-0.651-1.588-0.459-3.44
	c0.193-1.85,0.712-3.312,1.158-3.269C24.657,13.371,24.862,14.912,24.67,16.762z"/>
<ellipse transform="matrix(0.9946 0.1035 -0.1035 0.9946 1.8405 -2.3917)" opacity="0.7" fill="#F7A6A6" cx="23.974" cy="16.545" rx="0.5" ry="2.078"/>
<g>
	<polygon fill="#C92B2B" points="18.065,22.245 18.062,22.245 18.063,22.479 	"/>
	<path fill="#C92B2B" d="M18.096,30.136c-1.699,0.21-4.037-2.666-4.037-2.666h0.006c-2.432-2.321-5.085-6.491-5.286-13.803
		c0,0,0.022-0.029,0.051-0.075c-0.032-0.193-0.051-0.391-0.051-0.59c0-1.596,1.079-3.035,2.811-4.068
		c-2.656,1.002-4.432,2.791-4.432,4.839c0,0.2,0.019,0.396,0.049,0.59c-0.028,0.046-0.049,0.076-0.049,0.076
		c0.199,7.311,2.854,11.48,5.285,13.801h-0.006c0,0,2.337,2.877,4.037,2.667c0.585-0.073,1.241-0.417,1.852-0.831
		C18.249,30.093,18.169,30.127,18.096,30.136z"/>
</g>
<path fill="#72AF4A" d="M16.149,9.602c-0.528-5.812-4.587-4.812-5.865-5.021L10.08,4.389c0,0,0.021,0.061,0.061,0.167
	c-0.062-0.007-0.097-0.011-0.097-0.011l0.139,0.126C10.729,6.146,11.642,10.706,16.149,9.602L16.149,9.602z"/>
<path fill="#669E41" d="M17.152,10.387c3.091-4.948-0.746-6.605-1.638-7.544l-0.047-0.279c0,0-0.02,0.062-0.053,0.171
	c-0.045-0.044-0.07-0.067-0.07-0.067l0.033,0.185C14.924,4.359,12.894,8.54,17.152,10.387L17.152,10.387z"/>
<path fill="#72AF4A" d="M17.069,8.806c5.818,0.434,5.501-3.731,5.918-4.959l0.223-0.172c0,0-0.062,0.011-0.175,0.032
	c0.019-0.059,0.027-0.093,0.027-0.093l-0.146,0.115C21.369,4.026,16.723,4.177,17.069,8.806L17.069,8.806z"/>
<path fill="#426625" d="M12.487,1.406L12.487,1.406c-0.039-0.175-0.484-0.229-1.001-0.135c-0.523,0.101-0.919,0.315-0.886,0.489l0,0
	l0,0l0,0c-0.001,0.008,0.018,0.006,0.017,0.01c6.629,3.271,5.496,10.085,5.496,10.085c0.458-0.485,0.773-0.987,0.982-1.488
	C18.968,5.762,11.357,0.735,12.487,1.406z"/>
<ellipse fill="#9B2626" cx="13.026" cy="18.404" rx="0.518" ry="2"/>
<ellipse fill="#9B2626" cx="14.514" cy="22.965" rx="0.518" ry="2.001"/>
<ellipse fill="#9B2626" cx="19.148" cy="22.965" rx="0.518" ry="2.001"/>
<ellipse fill="#9B2626" cx="16.654" cy="19.543" rx="0.518" ry="2"/>
<ellipse fill="#9B2626" cx="16.654" cy="26.09" rx="0.518" ry="2.001"/>
<ellipse fill="#9B2626" cx="20.594" cy="18.404" rx="0.475" ry="2.005"/>
<path fill="#85D15D" d="M27.217,12.405c-0.964-1.99-2.725-7.905-9.638-5.806c1.213,7.812,7.498,5.898,9.511,6.005l0.295,0.208
	C27.322,12.679,27.266,12.544,27.217,12.405z"/>
<path fill="#85D15D" d="M6.23,13.16c2.21-0.065,8.328,0.755,9.244-6.414c-7.621-2.095-8.452,4.423-9.373,6.215L5.79,13.146
	C5.938,13.144,6.083,13.147,6.23,13.16z"/>
<path fill="#85D15D" d="M15.558,17.576c1.408-1.706,6.055-5.77,1.267-11.18c-6.598,4.354-2.241,9.271-1.501,11.146l-0.066,0.356
	C15.353,17.784,15.452,17.678,15.558,17.576z"/>
</svg>
