<?xml version="1.0" encoding="utf-8"?>
<!-- Generator: Adobe Illustrator 16.0.0, SVG Export Plug-In . SVG Version: 6.00 Build 0)  -->
<!DOCTYPE svg PUBLIC "-//W3C//DTD SVG 1.1//EN" "http://www.w3.org/Graphics/SVG/1.1/DTD/svg11.dtd">
<svg version="1.1" id="Layer_1" xmlns="http://www.w3.org/2000/svg" xmlns:xlink="http://www.w3.org/1999/xlink" x="0px" y="0px"
	 width="32px" height="32px" viewBox="0 0 32 32" enable-background="new 0 0 32 32" xml:space="preserve">
<path fill="none" stroke="#82593A" stroke-width="0.5" stroke-miterlimit="10" d="M17.872,18.932
	c-6.794,0-12.292-7.463-12.292-16.688"/>
<path fill="none" stroke="#82593A" stroke-width="0.5" stroke-miterlimit="10" d="M27.251,30.903c0-6.616-4.381-11.972-9.794-11.972
	"/>
<path fill="none" stroke="#82593A" stroke-width="0.5" stroke-miterlimit="10" d="M27.358,30.995
	c3.853-4.918-2.646-16.43-14.528-25.741"/>
<path fill="#648E4C" d="M20.691,9.688l-0.009-0.061c0,0-0.009,0.02-0.022,0.048c-0.005-0.002-0.016-0.006-0.016-0.006l0.002,0.036
	c-0.118,0.263-0.541,1.257-0.649,2.152c-0.818-0.194-1.784-0.042-2.024,0.005L17.92,11.84c0,0,0.005,0.011,0.013,0.03
	c-0.008,0.004-0.021,0.005-0.021,0.005l0.027,0.012c0.134,0.292,1.001,2.006,2.772,1.504c0.119,0.026,0.25,0.041,0.405,0.03
	l0.005,0.045c0.014-0.017,0.019-0.03,0.028-0.043c0.002,0,0.009-0.002,0.011-0.002v-0.013C22.964,10.81,21.005,9.826,20.691,9.688z"
	/>
<path fill="#648E4C" d="M10.783,9.643c-0.001-0.005,0-0.018,0-0.018l-0.03,0.018c-0.215,0-0.881,0.014-1.558,0.131
	c0.384-0.497,0.618-1.08,0.682-1.252l0.043-0.03c0,0-0.012-0.001-0.03-0.004C9.892,8.479,9.896,8.47,9.896,8.47L9.873,8.485
	c-0.326-0.052-2.399-0.291-2.647,1.74c-1.493-1.12-3.16-0.317-3.464-0.153l-0.04-0.01c0,0,0.013,0.014,0.022,0.021
	c-0.021,0.012-0.034,0.021-0.034,0.021l0.072,0.02c0.191,0.207,0.862,0.896,1.664,1.411c-0.588,0.487-0.893,1.254-0.964,1.454
	l-0.051,0.026c0,0,0.015,0.005,0.039,0.01c-0.002,0.004-0.006,0.017-0.006,0.017l0.027-0.013c0.371,0.082,2.521,0.482,3.005-0.945
	c0.284-0.079,0.548-0.248,0.776-0.545c2.383,0.148,2.508-1.577,2.513-1.866l0.051-0.03C10.834,9.643,10.814,9.643,10.783,9.643z
	 M7.599,10.5c-0.007,0.01-0.013,0.021-0.02,0.031c-0.018-0.018-0.036-0.032-0.054-0.05C7.55,10.491,7.574,10.493,7.599,10.5z"/>
<path fill="#648E4C" d="M26.059,14.641c-0.001-0.003,0-0.017,0-0.017l-0.027,0.017c-0.191,0-0.786,0.013-1.391,0.117
	c0.343-0.443,0.553-0.965,0.609-1.118l0.039-0.027c0,0-0.011-0.001-0.027-0.003c0.002-0.008,0.006-0.017,0.006-0.017l-0.021,0.015
	c-0.292-0.047-2.143-0.261-2.364,1.554c-1.334-1.001-2.822-0.282-3.095-0.136l-0.036-0.009c0,0,0.012,0.011,0.02,0.018
	c-0.019,0.012-0.031,0.02-0.031,0.02l0.064,0.018c0.17,0.185,0.77,0.799,1.486,1.261c-0.525,0.436-0.798,1.119-0.862,1.299
	l-0.044,0.023c0,0,0.013,0.003,0.034,0.009c-0.001,0.003-0.005,0.014-0.005,0.014l0.024-0.011c0.332,0.073,2.251,0.43,2.684-0.845
	c0.259-0.071,0.501-0.226,0.708-0.502c2.095,0.114,2.226-1.395,2.23-1.651l0.045-0.027C26.104,14.641,26.086,14.641,26.059,14.641z
	 M23.214,15.406c-0.006,0.009-0.012,0.02-0.018,0.028c-0.016-0.015-0.032-0.029-0.049-0.043
	C23.17,15.399,23.192,15.401,23.214,15.406z"/>
<path fill="#648E4C" d="M14.679,15.592c0-0.008,0-0.021,0-0.021l-0.019,0.022c-0.215,0.04-1.107,0.238-1.682,0.83
	c-0.104-0.458-0.28-0.853-0.341-0.978l0.007-0.047c0,0-0.009,0.005-0.022,0.016c-0.002-0.004-0.006-0.015-0.006-0.015l-0.005,0.025
	c-0.2,0.151-1.26,1.04-0.862,2.175c-0.785,0.349-1.174,1.325-1.252,1.543l-0.045,0.023c0,0,0.013,0.003,0.035,0.009
	c-0.002,0.005-0.006,0.016-0.006,0.016l0.025-0.011c0.329,0.071,2.223,0.428,2.681-0.804c1.425-0.223,1.495-2.373,1.494-2.747
	l0.033-0.045C14.712,15.585,14.701,15.589,14.679,15.592z"/>
<path fill="#648E4C" d="M11.883,12.883c0-0.007,0.001-0.019,0.001-0.019l-0.019,0.021c-0.299,0.035-2.037,0.313-2.107,1.9
	c-1.047-1.007-2.621-0.085-2.9,0.094l-0.057-0.011c0,0,0.01,0.012,0.025,0.033c-0.004,0.001-0.015,0.007-0.015,0.007l0.029,0.007
	c0.273,0.329,2.083,2.375,3.417,0.673l0.039,0.007c-0.005-0.013-0.011-0.02-0.018-0.031c0.004-0.003,0.007-0.007,0.008-0.01
	l-0.011-0.002c-0.019-0.043-0.041-0.075-0.061-0.117c1.385-0.01,1.632-2.151,1.664-2.516l0.034-0.039
	C11.914,12.88,11.901,12.881,11.883,12.883z"/>
<path fill="#648E4C" d="M17.935,16.819c-0.004-0.004-0.011-0.011-0.011-0.011v0.023c-0.167,0.218-1.101,1.528-0.16,2.53
	c-1.292,0.083-1.722,1.674-1.788,1.964l-0.043,0.03c0,0,0.014,0,0.037,0.004c-0.002,0.004-0.006,0.013-0.006,0.013l0.024-0.015
	c0.378,0.02,2.803,0.062,2.593-1.842l0.03-0.021c-0.012-0.004-0.02-0.004-0.031-0.006c0-0.006,0-0.009-0.001-0.012l-0.008,0.007
	c-0.039-0.015-0.074-0.021-0.112-0.031c0.876-0.917-0.297-2.369-0.505-2.608l-0.001-0.046
	C17.953,16.799,17.946,16.808,17.935,16.819z"/>
<path fill="#648E4C" d="M27.444,17.716c0-0.005,0.001-0.016,0.001-0.016l-0.017,0.017c-0.255,0.029-1.738,0.251-1.798,1.519
	c-0.894-0.804-2.236-0.068-2.474,0.074l-0.049-0.008c0,0,0.009,0.009,0.021,0.025c-0.003,0.001-0.013,0.006-0.013,0.006l0.025,0.006
	c0.232,0.264,1.776,1.896,2.916,0.537l0.032,0.007c-0.004-0.012-0.009-0.017-0.014-0.026c0.004-0.002,0.005-0.005,0.007-0.008
	l-0.01-0.001c-0.016-0.034-0.035-0.061-0.052-0.094c1.182-0.009,1.394-1.718,1.419-2.009l0.03-0.03
	C27.47,17.715,27.46,17.716,27.444,17.716z"/>
<path fill="#648E4C" d="M8.979,5.473c0-0.009,0.002-0.02,0.002-0.02L8.953,5.474C8.688,5.476,7.695,5.508,6.869,5.855
	c0.133-0.509,0.156-0.991,0.161-1.146L7.06,4.666c0,0-0.011,0.002-0.03,0.005c0-0.007,0-0.019,0-0.019L7.013,4.673
	c-0.268,0.049-1.688,0.371-1.947,1.6C4.135,5.885,3.019,5.801,2.724,5.785L2.663,5.746c0,0,0.002,0.013,0.006,0.037
	C2.663,5.782,2.644,5.78,2.644,5.78l0.03,0.026c0.078,0.415,0.694,3.074,3.649,2.527l0.042,0.029C6.37,8.35,6.367,8.34,6.369,8.328
	c0.007,0.001,0.013-0.002,0.016-0.004l-0.011-0.01c0.015-0.063,0.016-0.12,0.024-0.182C8.595,8.304,8.935,5.92,8.975,5.514
	l0.052-0.04C9.027,5.474,9.009,5.474,8.979,5.473z"/>
<path fill="#648E4C" d="M19.487,7.202l0.022-0.058c0,0-0.017,0.012-0.042,0.03c-0.004-0.003-0.01-0.012-0.01-0.012L19.44,7.194
	c-0.209,0.151-0.923,0.691-1.458,1.322c-0.168-0.562-0.457-1.05-0.548-1.194l0.001-0.053c0,0-0.008,0.011-0.022,0.02
	c-0.004-0.005-0.009-0.015-0.009-0.015l-0.003,0.027C17.2,7.494,16.128,8.594,16.68,9.797c-0.854,0.097-1.75,0.461-1.984,0.562
	l-0.062-0.002c0,0,0.008,0.008,0.019,0.021c-0.005,0.002-0.021,0.009-0.021,0.009l0.031,0.005c0.203,0.243,1.585,1.745,3.693,0.277
	l0.042,0.006c-0.001-0.012-0.006-0.017-0.009-0.026c0.006-0.003,0.009-0.005,0.011-0.007l-0.011-0.002
	c-0.01-0.052-0.031-0.093-0.046-0.139C20.796,9.166,19.683,7.468,19.487,7.202z"/>
<path fill="#648E4C" d="M7.703,1.971C7.704,1.968,7.708,1.96,7.708,1.96L7.687,1.968C7.492,1.923,6.634,1.747,6.024,1.989
	C6.001,1.438,5.652,0.902,5.563,0.775l0.004-0.037c0,0-0.007,0.006-0.019,0.018C5.547,0.751,5.542,0.744,5.542,0.744l-0.003,0.02
	c-0.117,0.111-0.6,0.602-0.708,1.167c-0.413-0.064-0.821,0.038-0.934,0.07L3.865,1.983c0,0,0.003,0.009,0.009,0.024
	c-0.004,0.001-0.01,0.003-0.01,0.003L3.88,2.02c0.045,0.104,0.204,0.448,0.456,0.744c-0.55,0.238-0.823,0.923-0.877,1.074
	L3.428,3.854c0,0,0.009,0.002,0.024,0.007c0,0.002-0.004,0.01-0.004,0.01l0.017-0.008C3.699,3.916,5.07,4.164,5.338,3.223
	c0.066-0.012,0.134-0.03,0.204-0.059C5.558,3.157,5.574,3.144,5.59,3.137c1.423,0.606,2.018-0.893,2.105-1.141l0.037-0.017
	C7.732,1.979,7.72,1.977,7.703,1.971z"/>
<path fill="#648E4C" d="M30.323,23.014c0.001-0.004,0.007-0.01,0.007-0.01l-0.023,0.002c-0.183-0.117-0.989-0.608-1.698-0.585
	c0.178-0.569,0.019-1.241-0.026-1.401l0.017-0.038c0,0-0.009,0.004-0.024,0.01c-0.001-0.004-0.003-0.014-0.003-0.014l-0.01,0.02
	c-0.159,0.07-0.83,0.394-1.146,0.93c-0.396-0.216-0.848-0.262-0.975-0.27l-0.026-0.029c0,0,0.002,0.01,0.001,0.026
	c-0.003-0.001-0.01-0.002-0.01-0.002l0.011,0.018c0.008,0.122,0.044,0.529,0.193,0.923c-0.646,0.041-1.173,0.637-1.283,0.772
	l-0.039,0.006c0,0,0.009,0.003,0.021,0.015c0,0.002-0.007,0.009-0.007,0.009l0.02-0.002c0.22,0.139,1.522,0.893,2.139,0.031
	c0.072,0.013,0.147,0.02,0.229,0.014c0.017,0.001,0.04-0.008,0.057-0.008c1.225,1.135,2.378-0.173,2.557-0.395l0.044-0.002
	C30.349,23.033,30.338,23.027,30.323,23.014z"/>
<path fill="#648E4C" d="M15.124,3.99l0.027-0.039c0,0-0.012,0.004-0.032,0.01c-0.002-0.004-0.002-0.014-0.002-0.014L15.1,3.967
	c-0.224,0.07-1.192,0.401-1.658,1.008c-0.348-0.539-1.006-0.876-1.171-0.949l-0.018-0.04c0,0-0.003,0.01-0.009,0.027
	C12.24,4.011,12.23,4.006,12.23,4.006l0.009,0.022c-0.042,0.15-0.184,0.708-0.104,1.254c-0.783,0.107-1.426,0.737-1.573,0.892
	l-0.054,0.001c0,0,0.013,0.01,0.03,0.022c-0.004,0.004-0.011,0.014-0.011,0.014l0.029,0.001c0.17,0.125,0.836,0.584,1.542,0.74
	c-0.255,0.544-0.158,1.217-0.127,1.38L11.95,8.367c0,0,0.011-0.002,0.026-0.008c0,0.002,0.003,0.012,0.003,0.012l0.012-0.018
	c0.266-0.087,1.802-0.654,1.488-1.767c0.034-0.038,0.074-0.058,0.105-0.1c0.026-0.035,0.046-0.085,0.071-0.126
	C15.457,6.141,15.185,4.293,15.124,3.99z"/>
<path fill="#648E4C" d="M23.008,18.345l0.019-0.044c0,0-0.014,0.01-0.034,0.023c-0.002-0.003-0.008-0.01-0.008-0.01l-0.012,0.025
	c-0.278,0.201-1.703,1.283-1.602,2.092c-1.232,0.061-1.726,1.505-1.808,1.779l-0.048,0.025c0,0,0.015,0.002,0.037,0.007
	c-0.002,0.004-0.004,0.015-0.004,0.015l0.026-0.012c0.366,0.063,2.58,0.393,2.83-1.113c0.021-0.125,0.028-0.263,0.02-0.413
	C23.925,19.719,23.152,18.539,23.008,18.345z"/>
<path fill="#648E4C" d="M4.908,1.648"/>
</svg>
