<?xml version="1.0" encoding="utf-8"?>
<!-- Generator: Adobe Illustrator 16.0.0, SVG Export Plug-In . SVG Version: 6.00 Build 0)  -->
<!DOCTYPE svg PUBLIC "-//W3C//DTD SVG 1.1//EN" "http://www.w3.org/Graphics/SVG/1.1/DTD/svg11.dtd">
<svg version="1.1" id="Layer_1" xmlns="http://www.w3.org/2000/svg" xmlns:xlink="http://www.w3.org/1999/xlink" x="0px" y="0px"
	 width="32px" height="32px" viewBox="0 0 32 32" enable-background="new 0 0 32 32" xml:space="preserve">
<path fill="#40592C" d="M1.666,9.2c0,0,0.014,0.046,0.04,0.13C1.669,9.332,1.599,9.338,1.599,9.338L1.731,9.4
	c0.498,1.417,4.133,10.405,15.643,7.277l0.182,0.085c0.006-0.048,0-0.084,0.005-0.126c0.02-0.005,0.039-0.009,0.06-0.015
	l-0.058-0.025C18.69,8.633,4.184,9.183,1.921,9.317L1.666,9.2z"/>
<path fill="#7B7C3E" d="M10.785,3.399c0,0-0.014,0.037-0.035,0.104c-0.029-0.02-0.081-0.055-0.081-0.055l0.062,0.113
	C10.381,4.73,8.5,12.409,18.274,16.887l0.087,0.156c0.027-0.027,0.042-0.053,0.066-0.077c0.017,0.008,0.033,0.017,0.051,0.025
	l-0.029-0.048c4.772-4.371-5.859-12.146-7.541-13.329L10.785,3.399z"/>
<path fill="#9E7F3B" d="M23.298,2.289c0,0-0.039,0.014-0.105,0.039c-0.003-0.032-0.01-0.092-0.01-0.092l-0.048,0.115
	c-1.157,0.479-8.483,3.917-5.424,13.604l-0.063,0.157c0.04,0.004,0.07-0.002,0.106,0c0.004,0.018,0.008,0.033,0.014,0.052
	l0.019-0.051c6.665,0.659,5.628-11.681,5.426-13.604L23.298,2.289z"/>
<line fill="none" stroke="#C6BDB5" stroke-width="3" stroke-miterlimit="10" x1="7.213" y1="26.603" x2="28.809" y2="14.068"/>
<ellipse transform="matrix(0.8512 -0.5248 0.5248 0.8512 -12.8852 7.7397)" fill="#494645" cx="7.207" cy="26.594" rx="0.716" ry="1.533"/>
<ellipse transform="matrix(0.851 -0.5252 0.5252 0.851 -3.0945 17.2565)" fill="#C67844" cx="28.86" cy="14.081" rx="0.754" ry="1.521"/>
<path fill="#C67844" d="M29.725,15.335l-1.781-2.473l-8.305,4.819c0.33-0.204,0.996,0.193,1.488,0.887
	c0.495,0.694,0.63,1.422,0.302,1.625L29.725,15.335z"/>
</svg>
