<?xml version="1.0" encoding="utf-8"?>
<!-- Generator: Adobe Illustrator 16.0.0, SVG Export Plug-In . SVG Version: 6.00 Build 0)  -->
<!DOCTYPE svg PUBLIC "-//W3C//DTD SVG 1.1//EN" "http://www.w3.org/Graphics/SVG/1.1/DTD/svg11.dtd">
<svg version="1.1" id="Layer_1" xmlns="http://www.w3.org/2000/svg" xmlns:xlink="http://www.w3.org/1999/xlink" x="0px" y="0px"
	 width="32px" height="32px" viewBox="0 0 32 32" enable-background="new 0 0 32 32" xml:space="preserve">
<ellipse fill="#EA3518" cx="16.187" cy="16.825" rx="13.535" ry="11.367"/>
<path fill="#F46151" d="M18.436,7.354c-3.399,0,4.952,7.508,4.952,12.487c0,1.856-0.613,3.581-1.66,5.014
	c3.802-1.244,6.528-4.568,6.528-8.485C28.256,11.39,23.858,7.354,18.436,7.354z"/>
<path fill="#C43122" d="M18.504,26.173c-7.475,0-13.535-5.089-13.535-11.367c0-2.568,1.026-4.93,2.736-6.833
	c-3.078,2.084-5.054,5.272-5.054,8.852c0,6.278,6.06,11.367,13.535,11.367c4.416,0,8.327-1.785,10.797-4.534
	C24.664,25.229,21.718,26.173,18.504,26.173z"/>
<path fill="#2A932A" d="M9.003,7.14C9.001,7.15,8.984,7.167,8.984,7.167L9.05,7.172c0.337,0.232,1.855,0.331,3.049,0.868
	c0.888,1.121-2.662,1.715-2.959,1.928L9.037,9.973c0,0,0.019,0.015,0.043,0.039c-0.012,0.01-0.026,0.024-0.026,0.024l0.051-0.002
	c0.451,0.438,3.424,3.074,6.129-0.012c1.053,3.461,4.577,3.939,5.236,3.996l0.056,0.06c0,0-0.008-0.037-0.012-0.058
	c0.044,0.003,0.078,0.002,0.078,0.002l-0.093-0.111c-0.063-0.55-2.696-4.049-1.235-6.029c1.474-0.169,3.071,0.796,3.413,0.542
	l0.108,0.011c0,0-0.017-0.023-0.049-0.057c0.007-0.006,0.03-0.021,0.03-0.021l-0.059-0.008c-0.485-0.536-4.763-3.436-7.148-1.602
	c-0.535-0.176,0.231-0.268-0.466-0.024c-3.556-2.82-5.719-0.105-6.058,0.367L8.925,7.085C8.925,7.085,8.954,7.106,9.003,7.14z
	 M14.96,9.163c0.021-0.007,0.046-0.021,0.067-0.028c0.007,0.049,0.019,0.092,0.026,0.141C15.026,9.231,14.99,9.202,14.96,9.163z"/>
<path fill="#3A7514" d="M17.023,3.651l0.008,0c-0.076-0.097,0.567-0.236,1.419-0.32c0.849-0.085,1.609-0.083,1.681,0.009l0,0l0,0
	l0,0c0.011,0.003-0.023,0.009-0.02,0.012c-7.719,3.272-3.077,6.004-3.748,5.814C10.299,7.412,18.266,3.038,17.023,3.651z"/>
</svg>
