<?xml version="1.0" encoding="utf-8"?>
<!-- Generator: Adobe Illustrator 16.0.0, SVG Export Plug-In . SVG Version: 6.00 Build 0)  -->
<!DOCTYPE svg PUBLIC "-//W3C//DTD SVG 1.1//EN" "http://www.w3.org/Graphics/SVG/1.1/DTD/svg11.dtd">
<svg version="1.1" id="Layer_1" xmlns="http://www.w3.org/2000/svg" xmlns:xlink="http://www.w3.org/1999/xlink" x="0px" y="0px"
	 width="32px" height="32px" viewBox="0 0 32 32" enable-background="new 0 0 32 32" xml:space="preserve">
<path fill="#543111" d="M3.711,8.447c0,0,4.248-6.052,11.894-4.853c7.647,1.196,4.585,4.539,6.29,5.516
	c1.705,0.977-0.875,7.933-0.875,7.933s-0.972,2.599-4.243,3.133c-3.272,0.536-7.466-0.661-7.461-3.578
	c-6.009,0.888-6.522-1.543-6.472-2.24C2.896,13.658-0.819,11.547,3.711,8.447z"/>
<path fill="#603818" d="M3.349,9.557c0,0,2.482-3.536,6.95-2.835c4.469,0.698,2.68,2.652,3.676,3.223
	c0.997,0.57-0.511,4.636-0.511,4.636s-0.567,1.519-2.479,1.83c-1.912,0.313-4.363-0.386-4.36-2.091
	c-3.511,0.519-3.811-0.901-3.782-1.309C2.873,12.602,0.702,11.368,3.349,9.557z"/>
<path fill="#724729" d="M6.57,7.696c0,0,1.279-2.149,3.255-1.952c1.977,0.196,1.082,1.402,1.503,1.685
	c0.422,0.282-0.444,2.689-0.444,2.689s-0.325,0.899-1.199,1.168c-0.874,0.269-1.943-0.021-1.863-1.002
	c-1.603,0.46-1.672-0.343-1.64-0.577C6.215,9.469,5.297,8.86,6.57,7.696z"/>
<path fill="#603818" d="M16.716,4.832c0,0,1.659-0.296,2.43,0.797c0.772,1.094-0.237,1.17-0.195,1.509
	c0.042,0.339-1.565,0.959-1.565,0.959s-0.601,0.231-1.123-0.095s-0.846-0.999-0.312-1.391c-0.941-0.612-0.563-1.002-0.429-1.089
	C15.657,5.434,15.562,4.697,16.716,4.832z"/>
<path fill="#845429" d="M9.583,19.632c0,0,2.352-7.735,10.706-9.097s6.312,3.155,8.416,3.589s1.794,8.54,1.794,8.54
	s-0.124,3.032-3.341,4.703s-7.982,1.856-8.973-1.176c-5.941,2.97-7.302,0.618-7.488-0.124S5.932,24.396,9.583,19.632z"/>
<path fill="#603818" d="M9.557,20.988c0,0,2.309-5.91,10.511-6.951c8.203-1.04,6.198,2.411,8.264,2.742
	c2.066,0.332,1.761,6.525,1.761,6.525s-0.121,2.317-3.281,3.595c-3.159,1.277-7.837,1.418-8.81-0.898
	c-5.833,2.269-7.169,0.473-7.352-0.095S5.972,24.63,9.557,20.988z"/>
<path fill="#AA7D5B" d="M10.322,20.976c0,0,2.125-5.439,9.673-6.397c7.548-0.957,5.703,2.219,7.604,2.523
	c1.902,0.306,1.621,6.005,1.621,6.005s-0.112,2.133-3.019,3.309c-2.907,1.175-7.212,1.305-8.107-0.827
	c-5.367,2.088-6.597,0.435-6.765-0.087C11.161,24.979,7.023,24.326,10.322,20.976z"/>
<g>
	<path fill="none" stroke="#EDC1A4" stroke-width="0.4" stroke-miterlimit="10" d="M15.628,19.842c0-2.625,2.152-4.75,4.812-4.75"/>
	<path fill="none" stroke="#EDC1A4" stroke-width="0.4" stroke-miterlimit="10" d="M17.385,22.691c0,1.514,3.889,2.738,8.694,2.738"
		/>
	<path fill="none" stroke="#EDC1A4" stroke-width="0.4" stroke-miterlimit="10" d="M18.957,22.583c0-1.165,4.054-2.107,9.064-2.107"
		/>
	<path fill="none" stroke="#EDC1A4" stroke-width="0.4" stroke-miterlimit="10" d="M10.253,22.592c0,1.624,2.823,2.938,6.312,2.938"
		/>
	<path fill="none" stroke="#EDC1A4" stroke-width="0.4" stroke-miterlimit="10" d="M16.273,17.467c0,0.622,4.883,1.125,10.917,1.125
		"/>
	<path fill="none" stroke="#EDC1A4" stroke-width="0.4" stroke-miterlimit="10" d="M23.489,20.476c0,1.516,1.376,2.741,3.077,2.741"
		/>
	<path fill="none" stroke="#EDC1A4" stroke-width="0.4" stroke-miterlimit="10" d="M11.969,24.604c0-2.281,1.637-4.128,3.66-4.128"
		/>
	<path fill="none" stroke="#EDC1A4" stroke-width="0.4" stroke-miterlimit="10" d="M13.798,21.031c0,1.208,1.49,2.186,3.33,2.186"/>
	<path fill="none" stroke="#EDC1A4" stroke-width="0.4" stroke-miterlimit="10" d="M14.798,22.592c0-0.862,1.657-1.561,3.706-1.561"
		/>
	<path fill="none" stroke="#EDC1A4" stroke-width="0.4" stroke-miterlimit="10" d="M13.502,18.217c0-0.829,1.902-1.5,4.252-1.5"/>
</g>
<path fill="#724729" d="M17.689,6.296c0,0,0.497-0.834,1.263-0.757c0.767,0.076,0.419,0.544,0.583,0.653s-0.172,1.043-0.172,1.043
	s-0.125,0.35-0.465,0.453c-0.339,0.104-0.754-0.008-0.723-0.388c-0.622,0.178-0.648-0.134-0.636-0.225
	C17.551,6.983,17.195,6.748,17.689,6.296z"/>
<path fill="#724729" d="M15.938,12.266c0,0,0.609-0.862,1.71-0.686c1.102,0.174,0.662,0.649,0.908,0.789
	c0.246,0.141-0.123,1.132-0.123,1.132s-0.137,0.371-0.609,0.445c-0.47,0.075-1.075-0.098-1.076-0.514
	c-0.865,0.123-0.939-0.224-0.933-0.322C15.823,13.009,15.287,12.707,15.938,12.266z"/>
<path fill="#724729" d="M21.149,11.189c0,0,0.847-0.736,2.941-0.287c2.095,0.449,1.436,0.83,1.936,1.033
	c0.5,0.205,0.141,1.133,0.141,1.133s-0.134,0.347-0.982,0.308c-0.844-0.037-2.019-0.362-2.155-0.789
	c-1.56-0.085-1.812-0.46-1.832-0.561C21.179,11.925,20.09,11.483,21.149,11.189z"/>
</svg>
