<?xml version="1.0" encoding="utf-8"?>
<!-- Generator: Adobe Illustrator 16.0.0, SVG Export Plug-In . SVG Version: 6.00 Build 0)  -->
<!DOCTYPE svg PUBLIC "-//W3C//DTD SVG 1.1//EN" "http://www.w3.org/Graphics/SVG/1.1/DTD/svg11.dtd">
<svg version="1.1" id="Layer_1" xmlns="http://www.w3.org/2000/svg" xmlns:xlink="http://www.w3.org/1999/xlink" x="0px" y="0px"
	 width="32px" height="32px" viewBox="0 0 32 32" enable-background="new 0 0 32 32" xml:space="preserve">
<path fill="#A8942D" d="M28.553,14.243l0.151-0.058c0,0-0.038-0.013-0.107-0.037c0.01-0.018,0.023-0.048,0.023-0.048l-0.081,0.03
	c-0.784-0.263-4.452-1.367-6.966-0.166c-0.101-2.869-2.833-5.185-3.434-5.659l-0.023-0.16c0,0-0.022,0.035-0.06,0.097
	c-0.016-0.014-0.043-0.033-0.043-0.033l0.011,0.085c-0.419,0.693-2.226,3.905-1.718,6.588c-2.654-1.114-5.909,0.413-6.592,0.762
	L9.56,15.599c0,0,0.022,0.033,0.063,0.095c-0.019,0.008-0.047,0.025-0.047,0.025l0.083,0.025c0.458,0.674,2.657,3.707,5.337,4.328
	c-1.456,2.379-0.639,5.715-0.435,6.435l-0.075,0.144c0,0,0.038-0.015,0.105-0.043c0.005,0.02,0.014,0.052,0.014,0.052l0.042-0.075
	c0.774-0.33,4.375-1.984,5.39-4.632c1.925,2.802,6.278,2.404,7.126,2.294l0.131,0.096c0,0-0.01-0.04-0.028-0.11
	c0.021-0.002,0.054-0.008,0.054-0.008l-0.069-0.051c-0.188-0.726-1.084-3.823-3.022-5.478
	C26.738,17.765,28.241,14.895,28.553,14.243z"/>
<path fill="#5B2714" d="M3.179,23.279c0,0,21.366-8.664,25.275-17.195C28.454,6.084,20.952,14.083,3.179,23.279z"/>
<path fill="#5B2714" d="M0.57,17.657c0,0,22.419-5.378,27.558-13.231C28.128,4.426,19.516,11.216,0.57,17.657z"/>
<path fill="#5B2714" d="M2.216,20.802c0,0,22.729-3.869,28.38-11.361C30.596,9.441,21.551,15.64,2.216,20.802z"/>
<path fill="#5B2714" d="M23.11,12.868c0,0-14.885,8.547-20.894,5.101C2.216,17.969,9.788,18.543,23.11,12.868z"/>
<path fill="#5B2714" d="M24.073,8.082c0,0-14.885,8.547-20.894,5.101C3.179,13.183,10.75,13.757,24.073,8.082z"/>
<path fill="#F4E04E" d="M28.044,14.414l0.143-0.055c0,0-0.036-0.012-0.102-0.035c0.01-0.017,0.022-0.046,0.022-0.046l-0.077,0.028
	c-0.741-0.249-4.211-1.293-6.589-0.157c-0.096-2.714-2.68-4.905-3.248-5.353l-0.022-0.151c0,0-0.021,0.033-0.056,0.091
	c-0.015-0.013-0.041-0.031-0.041-0.031l0.011,0.081c-0.396,0.656-2.105,3.694-1.625,6.232c-2.511-1.054-5.59,0.391-6.236,0.721
	l-0.146-0.042c0,0,0.021,0.032,0.06,0.09c-0.018,0.008-0.045,0.023-0.045,0.023l0.078,0.024c0.434,0.638,2.513,3.506,5.049,4.094
	c-1.377,2.25-0.605,5.406-0.412,6.087l-0.071,0.136c0,0,0.036-0.014,0.1-0.041c0.004,0.019,0.013,0.049,0.013,0.049l0.04-0.071
	c0.733-0.312,4.139-1.876,5.099-4.382c1.821,2.651,5.939,2.274,6.742,2.17l0.124,0.09c0,0-0.01-0.038-0.026-0.104
	c0.02-0.002,0.051-0.008,0.051-0.008l-0.065-0.048c-0.177-0.687-1.026-3.617-2.859-5.182C26.328,17.746,27.749,15.03,28.044,14.414z
	"/>
<path fill="#FFF4B3" d="M22.555,16.253l0.055-0.021c0,0-0.014-0.004-0.039-0.013c0.004-0.006,0.008-0.018,0.008-0.018l-0.029,0.011
	c-0.284-0.096-1.617-0.497-2.531-0.06c-0.037-1.042-1.029-1.884-1.248-2.056l-0.008-0.058c0,0-0.008,0.012-0.021,0.035
	c-0.006-0.005-0.016-0.012-0.016-0.012l0.004,0.031c-0.152,0.251-0.809,1.419-0.624,2.394c-0.964-0.405-2.147,0.15-2.396,0.277
	l-0.056-0.016c0,0,0.008,0.012,0.023,0.035c-0.006,0.003-0.017,0.009-0.017,0.009l0.03,0.009c0.167,0.245,0.965,1.347,1.939,1.572
	c-0.529,0.864-0.232,2.076-0.158,2.338l-0.027,0.052c0,0,0.014-0.005,0.038-0.016c0.001,0.007,0.005,0.019,0.005,0.019l0.016-0.027
	c0.281-0.12,1.589-0.721,1.958-1.683c0.699,1.019,2.281,0.874,2.589,0.833l0.047,0.035c0,0-0.003-0.014-0.01-0.04
	c0.007,0,0.02-0.002,0.02-0.002l-0.025-0.019c-0.068-0.264-0.395-1.389-1.099-1.99C21.896,17.534,22.442,16.49,22.555,16.253z"/>
<ellipse fill="#ED7D5A" cx="19.362" cy="17.656" rx="0.987" ry="1.131"/>
</svg>
