<?xml version="1.0" encoding="utf-8"?>
<!-- Generator: Adobe Illustrator 16.0.0, SVG Export Plug-In . SVG Version: 6.00 Build 0)  -->
<!DOCTYPE svg PUBLIC "-//W3C//DTD SVG 1.1//EN" "http://www.w3.org/Graphics/SVG/1.1/DTD/svg11.dtd">
<svg version="1.1" id="Layer_1" xmlns="http://www.w3.org/2000/svg" xmlns:xlink="http://www.w3.org/1999/xlink" x="0px" y="0px"
	 width="32px" height="32px" viewBox="0 0 32 32" enable-background="new 0 0 32 32" xml:space="preserve">
<path fill="#59096D" d="M4.447,12.133c0,0-1.751-12.956,11.69-8.02l-3.691,5.333L4.447,12.133z"/>
<path fill="#BC2EF6" d="M10.05,6.331c0,0,1.544-5.165,9.419-2.671c0,0,7.044,2.599,4.187,7.589c-2.857,4.991-8.25,4.305-8.25,4.305
	L10.05,6.331z"/>
<path fill="#A224DD" d="M11.355,8.519c0,0,1.104-3.692,6.734-1.909c0,0,5.037,1.857,2.994,5.426
	c-2.042,3.568-5.898,3.078-5.898,3.078L11.355,8.519z"/>
<path fill="#296829" d="M13.551,30.376c0,0,0.045-0.018,0.126-0.052c0.006,0.024,0.017,0.062,0.017,0.062l0.052-0.091
	c1.362-0.571,9.964-4.481,5.682-10.624l0.067-0.123c-0.048,0.004-0.083,0.016-0.127,0.021c-0.008-0.012-0.013-0.021-0.021-0.033
	l-0.02,0.04c-8.061,0.911-6.047,9.323-5.685,10.626L13.551,30.376z"/>
<path fill="#296829" d="M28.625,23.948c0,0-0.025-0.042-0.069-0.118c0.023-0.009,0.06-0.026,0.06-0.026l-0.097-0.037
	c-0.753-1.271-5.817-9.25-11.309-4.158l-0.131-0.048c0.01,0.046,0.027,0.079,0.04,0.122c-0.011,0.01-0.021,0.016-0.03,0.025
	l0.042,0.014c2.018,7.857,10.07,4.699,11.311,4.16L28.625,23.948z"/>
<path fill="#9D6AFC" d="M14.233,14.273c0,0,6.654-11.92,11.234-0.518C25.942,26.764,14.656,15.586,14.233,14.273z"/>
<path fill="#AF8DFA" d="M24.542,16.192c0.042,1.136-0.011,2.076-0.134,2.867c0.733-0.913,1.16-2.57,1.06-5.312
	c-4.58-11.401-11.234,0.519-11.234,0.519c0.037,0.114,0.161,0.308,0.348,0.549C16.734,11.99,21.191,7.852,24.542,16.192z"/>
<path fill="#9D6AFC" d="M14.233,14.749c0,0-3.218-15.819-10.534-2.973C0.369,24.443,14.233,14.749,14.233,14.749z"/>
<path fill="#AF8DFA" d="M4.917,14.727c4.236-7.439,7.097-5.263,8.755-2.114C12.469,8.795,9.275,1.93,3.697,11.725
	c-0.972,3.697-0.474,5.481,0.712,6.166C4.428,17.036,4.583,15.999,4.917,14.727z"/>
<path fill="#B3A0FD" d="M13.221,13.738c0,0-10.099,4.522-6.14,10.078c4.47,5.554,11.238,0.445,11.238,0.445
	S24.98,20.774,13.221,13.738z"/>
<path fill="#9D6AFC" d="M12.88,14.042c0,0-6.686,2.995-4.064,6.673c2.958,3.678,7.44,0.295,7.44,0.295S20.665,18.701,12.88,14.042z"
	/>
<path fill="#542189" d="M18.719,14.37c-1.541-4.132-4.453-0.709-4.834-0.234c-0.038-0.025-0.076-0.05-0.114-0.074
	c-0.251-1.165-1.365-5.1-4.414-1.162c-0.853,2.185,0.09,2.636,1.326,2.504c-0.34,0.34,0.659,3.611,1.342,4.586
	c1.652,2.079,4.608-2.636,4.079-3.774C17.336,16.9,18.63,16.934,18.719,14.37z"/>
<path fill="#3C0C5F" d="M17,14.021c-0.994-2.665-2.874-0.457-3.119-0.151c-0.024-0.016-0.049-0.031-0.074-0.048
	c-0.162-0.751-0.88-3.29-2.848-0.749c-0.55,1.409,0.058,1.7,0.855,1.615c-0.22,0.219-0.15,1.904,0.291,2.533
	c1.066,1.341,1.727,1.233,2,0.749c0.822-0.284,1.548-2.024,1.207-2.759C16.108,15.654,16.942,15.676,17,14.021z"/>
<ellipse fill="#E4AE0D" cx="13.81" cy="13.738" rx="1.784" ry="1.397"/>
</svg>
