<?xml version="1.0" encoding="utf-8"?>
<!-- Generator: Adobe Illustrator 16.0.0, SVG Export Plug-In . SVG Version: 6.00 Build 0)  -->
<!DOCTYPE svg PUBLIC "-//W3C//DTD SVG 1.1//EN" "http://www.w3.org/Graphics/SVG/1.1/DTD/svg11.dtd">
<svg version="1.1" id="Layer_1" xmlns="http://www.w3.org/2000/svg" xmlns:xlink="http://www.w3.org/1999/xlink" x="0px" y="0px"
	 width="32px" height="32px" viewBox="0 0 32 32" enable-background="new 0 0 32 32" xml:space="preserve">
<polygon fill="#635F4D" points="8.504,14.875 13.466,14.875 19.971,29.121 2.419,29.121 "/>
<path fill="#DD5936" d="M8.504,14.875c0,0-1.592,5.171,0.328,4.569c1.919-0.603,1.685-2.709,1.685-2.709s3.875,4.186,5.045,4.406
	c1.168,0.219-2.096-6.266-2.096-6.266H8.504z"/>
<ellipse fill="#635F4D" cx="7.319" cy="10.581" rx="1.004" ry="1.05"/>
<ellipse fill="#635F4D" cx="9.014" cy="12.812" rx="0.691" ry="0.723"/>
<ellipse fill="#635F4D" cx="11.605" cy="12.091" rx="0.691" ry="0.722"/>
<ellipse fill="#635F4D" cx="10.914" cy="7.492" rx="1.35" ry="1.411"/>
<ellipse fill="#635F4D" cx="14.266" cy="4.307" rx="1.97" ry="2.06"/>
<polygon fill="#4C5360" points="21.473,7.2 17.136,9.754 21.308,17.507 29.438,12.721 27.099,8.374 "/>
<polygon fill="#898780" points="19.481,19.271 17.838,22.392 23.946,25.91 27.027,20.059 23.603,18.088 "/>
<polygon fill="#A08675" points="30.275,26.247 27.345,28.362 25.503,25.573 28.435,23.458 "/>
</svg>
