<?xml version="1.0" encoding="utf-8"?>
<!-- Generator: Adobe Illustrator 16.0.0, SVG Export Plug-In . SVG Version: 6.00 Build 0)  -->
<!DOCTYPE svg PUBLIC "-//W3C//DTD SVG 1.1//EN" "http://www.w3.org/Graphics/SVG/1.1/DTD/svg11.dtd">
<svg version="1.1" id="Layer_1" xmlns="http://www.w3.org/2000/svg" xmlns:xlink="http://www.w3.org/1999/xlink" x="0px" y="0px"
	 width="32px" height="32px" viewBox="0 0 32 32" enable-background="new 0 0 32 32" xml:space="preserve">
<path fill="#848484" d="M20.334,4.484c0,0-3.23,0.244-3.571,1.839c-0.339,1.596-1.605,3.15-1.605,3.15s0.968,3.635,1.945,3.776
	s2.8,2.428,5.494,0.139c2.695-2.29,2.058-5.534,1.732-6.163C24.005,6.596,20.334,4.484,20.334,4.484z"/>
<path fill="#474646" d="M22.898,12.093c-2.696,2.291-4.52,0.003-5.496-0.137c-0.721-0.104-1.438-2.115-1.763-3.158
	c-0.271,0.411-0.482,0.676-0.482,0.676s0.968,3.635,1.945,3.776s2.8,2.428,5.494,0.139c1.379-1.172,1.88-2.589,2.001-3.783
	C24.307,10.453,23.8,11.326,22.898,12.093z"/>
<path fill="#B2B2B2" d="M24.245,11.204c0,0-1.277,1.698-0.639,2.553c0.637,0.858,0.857,2.153,0.857,2.153s2.209,1.095,2.702,0.674
	c0.49-0.419,2.405-0.328,2.442-2.644c0.037-2.317-1.838-3.404-2.285-3.519C26.872,10.311,24.245,11.204,24.245,11.204z"/>
<path fill="#DDDDDD" d="M24.753,12.229c0,0-0.988,1.31-0.493,1.97c0.495,0.663,0.667,1.663,0.667,1.663s1.713,0.847,2.095,0.522
	c0.379-0.323,1.864-0.251,1.891-2.039c0.026-1.789-1.428-2.629-1.775-2.718C26.789,11.541,24.753,12.229,24.753,12.229z"/>
<path fill="#8C8C8C" d="M20.113,15.141c0,0-0.972,1.565-0.392,2.265c0.581,0.701,0.84,1.81,0.84,1.81s1.904,0.793,2.292,0.395
	c0.386-0.399,1.989-0.46,1.888-2.477c-0.1-2.018-1.725-2.828-2.106-2.895C22.255,14.175,20.113,15.141,20.113,15.141z"/>
<path fill="#5E5E5E" d="M24.964,17.139c0,0-0.926,1.271-0.476,1.903c0.448,0.632,0.596,1.592,0.596,1.592s1.57,0.797,1.925,0.481
	c0.354-0.315,1.722-0.264,1.766-1.983c0.042-1.722-1.288-2.517-1.607-2.598C26.847,16.456,24.964,17.139,24.964,17.139z"/>
<path fill="#5E5E5E" d="M11.979,9.989c0,0-0.926,1.271-0.475,1.902c0.447,0.632,0.595,1.592,0.595,1.592s1.571,0.797,1.927,0.482
	c0.353-0.317,1.721-0.263,1.765-1.984c0.043-1.723-1.289-2.518-1.606-2.598C13.863,9.305,11.979,9.989,11.979,9.989z"/>
<path fill="#A3A9D6" d="M9.369,20.147c0,0-0.926,1.271-0.475,1.902c0.447,0.632,0.595,1.593,0.595,1.593s1.57,0.797,1.926,0.48
	c0.353-0.314,1.721-0.262,1.765-1.983c0.045-1.723-1.289-2.518-1.605-2.598C11.252,19.464,9.369,20.147,9.369,20.147z"/>
<path fill="#8C8C8C" d="M11.295,24.24c0,0-0.675,0.928-0.347,1.388c0.327,0.459,0.435,1.16,0.435,1.16s1.146,0.581,1.403,0.352
	c0.259-0.23,1.255-0.191,1.289-1.446c0.032-1.255-0.941-1.836-1.172-1.894C12.668,23.742,11.295,24.24,11.295,24.24z"/>
<path fill="#AFB1BA" d="M19.785,1.531c0,0-0.674,0.928-0.345,1.388c0.325,0.46,0.433,1.16,0.433,1.16s1.145,0.582,1.405,0.352
	c0.257-0.229,1.255-0.192,1.287-1.446c0.032-1.255-0.941-1.836-1.171-1.894C21.158,1.033,19.785,1.531,19.785,1.531z"/>
<path fill="#818C7C" d="M10.617,10.476c0,0-1.299-1.27-4.248,1.026c-2.949,2.295-4.773,7.362-2.286,7.89
	c2.045,2.175,5.07,0.776,5.07,0.776S14.255,18.544,10.617,10.476z"/>
<path fill="#666666" d="M9.028,10.22c2.033,6.382-2.201,7.753-2.201,7.753S4.817,18.9,2.967,18.066
	c0.087,0.709,0.435,1.229,1.138,1.376c2.045,2.175,5.07,0.777,5.07,0.777s5.102-1.624,1.464-9.692
	C10.639,10.527,10.132,10.03,9.028,10.22z"/>
<path fill="#818C7C" d="M22.502,22.188c0,0-0.067-1.453-3.05-1.719c-2.985-0.266-6.823,1.712-5.651,3.379
	c0.009,2.392,2.546,3.225,2.546,3.225S20.229,28.909,22.502,22.188z"/>
<path fill="#5E5E5E" d="M9.386,30.123c0,0,1.468-0.361,1.151-3.488c-0.317-3.123-3.091-6.675-4.562-5.134
	c-2.437,0.489-2.784,3.271-2.784,3.271S2.087,29.134,9.386,30.123z"/>
<path fill="#A0A0A0" d="M8.441,27.994c0,0,1-0.246,0.784-2.377c-0.216-2.128-2.106-4.548-3.108-3.498
	c-1.66,0.334-1.897,2.229-1.897,2.229S3.468,27.32,8.441,27.994z"/>
<path fill="#A3903E" d="M16.958,13.514c0,0-2.778-0.166-3.348,1.032c-0.575,1.197-1.922,2.261-1.922,2.261s0.167,2.925,0.966,3.143
	c0.799,0.216,1.931,2.189,4.621,0.712c2.688-1.478,2.729-4.062,2.568-4.582C19.681,15.556,16.958,13.514,16.958,13.514z"/>
<path fill="#706122" d="M17.009,13.614c0,0-0.365-0.02-0.852,0.009c0.819,0.645,2.017,1.633,2.122,1.975
	c0.16,0.521,0.119,3.104-2.568,4.583c-0.774,0.426-1.417,0.56-1.961,0.536c0.767,0.519,1.85,0.994,3.578,0.046
	c2.688-1.479,2.728-4.063,2.568-4.584C19.732,15.656,17.009,13.614,17.009,13.614z"/>
<ellipse transform="matrix(0.8154 -0.5789 0.5789 0.8154 -12.4969 8.6416)" fill="#E0E0E0" cx="7.301" cy="23.916" rx="0.475" ry="1.837"/>
<ellipse transform="matrix(0.8887 -0.4584 0.4584 0.8887 -5.2631 4.3197)" fill="#D1D1D1" cx="6.268" cy="13.003" rx="0.496" ry="0.188"/>
<path fill="#FCFCFC" d="M19.349,6.734c0,0,4.041-2.604,3.885,2.517C23.082,14.367,21.294,6.028,19.349,6.734z"/>
<path fill="#FCFCFC" d="M13.59,19.686c0,0-2.93-2.472,0.233-3.477C16.984,15.204,12.512,18.375,13.59,19.686z"/>
<path fill="#FCFCFC" d="M6.899,19.265c0,0-4.722,0.903-2.665-3.786C6.29,10.791,4.83,19.192,6.899,19.265z"/>
<ellipse fill="#FCFCFC" cx="20.957" cy="1.886" rx="0.873" ry="0.363"/>
<path fill="#D8D8D8" d="M16.826,21.866c0,0-1.346-0.02-1.422,0.732c-0.076,0.751-0.542,1.443-0.542,1.443s0.559,1.783,0.975,1.893
	c0.416,0.108,1.277,1.281,2.312,0.296c1.036-0.984,0.632-2.567,0.469-2.883C18.456,23.032,16.826,21.866,16.826,21.866z"/>
</svg>
