<?xml version="1.0" encoding="utf-8"?>
<!-- Generator: Adobe Illustrator 16.0.0, SVG Export Plug-In . SVG Version: 6.00 Build 0)  -->
<!DOCTYPE svg PUBLIC "-//W3C//DTD SVG 1.1//EN" "http://www.w3.org/Graphics/SVG/1.1/DTD/svg11.dtd">
<svg version="1.1" id="Layer_1" xmlns="http://www.w3.org/2000/svg" xmlns:xlink="http://www.w3.org/1999/xlink" x="0px" y="0px"
	 width="32px" height="32px" viewBox="0 0 32 32" enable-background="new 0 0 32 32" xml:space="preserve">
<path fill="#BC7D44" d="M15.665,7.64c0.013,1.269-1.623,2.316-3.652,2.335C9.985,9.993,8.328,8.979,8.317,7.711
	c-0.013-1.271,1.623-2.316,3.65-2.335C13.997,5.354,15.651,6.37,15.665,7.64z"/>
<path fill="#CE8E4E" d="M12.02,10.591c0,0-4.144,0.041-3.372,4.576c0.775,4.536,0.678,6.106,0.57,6.837
	c-0.103,0.731-0.564,2.587-0.564,2.587l3.5-0.034l3.5-0.035c0,0-0.496-1.845-0.615-2.573c-0.118-0.728-0.246-2.297,0.44-6.847
	C16.162,10.552,12.02,10.591,12.02,10.591z"/>
<rect x="8.504" y="25.478" transform="matrix(1 -0.01 0.01 1 -0.2669 0.1227)" fill="#BC7D44" width="7.348" height="2.715"/>
<circle fill="#CE8E4E" cx="11.925" cy="3.466" r="1.294"/>
<circle fill="#9D9FA5" cx="22.555" cy="26.586" r="1.183"/>
<circle fill="#9D9FA5" cx="23.429" cy="23.344" r="1.183"/>
<circle fill="#9D9FA5" cx="20.916" cy="21.223" r="1.183"/>
<circle fill="#9D9FA5" cx="19.733" cy="25.017" r="1.183"/>
<circle fill="#9D9FA5" cx="26.24" cy="25.359" r="1.183"/>
</svg>
